solid OpenSCAD_Model
  facet normal -0.743141 0.669135 3.72529e-18
    outer loop
      vertex -5.66312 4.1145 -3.5
      vertex -4.68391 5.20201 3.5
      vertex -4.68391 5.20201 -3.5
    endloop
  endfacet
  facet normal -0.743141 0.669135 3.72529e-18
    outer loop
      vertex -4.68391 5.20201 3.5
      vertex -5.66312 4.1145 -3.5
      vertex -5.66312 4.1145 3.5
    endloop
  endfacet
  facet normal 0.951058 0.309013 -1.83042e-18
    outer loop
      vertex 6.84703 1.45538 3.5
      vertex 6.39482 2.84716 -3.5
      vertex 6.39482 2.84716 3.5
    endloop
  endfacet
  facet normal 0.951058 0.309013 -1.83042e-18
    outer loop
      vertex 6.39482 2.84716 -3.5
      vertex 6.84703 1.45538 3.5
      vertex 6.84703 1.45538 -3.5
    endloop
  endfacet
  facet normal 0.994522 0.104531 1.80852e-19
    outer loop
      vertex 7 0 3.5
      vertex 6.84703 1.45538 -3.5
      vertex 6.84703 1.45538 3.5
    endloop
  endfacet
  facet normal 0.994522 0.104531 1.80852e-19
    outer loop
      vertex 6.84703 1.45538 -3.5
      vertex 7 0 3.5
      vertex 7 0 -3.5
    endloop
  endfacet
  facet normal 0.866025 0.5 -1.83665e-18
    outer loop
      vertex 6.39482 2.84716 3.5
      vertex 5.66312 4.1145 -3.5
      vertex 5.66312 4.1145 3.5
    endloop
  endfacet
  facet normal 0.866025 0.5 -1.83665e-18
    outer loop
      vertex 5.66312 4.1145 -3.5
      vertex 6.39482 2.84716 3.5
      vertex 6.39482 2.84716 -3.5
    endloop
  endfacet
  facet normal 0.951058 -0.309013 1.83042e-18
    outer loop
      vertex 6.39482 -2.84716 3.5
      vertex 6.84703 -1.45538 -3.5
      vertex 6.84703 -1.45538 3.5
    endloop
  endfacet
  facet normal 0.951058 -0.309013 1.83042e-18
    outer loop
      vertex 6.84703 -1.45538 -3.5
      vertex 6.39482 -2.84716 3.5
      vertex 6.39482 -2.84716 -3.5
    endloop
  endfacet
  facet normal -0.866025 -0.5 -1.83665e-18
    outer loop
      vertex -5.66312 -4.1145 -3.5
      vertex -6.39482 -2.84716 3.5
      vertex -6.39482 -2.84716 -3.5
    endloop
  endfacet
  facet normal -0.866025 -0.5 -1.83665e-18
    outer loop
      vertex -6.39482 -2.84716 3.5
      vertex -5.66312 -4.1145 -3.5
      vertex -5.66312 -4.1145 3.5
    endloop
  endfacet
  facet normal 0.994522 -0.104531 -1.80852e-19
    outer loop
      vertex 6.84703 -1.45538 3.5
      vertex 7 0 -3.5
      vertex 7 0 3.5
    endloop
  endfacet
  facet normal 0.994522 -0.104531 -1.80852e-19
    outer loop
      vertex 7 0 -3.5
      vertex 6.84703 -1.45538 3.5
      vertex 6.84703 -1.45538 -3.5
    endloop
  endfacet
  facet normal -0.587789 0.809014 0
    outer loop
      vertex -3.5 6.06218 -3.5
      vertex -4.68391 5.20201 3.5
      vertex -3.5 6.06218 3.5
    endloop
  endfacet
  facet normal -0.587789 0.809014 0
    outer loop
      vertex -4.68391 5.20201 3.5
      vertex -3.5 6.06218 -3.5
      vertex -4.68391 5.20201 -3.5
    endloop
  endfacet
  facet normal 0.743141 0.669135 -3.72529e-18
    outer loop
      vertex 5.66312 4.1145 3.5
      vertex 4.68391 5.20201 -3.5
      vertex 4.68391 5.20201 3.5
    endloop
  endfacet
  facet normal 0.743141 0.669135 -3.72529e-18
    outer loop
      vertex 4.68391 5.20201 -3.5
      vertex 5.66312 4.1145 3.5
      vertex 5.66312 4.1145 -3.5
    endloop
  endfacet
  facet normal 0.406738 0.913545 -0
    outer loop
      vertex 3.5 6.06218 -3.5
      vertex 2.16312 6.6574 3.5
      vertex 3.5 6.06218 3.5
    endloop
  endfacet
  facet normal 0.406738 0.913545 0
    outer loop
      vertex 2.16312 6.6574 3.5
      vertex 3.5 6.06218 -3.5
      vertex 2.16312 6.6574 -3.5
    endloop
  endfacet
  facet normal 0.743141 -0.669135 3.72529e-18
    outer loop
      vertex 4.68391 -5.20201 3.5
      vertex 5.66312 -4.1145 -3.5
      vertex 5.66312 -4.1145 3.5
    endloop
  endfacet
  facet normal 0.743141 -0.669135 3.72529e-18
    outer loop
      vertex 5.66312 -4.1145 -3.5
      vertex 4.68391 -5.20201 3.5
      vertex 4.68391 -5.20201 -3.5
    endloop
  endfacet
  facet normal -0.207907 -0.978149 0
    outer loop
      vertex -2.16312 -6.6574 -3.5
      vertex -0.731699 -6.96165 3.5
      vertex -2.16312 -6.6574 3.5
    endloop
  endfacet
  facet normal -0.207907 -0.978149 -0
    outer loop
      vertex -0.731699 -6.96165 3.5
      vertex -2.16312 -6.6574 -3.5
      vertex -0.731699 -6.96165 -3.5
    endloop
  endfacet
  facet normal 0.866025 -0.5 1.83665e-18
    outer loop
      vertex 5.66312 -4.1145 3.5
      vertex 6.39482 -2.84716 -3.5
      vertex 6.39482 -2.84716 3.5
    endloop
  endfacet
  facet normal 0.866025 -0.5 1.83665e-18
    outer loop
      vertex 6.39482 -2.84716 -3.5
      vertex 5.66312 -4.1145 3.5
      vertex 5.66312 -4.1145 -3.5
    endloop
  endfacet
  facet normal -0.406738 -0.913545 0
    outer loop
      vertex -3.5 -6.06218 -3.5
      vertex -2.16312 -6.6574 3.5
      vertex -3.5 -6.06218 3.5
    endloop
  endfacet
  facet normal -0.406738 -0.913545 -0
    outer loop
      vertex -2.16312 -6.6574 3.5
      vertex -3.5 -6.06218 -3.5
      vertex -2.16312 -6.6574 -3.5
    endloop
  endfacet
  facet normal -0.406738 0.913545 0
    outer loop
      vertex -2.16312 6.6574 -3.5
      vertex -3.5 6.06218 3.5
      vertex -2.16312 6.6574 3.5
    endloop
  endfacet
  facet normal -0.406738 0.913545 0
    outer loop
      vertex -3.5 6.06218 3.5
      vertex -2.16312 6.6574 -3.5
      vertex -3.5 6.06218 -3.5
    endloop
  endfacet
  facet normal -0.951058 0.309013 1.83042e-18
    outer loop
      vertex -6.84703 1.45538 -3.5
      vertex -6.39482 2.84716 3.5
      vertex -6.39482 2.84716 -3.5
    endloop
  endfacet
  facet normal -0.951058 0.309013 1.83042e-18
    outer loop
      vertex -6.39482 2.84716 3.5
      vertex -6.84703 1.45538 -3.5
      vertex -6.84703 1.45538 3.5
    endloop
  endfacet
  facet normal 0.207907 -0.978149 0
    outer loop
      vertex 0.731699 -6.96165 -3.5
      vertex 2.16312 -6.6574 3.5
      vertex 0.731699 -6.96165 3.5
    endloop
  endfacet
  facet normal 0.207907 -0.978149 0
    outer loop
      vertex 2.16312 -6.6574 3.5
      vertex 0.731699 -6.96165 -3.5
      vertex 2.16312 -6.6574 -3.5
    endloop
  endfacet
  facet normal 0.207907 0.978149 -0
    outer loop
      vertex 2.16312 6.6574 -3.5
      vertex 0.731699 6.96165 3.5
      vertex 2.16312 6.6574 3.5
    endloop
  endfacet
  facet normal 0.207907 0.978149 0
    outer loop
      vertex 0.731699 6.96165 3.5
      vertex 2.16312 6.6574 -3.5
      vertex 0.731699 6.96165 -3.5
    endloop
  endfacet
  facet normal 0.406738 -0.913545 0
    outer loop
      vertex 2.16312 -6.6574 -3.5
      vertex 3.5 -6.06218 3.5
      vertex 2.16312 -6.6574 3.5
    endloop
  endfacet
  facet normal 0.406738 -0.913545 0
    outer loop
      vertex 3.5 -6.06218 3.5
      vertex 2.16312 -6.6574 -3.5
      vertex 3.5 -6.06218 -3.5
    endloop
  endfacet
  facet normal -0.951058 -0.309013 -1.83042e-18
    outer loop
      vertex -6.39482 -2.84716 -3.5
      vertex -6.84703 -1.45538 3.5
      vertex -6.84703 -1.45538 -3.5
    endloop
  endfacet
  facet normal -0.951058 -0.309013 -1.83042e-18
    outer loop
      vertex -6.84703 -1.45538 3.5
      vertex -6.39482 -2.84716 -3.5
      vertex -6.39482 -2.84716 3.5
    endloop
  endfacet
  facet normal -0.994522 0.104531 -1.80852e-19
    outer loop
      vertex -7 0 -3.5
      vertex -6.84703 1.45538 3.5
      vertex -6.84703 1.45538 -3.5
    endloop
  endfacet
  facet normal -0.994522 0.104531 -1.80852e-19
    outer loop
      vertex -6.84703 1.45538 3.5
      vertex -7 0 -3.5
      vertex -7 0 3.5
    endloop
  endfacet
  facet normal -0.207907 0.978149 0
    outer loop
      vertex -0.731699 6.96165 -3.5
      vertex -2.16312 6.6574 3.5
      vertex -0.731699 6.96165 3.5
    endloop
  endfacet
  facet normal -0.207907 0.978149 0
    outer loop
      vertex -2.16312 6.6574 3.5
      vertex -0.731699 6.96165 -3.5
      vertex -2.16312 6.6574 -3.5
    endloop
  endfacet
  facet normal 0.587789 0.809014 -0
    outer loop
      vertex 4.68391 5.20201 -3.5
      vertex 3.5 6.06218 3.5
      vertex 4.68391 5.20201 3.5
    endloop
  endfacet
  facet normal 0.587789 0.809014 0
    outer loop
      vertex 3.5 6.06218 3.5
      vertex 4.68391 5.20201 -3.5
      vertex 3.5 6.06218 -3.5
    endloop
  endfacet
  facet normal 0 0 1
    outer loop
      vertex 3 0 3.5
      vertex 7 0 3.5
      vertex 6.84703 1.45538 3.5
    endloop
  endfacet
  facet normal 0 0 1
    outer loop
      vertex 2.93444 0.623734 3.5
      vertex 6.84703 1.45538 3.5
      vertex 6.39482 2.84716 3.5
    endloop
  endfacet
  facet normal 0 0 1
    outer loop
      vertex 7 0 3.5
      vertex 3 0 3.5
      vertex 6.84703 -1.45538 3.5
    endloop
  endfacet
  facet normal 0 0 1
    outer loop
      vertex 2.74064 1.22021 3.5
      vertex 6.39482 2.84716 3.5
      vertex 5.66312 4.1145 3.5
    endloop
  endfacet
  facet normal -0 0 1
    outer loop
      vertex 2.93444 -0.623734 3.5
      vertex 6.84703 -1.45538 3.5
      vertex 3 0 3.5
    endloop
  endfacet
  facet normal 0 0 1
    outer loop
      vertex 2.42705 1.76336 3.5
      vertex 5.66312 4.1145 3.5
      vertex 4.68391 5.20201 3.5
    endloop
  endfacet
  facet normal 0 0 1
    outer loop
      vertex 6.84703 -1.45538 3.5
      vertex 2.93444 -0.623734 3.5
      vertex 6.39482 -2.84716 3.5
    endloop
  endfacet
  facet normal 0 0 1
    outer loop
      vertex 2.00739 2.22943 3.5
      vertex 4.68391 5.20201 3.5
      vertex 3.5 6.06218 3.5
    endloop
  endfacet
  facet normal -0 0 1
    outer loop
      vertex 2.74064 -1.22021 3.5
      vertex 6.39482 -2.84716 3.5
      vertex 2.93444 -0.623734 3.5
    endloop
  endfacet
  facet normal 0 0 1
    outer loop
      vertex 6.39482 -2.84716 3.5
      vertex 2.74064 -1.22021 3.5
      vertex 5.66312 -4.1145 3.5
    endloop
  endfacet
  facet normal 0 0 1
    outer loop
      vertex 6.84703 1.45538 3.5
      vertex 2.93444 0.623734 3.5
      vertex 3 0 3.5
    endloop
  endfacet
  facet normal 0 0 1
    outer loop
      vertex 6.39482 2.84716 3.5
      vertex 2.74064 1.22021 3.5
      vertex 2.93444 0.623734 3.5
    endloop
  endfacet
  facet normal 0 0 1
    outer loop
      vertex 5.66312 4.1145 3.5
      vertex 2.42705 1.76336 3.5
      vertex 2.74064 1.22021 3.5
    endloop
  endfacet
  facet normal 0 0 1
    outer loop
      vertex 1.5 2.59808 3.5
      vertex 3.5 6.06218 3.5
      vertex 2.16312 6.6574 3.5
    endloop
  endfacet
  facet normal 0 0 1
    outer loop
      vertex 4.68391 5.20201 3.5
      vertex 2.00739 2.22943 3.5
      vertex 2.42705 1.76336 3.5
    endloop
  endfacet
  facet normal 0 0 1
    outer loop
      vertex 3.5 6.06218 3.5
      vertex 1.5 2.59808 3.5
      vertex 2.00739 2.22943 3.5
    endloop
  endfacet
  facet normal 0 0 1
    outer loop
      vertex 2.16312 6.6574 3.5
      vertex 0.927051 2.85317 3.5
      vertex 1.5 2.59808 3.5
    endloop
  endfacet
  facet normal 0 0 1
    outer loop
      vertex 0.731699 6.96165 3.5
      vertex 0.927051 2.85317 3.5
      vertex 2.16312 6.6574 3.5
    endloop
  endfacet
  facet normal 0 0 1
    outer loop
      vertex 0.731699 6.96165 3.5
      vertex 0.313585 2.98357 3.5
      vertex 0.927051 2.85317 3.5
    endloop
  endfacet
  facet normal 0 0 1
    outer loop
      vertex 0.731699 6.96165 3.5
      vertex -0.313585 2.98357 3.5
      vertex 0.313585 2.98357 3.5
    endloop
  endfacet
  facet normal -0 0 1
    outer loop
      vertex -0.731699 6.96165 3.5
      vertex -0.313585 2.98357 3.5
      vertex 0.731699 6.96165 3.5
    endloop
  endfacet
  facet normal 0 0 1
    outer loop
      vertex -0.731699 6.96165 3.5
      vertex -0.927051 2.85317 3.5
      vertex -0.313585 2.98357 3.5
    endloop
  endfacet
  facet normal -0 0 1
    outer loop
      vertex -2.16312 6.6574 3.5
      vertex -0.927051 2.85317 3.5
      vertex -0.731699 6.96165 3.5
    endloop
  endfacet
  facet normal 0 0 1
    outer loop
      vertex -0.927051 2.85317 3.5
      vertex -2.16312 6.6574 3.5
      vertex -1.5 2.59808 3.5
    endloop
  endfacet
  facet normal -0 0 1
    outer loop
      vertex -3.5 6.06218 3.5
      vertex -1.5 2.59808 3.5
      vertex -2.16312 6.6574 3.5
    endloop
  endfacet
  facet normal 0 0 1
    outer loop
      vertex -1.5 2.59808 3.5
      vertex -3.5 6.06218 3.5
      vertex -2.00739 2.22943 3.5
    endloop
  endfacet
  facet normal -0 0 1
    outer loop
      vertex -4.68391 5.20201 3.5
      vertex -2.00739 2.22943 3.5
      vertex -3.5 6.06218 3.5
    endloop
  endfacet
  facet normal 0 0 1
    outer loop
      vertex -2.00739 2.22943 3.5
      vertex -4.68391 5.20201 3.5
      vertex -2.42705 1.76336 3.5
    endloop
  endfacet
  facet normal 0 0 1
    outer loop
      vertex -2.42705 1.76336 3.5
      vertex -5.66312 4.1145 3.5
      vertex -2.74064 1.22021 3.5
    endloop
  endfacet
  facet normal -0 0 1
    outer loop
      vertex -5.66312 4.1145 3.5
      vertex -2.42705 1.76336 3.5
      vertex -4.68391 5.20201 3.5
    endloop
  endfacet
  facet normal -0 0 1
    outer loop
      vertex 2.42705 -1.76336 3.5
      vertex 5.66312 -4.1145 3.5
      vertex 2.74064 -1.22021 3.5
    endloop
  endfacet
  facet normal 0 0 1
    outer loop
      vertex 5.66312 -4.1145 3.5
      vertex 2.42705 -1.76336 3.5
      vertex 4.68391 -5.20201 3.5
    endloop
  endfacet
  facet normal -0 0 1
    outer loop
      vertex 2.00739 -2.22943 3.5
      vertex 4.68391 -5.20201 3.5
      vertex 2.42705 -1.76336 3.5
    endloop
  endfacet
  facet normal 0 0 1
    outer loop
      vertex 4.68391 -5.20201 3.5
      vertex 2.00739 -2.22943 3.5
      vertex 3.5 -6.06218 3.5
    endloop
  endfacet
  facet normal -0 0 1
    outer loop
      vertex 1.5 -2.59808 3.5
      vertex 3.5 -6.06218 3.5
      vertex 2.00739 -2.22943 3.5
    endloop
  endfacet
  facet normal 0 0 1
    outer loop
      vertex 3.5 -6.06218 3.5
      vertex 1.5 -2.59808 3.5
      vertex 2.16312 -6.6574 3.5
    endloop
  endfacet
  facet normal -0 0 1
    outer loop
      vertex 0.927051 -2.85317 3.5
      vertex 2.16312 -6.6574 3.5
      vertex 1.5 -2.59808 3.5
    endloop
  endfacet
  facet normal 0 0 1
    outer loop
      vertex 0.927051 -2.85317 3.5
      vertex 0.731699 -6.96165 3.5
      vertex 2.16312 -6.6574 3.5
    endloop
  endfacet
  facet normal -0 0 1
    outer loop
      vertex 0.313585 -2.98357 3.5
      vertex 0.731699 -6.96165 3.5
      vertex 0.927051 -2.85317 3.5
    endloop
  endfacet
  facet normal -0 0 1
    outer loop
      vertex -0.313585 -2.98357 3.5
      vertex 0.731699 -6.96165 3.5
      vertex 0.313585 -2.98357 3.5
    endloop
  endfacet
  facet normal 0 0 1
    outer loop
      vertex -0.313585 -2.98357 3.5
      vertex -0.731699 -6.96165 3.5
      vertex 0.731699 -6.96165 3.5
    endloop
  endfacet
  facet normal 0 0 1
    outer loop
      vertex -0.927051 -2.85317 3.5
      vertex -0.731699 -6.96165 3.5
      vertex -0.313585 -2.98357 3.5
    endloop
  endfacet
  facet normal 0 0 1
    outer loop
      vertex -2.16312 -6.6574 3.5
      vertex -0.927051 -2.85317 3.5
      vertex -1.5 -2.59808 3.5
    endloop
  endfacet
  facet normal 0 0 1
    outer loop
      vertex -3.5 -6.06218 3.5
      vertex -1.5 -2.59808 3.5
      vertex -2.00739 -2.22943 3.5
    endloop
  endfacet
  facet normal 0 0 1
    outer loop
      vertex -0.927051 -2.85317 3.5
      vertex -2.16312 -6.6574 3.5
      vertex -0.731699 -6.96165 3.5
    endloop
  endfacet
  facet normal 0 0 1
    outer loop
      vertex -4.68391 -5.20201 3.5
      vertex -2.00739 -2.22943 3.5
      vertex -2.42705 -1.76336 3.5
    endloop
  endfacet
  facet normal 0 0 1
    outer loop
      vertex -5.66312 -4.1145 3.5
      vertex -2.42705 -1.76336 3.5
      vertex -2.74064 -1.22021 3.5
    endloop
  endfacet
  facet normal 0 0 1
    outer loop
      vertex -6.39482 -2.84716 3.5
      vertex -2.74064 -1.22021 3.5
      vertex -2.93444 -0.623734 3.5
    endloop
  endfacet
  facet normal 0 0 1
    outer loop
      vertex -1.5 -2.59808 3.5
      vertex -3.5 -6.06218 3.5
      vertex -2.16312 -6.6574 3.5
    endloop
  endfacet
  facet normal 0 0 1
    outer loop
      vertex -6.84703 -1.45538 3.5
      vertex -2.93444 -0.623734 3.5
      vertex -3 0 3.5
    endloop
  endfacet
  facet normal -0 0 1
    outer loop
      vertex -6.39482 2.84716 3.5
      vertex -2.74064 1.22021 3.5
      vertex -5.66312 4.1145 3.5
    endloop
  endfacet
  facet normal 0 0 1
    outer loop
      vertex -2.74064 1.22021 3.5
      vertex -6.39482 2.84716 3.5
      vertex -2.93444 0.623734 3.5
    endloop
  endfacet
  facet normal 0 0 1
    outer loop
      vertex -2.00739 -2.22943 3.5
      vertex -4.68391 -5.20201 3.5
      vertex -3.5 -6.06218 3.5
    endloop
  endfacet
  facet normal -0 0 1
    outer loop
      vertex -6.84703 1.45538 3.5
      vertex -2.93444 0.623734 3.5
      vertex -6.39482 2.84716 3.5
    endloop
  endfacet
  facet normal 0 0 1
    outer loop
      vertex -2.42705 -1.76336 3.5
      vertex -5.66312 -4.1145 3.5
      vertex -4.68391 -5.20201 3.5
    endloop
  endfacet
  facet normal 0 0 1
    outer loop
      vertex -2.93444 0.623734 3.5
      vertex -6.84703 1.45538 3.5
      vertex -3 0 3.5
    endloop
  endfacet
  facet normal 0 0 1
    outer loop
      vertex -2.74064 -1.22021 3.5
      vertex -6.39482 -2.84716 3.5
      vertex -5.66312 -4.1145 3.5
    endloop
  endfacet
  facet normal 0 0 1
    outer loop
      vertex -7 0 3.5
      vertex -3 0 3.5
      vertex -6.84703 1.45538 3.5
    endloop
  endfacet
  facet normal 0 0 1
    outer loop
      vertex -2.93444 -0.623734 3.5
      vertex -6.84703 -1.45538 3.5
      vertex -6.39482 -2.84716 3.5
    endloop
  endfacet
  facet normal 0 0 1
    outer loop
      vertex -3 0 3.5
      vertex -7 0 3.5
      vertex -6.84703 -1.45538 3.5
    endloop
  endfacet
  facet normal 0.587789 -0.809014 0
    outer loop
      vertex 3.5 -6.06218 -3.5
      vertex 4.68391 -5.20201 3.5
      vertex 3.5 -6.06218 3.5
    endloop
  endfacet
  facet normal 0.587789 -0.809014 0
    outer loop
      vertex 4.68391 -5.20201 3.5
      vertex 3.5 -6.06218 -3.5
      vertex 4.68391 -5.20201 -3.5
    endloop
  endfacet
  facet normal -0.994522 -0.104531 1.80852e-19
    outer loop
      vertex -6.84703 -1.45538 -3.5
      vertex -7 0 3.5
      vertex -7 0 -3.5
    endloop
  endfacet
  facet normal -0.994522 -0.104531 1.80852e-19
    outer loop
      vertex -7 0 3.5
      vertex -6.84703 -1.45538 -3.5
      vertex -6.84703 -1.45538 3.5
    endloop
  endfacet
  facet normal 0 -1 0
    outer loop
      vertex -0.731699 -6.96165 -3.5
      vertex 0.731699 -6.96165 3.5
      vertex -0.731699 -6.96165 3.5
    endloop
  endfacet
  facet normal 0 -1 -0
    outer loop
      vertex 0.731699 -6.96165 3.5
      vertex -0.731699 -6.96165 -3.5
      vertex 0.731699 -6.96165 -3.5
    endloop
  endfacet
  facet normal 0 0 -1
    outer loop
      vertex 3 0 -3.5
      vertex 7 0 -3.5
      vertex 6.84703 -1.45538 -3.5
    endloop
  endfacet
  facet normal 0 0 -1
    outer loop
      vertex 2.93444 -0.623734 -3.5
      vertex 6.84703 -1.45538 -3.5
      vertex 6.39482 -2.84716 -3.5
    endloop
  endfacet
  facet normal 0 0 -1
    outer loop
      vertex 7 0 -3.5
      vertex 3 0 -3.5
      vertex 6.84703 1.45538 -3.5
    endloop
  endfacet
  facet normal 0 0 -1
    outer loop
      vertex 2.74064 -1.22021 -3.5
      vertex 6.39482 -2.84716 -3.5
      vertex 5.66312 -4.1145 -3.5
    endloop
  endfacet
  facet normal 0 0 -1
    outer loop
      vertex 2.93444 0.623734 -3.5
      vertex 6.84703 1.45538 -3.5
      vertex 3 0 -3.5
    endloop
  endfacet
  facet normal 0 0 -1
    outer loop
      vertex 2.42705 -1.76336 -3.5
      vertex 5.66312 -4.1145 -3.5
      vertex 4.68391 -5.20201 -3.5
    endloop
  endfacet
  facet normal -0 0 -1
    outer loop
      vertex 6.84703 1.45538 -3.5
      vertex 2.93444 0.623734 -3.5
      vertex 6.39482 2.84716 -3.5
    endloop
  endfacet
  facet normal 0 0 -1
    outer loop
      vertex 2.00739 -2.22943 -3.5
      vertex 4.68391 -5.20201 -3.5
      vertex 3.5 -6.06218 -3.5
    endloop
  endfacet
  facet normal 0 0 -1
    outer loop
      vertex 2.74064 1.22021 -3.5
      vertex 6.39482 2.84716 -3.5
      vertex 2.93444 0.623734 -3.5
    endloop
  endfacet
  facet normal -0 0 -1
    outer loop
      vertex 6.39482 2.84716 -3.5
      vertex 2.74064 1.22021 -3.5
      vertex 5.66312 4.1145 -3.5
    endloop
  endfacet
  facet normal 0 0 -1
    outer loop
      vertex 6.84703 -1.45538 -3.5
      vertex 2.93444 -0.623734 -3.5
      vertex 3 0 -3.5
    endloop
  endfacet
  facet normal 0 0 -1
    outer loop
      vertex 6.39482 -2.84716 -3.5
      vertex 2.74064 -1.22021 -3.5
      vertex 2.93444 -0.623734 -3.5
    endloop
  endfacet
  facet normal 0 0 -1
    outer loop
      vertex 5.66312 -4.1145 -3.5
      vertex 2.42705 -1.76336 -3.5
      vertex 2.74064 -1.22021 -3.5
    endloop
  endfacet
  facet normal 0 0 -1
    outer loop
      vertex 1.5 -2.59808 -3.5
      vertex 3.5 -6.06218 -3.5
      vertex 2.16312 -6.6574 -3.5
    endloop
  endfacet
  facet normal 0 0 -1
    outer loop
      vertex 4.68391 -5.20201 -3.5
      vertex 2.00739 -2.22943 -3.5
      vertex 2.42705 -1.76336 -3.5
    endloop
  endfacet
  facet normal 0 0 -1
    outer loop
      vertex 3.5 -6.06218 -3.5
      vertex 1.5 -2.59808 -3.5
      vertex 2.00739 -2.22943 -3.5
    endloop
  endfacet
  facet normal 0 0 -1
    outer loop
      vertex 2.16312 -6.6574 -3.5
      vertex 0.927051 -2.85317 -3.5
      vertex 1.5 -2.59808 -3.5
    endloop
  endfacet
  facet normal 0 0 -1
    outer loop
      vertex 0.731699 -6.96165 -3.5
      vertex 0.927051 -2.85317 -3.5
      vertex 2.16312 -6.6574 -3.5
    endloop
  endfacet
  facet normal 0 0 -1
    outer loop
      vertex 0.731699 -6.96165 -3.5
      vertex 0.313585 -2.98357 -3.5
      vertex 0.927051 -2.85317 -3.5
    endloop
  endfacet
  facet normal 0 0 -1
    outer loop
      vertex 0.731699 -6.96165 -3.5
      vertex -0.313585 -2.98357 -3.5
      vertex 0.313585 -2.98357 -3.5
    endloop
  endfacet
  facet normal 0 0 -1
    outer loop
      vertex -0.731699 -6.96165 -3.5
      vertex -0.313585 -2.98357 -3.5
      vertex 0.731699 -6.96165 -3.5
    endloop
  endfacet
  facet normal 0 0 -1
    outer loop
      vertex -0.731699 -6.96165 -3.5
      vertex -0.927051 -2.85317 -3.5
      vertex -0.313585 -2.98357 -3.5
    endloop
  endfacet
  facet normal 0 0 -1
    outer loop
      vertex -2.16312 -6.6574 -3.5
      vertex -0.927051 -2.85317 -3.5
      vertex -0.731699 -6.96165 -3.5
    endloop
  endfacet
  facet normal -0 0 -1
    outer loop
      vertex -0.927051 -2.85317 -3.5
      vertex -2.16312 -6.6574 -3.5
      vertex -1.5 -2.59808 -3.5
    endloop
  endfacet
  facet normal 0 0 -1
    outer loop
      vertex -3.5 -6.06218 -3.5
      vertex -1.5 -2.59808 -3.5
      vertex -2.16312 -6.6574 -3.5
    endloop
  endfacet
  facet normal -0 0 -1
    outer loop
      vertex -1.5 -2.59808 -3.5
      vertex -3.5 -6.06218 -3.5
      vertex -2.00739 -2.22943 -3.5
    endloop
  endfacet
  facet normal 0 0 -1
    outer loop
      vertex -4.68391 -5.20201 -3.5
      vertex -2.00739 -2.22943 -3.5
      vertex -3.5 -6.06218 -3.5
    endloop
  endfacet
  facet normal -0 0 -1
    outer loop
      vertex -2.00739 -2.22943 -3.5
      vertex -4.68391 -5.20201 -3.5
      vertex -2.42705 -1.76336 -3.5
    endloop
  endfacet
  facet normal -0 0 -1
    outer loop
      vertex -2.42705 -1.76336 -3.5
      vertex -5.66312 -4.1145 -3.5
      vertex -2.74064 -1.22021 -3.5
    endloop
  endfacet
  facet normal 0 0 -1
    outer loop
      vertex -5.66312 -4.1145 -3.5
      vertex -2.42705 -1.76336 -3.5
      vertex -4.68391 -5.20201 -3.5
    endloop
  endfacet
  facet normal 0 0 -1
    outer loop
      vertex 2.42705 1.76336 -3.5
      vertex 5.66312 4.1145 -3.5
      vertex 2.74064 1.22021 -3.5
    endloop
  endfacet
  facet normal -0 0 -1
    outer loop
      vertex 5.66312 4.1145 -3.5
      vertex 2.42705 1.76336 -3.5
      vertex 4.68391 5.20201 -3.5
    endloop
  endfacet
  facet normal 0 0 -1
    outer loop
      vertex 2.00739 2.22943 -3.5
      vertex 4.68391 5.20201 -3.5
      vertex 2.42705 1.76336 -3.5
    endloop
  endfacet
  facet normal -0 0 -1
    outer loop
      vertex 4.68391 5.20201 -3.5
      vertex 2.00739 2.22943 -3.5
      vertex 3.5 6.06218 -3.5
    endloop
  endfacet
  facet normal 0 0 -1
    outer loop
      vertex 1.5 2.59808 -3.5
      vertex 3.5 6.06218 -3.5
      vertex 2.00739 2.22943 -3.5
    endloop
  endfacet
  facet normal -0 0 -1
    outer loop
      vertex 3.5 6.06218 -3.5
      vertex 1.5 2.59808 -3.5
      vertex 2.16312 6.6574 -3.5
    endloop
  endfacet
  facet normal 0 0 -1
    outer loop
      vertex 0.927051 2.85317 -3.5
      vertex 2.16312 6.6574 -3.5
      vertex 1.5 2.59808 -3.5
    endloop
  endfacet
  facet normal 0 0 -1
    outer loop
      vertex 0.927051 2.85317 -3.5
      vertex 0.731699 6.96165 -3.5
      vertex 2.16312 6.6574 -3.5
    endloop
  endfacet
  facet normal 0 0 -1
    outer loop
      vertex 0.313585 2.98357 -3.5
      vertex 0.731699 6.96165 -3.5
      vertex 0.927051 2.85317 -3.5
    endloop
  endfacet
  facet normal 0 0 -1
    outer loop
      vertex -0.313585 2.98357 -3.5
      vertex 0.731699 6.96165 -3.5
      vertex 0.313585 2.98357 -3.5
    endloop
  endfacet
  facet normal 0 0 -1
    outer loop
      vertex -0.313585 2.98357 -3.5
      vertex -0.731699 6.96165 -3.5
      vertex 0.731699 6.96165 -3.5
    endloop
  endfacet
  facet normal 0 0 -1
    outer loop
      vertex -0.927051 2.85317 -3.5
      vertex -0.731699 6.96165 -3.5
      vertex -0.313585 2.98357 -3.5
    endloop
  endfacet
  facet normal 0 0 -1
    outer loop
      vertex -2.16312 6.6574 -3.5
      vertex -0.927051 2.85317 -3.5
      vertex -1.5 2.59808 -3.5
    endloop
  endfacet
  facet normal 0 0 -1
    outer loop
      vertex -3.5 6.06218 -3.5
      vertex -1.5 2.59808 -3.5
      vertex -2.00739 2.22943 -3.5
    endloop
  endfacet
  facet normal 0 0 -1
    outer loop
      vertex -0.927051 2.85317 -3.5
      vertex -2.16312 6.6574 -3.5
      vertex -0.731699 6.96165 -3.5
    endloop
  endfacet
  facet normal 0 0 -1
    outer loop
      vertex -4.68391 5.20201 -3.5
      vertex -2.00739 2.22943 -3.5
      vertex -2.42705 1.76336 -3.5
    endloop
  endfacet
  facet normal 0 0 -1
    outer loop
      vertex -5.66312 4.1145 -3.5
      vertex -2.42705 1.76336 -3.5
      vertex -2.74064 1.22021 -3.5
    endloop
  endfacet
  facet normal 0 0 -1
    outer loop
      vertex -6.39482 2.84716 -3.5
      vertex -2.74064 1.22021 -3.5
      vertex -2.93444 0.623734 -3.5
    endloop
  endfacet
  facet normal 0 0 -1
    outer loop
      vertex -1.5 2.59808 -3.5
      vertex -3.5 6.06218 -3.5
      vertex -2.16312 6.6574 -3.5
    endloop
  endfacet
  facet normal 0 0 -1
    outer loop
      vertex -6.84703 1.45538 -3.5
      vertex -2.93444 0.623734 -3.5
      vertex -3 0 -3.5
    endloop
  endfacet
  facet normal 0 0 -1
    outer loop
      vertex -6.39482 -2.84716 -3.5
      vertex -2.74064 -1.22021 -3.5
      vertex -5.66312 -4.1145 -3.5
    endloop
  endfacet
  facet normal -0 0 -1
    outer loop
      vertex -2.74064 -1.22021 -3.5
      vertex -6.39482 -2.84716 -3.5
      vertex -2.93444 -0.623734 -3.5
    endloop
  endfacet
  facet normal 0 0 -1
    outer loop
      vertex -2.00739 2.22943 -3.5
      vertex -4.68391 5.20201 -3.5
      vertex -3.5 6.06218 -3.5
    endloop
  endfacet
  facet normal 0 0 -1
    outer loop
      vertex -6.84703 -1.45538 -3.5
      vertex -2.93444 -0.623734 -3.5
      vertex -6.39482 -2.84716 -3.5
    endloop
  endfacet
  facet normal 0 0 -1
    outer loop
      vertex -2.42705 1.76336 -3.5
      vertex -5.66312 4.1145 -3.5
      vertex -4.68391 5.20201 -3.5
    endloop
  endfacet
  facet normal -0 0 -1
    outer loop
      vertex -2.93444 -0.623734 -3.5
      vertex -6.84703 -1.45538 -3.5
      vertex -3 0 -3.5
    endloop
  endfacet
  facet normal 0 0 -1
    outer loop
      vertex -2.74064 1.22021 -3.5
      vertex -6.39482 2.84716 -3.5
      vertex -5.66312 4.1145 -3.5
    endloop
  endfacet
  facet normal 0 0 -1
    outer loop
      vertex -7 0 -3.5
      vertex -3 0 -3.5
      vertex -6.84703 -1.45538 -3.5
    endloop
  endfacet
  facet normal 0 0 -1
    outer loop
      vertex -2.93444 0.623734 -3.5
      vertex -6.84703 1.45538 -3.5
      vertex -6.39482 2.84716 -3.5
    endloop
  endfacet
  facet normal 0 0 -1
    outer loop
      vertex -3 0 -3.5
      vertex -7 0 -3.5
      vertex -6.84703 1.45538 -3.5
    endloop
  endfacet
  facet normal 0 1 -0
    outer loop
      vertex 0.731699 6.96165 -3.5
      vertex -0.731699 6.96165 3.5
      vertex 0.731699 6.96165 3.5
    endloop
  endfacet
  facet normal 0 1 0
    outer loop
      vertex -0.731699 6.96165 3.5
      vertex 0.731699 6.96165 -3.5
      vertex -0.731699 6.96165 -3.5
    endloop
  endfacet
  facet normal -0.743141 -0.669135 -3.72529e-18
    outer loop
      vertex -4.68391 -5.20201 -3.5
      vertex -5.66312 -4.1145 3.5
      vertex -5.66312 -4.1145 -3.5
    endloop
  endfacet
  facet normal -0.743141 -0.669135 -3.72529e-18
    outer loop
      vertex -5.66312 -4.1145 3.5
      vertex -4.68391 -5.20201 -3.5
      vertex -4.68391 -5.20201 3.5
    endloop
  endfacet
  facet normal -0.587789 -0.809014 0
    outer loop
      vertex -4.68391 -5.20201 -3.5
      vertex -3.5 -6.06218 3.5
      vertex -4.68391 -5.20201 3.5
    endloop
  endfacet
  facet normal -0.587789 -0.809014 -0
    outer loop
      vertex -3.5 -6.06218 3.5
      vertex -4.68391 -5.20201 -3.5
      vertex -3.5 -6.06218 -3.5
    endloop
  endfacet
  facet normal -0.866025 0.5 1.83665e-18
    outer loop
      vertex -6.39482 2.84716 -3.5
      vertex -5.66312 4.1145 3.5
      vertex -5.66312 4.1145 -3.5
    endloop
  endfacet
  facet normal -0.866025 0.5 1.83665e-18
    outer loop
      vertex -5.66312 4.1145 3.5
      vertex -6.39482 2.84716 -3.5
      vertex -6.39482 2.84716 3.5
    endloop
  endfacet
  facet normal 0.406732 0.913547 -0
    outer loop
      vertex -0.927051 -2.85317 -3.5
      vertex -1.5 -2.59808 3.5
      vertex -0.927051 -2.85317 3.5
    endloop
  endfacet
  facet normal 0.406732 0.913547 0
    outer loop
      vertex -1.5 -2.59808 3.5
      vertex -0.927051 -2.85317 -3.5
      vertex -1.5 -2.59808 -3.5
    endloop
  endfacet
  facet normal -0.95106 -0.309007 1.37774e-18
    outer loop
      vertex 2.93444 0.623734 -3.5
      vertex 2.74064 1.22021 3.5
      vertex 2.74064 1.22021 -3.5
    endloop
  endfacet
  facet normal -0.95106 -0.309007 1.37774e-18
    outer loop
      vertex 2.74064 1.22021 3.5
      vertex 2.93444 0.623734 -3.5
      vertex 2.93444 0.623734 3.5
    endloop
  endfacet
  facet normal -0.994521 -0.104533 5.5217e-19
    outer loop
      vertex 3 0 -3.5
      vertex 2.93444 0.623734 3.5
      vertex 2.93444 0.623734 -3.5
    endloop
  endfacet
  facet normal -0.994521 -0.104533 5.5217e-19
    outer loop
      vertex 2.93444 0.623734 3.5
      vertex 3 0 -3.5
      vertex 3 0 3.5
    endloop
  endfacet
  facet normal -0.866024 -0.500003 1.48502e-20
    outer loop
      vertex 2.74064 1.22021 -3.5
      vertex 2.42705 1.76336 3.5
      vertex 2.42705 1.76336 -3.5
    endloop
  endfacet
  facet normal -0.866024 -0.500003 1.48502e-20
    outer loop
      vertex 2.42705 1.76336 3.5
      vertex 2.74064 1.22021 -3.5
      vertex 2.74064 1.22021 3.5
    endloop
  endfacet
  facet normal 0.743138 0.669138 1.57795e-18
    outer loop
      vertex -2.00739 -2.22943 3.5
      vertex -2.42705 -1.76336 -3.5
      vertex -2.42705 -1.76336 3.5
    endloop
  endfacet
  facet normal 0.743138 0.669138 1.57795e-18
    outer loop
      vertex -2.42705 -1.76336 -3.5
      vertex -2.00739 -2.22943 3.5
      vertex -2.00739 -2.22943 -3.5
    endloop
  endfacet
  facet normal -0.994521 0.104533 -5.5217e-19
    outer loop
      vertex 2.93444 -0.623734 -3.5
      vertex 3 0 3.5
      vertex 3 0 -3.5
    endloop
  endfacet
  facet normal -0.994521 0.104533 -5.5217e-19
    outer loop
      vertex 3 0 3.5
      vertex 2.93444 -0.623734 -3.5
      vertex 2.93444 -0.623734 3.5
    endloop
  endfacet
  facet normal -0.866024 0.500003 -1.48502e-20
    outer loop
      vertex 2.42705 -1.76336 -3.5
      vertex 2.74064 -1.22021 3.5
      vertex 2.74064 -1.22021 -3.5
    endloop
  endfacet
  facet normal -0.866024 0.500003 -1.48502e-20
    outer loop
      vertex 2.74064 -1.22021 3.5
      vertex 2.42705 -1.76336 -3.5
      vertex 2.42705 -1.76336 3.5
    endloop
  endfacet
  facet normal -0.406732 -0.913547 0
    outer loop
      vertex 0.927051 2.85317 -3.5
      vertex 1.5 2.59808 3.5
      vertex 0.927051 2.85317 3.5
    endloop
  endfacet
  facet normal -0.406732 -0.913547 -0
    outer loop
      vertex 1.5 2.59808 3.5
      vertex 0.927051 2.85317 -3.5
      vertex 1.5 2.59808 -3.5
    endloop
  endfacet
  facet normal 0.95106 0.309007 1.37774e-18
    outer loop
      vertex -2.74064 -1.22021 3.5
      vertex -2.93444 -0.623734 -3.5
      vertex -2.93444 -0.623734 3.5
    endloop
  endfacet
  facet normal 0.95106 0.309007 1.37774e-18
    outer loop
      vertex -2.93444 -0.623734 -3.5
      vertex -2.74064 -1.22021 3.5
      vertex -2.74064 -1.22021 -3.5
    endloop
  endfacet
  facet normal 0.587795 -0.80901 0
    outer loop
      vertex -2.00739 2.22943 -3.5
      vertex -1.5 2.59808 3.5
      vertex -2.00739 2.22943 3.5
    endloop
  endfacet
  facet normal 0.587795 -0.80901 0
    outer loop
      vertex -1.5 2.59808 3.5
      vertex -2.00739 2.22943 -3.5
      vertex -1.5 2.59808 -3.5
    endloop
  endfacet
  facet normal -0.587795 -0.80901 0
    outer loop
      vertex 1.5 2.59808 -3.5
      vertex 2.00739 2.22943 3.5
      vertex 1.5 2.59808 3.5
    endloop
  endfacet
  facet normal -0.587795 -0.80901 -0
    outer loop
      vertex 2.00739 2.22943 3.5
      vertex 1.5 2.59808 -3.5
      vertex 2.00739 2.22943 -3.5
    endloop
  endfacet
  facet normal 0.994521 -0.104533 -5.5217e-19
    outer loop
      vertex -3 0 3.5
      vertex -2.93444 0.623734 -3.5
      vertex -2.93444 0.623734 3.5
    endloop
  endfacet
  facet normal 0.994521 -0.104533 -5.5217e-19
    outer loop
      vertex -2.93444 0.623734 -3.5
      vertex -3 0 3.5
      vertex -3 0 -3.5
    endloop
  endfacet
  facet normal -0.207917 0.978146 0
    outer loop
      vertex 0.927051 -2.85317 -3.5
      vertex 0.313585 -2.98357 3.5
      vertex 0.927051 -2.85317 3.5
    endloop
  endfacet
  facet normal -0.207917 0.978146 0
    outer loop
      vertex 0.313585 -2.98357 3.5
      vertex 0.927051 -2.85317 -3.5
      vertex 0.313585 -2.98357 -3.5
    endloop
  endfacet
  facet normal 0.994521 0.104533 5.5217e-19
    outer loop
      vertex -2.93444 -0.623734 3.5
      vertex -3 0 -3.5
      vertex -3 0 3.5
    endloop
  endfacet
  facet normal 0.994521 0.104533 5.5217e-19
    outer loop
      vertex -3 0 -3.5
      vertex -2.93444 -0.623734 3.5
      vertex -2.93444 -0.623734 -3.5
    endloop
  endfacet
  facet normal -0.743138 0.669138 -1.57795e-18
    outer loop
      vertex 2.00739 -2.22943 -3.5
      vertex 2.42705 -1.76336 3.5
      vertex 2.42705 -1.76336 -3.5
    endloop
  endfacet
  facet normal -0.743138 0.669138 -1.57795e-18
    outer loop
      vertex 2.42705 -1.76336 3.5
      vertex 2.00739 -2.22943 -3.5
      vertex 2.00739 -2.22943 3.5
    endloop
  endfacet
  facet normal 0.95106 -0.309007 -1.37774e-18
    outer loop
      vertex -2.93444 0.623734 3.5
      vertex -2.74064 1.22021 -3.5
      vertex -2.74064 1.22021 3.5
    endloop
  endfacet
  facet normal 0.95106 -0.309007 -1.37774e-18
    outer loop
      vertex -2.74064 1.22021 -3.5
      vertex -2.93444 0.623734 3.5
      vertex -2.93444 0.623734 -3.5
    endloop
  endfacet
  facet normal 0.207917 -0.978146 0
    outer loop
      vertex -0.927051 2.85317 -3.5
      vertex -0.313585 2.98357 3.5
      vertex -0.927051 2.85317 3.5
    endloop
  endfacet
  facet normal 0.207917 -0.978146 0
    outer loop
      vertex -0.313585 2.98357 3.5
      vertex -0.927051 2.85317 -3.5
      vertex -0.313585 2.98357 -3.5
    endloop
  endfacet
  facet normal -0.207917 -0.978146 0
    outer loop
      vertex 0.313585 2.98357 -3.5
      vertex 0.927051 2.85317 3.5
      vertex 0.313585 2.98357 3.5
    endloop
  endfacet
  facet normal -0.207917 -0.978146 -0
    outer loop
      vertex 0.927051 2.85317 3.5
      vertex 0.313585 2.98357 -3.5
      vertex 0.927051 2.85317 -3.5
    endloop
  endfacet
  facet normal 0.406732 -0.913547 0
    outer loop
      vertex -1.5 2.59808 -3.5
      vertex -0.927051 2.85317 3.5
      vertex -1.5 2.59808 3.5
    endloop
  endfacet
  facet normal 0.406732 -0.913547 0
    outer loop
      vertex -0.927051 2.85317 3.5
      vertex -1.5 2.59808 -3.5
      vertex -0.927051 2.85317 -3.5
    endloop
  endfacet
  facet normal -0.406732 0.913547 0
    outer loop
      vertex 1.5 -2.59808 -3.5
      vertex 0.927051 -2.85317 3.5
      vertex 1.5 -2.59808 3.5
    endloop
  endfacet
  facet normal -0.406732 0.913547 0
    outer loop
      vertex 0.927051 -2.85317 3.5
      vertex 1.5 -2.59808 -3.5
      vertex 0.927051 -2.85317 -3.5
    endloop
  endfacet
  facet normal -0.95106 0.309007 -1.37774e-18
    outer loop
      vertex 2.74064 -1.22021 -3.5
      vertex 2.93444 -0.623734 3.5
      vertex 2.93444 -0.623734 -3.5
    endloop
  endfacet
  facet normal -0.95106 0.309007 -1.37774e-18
    outer loop
      vertex 2.93444 -0.623734 3.5
      vertex 2.74064 -1.22021 -3.5
      vertex 2.74064 -1.22021 3.5
    endloop
  endfacet
  facet normal 0.743138 -0.669138 -1.57795e-18
    outer loop
      vertex -2.42705 1.76336 3.5
      vertex -2.00739 2.22943 -3.5
      vertex -2.00739 2.22943 3.5
    endloop
  endfacet
  facet normal 0.743138 -0.669138 -1.57795e-18
    outer loop
      vertex -2.00739 2.22943 -3.5
      vertex -2.42705 1.76336 3.5
      vertex -2.42705 1.76336 -3.5
    endloop
  endfacet
  facet normal 0.207917 0.978146 -0
    outer loop
      vertex -0.313585 -2.98357 -3.5
      vertex -0.927051 -2.85317 3.5
      vertex -0.313585 -2.98357 3.5
    endloop
  endfacet
  facet normal 0.207917 0.978146 0
    outer loop
      vertex -0.927051 -2.85317 3.5
      vertex -0.313585 -2.98357 -3.5
      vertex -0.927051 -2.85317 -3.5
    endloop
  endfacet
  facet normal 0.866024 0.500003 1.48502e-20
    outer loop
      vertex -2.42705 -1.76336 3.5
      vertex -2.74064 -1.22021 -3.5
      vertex -2.74064 -1.22021 3.5
    endloop
  endfacet
  facet normal 0.866024 0.500003 1.48502e-20
    outer loop
      vertex -2.74064 -1.22021 -3.5
      vertex -2.42705 -1.76336 3.5
      vertex -2.42705 -1.76336 -3.5
    endloop
  endfacet
  facet normal -0.743138 -0.669138 1.57795e-18
    outer loop
      vertex 2.42705 1.76336 -3.5
      vertex 2.00739 2.22943 3.5
      vertex 2.00739 2.22943 -3.5
    endloop
  endfacet
  facet normal -0.743138 -0.669138 1.57795e-18
    outer loop
      vertex 2.00739 2.22943 3.5
      vertex 2.42705 1.76336 -3.5
      vertex 2.42705 1.76336 3.5
    endloop
  endfacet
  facet normal 0.866024 -0.500003 -1.48502e-20
    outer loop
      vertex -2.74064 1.22021 3.5
      vertex -2.42705 1.76336 -3.5
      vertex -2.42705 1.76336 3.5
    endloop
  endfacet
  facet normal 0.866024 -0.500003 -1.48502e-20
    outer loop
      vertex -2.42705 1.76336 -3.5
      vertex -2.74064 1.22021 3.5
      vertex -2.74064 1.22021 -3.5
    endloop
  endfacet
  facet normal 0 1 -0
    outer loop
      vertex 0.313585 -2.98357 -3.5
      vertex -0.313585 -2.98357 3.5
      vertex 0.313585 -2.98357 3.5
    endloop
  endfacet
  facet normal 0 1 0
    outer loop
      vertex -0.313585 -2.98357 3.5
      vertex 0.313585 -2.98357 -3.5
      vertex -0.313585 -2.98357 -3.5
    endloop
  endfacet
  facet normal -0.587795 0.80901 0
    outer loop
      vertex 2.00739 -2.22943 -3.5
      vertex 1.5 -2.59808 3.5
      vertex 2.00739 -2.22943 3.5
    endloop
  endfacet
  facet normal -0.587795 0.80901 0
    outer loop
      vertex 1.5 -2.59808 3.5
      vertex 2.00739 -2.22943 -3.5
      vertex 1.5 -2.59808 -3.5
    endloop
  endfacet
  facet normal 0 -1 0
    outer loop
      vertex -0.313585 2.98357 -3.5
      vertex 0.313585 2.98357 3.5
      vertex -0.313585 2.98357 3.5
    endloop
  endfacet
  facet normal 0 -1 -0
    outer loop
      vertex 0.313585 2.98357 3.5
      vertex -0.313585 2.98357 -3.5
      vertex 0.313585 2.98357 -3.5
    endloop
  endfacet
  facet normal 0.587795 0.80901 -0
    outer loop
      vertex -1.5 -2.59808 -3.5
      vertex -2.00739 -2.22943 3.5
      vertex -1.5 -2.59808 3.5
    endloop
  endfacet
  facet normal 0.587795 0.80901 0
    outer loop
      vertex -2.00739 -2.22943 3.5
      vertex -1.5 -2.59808 -3.5
      vertex -2.00739 -2.22943 -3.5
    endloop
  endfacet
endsolid OpenSCAD_Model
