solid OpenSCAD_Model
  facet normal 0.994522 0.104529 0
    outer loop
      vertex 7 0 3.5
      vertex 6.84703 1.45538 -3.5
      vertex 6.84703 1.45538 3.5
    endloop
  endfacet
  facet normal 0.994522 0.104529 0
    outer loop
      vertex 6.84703 1.45538 -3.5
      vertex 7 0 3.5
      vertex 7 0 -3.5
    endloop
  endfacet
  facet normal -0.994522 0.104529 0
    outer loop
      vertex -7 0 -3.5
      vertex -6.84703 1.45538 3.5
      vertex -6.84703 1.45538 -3.5
    endloop
  endfacet
  facet normal -0.994522 0.104529 0
    outer loop
      vertex -6.84703 1.45538 3.5
      vertex -7 0 -3.5
      vertex -7 0 3.5
    endloop
  endfacet
  facet normal 0 1 -0
    outer loop
      vertex 0.731699 6.96165 -3.5
      vertex -0.731699 6.96165 3.5
      vertex 0.731699 6.96165 3.5
    endloop
  endfacet
  facet normal 0 1 0
    outer loop
      vertex -0.731699 6.96165 3.5
      vertex 0.731699 6.96165 -3.5
      vertex -0.731699 6.96165 -3.5
    endloop
  endfacet
  facet normal 0 -1 0
    outer loop
      vertex -0.731699 -6.96165 -3.5
      vertex 0.731699 -6.96165 3.5
      vertex -0.731699 -6.96165 3.5
    endloop
  endfacet
  facet normal 0 -1 -0
    outer loop
      vertex 0.731699 -6.96165 3.5
      vertex -0.731699 -6.96165 -3.5
      vertex 0.731699 -6.96165 -3.5
    endloop
  endfacet
  facet normal 0.587786 0.809017 -0
    outer loop
      vertex 4.68391 5.20201 -3.5
      vertex 3.5 6.06218 3.5
      vertex 4.68391 5.20201 3.5
    endloop
  endfacet
  facet normal 0.587786 0.809017 0
    outer loop
      vertex 3.5 6.06218 3.5
      vertex 4.68391 5.20201 -3.5
      vertex 3.5 6.06218 -3.5
    endloop
  endfacet
  facet normal 0.406736 0.913546 -0
    outer loop
      vertex 3.5 6.06218 -3.5
      vertex 2.16312 6.6574 3.5
      vertex 3.5 6.06218 3.5
    endloop
  endfacet
  facet normal 0.406736 0.913546 0
    outer loop
      vertex 2.16312 6.6574 3.5
      vertex 3.5 6.06218 -3.5
      vertex 2.16312 6.6574 -3.5
    endloop
  endfacet
  facet normal -0.587785 0.809017 0
    outer loop
      vertex -3.5 6.06218 -3.5
      vertex -4.68391 5.20201 3.5
      vertex -3.5 6.06218 3.5
    endloop
  endfacet
  facet normal -0.587785 0.809017 0
    outer loop
      vertex -4.68391 5.20201 3.5
      vertex -3.5 6.06218 -3.5
      vertex -4.68391 5.20201 -3.5
    endloop
  endfacet
  facet normal -0.207912 0.978148 0
    outer loop
      vertex -0.731699 6.96165 -3.5
      vertex -2.16312 6.6574 3.5
      vertex -0.731699 6.96165 3.5
    endloop
  endfacet
  facet normal -0.207912 0.978148 0
    outer loop
      vertex -2.16312 6.6574 3.5
      vertex -0.731699 6.96165 -3.5
      vertex -2.16312 6.6574 -3.5
    endloop
  endfacet
  facet normal 0.951056 -0.309017 0
    outer loop
      vertex 6.39482 -2.84716 3.5
      vertex 6.84703 -1.45538 -3.5
      vertex 6.84703 -1.45538 3.5
    endloop
  endfacet
  facet normal 0.951056 -0.309017 0
    outer loop
      vertex 6.84703 -1.45538 -3.5
      vertex 6.39482 -2.84716 3.5
      vertex 6.39482 -2.84716 -3.5
    endloop
  endfacet
  facet normal 0.866026 0.5 0
    outer loop
      vertex 6.39482 2.84716 3.5
      vertex 5.66312 4.1145 -3.5
      vertex 5.66312 4.1145 3.5
    endloop
  endfacet
  facet normal 0.866026 0.5 0
    outer loop
      vertex 5.66312 4.1145 -3.5
      vertex 6.39482 2.84716 3.5
      vertex 6.39482 2.84716 -3.5
    endloop
  endfacet
  facet normal 0.951056 0.309017 0
    outer loop
      vertex 6.84703 1.45538 3.5
      vertex 6.39482 2.84716 -3.5
      vertex 6.39482 2.84716 3.5
    endloop
  endfacet
  facet normal 0.951056 0.309017 0
    outer loop
      vertex 6.39482 2.84716 -3.5
      vertex 6.84703 1.45538 3.5
      vertex 6.84703 1.45538 -3.5
    endloop
  endfacet
  facet normal 0.743145 0.66913 0
    outer loop
      vertex 5.66312 4.1145 3.5
      vertex 4.68391 5.20201 -3.5
      vertex 4.68391 5.20201 3.5
    endloop
  endfacet
  facet normal 0.743145 0.66913 0
    outer loop
      vertex 4.68391 5.20201 -3.5
      vertex 5.66312 4.1145 3.5
      vertex 5.66312 4.1145 -3.5
    endloop
  endfacet
  facet normal 0.207912 0.978148 -0
    outer loop
      vertex 2.16312 6.6574 -3.5
      vertex 0.731699 6.96165 3.5
      vertex 2.16312 6.6574 3.5
    endloop
  endfacet
  facet normal 0.207912 0.978148 0
    outer loop
      vertex 0.731699 6.96165 3.5
      vertex 2.16312 6.6574 -3.5
      vertex 0.731699 6.96165 -3.5
    endloop
  endfacet
  facet normal -0.866026 0.5 0
    outer loop
      vertex -6.39482 2.84716 -3.5
      vertex -5.66312 4.1145 3.5
      vertex -5.66312 4.1145 -3.5
    endloop
  endfacet
  facet normal -0.866026 0.5 0
    outer loop
      vertex -5.66312 4.1145 3.5
      vertex -6.39482 2.84716 -3.5
      vertex -6.39482 2.84716 3.5
    endloop
  endfacet
  facet normal -0.743145 0.66913 0
    outer loop
      vertex -5.66312 4.1145 -3.5
      vertex -4.68391 5.20201 3.5
      vertex -4.68391 5.20201 -3.5
    endloop
  endfacet
  facet normal -0.743145 0.66913 0
    outer loop
      vertex -4.68391 5.20201 3.5
      vertex -5.66312 4.1145 -3.5
      vertex -5.66312 4.1145 3.5
    endloop
  endfacet
  facet normal -0.951056 0.309017 0
    outer loop
      vertex -6.84703 1.45538 -3.5
      vertex -6.39482 2.84716 3.5
      vertex -6.39482 2.84716 -3.5
    endloop
  endfacet
  facet normal -0.951056 0.309017 0
    outer loop
      vertex -6.39482 2.84716 3.5
      vertex -6.84703 1.45538 -3.5
      vertex -6.84703 1.45538 3.5
    endloop
  endfacet
  facet normal 0 0 1
    outer loop
      vertex 3 0 3.5
      vertex 7 0 3.5
      vertex 6.84703 1.45538 3.5
    endloop
  endfacet
  facet normal 0 0 1
    outer loop
      vertex 2.93444 0.623734 3.5
      vertex 6.84703 1.45538 3.5
      vertex 6.39482 2.84716 3.5
    endloop
  endfacet
  facet normal 0 0 1
    outer loop
      vertex 7 0 3.5
      vertex 3 0 3.5
      vertex 6.84703 -1.45538 3.5
    endloop
  endfacet
  facet normal 0 0 1
    outer loop
      vertex 2.74064 1.22021 3.5
      vertex 6.39482 2.84716 3.5
      vertex 5.66312 4.1145 3.5
    endloop
  endfacet
  facet normal -0 0 1
    outer loop
      vertex 2.93444 -0.623734 3.5
      vertex 6.84703 -1.45538 3.5
      vertex 3 0 3.5
    endloop
  endfacet
  facet normal 0 0 1
    outer loop
      vertex 2.42705 1.76336 3.5
      vertex 5.66312 4.1145 3.5
      vertex 4.68391 5.20201 3.5
    endloop
  endfacet
  facet normal 0 0 1
    outer loop
      vertex 6.84703 -1.45538 3.5
      vertex 2.93444 -0.623734 3.5
      vertex 6.39482 -2.84716 3.5
    endloop
  endfacet
  facet normal 0 0 1
    outer loop
      vertex 2.00739 2.22943 3.5
      vertex 4.68391 5.20201 3.5
      vertex 3.5 6.06218 3.5
    endloop
  endfacet
  facet normal -0 0 1
    outer loop
      vertex 2.74064 -1.22021 3.5
      vertex 6.39482 -2.84716 3.5
      vertex 2.93444 -0.623734 3.5
    endloop
  endfacet
  facet normal 0 0 1
    outer loop
      vertex 6.39482 -2.84716 3.5
      vertex 2.74064 -1.22021 3.5
      vertex 5.66312 -4.1145 3.5
    endloop
  endfacet
  facet normal 0 0 1
    outer loop
      vertex 6.84703 1.45538 3.5
      vertex 2.93444 0.623734 3.5
      vertex 3 0 3.5
    endloop
  endfacet
  facet normal 0 0 1
    outer loop
      vertex 6.39482 2.84716 3.5
      vertex 2.74064 1.22021 3.5
      vertex 2.93444 0.623734 3.5
    endloop
  endfacet
  facet normal 0 0 1
    outer loop
      vertex 5.66312 4.1145 3.5
      vertex 2.42705 1.76336 3.5
      vertex 2.74064 1.22021 3.5
    endloop
  endfacet
  facet normal 0 0 1
    outer loop
      vertex 1.5 2.59808 3.5
      vertex 3.5 6.06218 3.5
      vertex 2.16312 6.6574 3.5
    endloop
  endfacet
  facet normal 0 0 1
    outer loop
      vertex 4.68391 5.20201 3.5
      vertex 2.00739 2.22943 3.5
      vertex 2.42705 1.76336 3.5
    endloop
  endfacet
  facet normal 0 0 1
    outer loop
      vertex 3.5 6.06218 3.5
      vertex 1.5 2.59808 3.5
      vertex 2.00739 2.22943 3.5
    endloop
  endfacet
  facet normal 0 0 1
    outer loop
      vertex 2.16312 6.6574 3.5
      vertex 0.927051 2.85317 3.5
      vertex 1.5 2.59808 3.5
    endloop
  endfacet
  facet normal 0 0 1
    outer loop
      vertex 0.731699 6.96165 3.5
      vertex 0.927051 2.85317 3.5
      vertex 2.16312 6.6574 3.5
    endloop
  endfacet
  facet normal 0 0 1
    outer loop
      vertex 0.731699 6.96165 3.5
      vertex 0.313585 2.98357 3.5
      vertex 0.927051 2.85317 3.5
    endloop
  endfacet
  facet normal 0 0 1
    outer loop
      vertex 0.731699 6.96165 3.5
      vertex -0.313585 2.98357 3.5
      vertex 0.313585 2.98357 3.5
    endloop
  endfacet
  facet normal -0 0 1
    outer loop
      vertex -0.731699 6.96165 3.5
      vertex -0.313585 2.98357 3.5
      vertex 0.731699 6.96165 3.5
    endloop
  endfacet
  facet normal 0 0 1
    outer loop
      vertex -0.731699 6.96165 3.5
      vertex -0.927051 2.85317 3.5
      vertex -0.313585 2.98357 3.5
    endloop
  endfacet
  facet normal -0 0 1
    outer loop
      vertex -2.16312 6.6574 3.5
      vertex -0.927051 2.85317 3.5
      vertex -0.731699 6.96165 3.5
    endloop
  endfacet
  facet normal 0 0 1
    outer loop
      vertex -0.927051 2.85317 3.5
      vertex -2.16312 6.6574 3.5
      vertex -1.5 2.59808 3.5
    endloop
  endfacet
  facet normal -0 0 1
    outer loop
      vertex -3.5 6.06218 3.5
      vertex -1.5 2.59808 3.5
      vertex -2.16312 6.6574 3.5
    endloop
  endfacet
  facet normal 0 0 1
    outer loop
      vertex -1.5 2.59808 3.5
      vertex -3.5 6.06218 3.5
      vertex -2.00739 2.22943 3.5
    endloop
  endfacet
  facet normal -0 0 1
    outer loop
      vertex -4.68391 5.20201 3.5
      vertex -2.00739 2.22943 3.5
      vertex -3.5 6.06218 3.5
    endloop
  endfacet
  facet normal 0 0 1
    outer loop
      vertex -2.00739 2.22943 3.5
      vertex -4.68391 5.20201 3.5
      vertex -2.42705 1.76336 3.5
    endloop
  endfacet
  facet normal 0 0 1
    outer loop
      vertex -2.42705 1.76336 3.5
      vertex -5.66312 4.1145 3.5
      vertex -2.74064 1.22021 3.5
    endloop
  endfacet
  facet normal -0 0 1
    outer loop
      vertex -5.66312 4.1145 3.5
      vertex -2.42705 1.76336 3.5
      vertex -4.68391 5.20201 3.5
    endloop
  endfacet
  facet normal -0 0 1
    outer loop
      vertex 2.42705 -1.76336 3.5
      vertex 5.66312 -4.1145 3.5
      vertex 2.74064 -1.22021 3.5
    endloop
  endfacet
  facet normal 0 0 1
    outer loop
      vertex 5.66312 -4.1145 3.5
      vertex 2.42705 -1.76336 3.5
      vertex 4.68391 -5.20201 3.5
    endloop
  endfacet
  facet normal -0 0 1
    outer loop
      vertex 2.00739 -2.22943 3.5
      vertex 4.68391 -5.20201 3.5
      vertex 2.42705 -1.76336 3.5
    endloop
  endfacet
  facet normal 0 0 1
    outer loop
      vertex 4.68391 -5.20201 3.5
      vertex 2.00739 -2.22943 3.5
      vertex 3.5 -6.06218 3.5
    endloop
  endfacet
  facet normal -0 0 1
    outer loop
      vertex 1.5 -2.59808 3.5
      vertex 3.5 -6.06218 3.5
      vertex 2.00739 -2.22943 3.5
    endloop
  endfacet
  facet normal 0 0 1
    outer loop
      vertex 3.5 -6.06218 3.5
      vertex 1.5 -2.59808 3.5
      vertex 2.16312 -6.6574 3.5
    endloop
  endfacet
  facet normal -0 0 1
    outer loop
      vertex 0.927051 -2.85317 3.5
      vertex 2.16312 -6.6574 3.5
      vertex 1.5 -2.59808 3.5
    endloop
  endfacet
  facet normal 0 0 1
    outer loop
      vertex 0.927051 -2.85317 3.5
      vertex 0.731699 -6.96165 3.5
      vertex 2.16312 -6.6574 3.5
    endloop
  endfacet
  facet normal -0 0 1
    outer loop
      vertex 0.313585 -2.98357 3.5
      vertex 0.731699 -6.96165 3.5
      vertex 0.927051 -2.85317 3.5
    endloop
  endfacet
  facet normal -0 0 1
    outer loop
      vertex -0.313585 -2.98357 3.5
      vertex 0.731699 -6.96165 3.5
      vertex 0.313585 -2.98357 3.5
    endloop
  endfacet
  facet normal 0 0 1
    outer loop
      vertex -0.313585 -2.98357 3.5
      vertex -0.731699 -6.96165 3.5
      vertex 0.731699 -6.96165 3.5
    endloop
  endfacet
  facet normal 0 0 1
    outer loop
      vertex -0.927051 -2.85317 3.5
      vertex -0.731699 -6.96165 3.5
      vertex -0.313585 -2.98357 3.5
    endloop
  endfacet
  facet normal 0 0 1
    outer loop
      vertex -2.16312 -6.6574 3.5
      vertex -0.927051 -2.85317 3.5
      vertex -1.5 -2.59808 3.5
    endloop
  endfacet
  facet normal 0 0 1
    outer loop
      vertex -3.5 -6.06218 3.5
      vertex -1.5 -2.59808 3.5
      vertex -2.00739 -2.22943 3.5
    endloop
  endfacet
  facet normal 0 0 1
    outer loop
      vertex -0.927051 -2.85317 3.5
      vertex -2.16312 -6.6574 3.5
      vertex -0.731699 -6.96165 3.5
    endloop
  endfacet
  facet normal 0 0 1
    outer loop
      vertex -4.68391 -5.20201 3.5
      vertex -2.00739 -2.22943 3.5
      vertex -2.42705 -1.76336 3.5
    endloop
  endfacet
  facet normal 0 0 1
    outer loop
      vertex -5.66312 -4.1145 3.5
      vertex -2.42705 -1.76336 3.5
      vertex -2.74064 -1.22021 3.5
    endloop
  endfacet
  facet normal 0 0 1
    outer loop
      vertex -6.39482 -2.84716 3.5
      vertex -2.74064 -1.22021 3.5
      vertex -2.93444 -0.623734 3.5
    endloop
  endfacet
  facet normal 0 0 1
    outer loop
      vertex -1.5 -2.59808 3.5
      vertex -3.5 -6.06218 3.5
      vertex -2.16312 -6.6574 3.5
    endloop
  endfacet
  facet normal 0 0 1
    outer loop
      vertex -6.84703 -1.45538 3.5
      vertex -2.93444 -0.623734 3.5
      vertex -3 0 3.5
    endloop
  endfacet
  facet normal -0 0 1
    outer loop
      vertex -6.39482 2.84716 3.5
      vertex -2.74064 1.22021 3.5
      vertex -5.66312 4.1145 3.5
    endloop
  endfacet
  facet normal 0 0 1
    outer loop
      vertex -2.74064 1.22021 3.5
      vertex -6.39482 2.84716 3.5
      vertex -2.93444 0.623734 3.5
    endloop
  endfacet
  facet normal 0 0 1
    outer loop
      vertex -2.00739 -2.22943 3.5
      vertex -4.68391 -5.20201 3.5
      vertex -3.5 -6.06218 3.5
    endloop
  endfacet
  facet normal -0 0 1
    outer loop
      vertex -6.84703 1.45538 3.5
      vertex -2.93444 0.623734 3.5
      vertex -6.39482 2.84716 3.5
    endloop
  endfacet
  facet normal 0 0 1
    outer loop
      vertex -2.42705 -1.76336 3.5
      vertex -5.66312 -4.1145 3.5
      vertex -4.68391 -5.20201 3.5
    endloop
  endfacet
  facet normal 0 0 1
    outer loop
      vertex -2.93444 0.623734 3.5
      vertex -6.84703 1.45538 3.5
      vertex -3 0 3.5
    endloop
  endfacet
  facet normal 0 0 1
    outer loop
      vertex -2.74064 -1.22021 3.5
      vertex -6.39482 -2.84716 3.5
      vertex -5.66312 -4.1145 3.5
    endloop
  endfacet
  facet normal 0 0 1
    outer loop
      vertex -7 0 3.5
      vertex -3 0 3.5
      vertex -6.84703 1.45538 3.5
    endloop
  endfacet
  facet normal 0 0 1
    outer loop
      vertex -2.93444 -0.623734 3.5
      vertex -6.84703 -1.45538 3.5
      vertex -6.39482 -2.84716 3.5
    endloop
  endfacet
  facet normal 0 0 1
    outer loop
      vertex -3 0 3.5
      vertex -7 0 3.5
      vertex -6.84703 -1.45538 3.5
    endloop
  endfacet
  facet normal -0.406737 0.913545 0
    outer loop
      vertex -2.16312 6.6574 -3.5
      vertex -3.5 6.06218 3.5
      vertex -2.16312 6.6574 3.5
    endloop
  endfacet
  facet normal -0.406737 0.913545 0
    outer loop
      vertex -3.5 6.06218 3.5
      vertex -2.16312 6.6574 -3.5
      vertex -3.5 6.06218 -3.5
    endloop
  endfacet
  facet normal 0.994522 -0.104529 0
    outer loop
      vertex 6.84703 -1.45538 3.5
      vertex 7 0 -3.5
      vertex 7 0 3.5
    endloop
  endfacet
  facet normal 0.994522 -0.104529 0
    outer loop
      vertex 7 0 -3.5
      vertex 6.84703 -1.45538 3.5
      vertex 6.84703 -1.45538 -3.5
    endloop
  endfacet
  facet normal 0 0 -1
    outer loop
      vertex 3 0 -3.5
      vertex 7 0 -3.5
      vertex 6.84703 -1.45538 -3.5
    endloop
  endfacet
  facet normal 0 0 -1
    outer loop
      vertex 2.93444 -0.623734 -3.5
      vertex 6.84703 -1.45538 -3.5
      vertex 6.39482 -2.84716 -3.5
    endloop
  endfacet
  facet normal 0 0 -1
    outer loop
      vertex 7 0 -3.5
      vertex 3 0 -3.5
      vertex 6.84703 1.45538 -3.5
    endloop
  endfacet
  facet normal 0 0 -1
    outer loop
      vertex 2.74064 -1.22021 -3.5
      vertex 6.39482 -2.84716 -3.5
      vertex 5.66312 -4.1145 -3.5
    endloop
  endfacet
  facet normal 0 0 -1
    outer loop
      vertex 2.93444 0.623734 -3.5
      vertex 6.84703 1.45538 -3.5
      vertex 3 0 -3.5
    endloop
  endfacet
  facet normal 0 0 -1
    outer loop
      vertex 2.42705 -1.76336 -3.5
      vertex 5.66312 -4.1145 -3.5
      vertex 4.68391 -5.20201 -3.5
    endloop
  endfacet
  facet normal -0 0 -1
    outer loop
      vertex 6.84703 1.45538 -3.5
      vertex 2.93444 0.623734 -3.5
      vertex 6.39482 2.84716 -3.5
    endloop
  endfacet
  facet normal 0 0 -1
    outer loop
      vertex 2.00739 -2.22943 -3.5
      vertex 4.68391 -5.20201 -3.5
      vertex 3.5 -6.06218 -3.5
    endloop
  endfacet
  facet normal 0 0 -1
    outer loop
      vertex 2.74064 1.22021 -3.5
      vertex 6.39482 2.84716 -3.5
      vertex 2.93444 0.623734 -3.5
    endloop
  endfacet
  facet normal -0 0 -1
    outer loop
      vertex 6.39482 2.84716 -3.5
      vertex 2.74064 1.22021 -3.5
      vertex 5.66312 4.1145 -3.5
    endloop
  endfacet
  facet normal 0 0 -1
    outer loop
      vertex 6.84703 -1.45538 -3.5
      vertex 2.93444 -0.623734 -3.5
      vertex 3 0 -3.5
    endloop
  endfacet
  facet normal 0 0 -1
    outer loop
      vertex 6.39482 -2.84716 -3.5
      vertex 2.74064 -1.22021 -3.5
      vertex 2.93444 -0.623734 -3.5
    endloop
  endfacet
  facet normal 0 0 -1
    outer loop
      vertex 5.66312 -4.1145 -3.5
      vertex 2.42705 -1.76336 -3.5
      vertex 2.74064 -1.22021 -3.5
    endloop
  endfacet
  facet normal 0 0 -1
    outer loop
      vertex 1.5 -2.59808 -3.5
      vertex 3.5 -6.06218 -3.5
      vertex 2.16312 -6.6574 -3.5
    endloop
  endfacet
  facet normal 0 0 -1
    outer loop
      vertex 4.68391 -5.20201 -3.5
      vertex 2.00739 -2.22943 -3.5
      vertex 2.42705 -1.76336 -3.5
    endloop
  endfacet
  facet normal 0 0 -1
    outer loop
      vertex 3.5 -6.06218 -3.5
      vertex 1.5 -2.59808 -3.5
      vertex 2.00739 -2.22943 -3.5
    endloop
  endfacet
  facet normal 0 0 -1
    outer loop
      vertex 2.16312 -6.6574 -3.5
      vertex 0.927051 -2.85317 -3.5
      vertex 1.5 -2.59808 -3.5
    endloop
  endfacet
  facet normal 0 0 -1
    outer loop
      vertex 0.731699 -6.96165 -3.5
      vertex 0.927051 -2.85317 -3.5
      vertex 2.16312 -6.6574 -3.5
    endloop
  endfacet
  facet normal 0 0 -1
    outer loop
      vertex 0.731699 -6.96165 -3.5
      vertex 0.313585 -2.98357 -3.5
      vertex 0.927051 -2.85317 -3.5
    endloop
  endfacet
  facet normal 0 0 -1
    outer loop
      vertex 0.731699 -6.96165 -3.5
      vertex -0.313585 -2.98357 -3.5
      vertex 0.313585 -2.98357 -3.5
    endloop
  endfacet
  facet normal 0 0 -1
    outer loop
      vertex -0.731699 -6.96165 -3.5
      vertex -0.313585 -2.98357 -3.5
      vertex 0.731699 -6.96165 -3.5
    endloop
  endfacet
  facet normal 0 0 -1
    outer loop
      vertex -0.731699 -6.96165 -3.5
      vertex -0.927051 -2.85317 -3.5
      vertex -0.313585 -2.98357 -3.5
    endloop
  endfacet
  facet normal 0 0 -1
    outer loop
      vertex -2.16312 -6.6574 -3.5
      vertex -0.927051 -2.85317 -3.5
      vertex -0.731699 -6.96165 -3.5
    endloop
  endfacet
  facet normal -0 0 -1
    outer loop
      vertex -0.927051 -2.85317 -3.5
      vertex -2.16312 -6.6574 -3.5
      vertex -1.5 -2.59808 -3.5
    endloop
  endfacet
  facet normal 0 0 -1
    outer loop
      vertex -3.5 -6.06218 -3.5
      vertex -1.5 -2.59808 -3.5
      vertex -2.16312 -6.6574 -3.5
    endloop
  endfacet
  facet normal -0 0 -1
    outer loop
      vertex -1.5 -2.59808 -3.5
      vertex -3.5 -6.06218 -3.5
      vertex -2.00739 -2.22943 -3.5
    endloop
  endfacet
  facet normal 0 0 -1
    outer loop
      vertex -4.68391 -5.20201 -3.5
      vertex -2.00739 -2.22943 -3.5
      vertex -3.5 -6.06218 -3.5
    endloop
  endfacet
  facet normal -0 0 -1
    outer loop
      vertex -2.00739 -2.22943 -3.5
      vertex -4.68391 -5.20201 -3.5
      vertex -2.42705 -1.76336 -3.5
    endloop
  endfacet
  facet normal 0 0 -1
    outer loop
      vertex -5.66312 -4.1145 -3.5
      vertex -2.42705 -1.76336 -3.5
      vertex -4.68391 -5.20201 -3.5
    endloop
  endfacet
  facet normal -0 0 -1
    outer loop
      vertex -2.42705 -1.76336 -3.5
      vertex -5.66312 -4.1145 -3.5
      vertex -2.74064 -1.22021 -3.5
    endloop
  endfacet
  facet normal 0 0 -1
    outer loop
      vertex -6.39482 -2.84716 -3.5
      vertex -2.74064 -1.22021 -3.5
      vertex -5.66312 -4.1145 -3.5
    endloop
  endfacet
  facet normal -0 0 -1
    outer loop
      vertex -2.74064 -1.22021 -3.5
      vertex -6.39482 -2.84716 -3.5
      vertex -2.93444 -0.623734 -3.5
    endloop
  endfacet
  facet normal 0 0 -1
    outer loop
      vertex -3 0 -3.5
      vertex -4.68391 5.20201 -3.5
      vertex -3.5 6.06218 -3.5
    endloop
  endfacet
  facet normal 0 0 -1
    outer loop
      vertex -6.84703 -1.45538 -3.5
      vertex -2.93444 -0.623734 -3.5
      vertex -6.39482 -2.84716 -3.5
    endloop
  endfacet
  facet normal 0 0 -1
    outer loop
      vertex -3 0 -3.5
      vertex -5.66312 4.1145 -3.5
      vertex -4.68391 5.20201 -3.5
    endloop
  endfacet
  facet normal -0 0 -1
    outer loop
      vertex -2.93444 -0.623734 -3.5
      vertex -6.84703 -1.45538 -3.5
      vertex -3 0 -3.5
    endloop
  endfacet
  facet normal 0 0 -1
    outer loop
      vertex -3 0 -3.5
      vertex -6.39482 2.84716 -3.5
      vertex -5.66312 4.1145 -3.5
    endloop
  endfacet
  facet normal 0 0 -1
    outer loop
      vertex -7 0 -3.5
      vertex -3 0 -3.5
      vertex -6.84703 -1.45538 -3.5
    endloop
  endfacet
  facet normal 0 0 -1
    outer loop
      vertex -3 0 -3.5
      vertex -6.84703 1.45538 -3.5
      vertex -6.39482 2.84716 -3.5
    endloop
  endfacet
  facet normal 0 0 -1
    outer loop
      vertex -3 0 -3.5
      vertex -7 0 -3.5
      vertex -6.84703 1.45538 -3.5
    endloop
  endfacet
  facet normal 0 0 -1
    outer loop
      vertex 2.42705 1.76336 -3.5
      vertex 5.66312 4.1145 -3.5
      vertex 2.74064 1.22021 -3.5
    endloop
  endfacet
  facet normal -0 0 -1
    outer loop
      vertex 5.66312 4.1145 -3.5
      vertex 2.42705 1.76336 -3.5
      vertex 4.68391 5.20201 -3.5
    endloop
  endfacet
  facet normal 0 0 -1
    outer loop
      vertex 2.00739 2.22943 -3.5
      vertex 4.68391 5.20201 -3.5
      vertex 2.42705 1.76336 -3.5
    endloop
  endfacet
  facet normal -0 0 -1
    outer loop
      vertex 4.68391 5.20201 -3.5
      vertex 2.00739 2.22943 -3.5
      vertex 3.5 6.06218 -3.5
    endloop
  endfacet
  facet normal 0 0 -1
    outer loop
      vertex 1.5 2.59808 -3.5
      vertex 3.5 6.06218 -3.5
      vertex 2.00739 2.22943 -3.5
    endloop
  endfacet
  facet normal -0 0 -1
    outer loop
      vertex 3.5 6.06218 -3.5
      vertex 1.5 2.59808 -3.5
      vertex 2.16312 6.6574 -3.5
    endloop
  endfacet
  facet normal 0 0 -1
    outer loop
      vertex 0.927051 2.85317 -3.5
      vertex 2.16312 6.6574 -3.5
      vertex 1.5 2.59808 -3.5
    endloop
  endfacet
  facet normal 0 0 -1
    outer loop
      vertex 0.927051 2.85317 -3.5
      vertex 0.731699 6.96165 -3.5
      vertex 2.16312 6.6574 -3.5
    endloop
  endfacet
  facet normal 0 0 -1
    outer loop
      vertex 0.313585 2.98357 -3.5
      vertex 0.731699 6.96165 -3.5
      vertex 0.927051 2.85317 -3.5
    endloop
  endfacet
  facet normal 0 0 -1
    outer loop
      vertex -0.313585 2.98357 -3.5
      vertex 0.731699 6.96165 -3.5
      vertex 0.313585 2.98357 -3.5
    endloop
  endfacet
  facet normal 0 0 -1
    outer loop
      vertex -0.313585 2.98357 -3.5
      vertex -0.731699 6.96165 -3.5
      vertex 0.731699 6.96165 -3.5
    endloop
  endfacet
  facet normal 0 0 -1
    outer loop
      vertex -0.927051 2.85317 -3.5
      vertex -0.731699 6.96165 -3.5
      vertex -0.313585 2.98357 -3.5
    endloop
  endfacet
  facet normal 0 0 -1
    outer loop
      vertex -2.16312 6.6574 -3.5
      vertex -0.927051 2.85317 -3.5
      vertex -1.5 2.59808 -3.5
    endloop
  endfacet
  facet normal 0 0 -1
    outer loop
      vertex -3.5 6.06218 -3.5
      vertex -1.5 2.59808 -3.5
      vertex -2.00739 2.22943 -3.5
    endloop
  endfacet
  facet normal 0 0 -1
    outer loop
      vertex -0.927051 2.85317 -3.5
      vertex -2.16312 6.6574 -3.5
      vertex -0.731699 6.96165 -3.5
    endloop
  endfacet
  facet normal 0 0 -1
    outer loop
      vertex -3.5 6.06218 -3.5
      vertex -2.00739 2.22943 -3.5
      vertex -2.42705 1.76336 -3.5
    endloop
  endfacet
  facet normal 0 0 -1
    outer loop
      vertex -3.5 6.06218 -3.5
      vertex -2.42705 1.76336 -3.5
      vertex -2.74064 1.22021 -3.5
    endloop
  endfacet
  facet normal 0 0 -1
    outer loop
      vertex -3.5 6.06218 -3.5
      vertex -2.74064 1.22021 -3.5
      vertex -2.93444 0.623734 -3.5
    endloop
  endfacet
  facet normal 0 0 -1
    outer loop
      vertex -1.5 2.59808 -3.5
      vertex -3.5 6.06218 -3.5
      vertex -2.16312 6.6574 -3.5
    endloop
  endfacet
  facet normal 0 0 -1
    outer loop
      vertex -3.5 6.06218 -3.5
      vertex -2.93444 0.623734 -3.5
      vertex -3 0 -3.5
    endloop
  endfacet
  facet normal 0.207912 -0.978148 0
    outer loop
      vertex 0.731699 -6.96165 -3.5
      vertex 2.16312 -6.6574 3.5
      vertex 0.731699 -6.96165 3.5
    endloop
  endfacet
  facet normal 0.207912 -0.978148 0
    outer loop
      vertex 2.16312 -6.6574 3.5
      vertex 0.731699 -6.96165 -3.5
      vertex 2.16312 -6.6574 -3.5
    endloop
  endfacet
  facet normal 0.866026 -0.5 0
    outer loop
      vertex 5.66312 -4.1145 3.5
      vertex 6.39482 -2.84716 -3.5
      vertex 6.39482 -2.84716 3.5
    endloop
  endfacet
  facet normal 0.866026 -0.5 0
    outer loop
      vertex 6.39482 -2.84716 -3.5
      vertex 5.66312 -4.1145 3.5
      vertex 5.66312 -4.1145 -3.5
    endloop
  endfacet
  facet normal -0.866026 -0.5 0
    outer loop
      vertex -5.66312 -4.1145 -3.5
      vertex -6.39482 -2.84716 3.5
      vertex -6.39482 -2.84716 -3.5
    endloop
  endfacet
  facet normal -0.866026 -0.5 0
    outer loop
      vertex -6.39482 -2.84716 3.5
      vertex -5.66312 -4.1145 -3.5
      vertex -5.66312 -4.1145 3.5
    endloop
  endfacet
  facet normal -0.743145 -0.66913 0
    outer loop
      vertex -4.68391 -5.20201 -3.5
      vertex -5.66312 -4.1145 3.5
      vertex -5.66312 -4.1145 -3.5
    endloop
  endfacet
  facet normal -0.743145 -0.66913 0
    outer loop
      vertex -5.66312 -4.1145 3.5
      vertex -4.68391 -5.20201 -3.5
      vertex -4.68391 -5.20201 3.5
    endloop
  endfacet
  facet normal 0.587786 -0.809017 0
    outer loop
      vertex 3.5 -6.06218 -3.5
      vertex 4.68391 -5.20201 3.5
      vertex 3.5 -6.06218 3.5
    endloop
  endfacet
  facet normal 0.587786 -0.809017 0
    outer loop
      vertex 4.68391 -5.20201 3.5
      vertex 3.5 -6.06218 -3.5
      vertex 4.68391 -5.20201 -3.5
    endloop
  endfacet
  facet normal 0.406736 -0.913546 0
    outer loop
      vertex 2.16312 -6.6574 -3.5
      vertex 3.5 -6.06218 3.5
      vertex 2.16312 -6.6574 3.5
    endloop
  endfacet
  facet normal 0.406736 -0.913546 0
    outer loop
      vertex 3.5 -6.06218 3.5
      vertex 2.16312 -6.6574 -3.5
      vertex 3.5 -6.06218 -3.5
    endloop
  endfacet
  facet normal -0.207912 -0.978148 0
    outer loop
      vertex -2.16312 -6.6574 -3.5
      vertex -0.731699 -6.96165 3.5
      vertex -2.16312 -6.6574 3.5
    endloop
  endfacet
  facet normal -0.207912 -0.978148 -0
    outer loop
      vertex -0.731699 -6.96165 3.5
      vertex -2.16312 -6.6574 -3.5
      vertex -0.731699 -6.96165 -3.5
    endloop
  endfacet
  facet normal -0.951056 -0.309017 0
    outer loop
      vertex -6.39482 -2.84716 -3.5
      vertex -6.84703 -1.45538 3.5
      vertex -6.84703 -1.45538 -3.5
    endloop
  endfacet
  facet normal -0.951056 -0.309017 0
    outer loop
      vertex -6.84703 -1.45538 3.5
      vertex -6.39482 -2.84716 -3.5
      vertex -6.39482 -2.84716 3.5
    endloop
  endfacet
  facet normal -0.994522 -0.104529 0
    outer loop
      vertex -6.84703 -1.45538 -3.5
      vertex -7 0 3.5
      vertex -7 0 -3.5
    endloop
  endfacet
  facet normal -0.994522 -0.104529 0
    outer loop
      vertex -7 0 3.5
      vertex -6.84703 -1.45538 -3.5
      vertex -6.84703 -1.45538 3.5
    endloop
  endfacet
  facet normal 0.743145 -0.66913 0
    outer loop
      vertex 4.68391 -5.20201 3.5
      vertex 5.66312 -4.1145 -3.5
      vertex 5.66312 -4.1145 3.5
    endloop
  endfacet
  facet normal 0.743145 -0.66913 0
    outer loop
      vertex 5.66312 -4.1145 -3.5
      vertex 4.68391 -5.20201 3.5
      vertex 4.68391 -5.20201 -3.5
    endloop
  endfacet
  facet normal -0.406736 -0.913546 0
    outer loop
      vertex -3.5 -6.06218 -3.5
      vertex -2.16312 -6.6574 3.5
      vertex -3.5 -6.06218 3.5
    endloop
  endfacet
  facet normal -0.406736 -0.913546 -0
    outer loop
      vertex -2.16312 -6.6574 3.5
      vertex -3.5 -6.06218 -3.5
      vertex -2.16312 -6.6574 -3.5
    endloop
  endfacet
  facet normal -0.587786 -0.809017 0
    outer loop
      vertex -4.68391 -5.20201 -3.5
      vertex -3.5 -6.06218 3.5
      vertex -4.68391 -5.20201 3.5
    endloop
  endfacet
  facet normal -0.587786 -0.809017 -0
    outer loop
      vertex -3.5 -6.06218 3.5
      vertex -4.68391 -5.20201 -3.5
      vertex -3.5 -6.06218 -3.5
    endloop
  endfacet
  facet normal -0.866026 -0.5 0
    outer loop
      vertex 2.74064 1.22021 -3.5
      vertex 2.42705 1.76336 3.5
      vertex 2.42705 1.76336 -3.5
    endloop
  endfacet
  facet normal -0.866026 -0.5 0
    outer loop
      vertex 2.42705 1.76336 3.5
      vertex 2.74064 1.22021 -3.5
      vertex 2.74064 1.22021 3.5
    endloop
  endfacet
  facet normal 0.994522 -0.104529 0
    outer loop
      vertex -3 0 3.5
      vertex -2.93444 0.623734 -3.5
      vertex -2.93444 0.623734 3.5
    endloop
  endfacet
  facet normal 0.994522 -0.104529 0
    outer loop
      vertex -2.93444 0.623734 -3.5
      vertex -3 0 3.5
      vertex -3 0 -3.5
    endloop
  endfacet
  facet normal -0.743144 -0.669131 0
    outer loop
      vertex 2.42705 1.76336 -3.5
      vertex 2.00739 2.22943 3.5
      vertex 2.00739 2.22943 -3.5
    endloop
  endfacet
  facet normal -0.743144 -0.669131 0
    outer loop
      vertex 2.00739 2.22943 3.5
      vertex 2.42705 1.76336 -3.5
      vertex 2.42705 1.76336 3.5
    endloop
  endfacet
  facet normal 0.406737 -0.913545 0
    outer loop
      vertex -1.5 2.59808 -3.5
      vertex -0.927051 2.85317 3.5
      vertex -1.5 2.59808 3.5
    endloop
  endfacet
  facet normal 0.406737 -0.913545 0
    outer loop
      vertex -0.927051 2.85317 3.5
      vertex -1.5 2.59808 -3.5
      vertex -0.927051 2.85317 -3.5
    endloop
  endfacet
  facet normal 0.951056 -0.309017 0
    outer loop
      vertex -2.93444 0.623734 3.5
      vertex -2.74064 1.22021 -3.5
      vertex -2.74064 1.22021 3.5
    endloop
  endfacet
  facet normal 0.951056 -0.309017 0
    outer loop
      vertex -2.74064 1.22021 -3.5
      vertex -2.93444 0.623734 3.5
      vertex -2.93444 0.623734 -3.5
    endloop
  endfacet
  facet normal -0.994522 0.104529 0
    outer loop
      vertex 2.93444 -0.623734 -3.5
      vertex 3 0 3.5
      vertex 3 0 -3.5
    endloop
  endfacet
  facet normal -0.994522 0.104529 0
    outer loop
      vertex 3 0 3.5
      vertex 2.93444 -0.623734 -3.5
      vertex 2.93444 -0.623734 3.5
    endloop
  endfacet
  facet normal -0.587786 -0.809016 0
    outer loop
      vertex 1.5 2.59808 -3.5
      vertex 2.00739 2.22943 3.5
      vertex 1.5 2.59808 3.5
    endloop
  endfacet
  facet normal -0.587786 -0.809016 -0
    outer loop
      vertex 2.00739 2.22943 3.5
      vertex 1.5 2.59808 -3.5
      vertex 2.00739 2.22943 -3.5
    endloop
  endfacet
  facet normal 0 -1 0
    outer loop
      vertex -0.313585 2.98357 -3.5
      vertex 0.313585 2.98357 3.5
      vertex -0.313585 2.98357 3.5
    endloop
  endfacet
  facet normal 0 -1 -0
    outer loop
      vertex 0.313585 2.98357 3.5
      vertex -0.313585 2.98357 -3.5
      vertex 0.313585 2.98357 -3.5
    endloop
  endfacet
  facet normal -0.406737 -0.913545 0
    outer loop
      vertex 0.927051 2.85317 -3.5
      vertex 1.5 2.59808 3.5
      vertex 0.927051 2.85317 3.5
    endloop
  endfacet
  facet normal -0.406737 -0.913545 -0
    outer loop
      vertex 1.5 2.59808 3.5
      vertex 0.927051 2.85317 -3.5
      vertex 1.5 2.59808 -3.5
    endloop
  endfacet
  facet normal 0.866026 -0.5 0
    outer loop
      vertex -2.74064 1.22021 3.5
      vertex -2.42705 1.76336 -3.5
      vertex -2.42705 1.76336 3.5
    endloop
  endfacet
  facet normal 0.866026 -0.5 0
    outer loop
      vertex -2.42705 1.76336 -3.5
      vertex -2.74064 1.22021 3.5
      vertex -2.74064 1.22021 -3.5
    endloop
  endfacet
  facet normal 0.587785 -0.809017 0
    outer loop
      vertex -2.00739 2.22943 -3.5
      vertex -1.5 2.59808 3.5
      vertex -2.00739 2.22943 3.5
    endloop
  endfacet
  facet normal 0.587785 -0.809017 0
    outer loop
      vertex -1.5 2.59808 3.5
      vertex -2.00739 2.22943 -3.5
      vertex -1.5 2.59808 -3.5
    endloop
  endfacet
  facet normal 0.207911 -0.978148 0
    outer loop
      vertex -0.927051 2.85317 -3.5
      vertex -0.313585 2.98357 3.5
      vertex -0.927051 2.85317 3.5
    endloop
  endfacet
  facet normal 0.207911 -0.978148 0
    outer loop
      vertex -0.313585 2.98357 3.5
      vertex -0.927051 2.85317 -3.5
      vertex -0.313585 2.98357 -3.5
    endloop
  endfacet
  facet normal 0.743144 -0.669131 0
    outer loop
      vertex -2.42705 1.76336 3.5
      vertex -2.00739 2.22943 -3.5
      vertex -2.00739 2.22943 3.5
    endloop
  endfacet
  facet normal 0.743144 -0.669131 0
    outer loop
      vertex -2.00739 2.22943 -3.5
      vertex -2.42705 1.76336 3.5
      vertex -2.42705 1.76336 -3.5
    endloop
  endfacet
  facet normal -0.994522 -0.104529 0
    outer loop
      vertex 3 0 -3.5
      vertex 2.93444 0.623734 3.5
      vertex 2.93444 0.623734 -3.5
    endloop
  endfacet
  facet normal -0.994522 -0.104529 0
    outer loop
      vertex 2.93444 0.623734 3.5
      vertex 3 0 -3.5
      vertex 3 0 3.5
    endloop
  endfacet
  facet normal -0.951056 0.309017 0
    outer loop
      vertex 2.74064 -1.22021 -3.5
      vertex 2.93444 -0.623734 3.5
      vertex 2.93444 -0.623734 -3.5
    endloop
  endfacet
  facet normal -0.951056 0.309017 0
    outer loop
      vertex 2.93444 -0.623734 3.5
      vertex 2.74064 -1.22021 -3.5
      vertex 2.74064 -1.22021 3.5
    endloop
  endfacet
  facet normal 0.994522 0.104529 0
    outer loop
      vertex -2.93444 -0.623734 3.5
      vertex -3 0 -3.5
      vertex -3 0 3.5
    endloop
  endfacet
  facet normal 0.994522 0.104529 0
    outer loop
      vertex -3 0 -3.5
      vertex -2.93444 -0.623734 3.5
      vertex -2.93444 -0.623734 -3.5
    endloop
  endfacet
  facet normal -0.587786 0.809016 0
    outer loop
      vertex 2.00739 -2.22943 -3.5
      vertex 1.5 -2.59808 3.5
      vertex 2.00739 -2.22943 3.5
    endloop
  endfacet
  facet normal -0.587786 0.809016 0
    outer loop
      vertex 1.5 -2.59808 3.5
      vertex 2.00739 -2.22943 -3.5
      vertex 1.5 -2.59808 -3.5
    endloop
  endfacet
  facet normal -0.951056 -0.309017 0
    outer loop
      vertex 2.93444 0.623734 -3.5
      vertex 2.74064 1.22021 3.5
      vertex 2.74064 1.22021 -3.5
    endloop
  endfacet
  facet normal -0.951056 -0.309017 0
    outer loop
      vertex 2.74064 1.22021 3.5
      vertex 2.93444 0.623734 -3.5
      vertex 2.93444 0.623734 3.5
    endloop
  endfacet
  facet normal -0.207911 -0.978148 0
    outer loop
      vertex 0.313585 2.98357 -3.5
      vertex 0.927051 2.85317 3.5
      vertex 0.313585 2.98357 3.5
    endloop
  endfacet
  facet normal -0.207911 -0.978148 -0
    outer loop
      vertex 0.927051 2.85317 3.5
      vertex 0.313585 2.98357 -3.5
      vertex 0.927051 2.85317 -3.5
    endloop
  endfacet
  facet normal -0.866026 0.5 0
    outer loop
      vertex 2.42705 -1.76336 -3.5
      vertex 2.74064 -1.22021 3.5
      vertex 2.74064 -1.22021 -3.5
    endloop
  endfacet
  facet normal -0.866026 0.5 0
    outer loop
      vertex 2.74064 -1.22021 3.5
      vertex 2.42705 -1.76336 -3.5
      vertex 2.42705 -1.76336 3.5
    endloop
  endfacet
  facet normal -0.207911 0.978148 0
    outer loop
      vertex 0.927051 -2.85317 -3.5
      vertex 0.313585 -2.98357 3.5
      vertex 0.927051 -2.85317 3.5
    endloop
  endfacet
  facet normal -0.207911 0.978148 0
    outer loop
      vertex 0.313585 -2.98357 3.5
      vertex 0.927051 -2.85317 -3.5
      vertex 0.313585 -2.98357 -3.5
    endloop
  endfacet
  facet normal -0.406737 0.913545 0
    outer loop
      vertex 1.5 -2.59808 -3.5
      vertex 0.927051 -2.85317 3.5
      vertex 1.5 -2.59808 3.5
    endloop
  endfacet
  facet normal -0.406737 0.913545 0
    outer loop
      vertex 0.927051 -2.85317 3.5
      vertex 1.5 -2.59808 -3.5
      vertex 0.927051 -2.85317 -3.5
    endloop
  endfacet
  facet normal 0.866026 0.5 0
    outer loop
      vertex -2.42705 -1.76336 3.5
      vertex -2.74064 -1.22021 -3.5
      vertex -2.74064 -1.22021 3.5
    endloop
  endfacet
  facet normal 0.866026 0.5 0
    outer loop
      vertex -2.74064 -1.22021 -3.5
      vertex -2.42705 -1.76336 3.5
      vertex -2.42705 -1.76336 -3.5
    endloop
  endfacet
  facet normal 0.951056 0.309017 0
    outer loop
      vertex -2.74064 -1.22021 3.5
      vertex -2.93444 -0.623734 -3.5
      vertex -2.93444 -0.623734 3.5
    endloop
  endfacet
  facet normal 0.951056 0.309017 0
    outer loop
      vertex -2.93444 -0.623734 -3.5
      vertex -2.74064 -1.22021 3.5
      vertex -2.74064 -1.22021 -3.5
    endloop
  endfacet
  facet normal 0.743144 0.669131 0
    outer loop
      vertex -2.00739 -2.22943 3.5
      vertex -2.42705 -1.76336 -3.5
      vertex -2.42705 -1.76336 3.5
    endloop
  endfacet
  facet normal 0.743144 0.669131 0
    outer loop
      vertex -2.42705 -1.76336 -3.5
      vertex -2.00739 -2.22943 3.5
      vertex -2.00739 -2.22943 -3.5
    endloop
  endfacet
  facet normal 0.207911 0.978148 -0
    outer loop
      vertex -0.313585 -2.98357 -3.5
      vertex -0.927051 -2.85317 3.5
      vertex -0.313585 -2.98357 3.5
    endloop
  endfacet
  facet normal 0.207911 0.978148 0
    outer loop
      vertex -0.927051 -2.85317 3.5
      vertex -0.313585 -2.98357 -3.5
      vertex -0.927051 -2.85317 -3.5
    endloop
  endfacet
  facet normal 0 1 -0
    outer loop
      vertex 0.313585 -2.98357 -3.5
      vertex -0.313585 -2.98357 3.5
      vertex 0.313585 -2.98357 3.5
    endloop
  endfacet
  facet normal 0 1 0
    outer loop
      vertex -0.313585 -2.98357 3.5
      vertex 0.313585 -2.98357 -3.5
      vertex -0.313585 -2.98357 -3.5
    endloop
  endfacet
  facet normal -0.743144 0.669131 0
    outer loop
      vertex 2.00739 -2.22943 -3.5
      vertex 2.42705 -1.76336 3.5
      vertex 2.42705 -1.76336 -3.5
    endloop
  endfacet
  facet normal -0.743144 0.669131 0
    outer loop
      vertex 2.42705 -1.76336 3.5
      vertex 2.00739 -2.22943 -3.5
      vertex 2.00739 -2.22943 3.5
    endloop
  endfacet
  facet normal 0.406737 0.913545 -0
    outer loop
      vertex -0.927051 -2.85317 -3.5
      vertex -1.5 -2.59808 3.5
      vertex -0.927051 -2.85317 3.5
    endloop
  endfacet
  facet normal 0.406737 0.913545 0
    outer loop
      vertex -1.5 -2.59808 3.5
      vertex -0.927051 -2.85317 -3.5
      vertex -1.5 -2.59808 -3.5
    endloop
  endfacet
  facet normal 0.587786 0.809016 -0
    outer loop
      vertex -1.5 -2.59808 -3.5
      vertex -2.00739 -2.22943 3.5
      vertex -1.5 -2.59808 3.5
    endloop
  endfacet
  facet normal 0.587786 0.809016 0
    outer loop
      vertex -2.00739 -2.22943 3.5
      vertex -1.5 -2.59808 -3.5
      vertex -2.00739 -2.22943 -3.5
    endloop
  endfacet
endsolid OpenSCAD_Model
