solid OpenSCAD_Model
  facet normal -1 0 0
    outer loop
      vertex 2.5 -12.5 -42.5
      vertex 2.5 12.5 -40.5
      vertex 2.5 12.5 -42.5
    endloop
  endfacet
  facet normal -1 -0 0
    outer loop
      vertex 2.5 12.5 -40.5
      vertex 2.5 -12.5 -42.5
      vertex 2.5 -12.5 -40.5
    endloop
  endfacet
  facet normal 1 -0 0
    outer loop
      vertex -2.5 -12.5 -40.5
      vertex -2.5 12.5 -42.5
      vertex -2.5 12.5 -40.5
    endloop
  endfacet
  facet normal 1 0 0
    outer loop
      vertex -2.5 12.5 -42.5
      vertex -2.5 -12.5 -40.5
      vertex -2.5 -12.5 -42.5
    endloop
  endfacet
  facet normal 0 -1 0
    outer loop
      vertex -2.5 12.5 -42.5
      vertex 2.5 12.5 -40.5
      vertex -2.5 12.5 -40.5
    endloop
  endfacet
  facet normal 0 -1 -0
    outer loop
      vertex 2.5 12.5 -40.5
      vertex -2.5 12.5 -42.5
      vertex 2.5 12.5 -42.5
    endloop
  endfacet
  facet normal 0 1 -0
    outer loop
      vertex 2.5 -12.5 -42.5
      vertex -2.5 -12.5 -40.5
      vertex 2.5 -12.5 -40.5
    endloop
  endfacet
  facet normal 0 1 0
    outer loop
      vertex -2.5 -12.5 -40.5
      vertex 2.5 -12.5 -42.5
      vertex -2.5 -12.5 -42.5
    endloop
  endfacet
  facet normal -1 0 0
    outer loop
      vertex 14.5 -12.5 -42.5
      vertex 14.5 12.5 -40.5
      vertex 14.5 12.5 -42.5
    endloop
  endfacet
  facet normal -1 -0 0
    outer loop
      vertex 14.5 12.5 -40.5
      vertex 14.5 -12.5 -42.5
      vertex 14.5 -12.5 -40.5
    endloop
  endfacet
  facet normal 1 -0 0
    outer loop
      vertex 9.5 -12.5 -40.5
      vertex 9.5 12.5 -42.5
      vertex 9.5 12.5 -40.5
    endloop
  endfacet
  facet normal 1 0 0
    outer loop
      vertex 9.5 12.5 -42.5
      vertex 9.5 -12.5 -40.5
      vertex 9.5 -12.5 -42.5
    endloop
  endfacet
  facet normal 0 -1 0
    outer loop
      vertex 9.5 12.5 -42.5
      vertex 14.5 12.5 -40.5
      vertex 9.5 12.5 -40.5
    endloop
  endfacet
  facet normal 0 -1 -0
    outer loop
      vertex 14.5 12.5 -40.5
      vertex 9.5 12.5 -42.5
      vertex 14.5 12.5 -42.5
    endloop
  endfacet
  facet normal 0 1 -0
    outer loop
      vertex 14.5 -12.5 -42.5
      vertex 9.5 -12.5 -40.5
      vertex 14.5 -12.5 -40.5
    endloop
  endfacet
  facet normal 0 1 0
    outer loop
      vertex 9.5 -12.5 -40.5
      vertex 14.5 -12.5 -42.5
      vertex 9.5 -12.5 -42.5
    endloop
  endfacet
  facet normal -1 0 0
    outer loop
      vertex -9.5 -12.5 -42.5
      vertex -9.5 12.5 -40.5
      vertex -9.5 12.5 -42.5
    endloop
  endfacet
  facet normal -1 -0 0
    outer loop
      vertex -9.5 12.5 -40.5
      vertex -9.5 -12.5 -42.5
      vertex -9.5 -12.5 -40.5
    endloop
  endfacet
  facet normal 1 -0 0
    outer loop
      vertex -14.5 -12.5 -40.5
      vertex -14.5 12.5 -42.5
      vertex -14.5 12.5 -40.5
    endloop
  endfacet
  facet normal 1 0 0
    outer loop
      vertex -14.5 12.5 -42.5
      vertex -14.5 -12.5 -40.5
      vertex -14.5 -12.5 -42.5
    endloop
  endfacet
  facet normal 0 -1 0
    outer loop
      vertex -14.5 12.5 -42.5
      vertex -9.5 12.5 -40.5
      vertex -14.5 12.5 -40.5
    endloop
  endfacet
  facet normal 0 -1 -0
    outer loop
      vertex -9.5 12.5 -40.5
      vertex -14.5 12.5 -42.5
      vertex -9.5 12.5 -42.5
    endloop
  endfacet
  facet normal 0 1 -0
    outer loop
      vertex -9.5 -12.5 -42.5
      vertex -14.5 -12.5 -40.5
      vertex -9.5 -12.5 -40.5
    endloop
  endfacet
  facet normal 0 1 0
    outer loop
      vertex -14.5 -12.5 -40.5
      vertex -9.5 -12.5 -42.5
      vertex -14.5 -12.5 -42.5
    endloop
  endfacet
  facet normal -1 0 0
    outer loop
      vertex 26.5 -12.5 -42.5
      vertex 26.5 12.5 -40.5
      vertex 26.5 12.5 -42.5
    endloop
  endfacet
  facet normal -1 -0 0
    outer loop
      vertex 26.5 12.5 -40.5
      vertex 26.5 -12.5 -42.5
      vertex 26.5 -12.5 -40.5
    endloop
  endfacet
  facet normal 1 -0 0
    outer loop
      vertex 21.5 -12.5 -40.5
      vertex 21.5 12.5 -42.5
      vertex 21.5 12.5 -40.5
    endloop
  endfacet
  facet normal 1 0 0
    outer loop
      vertex 21.5 12.5 -42.5
      vertex 21.5 -12.5 -40.5
      vertex 21.5 -12.5 -42.5
    endloop
  endfacet
  facet normal 0 -1 0
    outer loop
      vertex 21.5 12.5 -42.5
      vertex 26.5 12.5 -40.5
      vertex 21.5 12.5 -40.5
    endloop
  endfacet
  facet normal 0 -1 -0
    outer loop
      vertex 26.5 12.5 -40.5
      vertex 21.5 12.5 -42.5
      vertex 26.5 12.5 -42.5
    endloop
  endfacet
  facet normal 0 1 -0
    outer loop
      vertex 26.5 -12.5 -42.5
      vertex 21.5 -12.5 -40.5
      vertex 26.5 -12.5 -40.5
    endloop
  endfacet
  facet normal 0 1 0
    outer loop
      vertex 21.5 -12.5 -40.5
      vertex 26.5 -12.5 -42.5
      vertex 21.5 -12.5 -42.5
    endloop
  endfacet
  facet normal -1 0 0
    outer loop
      vertex -21.5 -12.5 -42.5
      vertex -21.5 12.5 -40.5
      vertex -21.5 12.5 -42.5
    endloop
  endfacet
  facet normal -1 -0 0
    outer loop
      vertex -21.5 12.5 -40.5
      vertex -21.5 -12.5 -42.5
      vertex -21.5 -12.5 -40.5
    endloop
  endfacet
  facet normal 1 -0 0
    outer loop
      vertex -26.5 -12.5 -40.5
      vertex -26.5 12.5 -42.5
      vertex -26.5 12.5 -40.5
    endloop
  endfacet
  facet normal 1 0 0
    outer loop
      vertex -26.5 12.5 -42.5
      vertex -26.5 -12.5 -40.5
      vertex -26.5 -12.5 -42.5
    endloop
  endfacet
  facet normal 0 -1 0
    outer loop
      vertex -26.5 12.5 -42.5
      vertex -21.5 12.5 -40.5
      vertex -26.5 12.5 -40.5
    endloop
  endfacet
  facet normal 0 -1 -0
    outer loop
      vertex -21.5 12.5 -40.5
      vertex -26.5 12.5 -42.5
      vertex -21.5 12.5 -42.5
    endloop
  endfacet
  facet normal 0 1 -0
    outer loop
      vertex -21.5 -12.5 -42.5
      vertex -26.5 -12.5 -40.5
      vertex -21.5 -12.5 -40.5
    endloop
  endfacet
  facet normal 0 1 0
    outer loop
      vertex -26.5 -12.5 -40.5
      vertex -21.5 -12.5 -42.5
      vertex -26.5 -12.5 -42.5
    endloop
  endfacet
  facet normal -1 0 0
    outer loop
      vertex 38.5 -12.5 -42.5
      vertex 38.5 12.5 -40.5
      vertex 38.5 12.5 -42.5
    endloop
  endfacet
  facet normal -1 -0 0
    outer loop
      vertex 38.5 12.5 -40.5
      vertex 38.5 -12.5 -42.5
      vertex 38.5 -12.5 -40.5
    endloop
  endfacet
  facet normal 1 -0 0
    outer loop
      vertex 33.5 -12.5 -40.5
      vertex 33.5 12.5 -42.5
      vertex 33.5 12.5 -40.5
    endloop
  endfacet
  facet normal 1 0 0
    outer loop
      vertex 33.5 12.5 -42.5
      vertex 33.5 -12.5 -40.5
      vertex 33.5 -12.5 -42.5
    endloop
  endfacet
  facet normal 0 -1 0
    outer loop
      vertex 33.5 12.5 -42.5
      vertex 38.5 12.5 -40.5
      vertex 33.5 12.5 -40.5
    endloop
  endfacet
  facet normal 0 -1 -0
    outer loop
      vertex 38.5 12.5 -40.5
      vertex 33.5 12.5 -42.5
      vertex 38.5 12.5 -42.5
    endloop
  endfacet
  facet normal 0 1 -0
    outer loop
      vertex 38.5 -12.5 -42.5
      vertex 33.5 -12.5 -40.5
      vertex 38.5 -12.5 -40.5
    endloop
  endfacet
  facet normal 0 1 0
    outer loop
      vertex 33.5 -12.5 -40.5
      vertex 38.5 -12.5 -42.5
      vertex 33.5 -12.5 -42.5
    endloop
  endfacet
  facet normal -1 0 0
    outer loop
      vertex -33.5 -12.5 -42.5
      vertex -33.5 12.5 -40.5
      vertex -33.5 12.5 -42.5
    endloop
  endfacet
  facet normal -1 -0 0
    outer loop
      vertex -33.5 12.5 -40.5
      vertex -33.5 -12.5 -42.5
      vertex -33.5 -12.5 -40.5
    endloop
  endfacet
  facet normal 1 -0 0
    outer loop
      vertex -38.5 -12.5 -40.5
      vertex -38.5 12.5 -42.5
      vertex -38.5 12.5 -40.5
    endloop
  endfacet
  facet normal 1 0 0
    outer loop
      vertex -38.5 12.5 -42.5
      vertex -38.5 -12.5 -40.5
      vertex -38.5 -12.5 -42.5
    endloop
  endfacet
  facet normal 0 -1 0
    outer loop
      vertex -38.5 12.5 -42.5
      vertex -33.5 12.5 -40.5
      vertex -38.5 12.5 -40.5
    endloop
  endfacet
  facet normal 0 -1 -0
    outer loop
      vertex -33.5 12.5 -40.5
      vertex -38.5 12.5 -42.5
      vertex -33.5 12.5 -42.5
    endloop
  endfacet
  facet normal 0 1 -0
    outer loop
      vertex -33.5 -12.5 -42.5
      vertex -38.5 -12.5 -40.5
      vertex -33.5 -12.5 -40.5
    endloop
  endfacet
  facet normal 0 1 0
    outer loop
      vertex -38.5 -12.5 -40.5
      vertex -33.5 -12.5 -42.5
      vertex -38.5 -12.5 -42.5
    endloop
  endfacet
  facet normal 1 -0 0
    outer loop
      vertex 42.5 -15 42.5
      vertex 42.5 15 -42.5
      vertex 42.5 15 42.5
    endloop
  endfacet
  facet normal 1 0 0
    outer loop
      vertex 42.5 15 -42.5
      vertex 42.5 -15 42.5
      vertex 42.5 -15 -42.5
    endloop
  endfacet
  facet normal 0 0 1
    outer loop
      vertex 42.5 15 42.5
      vertex 41.5 14 42.5
      vertex 42.5 -15 42.5
    endloop
  endfacet
  facet normal 0 0 1
    outer loop
      vertex 42.5 15 42.5
      vertex -41.5 14 42.5
      vertex 41.5 14 42.5
    endloop
  endfacet
  facet normal 0 0 1
    outer loop
      vertex -41.5 14 42.5
      vertex -42.5 15 42.5
      vertex -41.5 -14 42.5
    endloop
  endfacet
  facet normal -0 0 1
    outer loop
      vertex -42.5 15 42.5
      vertex -41.5 14 42.5
      vertex 42.5 15 42.5
    endloop
  endfacet
  facet normal -0 0 1
    outer loop
      vertex 41.5 -14 42.5
      vertex 42.5 -15 42.5
      vertex 41.5 14 42.5
    endloop
  endfacet
  facet normal -0 0 1
    outer loop
      vertex -41.5 -14 42.5
      vertex 42.5 -15 42.5
      vertex 41.5 -14 42.5
    endloop
  endfacet
  facet normal 0 0 1
    outer loop
      vertex -41.5 -14 42.5
      vertex -42.5 -15 42.5
      vertex 42.5 -15 42.5
    endloop
  endfacet
  facet normal 0 0 1
    outer loop
      vertex -42.5 -15 42.5
      vertex -41.5 -14 42.5
      vertex -42.5 15 42.5
    endloop
  endfacet
  facet normal 0 0 -1
    outer loop
      vertex 42.5 -15 -42.5
      vertex 38.5 -12.5 -42.5
      vertex 42.5 15 -42.5
    endloop
  endfacet
  facet normal 0 0 -1
    outer loop
      vertex 42.5 -15 -42.5
      vertex 33.5 -12.5 -42.5
      vertex 38.5 -12.5 -42.5
    endloop
  endfacet
  facet normal 0 0 -1
    outer loop
      vertex 33.5 -12.5 -42.5
      vertex 26.5 -12.5 -42.5
      vertex 33.5 12.5 -42.5
    endloop
  endfacet
  facet normal 0 0 -1
    outer loop
      vertex 42.5 -15 -42.5
      vertex 26.5 -12.5 -42.5
      vertex 33.5 -12.5 -42.5
    endloop
  endfacet
  facet normal 0 0 -1
    outer loop
      vertex 42.5 -15 -42.5
      vertex 21.5 -12.5 -42.5
      vertex 26.5 -12.5 -42.5
    endloop
  endfacet
  facet normal 0 0 -1
    outer loop
      vertex 21.5 -12.5 -42.5
      vertex 14.5 -12.5 -42.5
      vertex 21.5 12.5 -42.5
    endloop
  endfacet
  facet normal 0 0 -1
    outer loop
      vertex 42.5 -15 -42.5
      vertex 14.5 -12.5 -42.5
      vertex 21.5 -12.5 -42.5
    endloop
  endfacet
  facet normal 0 0 -1
    outer loop
      vertex 42.5 -15 -42.5
      vertex 9.5 -12.5 -42.5
      vertex 14.5 -12.5 -42.5
    endloop
  endfacet
  facet normal 0 0 -1
    outer loop
      vertex 9.5 -12.5 -42.5
      vertex 2.5 -12.5 -42.5
      vertex 9.5 12.5 -42.5
    endloop
  endfacet
  facet normal 0 0 -1
    outer loop
      vertex 42.5 -15 -42.5
      vertex 2.5 -12.5 -42.5
      vertex 9.5 -12.5 -42.5
    endloop
  endfacet
  facet normal 0 0 -1
    outer loop
      vertex 42.5 -15 -42.5
      vertex -2.5 -12.5 -42.5
      vertex 2.5 -12.5 -42.5
    endloop
  endfacet
  facet normal 0 0 -1
    outer loop
      vertex -2.5 -12.5 -42.5
      vertex -9.5 -12.5 -42.5
      vertex -2.5 12.5 -42.5
    endloop
  endfacet
  facet normal 0 0 -1
    outer loop
      vertex -42.5 -15 -42.5
      vertex -2.5 -12.5 -42.5
      vertex 42.5 -15 -42.5
    endloop
  endfacet
  facet normal -0 0 -1
    outer loop
      vertex -2.5 -12.5 -42.5
      vertex -42.5 -15 -42.5
      vertex -9.5 -12.5 -42.5
    endloop
  endfacet
  facet normal 0 0 -1
    outer loop
      vertex -14.5 -12.5 -42.5
      vertex -21.5 -12.5 -42.5
      vertex -14.5 12.5 -42.5
    endloop
  endfacet
  facet normal -0 0 -1
    outer loop
      vertex -9.5 -12.5 -42.5
      vertex -42.5 -15 -42.5
      vertex -14.5 -12.5 -42.5
    endloop
  endfacet
  facet normal -0 0 -1
    outer loop
      vertex -14.5 -12.5 -42.5
      vertex -42.5 -15 -42.5
      vertex -21.5 -12.5 -42.5
    endloop
  endfacet
  facet normal 0 0 -1
    outer loop
      vertex -26.5 -12.5 -42.5
      vertex -33.5 -12.5 -42.5
      vertex -26.5 12.5 -42.5
    endloop
  endfacet
  facet normal -0 0 -1
    outer loop
      vertex -21.5 -12.5 -42.5
      vertex -42.5 -15 -42.5
      vertex -26.5 -12.5 -42.5
    endloop
  endfacet
  facet normal -0 0 -1
    outer loop
      vertex -26.5 -12.5 -42.5
      vertex -42.5 -15 -42.5
      vertex -33.5 -12.5 -42.5
    endloop
  endfacet
  facet normal -0 0 -1
    outer loop
      vertex -38.5 -12.5 -42.5
      vertex -42.5 -15 -42.5
      vertex -38.5 12.5 -42.5
    endloop
  endfacet
  facet normal -0 0 -1
    outer loop
      vertex -33.5 -12.5 -42.5
      vertex -42.5 -15 -42.5
      vertex -38.5 -12.5 -42.5
    endloop
  endfacet
  facet normal 0 0 -1
    outer loop
      vertex 38.5 12.5 -42.5
      vertex 42.5 15 -42.5
      vertex 38.5 -12.5 -42.5
    endloop
  endfacet
  facet normal 0 0 -1
    outer loop
      vertex 33.5 12.5 -42.5
      vertex 42.5 15 -42.5
      vertex 38.5 12.5 -42.5
    endloop
  endfacet
  facet normal 0 0 -1
    outer loop
      vertex 26.5 12.5 -42.5
      vertex 33.5 12.5 -42.5
      vertex 26.5 -12.5 -42.5
    endloop
  endfacet
  facet normal 0 0 -1
    outer loop
      vertex 26.5 12.5 -42.5
      vertex 42.5 15 -42.5
      vertex 33.5 12.5 -42.5
    endloop
  endfacet
  facet normal 0 0 -1
    outer loop
      vertex 21.5 12.5 -42.5
      vertex 42.5 15 -42.5
      vertex 26.5 12.5 -42.5
    endloop
  endfacet
  facet normal 0 0 -1
    outer loop
      vertex 14.5 12.5 -42.5
      vertex 21.5 12.5 -42.5
      vertex 14.5 -12.5 -42.5
    endloop
  endfacet
  facet normal 0 0 -1
    outer loop
      vertex 14.5 12.5 -42.5
      vertex 42.5 15 -42.5
      vertex 21.5 12.5 -42.5
    endloop
  endfacet
  facet normal 0 0 -1
    outer loop
      vertex 9.5 12.5 -42.5
      vertex 42.5 15 -42.5
      vertex 14.5 12.5 -42.5
    endloop
  endfacet
  facet normal 0 0 -1
    outer loop
      vertex 2.5 12.5 -42.5
      vertex 9.5 12.5 -42.5
      vertex 2.5 -12.5 -42.5
    endloop
  endfacet
  facet normal 0 0 -1
    outer loop
      vertex 2.5 12.5 -42.5
      vertex 42.5 15 -42.5
      vertex 9.5 12.5 -42.5
    endloop
  endfacet
  facet normal 0 0 -1
    outer loop
      vertex -2.5 12.5 -42.5
      vertex 42.5 15 -42.5
      vertex 2.5 12.5 -42.5
    endloop
  endfacet
  facet normal 0 0 -1
    outer loop
      vertex -9.5 12.5 -42.5
      vertex -2.5 12.5 -42.5
      vertex -9.5 -12.5 -42.5
    endloop
  endfacet
  facet normal 0 0 -1
    outer loop
      vertex -42.5 15 -42.5
      vertex -2.5 12.5 -42.5
      vertex -9.5 12.5 -42.5
    endloop
  endfacet
  facet normal 0 0 -1
    outer loop
      vertex -42.5 15 -42.5
      vertex -9.5 12.5 -42.5
      vertex -14.5 12.5 -42.5
    endloop
  endfacet
  facet normal 0 0 -1
    outer loop
      vertex -21.5 12.5 -42.5
      vertex -14.5 12.5 -42.5
      vertex -21.5 -12.5 -42.5
    endloop
  endfacet
  facet normal 0 0 -1
    outer loop
      vertex -42.5 15 -42.5
      vertex -14.5 12.5 -42.5
      vertex -21.5 12.5 -42.5
    endloop
  endfacet
  facet normal 0 0 -1
    outer loop
      vertex -42.5 15 -42.5
      vertex -21.5 12.5 -42.5
      vertex -26.5 12.5 -42.5
    endloop
  endfacet
  facet normal 0 0 -1
    outer loop
      vertex -33.5 12.5 -42.5
      vertex -26.5 12.5 -42.5
      vertex -33.5 -12.5 -42.5
    endloop
  endfacet
  facet normal 0 0 -1
    outer loop
      vertex -42.5 15 -42.5
      vertex -26.5 12.5 -42.5
      vertex -33.5 12.5 -42.5
    endloop
  endfacet
  facet normal 0 0 -1
    outer loop
      vertex -42.5 15 -42.5
      vertex -33.5 12.5 -42.5
      vertex -38.5 12.5 -42.5
    endloop
  endfacet
  facet normal 0 0 -1
    outer loop
      vertex -2.5 12.5 -42.5
      vertex -42.5 15 -42.5
      vertex 42.5 15 -42.5
    endloop
  endfacet
  facet normal 0 0 -1
    outer loop
      vertex -42.5 15 -42.5
      vertex -38.5 12.5 -42.5
      vertex -42.5 -15 -42.5
    endloop
  endfacet
  facet normal -1 0 0
    outer loop
      vertex -42.5 -15 -42.5
      vertex -42.5 15 42.5
      vertex -42.5 15 -42.5
    endloop
  endfacet
  facet normal -1 -0 0
    outer loop
      vertex -42.5 15 42.5
      vertex -42.5 -15 -42.5
      vertex -42.5 -15 42.5
    endloop
  endfacet
  facet normal 0 1 0
    outer loop
      vertex 42.5 15 42.5
      vertex 2.6 15 32.6
      vertex -42.5 15 42.5
    endloop
  endfacet
  facet normal 0 1 0
    outer loop
      vertex 42.5 15 42.5
      vertex 2.6 15 17.4
      vertex 2.6 15 32.6
    endloop
  endfacet
  facet normal 0 1 0
    outer loop
      vertex 2.6 15 17.4
      vertex 42.5 15 -42.5
      vertex -2.6 15 17.4
    endloop
  endfacet
  facet normal 0 1 -0
    outer loop
      vertex 42.5 15 -42.5
      vertex 2.6 15 17.4
      vertex 42.5 15 42.5
    endloop
  endfacet
  facet normal 0 1 -0
    outer loop
      vertex -2.6 15 32.6
      vertex -42.5 15 42.5
      vertex 2.6 15 32.6
    endloop
  endfacet
  facet normal 0 1 -0
    outer loop
      vertex -2.6 15 17.4
      vertex -42.5 15 42.5
      vertex -2.6 15 32.6
    endloop
  endfacet
  facet normal 0 1 0
    outer loop
      vertex -42.5 15 -42.5
      vertex -2.6 15 17.4
      vertex 42.5 15 -42.5
    endloop
  endfacet
  facet normal 0 1 0
    outer loop
      vertex -2.6 15 17.4
      vertex -42.5 15 -42.5
      vertex -42.5 15 42.5
    endloop
  endfacet
  facet normal 0 -1 0
    outer loop
      vertex -42.5 -15 -42.5
      vertex 42.5 -15 42.5
      vertex -42.5 -15 42.5
    endloop
  endfacet
  facet normal 0 -1 -0
    outer loop
      vertex 42.5 -15 42.5
      vertex -42.5 -15 -42.5
      vertex 42.5 -15 -42.5
    endloop
  endfacet
  facet normal -1 0 0
    outer loop
      vertex 41.5 -14 -40.5
      vertex 41.5 14 42.5
      vertex 41.5 14 -40.5
    endloop
  endfacet
  facet normal -1 -0 0
    outer loop
      vertex 41.5 14 42.5
      vertex 41.5 -14 -40.5
      vertex 41.5 -14 42.5
    endloop
  endfacet
  facet normal 0 0 1
    outer loop
      vertex 41.5 14 -40.5
      vertex 38.5 12.5 -40.5
      vertex 41.5 -14 -40.5
    endloop
  endfacet
  facet normal 0 0 1
    outer loop
      vertex 41.5 14 -40.5
      vertex 33.5 12.5 -40.5
      vertex 38.5 12.5 -40.5
    endloop
  endfacet
  facet normal 0 0 1
    outer loop
      vertex 33.5 12.5 -40.5
      vertex 26.5 12.5 -40.5
      vertex 33.5 -12.5 -40.5
    endloop
  endfacet
  facet normal 0 0 1
    outer loop
      vertex 41.5 14 -40.5
      vertex 26.5 12.5 -40.5
      vertex 33.5 12.5 -40.5
    endloop
  endfacet
  facet normal 0 0 1
    outer loop
      vertex 41.5 14 -40.5
      vertex 21.5 12.5 -40.5
      vertex 26.5 12.5 -40.5
    endloop
  endfacet
  facet normal 0 0 1
    outer loop
      vertex 21.5 12.5 -40.5
      vertex 14.5 12.5 -40.5
      vertex 21.5 -12.5 -40.5
    endloop
  endfacet
  facet normal 0 0 1
    outer loop
      vertex 41.5 14 -40.5
      vertex 14.5 12.5 -40.5
      vertex 21.5 12.5 -40.5
    endloop
  endfacet
  facet normal 0 0 1
    outer loop
      vertex 41.5 14 -40.5
      vertex 9.5 12.5 -40.5
      vertex 14.5 12.5 -40.5
    endloop
  endfacet
  facet normal 0 0 1
    outer loop
      vertex 9.5 12.5 -40.5
      vertex 2.5 12.5 -40.5
      vertex 9.5 -12.5 -40.5
    endloop
  endfacet
  facet normal 0 0 1
    outer loop
      vertex 41.5 14 -40.5
      vertex 2.5 12.5 -40.5
      vertex 9.5 12.5 -40.5
    endloop
  endfacet
  facet normal 0 0 1
    outer loop
      vertex 41.5 14 -40.5
      vertex -2.5 12.5 -40.5
      vertex 2.5 12.5 -40.5
    endloop
  endfacet
  facet normal 0 0 1
    outer loop
      vertex -2.5 12.5 -40.5
      vertex -9.5 12.5 -40.5
      vertex -2.5 -12.5 -40.5
    endloop
  endfacet
  facet normal -0 0 1
    outer loop
      vertex -41.5 14 -40.5
      vertex -2.5 12.5 -40.5
      vertex 41.5 14 -40.5
    endloop
  endfacet
  facet normal 0 0 1
    outer loop
      vertex -2.5 12.5 -40.5
      vertex -41.5 14 -40.5
      vertex -9.5 12.5 -40.5
    endloop
  endfacet
  facet normal 0 0 1
    outer loop
      vertex -14.5 12.5 -40.5
      vertex -21.5 12.5 -40.5
      vertex -14.5 -12.5 -40.5
    endloop
  endfacet
  facet normal 0 0 1
    outer loop
      vertex -9.5 12.5 -40.5
      vertex -41.5 14 -40.5
      vertex -14.5 12.5 -40.5
    endloop
  endfacet
  facet normal 0 0 1
    outer loop
      vertex -14.5 12.5 -40.5
      vertex -41.5 14 -40.5
      vertex -21.5 12.5 -40.5
    endloop
  endfacet
  facet normal 0 0 1
    outer loop
      vertex -26.5 12.5 -40.5
      vertex -33.5 12.5 -40.5
      vertex -26.5 -12.5 -40.5
    endloop
  endfacet
  facet normal 0 0 1
    outer loop
      vertex -21.5 12.5 -40.5
      vertex -41.5 14 -40.5
      vertex -26.5 12.5 -40.5
    endloop
  endfacet
  facet normal 0 0 1
    outer loop
      vertex -26.5 12.5 -40.5
      vertex -41.5 14 -40.5
      vertex -33.5 12.5 -40.5
    endloop
  endfacet
  facet normal 0 0 1
    outer loop
      vertex -38.5 12.5 -40.5
      vertex -41.5 14 -40.5
      vertex -38.5 -12.5 -40.5
    endloop
  endfacet
  facet normal 0 0 1
    outer loop
      vertex -33.5 12.5 -40.5
      vertex -41.5 14 -40.5
      vertex -38.5 12.5 -40.5
    endloop
  endfacet
  facet normal -0 0 1
    outer loop
      vertex 38.5 -12.5 -40.5
      vertex 41.5 -14 -40.5
      vertex 38.5 12.5 -40.5
    endloop
  endfacet
  facet normal -0 0 1
    outer loop
      vertex 33.5 -12.5 -40.5
      vertex 41.5 -14 -40.5
      vertex 38.5 -12.5 -40.5
    endloop
  endfacet
  facet normal 0 0 1
    outer loop
      vertex 26.5 -12.5 -40.5
      vertex 33.5 -12.5 -40.5
      vertex 26.5 12.5 -40.5
    endloop
  endfacet
  facet normal -0 0 1
    outer loop
      vertex 26.5 -12.5 -40.5
      vertex 41.5 -14 -40.5
      vertex 33.5 -12.5 -40.5
    endloop
  endfacet
  facet normal -0 0 1
    outer loop
      vertex 21.5 -12.5 -40.5
      vertex 41.5 -14 -40.5
      vertex 26.5 -12.5 -40.5
    endloop
  endfacet
  facet normal 0 0 1
    outer loop
      vertex 14.5 -12.5 -40.5
      vertex 21.5 -12.5 -40.5
      vertex 14.5 12.5 -40.5
    endloop
  endfacet
  facet normal -0 0 1
    outer loop
      vertex 14.5 -12.5 -40.5
      vertex 41.5 -14 -40.5
      vertex 21.5 -12.5 -40.5
    endloop
  endfacet
  facet normal -0 0 1
    outer loop
      vertex 9.5 -12.5 -40.5
      vertex 41.5 -14 -40.5
      vertex 14.5 -12.5 -40.5
    endloop
  endfacet
  facet normal 0 0 1
    outer loop
      vertex 2.5 -12.5 -40.5
      vertex 9.5 -12.5 -40.5
      vertex 2.5 12.5 -40.5
    endloop
  endfacet
  facet normal -0 0 1
    outer loop
      vertex 2.5 -12.5 -40.5
      vertex 41.5 -14 -40.5
      vertex 9.5 -12.5 -40.5
    endloop
  endfacet
  facet normal -0 0 1
    outer loop
      vertex -2.5 -12.5 -40.5
      vertex 41.5 -14 -40.5
      vertex 2.5 -12.5 -40.5
    endloop
  endfacet
  facet normal 0 0 1
    outer loop
      vertex -9.5 -12.5 -40.5
      vertex -2.5 -12.5 -40.5
      vertex -9.5 12.5 -40.5
    endloop
  endfacet
  facet normal 0 0 1
    outer loop
      vertex -41.5 -14 -40.5
      vertex -2.5 -12.5 -40.5
      vertex -9.5 -12.5 -40.5
    endloop
  endfacet
  facet normal 0 0 1
    outer loop
      vertex -41.5 -14 -40.5
      vertex -9.5 -12.5 -40.5
      vertex -14.5 -12.5 -40.5
    endloop
  endfacet
  facet normal 0 0 1
    outer loop
      vertex -21.5 -12.5 -40.5
      vertex -14.5 -12.5 -40.5
      vertex -21.5 12.5 -40.5
    endloop
  endfacet
  facet normal 0 0 1
    outer loop
      vertex -41.5 -14 -40.5
      vertex -14.5 -12.5 -40.5
      vertex -21.5 -12.5 -40.5
    endloop
  endfacet
  facet normal 0 0 1
    outer loop
      vertex -41.5 -14 -40.5
      vertex -21.5 -12.5 -40.5
      vertex -26.5 -12.5 -40.5
    endloop
  endfacet
  facet normal 0 0 1
    outer loop
      vertex -33.5 -12.5 -40.5
      vertex -26.5 -12.5 -40.5
      vertex -33.5 12.5 -40.5
    endloop
  endfacet
  facet normal 0 0 1
    outer loop
      vertex -41.5 -14 -40.5
      vertex -26.5 -12.5 -40.5
      vertex -33.5 -12.5 -40.5
    endloop
  endfacet
  facet normal 0 0 1
    outer loop
      vertex -41.5 -14 -40.5
      vertex -33.5 -12.5 -40.5
      vertex -38.5 -12.5 -40.5
    endloop
  endfacet
  facet normal 0 0 1
    outer loop
      vertex -2.5 -12.5 -40.5
      vertex -41.5 -14 -40.5
      vertex 41.5 -14 -40.5
    endloop
  endfacet
  facet normal 0 0 1
    outer loop
      vertex -41.5 -14 -40.5
      vertex -38.5 -12.5 -40.5
      vertex -41.5 14 -40.5
    endloop
  endfacet
  facet normal 1 -0 0
    outer loop
      vertex -41.5 -14 42.5
      vertex -41.5 14 -40.5
      vertex -41.5 14 42.5
    endloop
  endfacet
  facet normal 1 0 0
    outer loop
      vertex -41.5 14 -40.5
      vertex -41.5 -14 42.5
      vertex -41.5 -14 -40.5
    endloop
  endfacet
  facet normal 0 -1 0
    outer loop
      vertex -41.5 14 42.5
      vertex -2.6 14 32.6
      vertex 41.5 14 42.5
    endloop
  endfacet
  facet normal 0 -1 0
    outer loop
      vertex -41.5 14 42.5
      vertex -2.6 14 17.4
      vertex -2.6 14 32.6
    endloop
  endfacet
  facet normal 0 -1 -0
    outer loop
      vertex -2.6 14 17.4
      vertex -41.5 14 -40.5
      vertex 2.6 14 17.4
    endloop
  endfacet
  facet normal 0 -1 0
    outer loop
      vertex -41.5 14 -40.5
      vertex -2.6 14 17.4
      vertex -41.5 14 42.5
    endloop
  endfacet
  facet normal 0 -1 0
    outer loop
      vertex 2.6 14 32.6
      vertex 41.5 14 42.5
      vertex -2.6 14 32.6
    endloop
  endfacet
  facet normal 0 -1 0
    outer loop
      vertex 2.6 14 17.4
      vertex 41.5 14 42.5
      vertex 2.6 14 32.6
    endloop
  endfacet
  facet normal 0 -1 0
    outer loop
      vertex 41.5 14 -40.5
      vertex 2.6 14 17.4
      vertex -41.5 14 -40.5
    endloop
  endfacet
  facet normal 0 -1 0
    outer loop
      vertex 2.6 14 17.4
      vertex 41.5 14 -40.5
      vertex 41.5 14 42.5
    endloop
  endfacet
  facet normal 0 1 -0
    outer loop
      vertex 41.5 -14 -40.5
      vertex -41.5 -14 42.5
      vertex 41.5 -14 42.5
    endloop
  endfacet
  facet normal 0 1 0
    outer loop
      vertex -41.5 -14 42.5
      vertex 41.5 -14 -40.5
      vertex -41.5 -14 -40.5
    endloop
  endfacet
  facet normal -1 0 0
    outer loop
      vertex 2.6 14 17.4
      vertex 2.6 15 32.6
      vertex 2.6 15 17.4
    endloop
  endfacet
  facet normal -1 -0 0
    outer loop
      vertex 2.6 15 32.6
      vertex 2.6 14 17.4
      vertex 2.6 14 32.6
    endloop
  endfacet
  facet normal 0 0 -1
    outer loop
      vertex -2.6 14 32.6
      vertex 2.6 15 32.6
      vertex 2.6 14 32.6
    endloop
  endfacet
  facet normal -0 0 -1
    outer loop
      vertex 2.6 15 32.6
      vertex -2.6 14 32.6
      vertex -2.6 15 32.6
    endloop
  endfacet
  facet normal -0 0 1
    outer loop
      vertex -2.6 15 17.4
      vertex 2.6 14 17.4
      vertex 2.6 15 17.4
    endloop
  endfacet
  facet normal 0 0 1
    outer loop
      vertex 2.6 14 17.4
      vertex -2.6 15 17.4
      vertex -2.6 14 17.4
    endloop
  endfacet
  facet normal 1 -0 0
    outer loop
      vertex -2.6 14 32.6
      vertex -2.6 15 17.4
      vertex -2.6 15 32.6
    endloop
  endfacet
  facet normal 1 0 0
    outer loop
      vertex -2.6 15 17.4
      vertex -2.6 14 32.6
      vertex -2.6 14 17.4
    endloop
  endfacet
endsolid OpenSCAD_Model
