solid OpenSCAD_Model
  facet normal 0.951055 0.309021 -1.5948e-18
    outer loop
      vertex 73.3611 15.5934 2.5
      vertex 68.5159 30.5052 0
      vertex 68.5159 30.5052 2.5
    endloop
  endfacet
  facet normal 0.951055 0.309021 -1.5948e-18
    outer loop
      vertex 68.5159 30.5052 0
      vertex 73.3611 15.5934 2.5
      vertex 73.3611 15.5934 0
    endloop
  endfacet
  facet normal 0.994522 0.104526 2.3321e-17
    outer loop
      vertex 75 0 2.5
      vertex 73.3611 15.5934 0
      vertex 73.3611 15.5934 2.5
    endloop
  endfacet
  facet normal 0.994522 0.104526 2.3321e-17
    outer loop
      vertex 73.3611 15.5934 0
      vertex 75 0 2.5
      vertex 75 0 0
    endloop
  endfacet
  facet normal 0.994522 -0.104526 -2.3321e-17
    outer loop
      vertex 73.3611 -15.5934 2.5
      vertex 75 0 0
      vertex 75 0 2.5
    endloop
  endfacet
  facet normal 0.994522 -0.104526 -2.3321e-17
    outer loop
      vertex 75 0 0
      vertex 73.3611 -15.5934 2.5
      vertex 73.3611 -15.5934 0
    endloop
  endfacet
  facet normal 0.406735 0.913546 -0
    outer loop
      vertex 37.5 64.9519 0
      vertex 23.1763 71.3292 2.5
      vertex 37.5 64.9519 2.5
    endloop
  endfacet
  facet normal 0.406735 0.913546 0
    outer loop
      vertex 23.1763 71.3292 2.5
      vertex 37.5 64.9519 0
      vertex 23.1763 71.3292 0
    endloop
  endfacet
  facet normal 0.406735 -0.913546 0
    outer loop
      vertex 23.1763 -71.3292 0
      vertex 37.5 -64.9519 2.5
      vertex 23.1763 -71.3292 2.5
    endloop
  endfacet
  facet normal 0.406735 -0.913546 0
    outer loop
      vertex 37.5 -64.9519 2.5
      vertex 23.1763 -71.3292 0
      vertex 37.5 -64.9519 0
    endloop
  endfacet
  facet normal 0 -1 0
    outer loop
      vertex -7.83963 -74.5891 0
      vertex 7.83963 -74.5891 2.5
      vertex -7.83963 -74.5891 2.5
    endloop
  endfacet
  facet normal 0 -1 -0
    outer loop
      vertex 7.83963 -74.5891 2.5
      vertex -7.83963 -74.5891 0
      vertex 7.83963 -74.5891 0
    endloop
  endfacet
  facet normal -0.587783 0.809018 0
    outer loop
      vertex -37.5 64.9519 0
      vertex -50.1848 55.7359 2.5
      vertex -37.5 64.9519 2.5
    endloop
  endfacet
  facet normal -0.587783 0.809018 0
    outer loop
      vertex -50.1848 55.7359 2.5
      vertex -37.5 64.9519 0
      vertex -50.1848 55.7359 0
    endloop
  endfacet
  facet normal -0.207911 0.978148 0
    outer loop
      vertex -7.83963 74.5891 0
      vertex -23.1763 71.3292 2.5
      vertex -7.83963 74.5891 2.5
    endloop
  endfacet
  facet normal -0.207911 0.978148 0
    outer loop
      vertex -23.1763 71.3292 2.5
      vertex -7.83963 74.5891 0
      vertex -23.1763 71.3292 0
    endloop
  endfacet
  facet normal -0.743145 0.66913 5.5609e-17
    outer loop
      vertex -60.6763 44.0839 0
      vertex -50.1848 55.7359 2.5
      vertex -50.1848 55.7359 0
    endloop
  endfacet
  facet normal -0.743145 0.66913 5.5609e-17
    outer loop
      vertex -50.1848 55.7359 2.5
      vertex -60.6763 44.0839 0
      vertex -60.6763 44.0839 2.5
    endloop
  endfacet
  facet normal -0.406735 -0.913546 0
    outer loop
      vertex -37.5 -64.9519 0
      vertex -23.1763 -71.3292 2.5
      vertex -37.5 -64.9519 2.5
    endloop
  endfacet
  facet normal -0.406735 -0.913546 -0
    outer loop
      vertex -23.1763 -71.3292 2.5
      vertex -37.5 -64.9519 0
      vertex -23.1763 -71.3292 0
    endloop
  endfacet
  facet normal 0 0 -1
    outer loop
      vertex 73.3611 -15.5934 0
      vertex 73.3611 15.5934 0
      vertex 75 0 0
    endloop
  endfacet
  facet normal 0 0 -1
    outer loop
      vertex 68.5159 -30.5052 0
      vertex 73.3611 15.5934 0
      vertex 73.3611 -15.5934 0
    endloop
  endfacet
  facet normal 0 0 -1
    outer loop
      vertex 68.5159 -30.5052 0
      vertex 68.5159 30.5052 0
      vertex 73.3611 15.5934 0
    endloop
  endfacet
  facet normal 0 0 -1
    outer loop
      vertex 60.6763 -44.0839 0
      vertex 68.5159 30.5052 0
      vertex 68.5159 -30.5052 0
    endloop
  endfacet
  facet normal 0 0 -1
    outer loop
      vertex 60.6763 -44.0839 0
      vertex 60.6763 44.0839 0
      vertex 68.5159 30.5052 0
    endloop
  endfacet
  facet normal 0 0 -1
    outer loop
      vertex 50.1848 -55.7359 0
      vertex 60.6763 44.0839 0
      vertex 60.6763 -44.0839 0
    endloop
  endfacet
  facet normal 0 0 -1
    outer loop
      vertex 50.1848 -55.7359 0
      vertex 50.1848 55.7359 0
      vertex 60.6763 44.0839 0
    endloop
  endfacet
  facet normal 0 0 -1
    outer loop
      vertex 37.5 -64.9519 0
      vertex 50.1848 55.7359 0
      vertex 50.1848 -55.7359 0
    endloop
  endfacet
  facet normal 0 0 -1
    outer loop
      vertex 37.5 -64.9519 0
      vertex 37.5 64.9519 0
      vertex 50.1848 55.7359 0
    endloop
  endfacet
  facet normal 0 0 -1
    outer loop
      vertex 23.1763 -71.3292 0
      vertex 37.5 64.9519 0
      vertex 37.5 -64.9519 0
    endloop
  endfacet
  facet normal 0 0 -1
    outer loop
      vertex 23.1763 -71.3292 0
      vertex 23.1763 71.3292 0
      vertex 37.5 64.9519 0
    endloop
  endfacet
  facet normal 0 0 -1
    outer loop
      vertex 7.83963 -74.5891 0
      vertex 23.1763 71.3292 0
      vertex 23.1763 -71.3292 0
    endloop
  endfacet
  facet normal 0 0 -1
    outer loop
      vertex 7.83963 -74.5891 0
      vertex 7.83963 74.5891 0
      vertex 23.1763 71.3292 0
    endloop
  endfacet
  facet normal 0 0 -1
    outer loop
      vertex -7.83963 -74.5891 0
      vertex 7.83963 74.5891 0
      vertex 7.83963 -74.5891 0
    endloop
  endfacet
  facet normal 0 0 -1
    outer loop
      vertex -7.83963 -74.5891 0
      vertex -7.83963 74.5891 0
      vertex 7.83963 74.5891 0
    endloop
  endfacet
  facet normal 0 0 -1
    outer loop
      vertex -23.1763 -71.3292 0
      vertex -7.83963 74.5891 0
      vertex -7.83963 -74.5891 0
    endloop
  endfacet
  facet normal 0 0 -1
    outer loop
      vertex -23.1763 -71.3292 0
      vertex -23.1763 71.3292 0
      vertex -7.83963 74.5891 0
    endloop
  endfacet
  facet normal 0 0 -1
    outer loop
      vertex -37.5 -64.9519 0
      vertex -23.1763 71.3292 0
      vertex -23.1763 -71.3292 0
    endloop
  endfacet
  facet normal 0 0 -1
    outer loop
      vertex -37.5 -64.9519 0
      vertex -37.5 64.9519 0
      vertex -23.1763 71.3292 0
    endloop
  endfacet
  facet normal 0 0 -1
    outer loop
      vertex -50.1848 -55.7359 0
      vertex -37.5 64.9519 0
      vertex -37.5 -64.9519 0
    endloop
  endfacet
  facet normal 0 0 -1
    outer loop
      vertex -50.1848 -55.7359 0
      vertex -50.1848 55.7359 0
      vertex -37.5 64.9519 0
    endloop
  endfacet
  facet normal 0 0 -1
    outer loop
      vertex -60.6763 -44.0839 0
      vertex -50.1848 55.7359 0
      vertex -50.1848 -55.7359 0
    endloop
  endfacet
  facet normal 0 0 -1
    outer loop
      vertex -60.6763 -44.0839 0
      vertex -60.6763 44.0839 0
      vertex -50.1848 55.7359 0
    endloop
  endfacet
  facet normal 0 0 -1
    outer loop
      vertex -68.5159 -30.5052 0
      vertex -60.6763 44.0839 0
      vertex -60.6763 -44.0839 0
    endloop
  endfacet
  facet normal 0 0 -1
    outer loop
      vertex -68.5159 -30.5052 0
      vertex -68.5159 30.5052 0
      vertex -60.6763 44.0839 0
    endloop
  endfacet
  facet normal 0 0 -1
    outer loop
      vertex -73.3611 -15.5934 0
      vertex -68.5159 30.5052 0
      vertex -68.5159 -30.5052 0
    endloop
  endfacet
  facet normal 0 0 -1
    outer loop
      vertex -73.3611 -15.5934 0
      vertex -73.3611 15.5934 0
      vertex -68.5159 30.5052 0
    endloop
  endfacet
  facet normal 0 -0 -1
    outer loop
      vertex -73.3611 15.5934 0
      vertex -73.3611 -15.5934 0
      vertex -75 0 0
    endloop
  endfacet
  facet normal -0.207911 -0.978148 0
    outer loop
      vertex -23.1763 -71.3292 0
      vertex -7.83963 -74.5891 2.5
      vertex -23.1763 -71.3292 2.5
    endloop
  endfacet
  facet normal -0.207911 -0.978148 -0
    outer loop
      vertex -7.83963 -74.5891 2.5
      vertex -23.1763 -71.3292 0
      vertex -7.83963 -74.5891 0
    endloop
  endfacet
  facet normal -0.951055 0.309021 1.5948e-18
    outer loop
      vertex -73.3611 15.5934 0
      vertex -68.5159 30.5052 2.5
      vertex -68.5159 30.5052 0
    endloop
  endfacet
  facet normal -0.951055 0.309021 1.5948e-18
    outer loop
      vertex -68.5159 30.5052 2.5
      vertex -73.3611 15.5934 0
      vertex -73.3611 15.5934 2.5
    endloop
  endfacet
  facet normal 0.743145 -0.66913 5.5609e-17
    outer loop
      vertex 50.1848 -55.7359 2.5
      vertex 60.6763 -44.0839 0
      vertex 60.6763 -44.0839 2.5
    endloop
  endfacet
  facet normal 0.743145 -0.66913 5.5609e-17
    outer loop
      vertex 60.6763 -44.0839 0
      vertex 50.1848 -55.7359 2.5
      vertex 50.1848 -55.7359 0
    endloop
  endfacet
  facet normal 0 0 1
    outer loop
      vertex 5 0 2.5
      vertex 75 0 2.5
      vertex 73.3611 15.5934 2.5
    endloop
  endfacet
  facet normal 0 0 1
    outer loop
      vertex 4.6194 1.91342 2.5
      vertex 73.3611 15.5934 2.5
      vertex 68.5159 30.5052 2.5
    endloop
  endfacet
  facet normal 0 0 1
    outer loop
      vertex 75 0 2.5
      vertex 5 0 2.5
      vertex 73.3611 -15.5934 2.5
    endloop
  endfacet
  facet normal 0 0 1
    outer loop
      vertex 4.6194 1.91342 2.5
      vertex 68.5159 30.5052 2.5
      vertex 60.6763 44.0839 2.5
    endloop
  endfacet
  facet normal -0 0 1
    outer loop
      vertex 4.6194 -1.91342 2.5
      vertex 73.3611 -15.5934 2.5
      vertex 5 0 2.5
    endloop
  endfacet
  facet normal 0 0 1
    outer loop
      vertex 3.53553 3.53553 2.5
      vertex 60.6763 44.0839 2.5
      vertex 50.1848 55.7359 2.5
    endloop
  endfacet
  facet normal 0 0 1
    outer loop
      vertex 73.3611 -15.5934 2.5
      vertex 4.6194 -1.91342 2.5
      vertex 68.5159 -30.5052 2.5
    endloop
  endfacet
  facet normal 0 0 1
    outer loop
      vertex 3.53553 3.53553 2.5
      vertex 50.1848 55.7359 2.5
      vertex 37.5 64.9519 2.5
    endloop
  endfacet
  facet normal 0 0 1
    outer loop
      vertex 68.5159 -30.5052 2.5
      vertex 4.6194 -1.91342 2.5
      vertex 60.6763 -44.0839 2.5
    endloop
  endfacet
  facet normal 0 0 1
    outer loop
      vertex 1.91342 4.6194 2.5
      vertex 37.5 64.9519 2.5
      vertex 23.1763 71.3292 2.5
    endloop
  endfacet
  facet normal -0 0 1
    outer loop
      vertex 3.53553 -3.53553 2.5
      vertex 60.6763 -44.0839 2.5
      vertex 4.6194 -1.91342 2.5
    endloop
  endfacet
  facet normal 0 0 1
    outer loop
      vertex 1.91342 4.6194 2.5
      vertex 23.1763 71.3292 2.5
      vertex 7.83963 74.5891 2.5
    endloop
  endfacet
  facet normal 0 0 1
    outer loop
      vertex 60.6763 -44.0839 2.5
      vertex 3.53553 -3.53553 2.5
      vertex 50.1848 -55.7359 2.5
    endloop
  endfacet
  facet normal 0 0 1
    outer loop
      vertex 50.1848 -55.7359 2.5
      vertex 3.53553 -3.53553 2.5
      vertex 37.5 -64.9519 2.5
    endloop
  endfacet
  facet normal 0 0 1
    outer loop
      vertex 73.3611 15.5934 2.5
      vertex 4.6194 1.91342 2.5
      vertex 5 0 2.5
    endloop
  endfacet
  facet normal 0 0 1
    outer loop
      vertex 60.6763 44.0839 2.5
      vertex 3.53553 3.53553 2.5
      vertex 4.6194 1.91342 2.5
    endloop
  endfacet
  facet normal 0 0 1
    outer loop
      vertex 37.5 64.9519 2.5
      vertex 1.91342 4.6194 2.5
      vertex 3.53553 3.53553 2.5
    endloop
  endfacet
  facet normal 0 0 1
    outer loop
      vertex 7.83963 74.5891 2.5
      vertex 0 5 2.5
      vertex 1.91342 4.6194 2.5
    endloop
  endfacet
  facet normal -0 0 1
    outer loop
      vertex -7.83963 74.5891 2.5
      vertex 0 5 2.5
      vertex 7.83963 74.5891 2.5
    endloop
  endfacet
  facet normal 0 0 1
    outer loop
      vertex 0 5 2.5
      vertex -7.83963 74.5891 2.5
      vertex -1.91342 4.6194 2.5
    endloop
  endfacet
  facet normal -0 0 1
    outer loop
      vertex -23.1763 71.3292 2.5
      vertex -1.91342 4.6194 2.5
      vertex -7.83963 74.5891 2.5
    endloop
  endfacet
  facet normal -0 0 1
    outer loop
      vertex -37.5 64.9519 2.5
      vertex -1.91342 4.6194 2.5
      vertex -23.1763 71.3292 2.5
    endloop
  endfacet
  facet normal 0 0 1
    outer loop
      vertex -1.91342 4.6194 2.5
      vertex -37.5 64.9519 2.5
      vertex -3.53553 3.53553 2.5
    endloop
  endfacet
  facet normal -0 0 1
    outer loop
      vertex 1.91342 -4.6194 2.5
      vertex 37.5 -64.9519 2.5
      vertex 3.53553 -3.53553 2.5
    endloop
  endfacet
  facet normal 0 0 1
    outer loop
      vertex 37.5 -64.9519 2.5
      vertex 1.91342 -4.6194 2.5
      vertex 23.1763 -71.3292 2.5
    endloop
  endfacet
  facet normal 0 0 1
    outer loop
      vertex 23.1763 -71.3292 2.5
      vertex 1.91342 -4.6194 2.5
      vertex 7.83963 -74.5891 2.5
    endloop
  endfacet
  facet normal -0 0 1
    outer loop
      vertex 0 -5 2.5
      vertex 7.83963 -74.5891 2.5
      vertex 1.91342 -4.6194 2.5
    endloop
  endfacet
  facet normal 0 0 1
    outer loop
      vertex -7.83963 -74.5891 2.5
      vertex 0 -5 2.5
      vertex -1.91342 -4.6194 2.5
    endloop
  endfacet
  facet normal 0 0 1
    outer loop
      vertex -37.5 -64.9519 2.5
      vertex -1.91342 -4.6194 2.5
      vertex -3.53553 -3.53553 2.5
    endloop
  endfacet
  facet normal 0 0 1
    outer loop
      vertex -60.6763 -44.0839 2.5
      vertex -3.53553 -3.53553 2.5
      vertex -4.6194 -1.91342 2.5
    endloop
  endfacet
  facet normal 0 0 1
    outer loop
      vertex -73.3611 -15.5934 2.5
      vertex -4.6194 -1.91342 2.5
      vertex -5 0 2.5
    endloop
  endfacet
  facet normal 0 0 1
    outer loop
      vertex 0 -5 2.5
      vertex -7.83963 -74.5891 2.5
      vertex 7.83963 -74.5891 2.5
    endloop
  endfacet
  facet normal -0 0 1
    outer loop
      vertex -50.1848 55.7359 2.5
      vertex -3.53553 3.53553 2.5
      vertex -37.5 64.9519 2.5
    endloop
  endfacet
  facet normal -0 0 1
    outer loop
      vertex -60.6763 44.0839 2.5
      vertex -3.53553 3.53553 2.5
      vertex -50.1848 55.7359 2.5
    endloop
  endfacet
  facet normal 0 0 1
    outer loop
      vertex -1.91342 -4.6194 2.5
      vertex -23.1763 -71.3292 2.5
      vertex -7.83963 -74.5891 2.5
    endloop
  endfacet
  facet normal 0 0 1
    outer loop
      vertex -3.53553 3.53553 2.5
      vertex -60.6763 44.0839 2.5
      vertex -4.6194 1.91342 2.5
    endloop
  endfacet
  facet normal 0 0 1
    outer loop
      vertex -1.91342 -4.6194 2.5
      vertex -37.5 -64.9519 2.5
      vertex -23.1763 -71.3292 2.5
    endloop
  endfacet
  facet normal -0 0 1
    outer loop
      vertex -68.5159 30.5052 2.5
      vertex -4.6194 1.91342 2.5
      vertex -60.6763 44.0839 2.5
    endloop
  endfacet
  facet normal 0 0 1
    outer loop
      vertex -3.53553 -3.53553 2.5
      vertex -50.1848 -55.7359 2.5
      vertex -37.5 -64.9519 2.5
    endloop
  endfacet
  facet normal -0 0 1
    outer loop
      vertex -73.3611 15.5934 2.5
      vertex -4.6194 1.91342 2.5
      vertex -68.5159 30.5052 2.5
    endloop
  endfacet
  facet normal 0 0 1
    outer loop
      vertex -3.53553 -3.53553 2.5
      vertex -60.6763 -44.0839 2.5
      vertex -50.1848 -55.7359 2.5
    endloop
  endfacet
  facet normal 0 0 1
    outer loop
      vertex -4.6194 1.91342 2.5
      vertex -73.3611 15.5934 2.5
      vertex -5 0 2.5
    endloop
  endfacet
  facet normal 0 0 1
    outer loop
      vertex -4.6194 -1.91342 2.5
      vertex -68.5159 -30.5052 2.5
      vertex -60.6763 -44.0839 2.5
    endloop
  endfacet
  facet normal 0 0 1
    outer loop
      vertex -75 0 2.5
      vertex -5 0 2.5
      vertex -73.3611 15.5934 2.5
    endloop
  endfacet
  facet normal 0 0 1
    outer loop
      vertex -4.6194 -1.91342 2.5
      vertex -73.3611 -15.5934 2.5
      vertex -68.5159 -30.5052 2.5
    endloop
  endfacet
  facet normal 0 0 1
    outer loop
      vertex -5 0 2.5
      vertex -75 0 2.5
      vertex -73.3611 -15.5934 2.5
    endloop
  endfacet
  facet normal 0.866027 -0.499997 -1.26471e-16
    outer loop
      vertex 60.6763 -44.0839 2.5
      vertex 68.5159 -30.5052 0
      vertex 68.5159 -30.5052 2.5
    endloop
  endfacet
  facet normal 0.866027 -0.499997 -1.26471e-16
    outer loop
      vertex 68.5159 -30.5052 0
      vertex 60.6763 -44.0839 2.5
      vertex 60.6763 -44.0839 0
    endloop
  endfacet
  facet normal 0.587783 -0.809018 0
    outer loop
      vertex 37.5 -64.9519 0
      vertex 50.1848 -55.7359 2.5
      vertex 37.5 -64.9519 2.5
    endloop
  endfacet
  facet normal 0.587783 -0.809018 0
    outer loop
      vertex 50.1848 -55.7359 2.5
      vertex 37.5 -64.9519 0
      vertex 50.1848 -55.7359 0
    endloop
  endfacet
  facet normal 0 1 -0
    outer loop
      vertex 7.83963 74.5891 0
      vertex -7.83963 74.5891 2.5
      vertex 7.83963 74.5891 2.5
    endloop
  endfacet
  facet normal 0 1 0
    outer loop
      vertex -7.83963 74.5891 2.5
      vertex 7.83963 74.5891 0
      vertex -7.83963 74.5891 0
    endloop
  endfacet
  facet normal 0.951055 -0.309021 1.5948e-18
    outer loop
      vertex 68.5159 -30.5052 2.5
      vertex 73.3611 -15.5934 0
      vertex 73.3611 -15.5934 2.5
    endloop
  endfacet
  facet normal 0.951055 -0.309021 1.5948e-18
    outer loop
      vertex 73.3611 -15.5934 0
      vertex 68.5159 -30.5052 2.5
      vertex 68.5159 -30.5052 0
    endloop
  endfacet
  facet normal 0.587783 0.809018 -0
    outer loop
      vertex 50.1848 55.7359 0
      vertex 37.5 64.9519 2.5
      vertex 50.1848 55.7359 2.5
    endloop
  endfacet
  facet normal 0.587783 0.809018 0
    outer loop
      vertex 37.5 64.9519 2.5
      vertex 50.1848 55.7359 0
      vertex 37.5 64.9519 0
    endloop
  endfacet
  facet normal -0.406735 0.913546 0
    outer loop
      vertex -23.1763 71.3292 0
      vertex -37.5 64.9519 2.5
      vertex -23.1763 71.3292 2.5
    endloop
  endfacet
  facet normal -0.406735 0.913546 0
    outer loop
      vertex -37.5 64.9519 2.5
      vertex -23.1763 71.3292 0
      vertex -37.5 64.9519 0
    endloop
  endfacet
  facet normal 0.743145 0.66913 -5.5609e-17
    outer loop
      vertex 60.6763 44.0839 2.5
      vertex 50.1848 55.7359 0
      vertex 50.1848 55.7359 2.5
    endloop
  endfacet
  facet normal 0.743145 0.66913 -5.5609e-17
    outer loop
      vertex 50.1848 55.7359 0
      vertex 60.6763 44.0839 2.5
      vertex 60.6763 44.0839 0
    endloop
  endfacet
  facet normal 0.866027 0.499997 1.26471e-16
    outer loop
      vertex 68.5159 30.5052 2.5
      vertex 60.6763 44.0839 0
      vertex 60.6763 44.0839 2.5
    endloop
  endfacet
  facet normal 0.866027 0.499997 1.26471e-16
    outer loop
      vertex 60.6763 44.0839 0
      vertex 68.5159 30.5052 2.5
      vertex 68.5159 30.5052 0
    endloop
  endfacet
  facet normal -0.951055 -0.309021 -1.5948e-18
    outer loop
      vertex -68.5159 -30.5052 0
      vertex -73.3611 -15.5934 2.5
      vertex -73.3611 -15.5934 0
    endloop
  endfacet
  facet normal -0.951055 -0.309021 -1.5948e-18
    outer loop
      vertex -73.3611 -15.5934 2.5
      vertex -68.5159 -30.5052 0
      vertex -68.5159 -30.5052 2.5
    endloop
  endfacet
  facet normal 0.207911 -0.978148 0
    outer loop
      vertex 7.83963 -74.5891 0
      vertex 23.1763 -71.3292 2.5
      vertex 7.83963 -74.5891 2.5
    endloop
  endfacet
  facet normal 0.207911 -0.978148 0
    outer loop
      vertex 23.1763 -71.3292 2.5
      vertex 7.83963 -74.5891 0
      vertex 23.1763 -71.3292 0
    endloop
  endfacet
  facet normal -0.866027 -0.499997 1.26471e-16
    outer loop
      vertex -60.6763 -44.0839 0
      vertex -68.5159 -30.5052 2.5
      vertex -68.5159 -30.5052 0
    endloop
  endfacet
  facet normal -0.866027 -0.499997 1.26471e-16
    outer loop
      vertex -68.5159 -30.5052 2.5
      vertex -60.6763 -44.0839 0
      vertex -60.6763 -44.0839 2.5
    endloop
  endfacet
  facet normal -0.994522 -0.104526 2.3321e-17
    outer loop
      vertex -73.3611 -15.5934 0
      vertex -75 0 2.5
      vertex -75 0 0
    endloop
  endfacet
  facet normal -0.994522 -0.104526 2.3321e-17
    outer loop
      vertex -75 0 2.5
      vertex -73.3611 -15.5934 0
      vertex -73.3611 -15.5934 2.5
    endloop
  endfacet
  facet normal -0.743145 -0.66913 -5.5609e-17
    outer loop
      vertex -50.1848 -55.7359 0
      vertex -60.6763 -44.0839 2.5
      vertex -60.6763 -44.0839 0
    endloop
  endfacet
  facet normal -0.743145 -0.66913 -5.5609e-17
    outer loop
      vertex -60.6763 -44.0839 2.5
      vertex -50.1848 -55.7359 0
      vertex -50.1848 -55.7359 2.5
    endloop
  endfacet
  facet normal -0.994522 0.104526 -2.3321e-17
    outer loop
      vertex -75 0 0
      vertex -73.3611 15.5934 2.5
      vertex -73.3611 15.5934 0
    endloop
  endfacet
  facet normal -0.994522 0.104526 -2.3321e-17
    outer loop
      vertex -73.3611 15.5934 2.5
      vertex -75 0 0
      vertex -75 0 2.5
    endloop
  endfacet
  facet normal 0.207911 0.978148 -0
    outer loop
      vertex 23.1763 71.3292 0
      vertex 7.83963 74.5891 2.5
      vertex 23.1763 71.3292 2.5
    endloop
  endfacet
  facet normal 0.207911 0.978148 0
    outer loop
      vertex 7.83963 74.5891 2.5
      vertex 23.1763 71.3292 0
      vertex 7.83963 74.5891 0
    endloop
  endfacet
  facet normal -0.587783 -0.809018 0
    outer loop
      vertex -50.1848 -55.7359 0
      vertex -37.5 -64.9519 2.5
      vertex -50.1848 -55.7359 2.5
    endloop
  endfacet
  facet normal -0.587783 -0.809018 -0
    outer loop
      vertex -37.5 -64.9519 2.5
      vertex -50.1848 -55.7359 0
      vertex -37.5 -64.9519 0
    endloop
  endfacet
  facet normal -0.866027 0.499997 -1.26471e-16
    outer loop
      vertex -68.5159 30.5052 0
      vertex -60.6763 44.0839 2.5
      vertex -60.6763 44.0839 0
    endloop
  endfacet
  facet normal -0.866027 0.499997 -1.26471e-16
    outer loop
      vertex -60.6763 44.0839 2.5
      vertex -68.5159 30.5052 0
      vertex -68.5159 30.5052 2.5
    endloop
  endfacet
  facet normal -0.568064 0.822984 0
    outer loop
      vertex -1.41842 3.74006 3.5
      vertex -2.99404 2.65249 9.5
      vertex -1.41842 3.74006 9.5
    endloop
  endfacet
  facet normal -0.568064 0.822984 0
    outer loop
      vertex -2.99404 2.65249 9.5
      vertex -1.41842 3.74006 3.5
      vertex -2.99404 2.65249 3.5
    endloop
  endfacet
  facet normal 0.748511 0.663122 6.35679e-18
    outer loop
      vertex 3.54182 1.85889 9.5
      vertex 2.27226 3.29193 3.5
      vertex 2.27226 3.29193 9.5
    endloop
  endfacet
  facet normal 0.748511 0.663122 6.35679e-18
    outer loop
      vertex 2.27226 3.29193 3.5
      vertex 3.54182 1.85889 9.5
      vertex 3.54182 1.85889 3.5
    endloop
  endfacet
  facet normal 0.970941 0.239318 -4.575e-18
    outer loop
      vertex 4 0 9.5
      vertex 3.54182 1.85889 3.5
      vertex 3.54182 1.85889 9.5
    endloop
  endfacet
  facet normal 0.970941 0.239318 -4.575e-18
    outer loop
      vertex 3.54182 1.85889 3.5
      vertex 4 0 9.5
      vertex 4 0 3.5
    endloop
  endfacet
  facet normal -1 0 0
    outer loop
      vertex -3.88377 -0.957262 3.5
      vertex -3.88377 0.957262 9.5
      vertex -3.88377 0.957262 3.5
    endloop
  endfacet
  facet normal -1 -0 0
    outer loop
      vertex -3.88377 0.957262 9.5
      vertex -3.88377 -0.957262 3.5
      vertex -3.88377 -0.957262 9.5
    endloop
  endfacet
  facet normal -0.885455 0.464726 -8.91626e-18
    outer loop
      vertex -3.88377 0.957262 3.5
      vertex -2.99404 2.65249 9.5
      vertex -2.99404 2.65249 3.5
    endloop
  endfacet
  facet normal -0.885455 0.464726 -8.91626e-18
    outer loop
      vertex -2.99404 2.65249 9.5
      vertex -3.88377 0.957262 3.5
      vertex -3.88377 0.957262 9.5
    endloop
  endfacet
  facet normal 0.354605 0.935016 -0
    outer loop
      vertex 2.27226 3.29193 3.5
      vertex 0.482146 3.97083 9.5
      vertex 2.27226 3.29193 9.5
    endloop
  endfacet
  facet normal 0.354605 0.935016 0
    outer loop
      vertex 0.482146 3.97083 9.5
      vertex 2.27226 3.29193 3.5
      vertex 0.482146 3.97083 3.5
    endloop
  endfacet
  facet normal 0.970941 -0.239318 4.575e-18
    outer loop
      vertex 3.54182 -1.85889 9.5
      vertex 4 0 3.5
      vertex 4 0 9.5
    endloop
  endfacet
  facet normal 0.970941 -0.239318 4.575e-18
    outer loop
      vertex 4 0 3.5
      vertex 3.54182 -1.85889 9.5
      vertex 3.54182 -1.85889 3.5
    endloop
  endfacet
  facet normal 0 0 1
    outer loop
      vertex 3.54182 1.85889 9.5
      vertex 3.54182 -1.85889 9.5
      vertex 4 0 9.5
    endloop
  endfacet
  facet normal 0 0 1
    outer loop
      vertex 2.27226 3.29193 9.5
      vertex 3.54182 -1.85889 9.5
      vertex 3.54182 1.85889 9.5
    endloop
  endfacet
  facet normal 0 0 1
    outer loop
      vertex 2.27226 3.29193 9.5
      vertex 2.27226 -3.29193 9.5
      vertex 3.54182 -1.85889 9.5
    endloop
  endfacet
  facet normal 0 0 1
    outer loop
      vertex 0.482146 3.97083 9.5
      vertex 2.27226 -3.29193 9.5
      vertex 2.27226 3.29193 9.5
    endloop
  endfacet
  facet normal 0 0 1
    outer loop
      vertex 0.482146 3.97083 9.5
      vertex 0.482146 -3.97083 9.5
      vertex 2.27226 -3.29193 9.5
    endloop
  endfacet
  facet normal -0 0 1
    outer loop
      vertex -1.41842 3.74006 9.5
      vertex 0.482146 -3.97083 9.5
      vertex 0.482146 3.97083 9.5
    endloop
  endfacet
  facet normal 0 0 1
    outer loop
      vertex -1.41842 3.74006 9.5
      vertex -1.41842 -3.74006 9.5
      vertex 0.482146 -3.97083 9.5
    endloop
  endfacet
  facet normal -0 0 1
    outer loop
      vertex -2.99404 2.65249 9.5
      vertex -1.41842 -3.74006 9.5
      vertex -1.41842 3.74006 9.5
    endloop
  endfacet
  facet normal 0 0 1
    outer loop
      vertex -2.99404 2.65249 9.5
      vertex -2.99404 -2.65249 9.5
      vertex -1.41842 -3.74006 9.5
    endloop
  endfacet
  facet normal -0 0 1
    outer loop
      vertex -3.88377 0.957262 9.5
      vertex -2.99404 -2.65249 9.5
      vertex -2.99404 2.65249 9.5
    endloop
  endfacet
  facet normal 0 0 1
    outer loop
      vertex -2.99404 -2.65249 9.5
      vertex -3.88377 0.957262 9.5
      vertex -3.88377 -0.957262 9.5
    endloop
  endfacet
  facet normal -0.120536 -0.992709 0
    outer loop
      vertex -1.41842 -3.74006 3.5
      vertex 0.482146 -3.97083 9.5
      vertex -1.41842 -3.74006 9.5
    endloop
  endfacet
  facet normal -0.120536 -0.992709 -0
    outer loop
      vertex 0.482146 -3.97083 9.5
      vertex -1.41842 -3.74006 3.5
      vertex 0.482146 -3.97083 3.5
    endloop
  endfacet
  facet normal 0.748511 -0.663122 -6.35679e-18
    outer loop
      vertex 2.27226 -3.29193 9.5
      vertex 3.54182 -1.85889 3.5
      vertex 3.54182 -1.85889 9.5
    endloop
  endfacet
  facet normal 0.748511 -0.663122 -6.35679e-18
    outer loop
      vertex 3.54182 -1.85889 3.5
      vertex 2.27226 -3.29193 9.5
      vertex 2.27226 -3.29193 3.5
    endloop
  endfacet
  facet normal 0.354605 -0.935016 0
    outer loop
      vertex 0.482146 -3.97083 3.5
      vertex 2.27226 -3.29193 9.5
      vertex 0.482146 -3.97083 9.5
    endloop
  endfacet
  facet normal 0.354605 -0.935016 0
    outer loop
      vertex 2.27226 -3.29193 9.5
      vertex 0.482146 -3.97083 3.5
      vertex 2.27226 -3.29193 3.5
    endloop
  endfacet
  facet normal -0.120536 0.992709 0
    outer loop
      vertex 0.482146 3.97083 3.5
      vertex -1.41842 3.74006 9.5
      vertex 0.482146 3.97083 9.5
    endloop
  endfacet
  facet normal -0.120536 0.992709 0
    outer loop
      vertex -1.41842 3.74006 9.5
      vertex 0.482146 3.97083 3.5
      vertex -1.41842 3.74006 3.5
    endloop
  endfacet
  facet normal -0.568064 -0.822984 0
    outer loop
      vertex -2.99404 -2.65249 3.5
      vertex -1.41842 -3.74006 9.5
      vertex -2.99404 -2.65249 9.5
    endloop
  endfacet
  facet normal -0.568064 -0.822984 -0
    outer loop
      vertex -1.41842 -3.74006 9.5
      vertex -2.99404 -2.65249 3.5
      vertex -1.41842 -3.74006 3.5
    endloop
  endfacet
  facet normal -0.885455 -0.464726 8.91626e-18
    outer loop
      vertex -2.99404 -2.65249 3.5
      vertex -3.88377 -0.957262 9.5
      vertex -3.88377 -0.957262 3.5
    endloop
  endfacet
  facet normal -0.885455 -0.464726 8.91626e-18
    outer loop
      vertex -3.88377 -0.957262 9.5
      vertex -2.99404 -2.65249 3.5
      vertex -2.99404 -2.65249 9.5
    endloop
  endfacet
  facet normal -0.555574 0.831467 0
    outer loop
      vertex -1.91342 4.6194 2.5
      vertex -3.53553 3.53553 3.5
      vertex -1.91342 4.6194 3.5
    endloop
  endfacet
  facet normal -0.555574 0.831467 0
    outer loop
      vertex -3.53553 3.53553 3.5
      vertex -1.91342 4.6194 2.5
      vertex -3.53553 3.53553 2.5
    endloop
  endfacet
  facet normal 0.831467 0.555574 1.62378e-17
    outer loop
      vertex 4.6194 1.91342 3.5
      vertex 3.53553 3.53553 2.5
      vertex 3.53553 3.53553 3.5
    endloop
  endfacet
  facet normal 0.831467 0.555574 1.62378e-17
    outer loop
      vertex 3.53553 3.53553 2.5
      vertex 4.6194 1.91342 3.5
      vertex 4.6194 1.91342 2.5
    endloop
  endfacet
  facet normal 0.980786 0.195089 2.14698e-17
    outer loop
      vertex 5 0 3.5
      vertex 4.6194 1.91342 2.5
      vertex 4.6194 1.91342 3.5
    endloop
  endfacet
  facet normal 0.980786 0.195089 2.14698e-17
    outer loop
      vertex 4.6194 1.91342 2.5
      vertex 5 0 3.5
      vertex 5 0 2.5
    endloop
  endfacet
  facet normal -0.831467 0.555574 -1.62378e-17
    outer loop
      vertex -4.6194 1.91342 2.5
      vertex -3.53553 3.53553 3.5
      vertex -3.53553 3.53553 2.5
    endloop
  endfacet
  facet normal -0.831467 0.555574 -1.62378e-17
    outer loop
      vertex -3.53553 3.53553 3.5
      vertex -4.6194 1.91342 2.5
      vertex -4.6194 1.91342 3.5
    endloop
  endfacet
  facet normal -0.195089 -0.980786 0
    outer loop
      vertex -1.91342 -4.6194 2.5
      vertex 0 -5 3.5
      vertex -1.91342 -4.6194 3.5
    endloop
  endfacet
  facet normal -0.195089 -0.980786 -0
    outer loop
      vertex 0 -5 3.5
      vertex -1.91342 -4.6194 2.5
      vertex 0 -5 2.5
    endloop
  endfacet
  facet normal 0.195089 -0.980786 0
    outer loop
      vertex 0 -5 2.5
      vertex 1.91342 -4.6194 3.5
      vertex 0 -5 3.5
    endloop
  endfacet
  facet normal 0.195089 -0.980786 0
    outer loop
      vertex 1.91342 -4.6194 3.5
      vertex 0 -5 2.5
      vertex 1.91342 -4.6194 2.5
    endloop
  endfacet
  facet normal 0.555574 -0.831467 0
    outer loop
      vertex 1.91342 -4.6194 2.5
      vertex 3.53553 -3.53553 3.5
      vertex 1.91342 -4.6194 3.5
    endloop
  endfacet
  facet normal 0.555574 -0.831467 0
    outer loop
      vertex 3.53553 -3.53553 3.5
      vertex 1.91342 -4.6194 2.5
      vertex 3.53553 -3.53553 2.5
    endloop
  endfacet
  facet normal 0.831467 -0.555574 -1.62378e-17
    outer loop
      vertex 3.53553 -3.53553 3.5
      vertex 4.6194 -1.91342 2.5
      vertex 4.6194 -1.91342 3.5
    endloop
  endfacet
  facet normal 0.831467 -0.555574 -1.62378e-17
    outer loop
      vertex 4.6194 -1.91342 2.5
      vertex 3.53553 -3.53553 3.5
      vertex 3.53553 -3.53553 2.5
    endloop
  endfacet
  facet normal -0.980786 0.195089 -2.14698e-17
    outer loop
      vertex -5 0 2.5
      vertex -4.6194 1.91342 3.5
      vertex -4.6194 1.91342 2.5
    endloop
  endfacet
  facet normal -0.980786 0.195089 -2.14698e-17
    outer loop
      vertex -4.6194 1.91342 3.5
      vertex -5 0 2.5
      vertex -5 0 3.5
    endloop
  endfacet
  facet normal 0.980786 -0.195089 -2.14698e-17
    outer loop
      vertex 4.6194 -1.91342 3.5
      vertex 5 0 2.5
      vertex 5 0 3.5
    endloop
  endfacet
  facet normal 0.980786 -0.195089 -2.14698e-17
    outer loop
      vertex 5 0 2.5
      vertex 4.6194 -1.91342 3.5
      vertex 4.6194 -1.91342 2.5
    endloop
  endfacet
  facet normal -0.195089 0.980786 0
    outer loop
      vertex 0 5 2.5
      vertex -1.91342 4.6194 3.5
      vertex 0 5 3.5
    endloop
  endfacet
  facet normal -0.195089 0.980786 0
    outer loop
      vertex -1.91342 4.6194 3.5
      vertex 0 5 2.5
      vertex -1.91342 4.6194 2.5
    endloop
  endfacet
  facet normal 0.195089 0.980786 -0
    outer loop
      vertex 1.91342 4.6194 2.5
      vertex 0 5 3.5
      vertex 1.91342 4.6194 3.5
    endloop
  endfacet
  facet normal 0.195089 0.980786 0
    outer loop
      vertex 0 5 3.5
      vertex 1.91342 4.6194 2.5
      vertex 0 5 2.5
    endloop
  endfacet
  facet normal 0.555574 0.831467 -0
    outer loop
      vertex 3.53553 3.53553 2.5
      vertex 1.91342 4.6194 3.5
      vertex 3.53553 3.53553 3.5
    endloop
  endfacet
  facet normal 0.555574 0.831467 0
    outer loop
      vertex 1.91342 4.6194 3.5
      vertex 3.53553 3.53553 2.5
      vertex 1.91342 4.6194 2.5
    endloop
  endfacet
  facet normal -0.831467 -0.555574 1.62378e-17
    outer loop
      vertex -3.53553 -3.53553 2.5
      vertex -4.6194 -1.91342 3.5
      vertex -4.6194 -1.91342 2.5
    endloop
  endfacet
  facet normal -0.831467 -0.555574 1.62378e-17
    outer loop
      vertex -4.6194 -1.91342 3.5
      vertex -3.53553 -3.53553 2.5
      vertex -3.53553 -3.53553 3.5
    endloop
  endfacet
  facet normal 0 0 1
    outer loop
      vertex 4 0 3.5
      vertex 5 0 3.5
      vertex 4.6194 1.91342 3.5
    endloop
  endfacet
  facet normal 0 0 1
    outer loop
      vertex 5 0 3.5
      vertex 4 0 3.5
      vertex 4.6194 -1.91342 3.5
    endloop
  endfacet
  facet normal 0 0 1
    outer loop
      vertex 4.6194 1.91342 3.5
      vertex 3.54182 1.85889 3.5
      vertex 4 0 3.5
    endloop
  endfacet
  facet normal 0 0 1
    outer loop
      vertex 3.53553 3.53553 3.5
      vertex 3.54182 1.85889 3.5
      vertex 4.6194 1.91342 3.5
    endloop
  endfacet
  facet normal 0 0 1
    outer loop
      vertex 3.53553 3.53553 3.5
      vertex 2.27226 3.29193 3.5
      vertex 3.54182 1.85889 3.5
    endloop
  endfacet
  facet normal 0 0 1
    outer loop
      vertex 1.91342 4.6194 3.5
      vertex 2.27226 3.29193 3.5
      vertex 3.53553 3.53553 3.5
    endloop
  endfacet
  facet normal 0 0 1
    outer loop
      vertex 1.91342 4.6194 3.5
      vertex 0.482146 3.97083 3.5
      vertex 2.27226 3.29193 3.5
    endloop
  endfacet
  facet normal 0 0 1
    outer loop
      vertex 0 5 3.5
      vertex 0.482146 3.97083 3.5
      vertex 1.91342 4.6194 3.5
    endloop
  endfacet
  facet normal 0 0 1
    outer loop
      vertex 0 5 3.5
      vertex -1.41842 3.74006 3.5
      vertex 0.482146 3.97083 3.5
    endloop
  endfacet
  facet normal -0 0 1
    outer loop
      vertex -1.91342 4.6194 3.5
      vertex -1.41842 3.74006 3.5
      vertex 0 5 3.5
    endloop
  endfacet
  facet normal 0 0 1
    outer loop
      vertex -3.53553 3.53553 3.5
      vertex -1.41842 3.74006 3.5
      vertex -1.91342 4.6194 3.5
    endloop
  endfacet
  facet normal 0 0 1
    outer loop
      vertex -1.41842 3.74006 3.5
      vertex -3.53553 3.53553 3.5
      vertex -2.99404 2.65249 3.5
    endloop
  endfacet
  facet normal 0 0 1
    outer loop
      vertex -4.6194 1.91342 3.5
      vertex -2.99404 2.65249 3.5
      vertex -3.53553 3.53553 3.5
    endloop
  endfacet
  facet normal 0 0 1
    outer loop
      vertex -5 0 3.5
      vertex -3.88377 0.957262 3.5
      vertex -4.6194 1.91342 3.5
    endloop
  endfacet
  facet normal 0 0 1
    outer loop
      vertex -2.99404 2.65249 3.5
      vertex -4.6194 1.91342 3.5
      vertex -3.88377 0.957262 3.5
    endloop
  endfacet
  facet normal -0 0 1
    outer loop
      vertex 3.54182 -1.85889 3.5
      vertex 4.6194 -1.91342 3.5
      vertex 4 0 3.5
    endloop
  endfacet
  facet normal 0 0 1
    outer loop
      vertex 3.54182 -1.85889 3.5
      vertex 3.53553 -3.53553 3.5
      vertex 4.6194 -1.91342 3.5
    endloop
  endfacet
  facet normal -0 0 1
    outer loop
      vertex 2.27226 -3.29193 3.5
      vertex 3.53553 -3.53553 3.5
      vertex 3.54182 -1.85889 3.5
    endloop
  endfacet
  facet normal 0 0 1
    outer loop
      vertex 2.27226 -3.29193 3.5
      vertex 1.91342 -4.6194 3.5
      vertex 3.53553 -3.53553 3.5
    endloop
  endfacet
  facet normal -0 0 1
    outer loop
      vertex 0.482146 -3.97083 3.5
      vertex 1.91342 -4.6194 3.5
      vertex 2.27226 -3.29193 3.5
    endloop
  endfacet
  facet normal 0 0 1
    outer loop
      vertex 0.482146 -3.97083 3.5
      vertex 0 -5 3.5
      vertex 1.91342 -4.6194 3.5
    endloop
  endfacet
  facet normal 0 0 1
    outer loop
      vertex -1.41842 -3.74006 3.5
      vertex 0 -5 3.5
      vertex 0.482146 -3.97083 3.5
    endloop
  endfacet
  facet normal 0 0 1
    outer loop
      vertex -1.41842 -3.74006 3.5
      vertex -1.91342 -4.6194 3.5
      vertex 0 -5 3.5
    endloop
  endfacet
  facet normal -0 0 1
    outer loop
      vertex -3.53553 -3.53553 3.5
      vertex -1.41842 -3.74006 3.5
      vertex -2.99404 -2.65249 3.5
    endloop
  endfacet
  facet normal 0 0 1
    outer loop
      vertex -1.41842 -3.74006 3.5
      vertex -3.53553 -3.53553 3.5
      vertex -1.91342 -4.6194 3.5
    endloop
  endfacet
  facet normal -0 0 1
    outer loop
      vertex -4.6194 -1.91342 3.5
      vertex -2.99404 -2.65249 3.5
      vertex -3.88377 -0.957262 3.5
    endloop
  endfacet
  facet normal 0 0 1
    outer loop
      vertex -3.88377 0.957262 3.5
      vertex -5 0 3.5
      vertex -3.88377 -0.957262 3.5
    endloop
  endfacet
  facet normal 0 0 1
    outer loop
      vertex -2.99404 -2.65249 3.5
      vertex -4.6194 -1.91342 3.5
      vertex -3.53553 -3.53553 3.5
    endloop
  endfacet
  facet normal 0 0 1
    outer loop
      vertex -3.88377 -0.957262 3.5
      vertex -5 0 3.5
      vertex -4.6194 -1.91342 3.5
    endloop
  endfacet
  facet normal -0.980786 -0.195089 2.14698e-17
    outer loop
      vertex -4.6194 -1.91342 2.5
      vertex -5 0 3.5
      vertex -5 0 2.5
    endloop
  endfacet
  facet normal -0.980786 -0.195089 2.14698e-17
    outer loop
      vertex -5 0 3.5
      vertex -4.6194 -1.91342 2.5
      vertex -4.6194 -1.91342 3.5
    endloop
  endfacet
  facet normal -0.555574 -0.831467 0
    outer loop
      vertex -3.53553 -3.53553 2.5
      vertex -1.91342 -4.6194 3.5
      vertex -3.53553 -3.53553 3.5
    endloop
  endfacet
  facet normal -0.555574 -0.831467 -0
    outer loop
      vertex -1.91342 -4.6194 3.5
      vertex -3.53553 -3.53553 2.5
      vertex -1.91342 -4.6194 2.5
    endloop
  endfacet
endsolid OpenSCAD_Model
