solid OpenSCAD_Model
  facet normal -0.642789 0.766043 0
    outer loop
      vertex -2.75 4.76314 0.75
      vertex -4.21324 3.53533 2.75
      vertex -2.75 4.76314 2.75
    endloop
  endfacet
  facet normal -0.642789 0.766043 0
    outer loop
      vertex -4.21324 3.53533 2.75
      vertex -2.75 4.76314 0.75
      vertex -4.21324 3.53533 0.75
    endloop
  endfacet
  facet normal -1 0 0
    outer loop
      vertex -5.5 -10.5 0.75
      vertex -5.5 0 2.75
      vertex -5.5 0 0.75
    endloop
  endfacet
  facet normal -1 -0 0
    outer loop
      vertex -5.5 0 2.75
      vertex -5.5 -10.5 0.75
      vertex -5.5 -10.5 2.75
    endloop
  endfacet
  facet normal 0.984808 0.173648 7.80559e-19
    outer loop
      vertex 5.5 0 2.75
      vertex 5.16831 1.88111 0.75
      vertex 5.16831 1.88111 2.75
    endloop
  endfacet
  facet normal 0.984808 0.173648 7.80559e-19
    outer loop
      vertex 5.16831 1.88111 0.75
      vertex 5.5 0 2.75
      vertex 5.5 0 0.75
    endloop
  endfacet
  facet normal 0.642789 0.766043 -0
    outer loop
      vertex 4.21324 3.53533 0.75
      vertex 2.75 4.76314 2.75
      vertex 4.21324 3.53533 2.75
    endloop
  endfacet
  facet normal 0.642789 0.766043 0
    outer loop
      vertex 2.75 4.76314 2.75
      vertex 4.21324 3.53533 0.75
      vertex 2.75 4.76314 0.75
    endloop
  endfacet
  facet normal 0.866024 0.500002 7.85368e-18
    outer loop
      vertex 5.16831 1.88111 2.75
      vertex 4.21324 3.53533 0.75
      vertex 4.21324 3.53533 2.75
    endloop
  endfacet
  facet normal 0.866024 0.500002 7.85368e-18
    outer loop
      vertex 4.21324 3.53533 0.75
      vertex 5.16831 1.88111 2.75
      vertex 5.16831 1.88111 0.75
    endloop
  endfacet
  facet normal 0 0 -1
    outer loop
      vertex 1.17557 -1.61803 0.75
      vertex 5.5 0 0.75
      vertex 5.5 -10.5 0.75
    endloop
  endfacet
  facet normal 0 -0 -1
    outer loop
      vertex 1.90211 -0.618033 0.75
      vertex 5.5 0 0.75
      vertex 1.61803 -1.17557 0.75
    endloop
  endfacet
  facet normal 0 0 -1
    outer loop
      vertex 1.90211 0.618033 0.75
      vertex 5.5 0 0.75
      vertex 2 0 0.75
    endloop
  endfacet
  facet normal 0 0 -1
    outer loop
      vertex 1.61803 1.17557 0.75
      vertex 5.16831 1.88111 0.75
      vertex 1.90211 0.618033 0.75
    endloop
  endfacet
  facet normal 0 0 -1
    outer loop
      vertex 5.5 0 0.75
      vertex 1.90211 0.618033 0.75
      vertex 5.16831 1.88111 0.75
    endloop
  endfacet
  facet normal 0 -0 -1
    outer loop
      vertex 2 0 0.75
      vertex 5.5 0 0.75
      vertex 1.90211 -0.618033 0.75
    endloop
  endfacet
  facet normal 0 0 -1
    outer loop
      vertex 5.5 0 0.75
      vertex 1.17557 -1.61803 0.75
      vertex 1.61803 -1.17557 0.75
    endloop
  endfacet
  facet normal 0 0 -1
    outer loop
      vertex 5.5 -10.5 0.75
      vertex 0.618033 -1.90211 0.75
      vertex 1.17557 -1.61803 0.75
    endloop
  endfacet
  facet normal 0 0 -1
    outer loop
      vertex 5.5 -10.5 0.75
      vertex 0 -2 0.75
      vertex 0.618033 -1.90211 0.75
    endloop
  endfacet
  facet normal 0 0 -1
    outer loop
      vertex -5.5 -10.5 0.75
      vertex 0 -2 0.75
      vertex 5.5 -10.5 0.75
    endloop
  endfacet
  facet normal -0 0 -1
    outer loop
      vertex 0 -2 0.75
      vertex -5.5 -10.5 0.75
      vertex -0.618033 -1.90211 0.75
    endloop
  endfacet
  facet normal -0 0 -1
    outer loop
      vertex -0.618033 -1.90211 0.75
      vertex -5.5 -10.5 0.75
      vertex -1.17557 -1.61803 0.75
    endloop
  endfacet
  facet normal 0 0 -1
    outer loop
      vertex -1.17557 1.61803 0.75
      vertex -4.21324 3.53533 0.75
      vertex -2.75 4.76314 0.75
    endloop
  endfacet
  facet normal 0 0 -1
    outer loop
      vertex -5.5 0 0.75
      vertex -2 0 0.75
      vertex -1.90211 -0.618033 0.75
    endloop
  endfacet
  facet normal 0 0 -1
    outer loop
      vertex -5.5 0 0.75
      vertex -1.90211 -0.618033 0.75
      vertex -1.61803 -1.17557 0.75
    endloop
  endfacet
  facet normal 0 0 -1
    outer loop
      vertex -1.90211 0.618033 0.75
      vertex -5.16831 1.88111 0.75
      vertex -4.21324 3.53533 0.75
    endloop
  endfacet
  facet normal 0 0 -1
    outer loop
      vertex -5.5 0 0.75
      vertex -1.17557 -1.61803 0.75
      vertex -5.5 -10.5 0.75
    endloop
  endfacet
  facet normal 0 0 -1
    outer loop
      vertex -1.17557 -1.61803 0.75
      vertex -5.5 0 0.75
      vertex -1.61803 -1.17557 0.75
    endloop
  endfacet
  facet normal -0 0 -1
    outer loop
      vertex -1.90211 0.618033 0.75
      vertex -5.5 0 0.75
      vertex -5.16831 1.88111 0.75
    endloop
  endfacet
  facet normal -0 0 -1
    outer loop
      vertex 5.16831 1.88111 0.75
      vertex 1.61803 1.17557 0.75
      vertex 4.21324 3.53533 0.75
    endloop
  endfacet
  facet normal 0 0 -1
    outer loop
      vertex 1.17557 1.61803 0.75
      vertex 4.21324 3.53533 0.75
      vertex 1.61803 1.17557 0.75
    endloop
  endfacet
  facet normal -0 0 -1
    outer loop
      vertex 4.21324 3.53533 0.75
      vertex 1.17557 1.61803 0.75
      vertex 2.75 4.76314 0.75
    endloop
  endfacet
  facet normal 0 0 -1
    outer loop
      vertex 0.618033 1.90211 0.75
      vertex 2.75 4.76314 0.75
      vertex 1.17557 1.61803 0.75
    endloop
  endfacet
  facet normal -0 0 -1
    outer loop
      vertex 2.75 4.76314 0.75
      vertex 0.618033 1.90211 0.75
      vertex 0.955065 5.41644 0.75
    endloop
  endfacet
  facet normal 0 0 -1
    outer loop
      vertex 0 2 0.75
      vertex 0.955065 5.41644 0.75
      vertex 0.618033 1.90211 0.75
    endloop
  endfacet
  facet normal 0 0 -1
    outer loop
      vertex -0.955065 5.41644 0.75
      vertex 0 2 0.75
      vertex -0.618033 1.90211 0.75
    endloop
  endfacet
  facet normal 0 0 -1
    outer loop
      vertex 0 2 0.75
      vertex -0.955065 5.41644 0.75
      vertex 0.955065 5.41644 0.75
    endloop
  endfacet
  facet normal 0 0 -1
    outer loop
      vertex -2.75 4.76314 0.75
      vertex -0.618033 1.90211 0.75
      vertex -1.17557 1.61803 0.75
    endloop
  endfacet
  facet normal 0 0 -1
    outer loop
      vertex -4.21324 3.53533 0.75
      vertex -1.17557 1.61803 0.75
      vertex -1.61803 1.17557 0.75
    endloop
  endfacet
  facet normal 0 0 -1
    outer loop
      vertex -4.21324 3.53533 0.75
      vertex -1.61803 1.17557 0.75
      vertex -1.90211 0.618033 0.75
    endloop
  endfacet
  facet normal 0 0 -1
    outer loop
      vertex -0.618033 1.90211 0.75
      vertex -2.75 4.76314 0.75
      vertex -0.955065 5.41644 0.75
    endloop
  endfacet
  facet normal 0 0 -1
    outer loop
      vertex -5.5 0 0.75
      vertex -1.90211 0.618033 0.75
      vertex -2 0 0.75
    endloop
  endfacet
  facet normal 0 -1 0
    outer loop
      vertex -5.5 -10.5 0.75
      vertex 5.5 -10.5 2.75
      vertex -5.5 -10.5 2.75
    endloop
  endfacet
  facet normal 0 -1 -0
    outer loop
      vertex 5.5 -10.5 2.75
      vertex -5.5 -10.5 0.75
      vertex 5.5 -10.5 0.75
    endloop
  endfacet
  facet normal 0 1 -0
    outer loop
      vertex 0.955065 5.41644 0.75
      vertex -0.955065 5.41644 2.75
      vertex 0.955065 5.41644 2.75
    endloop
  endfacet
  facet normal 0 1 0
    outer loop
      vertex -0.955065 5.41644 2.75
      vertex 0.955065 5.41644 0.75
      vertex -0.955065 5.41644 0.75
    endloop
  endfacet
  facet normal 1 -0 0
    outer loop
      vertex 5.5 -10.5 2.75
      vertex 5.5 0 0.75
      vertex 5.5 0 2.75
    endloop
  endfacet
  facet normal 1 0 0
    outer loop
      vertex 5.5 0 0.75
      vertex 5.5 -10.5 2.75
      vertex 5.5 -10.5 0.75
    endloop
  endfacet
  facet normal -0.342019 0.939693 0
    outer loop
      vertex -0.955065 5.41644 0.75
      vertex -2.75 4.76314 2.75
      vertex -0.955065 5.41644 2.75
    endloop
  endfacet
  facet normal -0.342019 0.939693 0
    outer loop
      vertex -2.75 4.76314 2.75
      vertex -0.955065 5.41644 0.75
      vertex -2.75 4.76314 0.75
    endloop
  endfacet
  facet normal 0.342019 0.939693 -0
    outer loop
      vertex 2.75 4.76314 0.75
      vertex 0.955065 5.41644 2.75
      vertex 2.75 4.76314 2.75
    endloop
  endfacet
  facet normal 0.342019 0.939693 0
    outer loop
      vertex 0.955065 5.41644 2.75
      vertex 2.75 4.76314 0.75
      vertex 0.955065 5.41644 0.75
    endloop
  endfacet
  facet normal -0.866024 0.500002 -7.85368e-18
    outer loop
      vertex -5.16831 1.88111 0.75
      vertex -4.21324 3.53533 2.75
      vertex -4.21324 3.53533 0.75
    endloop
  endfacet
  facet normal -0.866024 0.500002 -7.85368e-18
    outer loop
      vertex -4.21324 3.53533 2.75
      vertex -5.16831 1.88111 0.75
      vertex -5.16831 1.88111 2.75
    endloop
  endfacet
  facet normal 0 0 1
    outer loop
      vertex 5.5 0 2.75
      vertex 1.90211 0.618033 2.75
      vertex 2 0 2.75
    endloop
  endfacet
  facet normal 0 0 1
    outer loop
      vertex 4.21324 3.53533 2.75
      vertex 1.61803 1.17557 2.75
      vertex 1.90211 0.618033 2.75
    endloop
  endfacet
  facet normal 0 0 1
    outer loop
      vertex 4.21324 3.53533 2.75
      vertex 1.17557 1.61803 2.75
      vertex 1.61803 1.17557 2.75
    endloop
  endfacet
  facet normal 0 0 1
    outer loop
      vertex 0.618033 1.90211 2.75
      vertex 2.75 4.76314 2.75
      vertex 0.955065 5.41644 2.75
    endloop
  endfacet
  facet normal 0 0 1
    outer loop
      vertex 2.75 4.76314 2.75
      vertex 0.618033 1.90211 2.75
      vertex 1.17557 1.61803 2.75
    endloop
  endfacet
  facet normal 0 0 1
    outer loop
      vertex 0.955065 5.41644 2.75
      vertex 0 2 2.75
      vertex 0.618033 1.90211 2.75
    endloop
  endfacet
  facet normal -0 0 1
    outer loop
      vertex -0.955065 5.41644 2.75
      vertex 0 2 2.75
      vertex 0.955065 5.41644 2.75
    endloop
  endfacet
  facet normal 0 0 1
    outer loop
      vertex 0 2 2.75
      vertex -0.955065 5.41644 2.75
      vertex -0.618033 1.90211 2.75
    endloop
  endfacet
  facet normal -0 0 1
    outer loop
      vertex -2.75 4.76314 2.75
      vertex -0.618033 1.90211 2.75
      vertex -0.955065 5.41644 2.75
    endloop
  endfacet
  facet normal 0 0 1
    outer loop
      vertex -0.618033 1.90211 2.75
      vertex -2.75 4.76314 2.75
      vertex -1.17557 1.61803 2.75
    endloop
  endfacet
  facet normal -0 0 1
    outer loop
      vertex -4.21324 3.53533 2.75
      vertex -1.17557 1.61803 2.75
      vertex -2.75 4.76314 2.75
    endloop
  endfacet
  facet normal -0 0 1
    outer loop
      vertex -5.16831 1.88111 2.75
      vertex -1.61803 1.17557 2.75
      vertex -4.21324 3.53533 2.75
    endloop
  endfacet
  facet normal 0 0 1
    outer loop
      vertex -1.17557 1.61803 2.75
      vertex -4.21324 3.53533 2.75
      vertex -1.61803 1.17557 2.75
    endloop
  endfacet
  facet normal -0 0 1
    outer loop
      vertex 1.90211 0.618033 2.75
      vertex 5.5 0 2.75
      vertex 5.16831 1.88111 2.75
    endloop
  endfacet
  facet normal 0 0 1
    outer loop
      vertex 1.90211 0.618033 2.75
      vertex 5.16831 1.88111 2.75
      vertex 4.21324 3.53533 2.75
    endloop
  endfacet
  facet normal 0 0 1
    outer loop
      vertex 1.17557 1.61803 2.75
      vertex 4.21324 3.53533 2.75
      vertex 2.75 4.76314 2.75
    endloop
  endfacet
  facet normal 0 0 1
    outer loop
      vertex 5.5 0 2.75
      vertex 2 0 2.75
      vertex 1.90211 -0.618033 2.75
    endloop
  endfacet
  facet normal 0 0 1
    outer loop
      vertex 5.5 0 2.75
      vertex 1.90211 -0.618033 2.75
      vertex 1.61803 -1.17557 2.75
    endloop
  endfacet
  facet normal 0 0 1
    outer loop
      vertex 1.17557 -1.61803 2.75
      vertex 5.5 0 2.75
      vertex 1.61803 -1.17557 2.75
    endloop
  endfacet
  facet normal 0 0 1
    outer loop
      vertex 5.5 0 2.75
      vertex 1.17557 -1.61803 2.75
      vertex 5.5 -10.5 2.75
    endloop
  endfacet
  facet normal -0 0 1
    outer loop
      vertex 0.618033 -1.90211 2.75
      vertex 5.5 -10.5 2.75
      vertex 1.17557 -1.61803 2.75
    endloop
  endfacet
  facet normal -0 0 1
    outer loop
      vertex 0 -2 2.75
      vertex 5.5 -10.5 2.75
      vertex 0.618033 -1.90211 2.75
    endloop
  endfacet
  facet normal 0 0 1
    outer loop
      vertex -5.5 -10.5 2.75
      vertex 0 -2 2.75
      vertex -0.618033 -1.90211 2.75
    endloop
  endfacet
  facet normal 0 0 1
    outer loop
      vertex -5.5 -10.5 2.75
      vertex -0.618033 -1.90211 2.75
      vertex -1.17557 -1.61803 2.75
    endloop
  endfacet
  facet normal 0 0 1
    outer loop
      vertex -5.5 0 2.75
      vertex -1.17557 -1.61803 2.75
      vertex -1.61803 -1.17557 2.75
    endloop
  endfacet
  facet normal 0 0 1
    outer loop
      vertex -1.61803 1.17557 2.75
      vertex -5.16831 1.88111 2.75
      vertex -1.90211 0.618033 2.75
    endloop
  endfacet
  facet normal 0 0 1
    outer loop
      vertex -5.5 0 2.75
      vertex -1.90211 0.618033 2.75
      vertex -5.16831 1.88111 2.75
    endloop
  endfacet
  facet normal 0 0 1
    outer loop
      vertex -1.90211 0.618033 2.75
      vertex -5.5 0 2.75
      vertex -2 0 2.75
    endloop
  endfacet
  facet normal 0 0 1
    outer loop
      vertex -2 0 2.75
      vertex -5.5 0 2.75
      vertex -1.90211 -0.618033 2.75
    endloop
  endfacet
  facet normal 0 0 1
    outer loop
      vertex -1.90211 -0.618033 2.75
      vertex -5.5 0 2.75
      vertex -1.61803 -1.17557 2.75
    endloop
  endfacet
  facet normal 0 0 1
    outer loop
      vertex -1.17557 -1.61803 2.75
      vertex -5.5 0 2.75
      vertex -5.5 -10.5 2.75
    endloop
  endfacet
  facet normal 0 0 1
    outer loop
      vertex 0 -2 2.75
      vertex -5.5 -10.5 2.75
      vertex 5.5 -10.5 2.75
    endloop
  endfacet
  facet normal -0.984808 0.173648 -7.80559e-19
    outer loop
      vertex -5.5 0 0.75
      vertex -5.16831 1.88111 2.75
      vertex -5.16831 1.88111 0.75
    endloop
  endfacet
  facet normal -0.984808 0.173648 -7.80559e-19
    outer loop
      vertex -5.16831 1.88111 2.75
      vertex -5.5 0 0.75
      vertex -5.5 0 2.75
    endloop
  endfacet
  facet normal -0.707107 0.707107 -5.08053e-18
    outer loop
      vertex 1.17557 -1.61803 0.75
      vertex 1.61803 -1.17557 2.75
      vertex 1.61803 -1.17557 0.75
    endloop
  endfacet
  facet normal -0.707107 0.707107 -5.08053e-18
    outer loop
      vertex 1.61803 -1.17557 2.75
      vertex 1.17557 -1.61803 0.75
      vertex 1.17557 -1.61803 2.75
    endloop
  endfacet
  facet normal -0.891006 -0.453991 1.04149e-17
    outer loop
      vertex 1.90211 0.618033 0.75
      vertex 1.61803 1.17557 2.75
      vertex 1.61803 1.17557 0.75
    endloop
  endfacet
  facet normal -0.891006 -0.453991 1.04149e-17
    outer loop
      vertex 1.61803 1.17557 2.75
      vertex 1.90211 0.618033 0.75
      vertex 1.90211 0.618033 2.75
    endloop
  endfacet
  facet normal -0.987688 -0.156439 2.10624e-18
    outer loop
      vertex 2 0 0.75
      vertex 1.90211 0.618033 2.75
      vertex 1.90211 0.618033 0.75
    endloop
  endfacet
  facet normal -0.987688 -0.156439 2.10624e-18
    outer loop
      vertex 1.90211 0.618033 2.75
      vertex 2 0 0.75
      vertex 2 0 2.75
    endloop
  endfacet
  facet normal -0.707107 -0.707107 5.08053e-18
    outer loop
      vertex 1.61803 1.17557 0.75
      vertex 1.17557 1.61803 2.75
      vertex 1.17557 1.61803 0.75
    endloop
  endfacet
  facet normal -0.707107 -0.707107 5.08053e-18
    outer loop
      vertex 1.17557 1.61803 2.75
      vertex 1.61803 1.17557 0.75
      vertex 1.61803 1.17557 2.75
    endloop
  endfacet
  facet normal -0.987688 0.156439 -2.10624e-18
    outer loop
      vertex 1.90211 -0.618033 0.75
      vertex 2 0 2.75
      vertex 2 0 0.75
    endloop
  endfacet
  facet normal -0.987688 0.156439 -2.10624e-18
    outer loop
      vertex 2 0 2.75
      vertex 1.90211 -0.618033 0.75
      vertex 1.90211 -0.618033 2.75
    endloop
  endfacet
  facet normal -0.156439 0.987688 0
    outer loop
      vertex 0.618033 -1.90211 0.75
      vertex 0 -2 2.75
      vertex 0.618033 -1.90211 2.75
    endloop
  endfacet
  facet normal -0.156439 0.987688 0
    outer loop
      vertex 0 -2 2.75
      vertex 0.618033 -1.90211 0.75
      vertex 0 -2 0.75
    endloop
  endfacet
  facet normal 0.453991 -0.891006 0
    outer loop
      vertex -1.17557 1.61803 0.75
      vertex -0.618033 1.90211 2.75
      vertex -1.17557 1.61803 2.75
    endloop
  endfacet
  facet normal 0.453991 -0.891006 0
    outer loop
      vertex -0.618033 1.90211 2.75
      vertex -1.17557 1.61803 0.75
      vertex -0.618033 1.90211 0.75
    endloop
  endfacet
  facet normal -0.453991 0.891006 0
    outer loop
      vertex 1.17557 -1.61803 0.75
      vertex 0.618033 -1.90211 2.75
      vertex 1.17557 -1.61803 2.75
    endloop
  endfacet
  facet normal -0.453991 0.891006 0
    outer loop
      vertex 0.618033 -1.90211 2.75
      vertex 1.17557 -1.61803 0.75
      vertex 0.618033 -1.90211 0.75
    endloop
  endfacet
  facet normal 0.891006 -0.453991 -1.04149e-17
    outer loop
      vertex -1.90211 0.618033 2.75
      vertex -1.61803 1.17557 0.75
      vertex -1.61803 1.17557 2.75
    endloop
  endfacet
  facet normal 0.891006 -0.453991 -1.04149e-17
    outer loop
      vertex -1.61803 1.17557 0.75
      vertex -1.90211 0.618033 2.75
      vertex -1.90211 0.618033 0.75
    endloop
  endfacet
  facet normal -0.891006 0.453991 -1.04149e-17
    outer loop
      vertex 1.61803 -1.17557 0.75
      vertex 1.90211 -0.618033 2.75
      vertex 1.90211 -0.618033 0.75
    endloop
  endfacet
  facet normal -0.891006 0.453991 -1.04149e-17
    outer loop
      vertex 1.90211 -0.618033 2.75
      vertex 1.61803 -1.17557 0.75
      vertex 1.61803 -1.17557 2.75
    endloop
  endfacet
  facet normal 0.987688 -0.156439 -2.10624e-18
    outer loop
      vertex -2 0 2.75
      vertex -1.90211 0.618033 0.75
      vertex -1.90211 0.618033 2.75
    endloop
  endfacet
  facet normal 0.987688 -0.156439 -2.10624e-18
    outer loop
      vertex -1.90211 0.618033 0.75
      vertex -2 0 2.75
      vertex -2 0 0.75
    endloop
  endfacet
  facet normal 0.156439 0.987688 -0
    outer loop
      vertex 0 -2 0.75
      vertex -0.618033 -1.90211 2.75
      vertex 0 -2 2.75
    endloop
  endfacet
  facet normal 0.156439 0.987688 0
    outer loop
      vertex -0.618033 -1.90211 2.75
      vertex 0 -2 0.75
      vertex -0.618033 -1.90211 0.75
    endloop
  endfacet
  facet normal -0.156439 -0.987688 0
    outer loop
      vertex 0 2 0.75
      vertex 0.618033 1.90211 2.75
      vertex 0 2 2.75
    endloop
  endfacet
  facet normal -0.156439 -0.987688 -0
    outer loop
      vertex 0.618033 1.90211 2.75
      vertex 0 2 0.75
      vertex 0.618033 1.90211 0.75
    endloop
  endfacet
  facet normal -0.453991 -0.891006 0
    outer loop
      vertex 0.618033 1.90211 0.75
      vertex 1.17557 1.61803 2.75
      vertex 0.618033 1.90211 2.75
    endloop
  endfacet
  facet normal -0.453991 -0.891006 -0
    outer loop
      vertex 1.17557 1.61803 2.75
      vertex 0.618033 1.90211 0.75
      vertex 1.17557 1.61803 0.75
    endloop
  endfacet
  facet normal 0.891006 0.453991 1.04149e-17
    outer loop
      vertex -1.61803 -1.17557 2.75
      vertex -1.90211 -0.618033 0.75
      vertex -1.90211 -0.618033 2.75
    endloop
  endfacet
  facet normal 0.891006 0.453991 1.04149e-17
    outer loop
      vertex -1.90211 -0.618033 0.75
      vertex -1.61803 -1.17557 2.75
      vertex -1.61803 -1.17557 0.75
    endloop
  endfacet
  facet normal 0.156439 -0.987688 0
    outer loop
      vertex -0.618033 1.90211 0.75
      vertex 0 2 2.75
      vertex -0.618033 1.90211 2.75
    endloop
  endfacet
  facet normal 0.156439 -0.987688 0
    outer loop
      vertex 0 2 2.75
      vertex -0.618033 1.90211 0.75
      vertex 0 2 0.75
    endloop
  endfacet
  facet normal 0.707107 0.707107 5.08053e-18
    outer loop
      vertex -1.17557 -1.61803 2.75
      vertex -1.61803 -1.17557 0.75
      vertex -1.61803 -1.17557 2.75
    endloop
  endfacet
  facet normal 0.707107 0.707107 5.08053e-18
    outer loop
      vertex -1.61803 -1.17557 0.75
      vertex -1.17557 -1.61803 2.75
      vertex -1.17557 -1.61803 0.75
    endloop
  endfacet
  facet normal 0.987688 0.156439 2.10624e-18
    outer loop
      vertex -1.90211 -0.618033 2.75
      vertex -2 0 0.75
      vertex -2 0 2.75
    endloop
  endfacet
  facet normal 0.987688 0.156439 2.10624e-18
    outer loop
      vertex -2 0 0.75
      vertex -1.90211 -0.618033 2.75
      vertex -1.90211 -0.618033 0.75
    endloop
  endfacet
  facet normal 0.453991 0.891006 -0
    outer loop
      vertex -0.618033 -1.90211 0.75
      vertex -1.17557 -1.61803 2.75
      vertex -0.618033 -1.90211 2.75
    endloop
  endfacet
  facet normal 0.453991 0.891006 0
    outer loop
      vertex -1.17557 -1.61803 2.75
      vertex -0.618033 -1.90211 0.75
      vertex -1.17557 -1.61803 0.75
    endloop
  endfacet
  facet normal 0.707107 -0.707107 -5.08053e-18
    outer loop
      vertex -1.61803 1.17557 2.75
      vertex -1.17557 1.61803 0.75
      vertex -1.17557 1.61803 2.75
    endloop
  endfacet
  facet normal 0.707107 -0.707107 -5.08053e-18
    outer loop
      vertex -1.17557 1.61803 0.75
      vertex -1.61803 1.17557 2.75
      vertex -1.61803 1.17557 0.75
    endloop
  endfacet
  facet normal -0.642789 0.766043 0
    outer loop
      vertex -2.75 4.76314 -2.75
      vertex -4.21324 3.53533 -0.75
      vertex -2.75 4.76314 -0.75
    endloop
  endfacet
  facet normal -0.642789 0.766043 0
    outer loop
      vertex -4.21324 3.53533 -0.75
      vertex -2.75 4.76314 -2.75
      vertex -4.21324 3.53533 -2.75
    endloop
  endfacet
  facet normal -1 0 0
    outer loop
      vertex -5.5 -10.5 -2.75
      vertex -5.5 0 -0.75
      vertex -5.5 0 -2.75
    endloop
  endfacet
  facet normal -1 -0 0
    outer loop
      vertex -5.5 0 -0.75
      vertex -5.5 -10.5 -2.75
      vertex -5.5 -10.5 -0.75
    endloop
  endfacet
  facet normal 0.984808 0.173648 7.80559e-19
    outer loop
      vertex 5.5 0 -0.75
      vertex 5.16831 1.88111 -2.75
      vertex 5.16831 1.88111 -0.75
    endloop
  endfacet
  facet normal 0.984808 0.173648 7.80559e-19
    outer loop
      vertex 5.16831 1.88111 -2.75
      vertex 5.5 0 -0.75
      vertex 5.5 0 -2.75
    endloop
  endfacet
  facet normal 0.642789 0.766043 -0
    outer loop
      vertex 4.21324 3.53533 -2.75
      vertex 2.75 4.76314 -0.75
      vertex 4.21324 3.53533 -0.75
    endloop
  endfacet
  facet normal 0.642789 0.766043 0
    outer loop
      vertex 2.75 4.76314 -0.75
      vertex 4.21324 3.53533 -2.75
      vertex 2.75 4.76314 -2.75
    endloop
  endfacet
  facet normal 0.866024 0.500002 7.85368e-18
    outer loop
      vertex 5.16831 1.88111 -0.75
      vertex 4.21324 3.53533 -2.75
      vertex 4.21324 3.53533 -0.75
    endloop
  endfacet
  facet normal 0.866024 0.500002 7.85368e-18
    outer loop
      vertex 4.21324 3.53533 -2.75
      vertex 5.16831 1.88111 -0.75
      vertex 5.16831 1.88111 -2.75
    endloop
  endfacet
  facet normal 0 0 -1
    outer loop
      vertex 1.17557 -1.61803 -2.75
      vertex 5.5 0 -2.75
      vertex 5.5 -10.5 -2.75
    endloop
  endfacet
  facet normal 0 -0 -1
    outer loop
      vertex 1.90211 -0.618033 -2.75
      vertex 5.5 0 -2.75
      vertex 1.61803 -1.17557 -2.75
    endloop
  endfacet
  facet normal 0 0 -1
    outer loop
      vertex 1.90211 0.618033 -2.75
      vertex 5.5 0 -2.75
      vertex 2 0 -2.75
    endloop
  endfacet
  facet normal 0 0 -1
    outer loop
      vertex 1.61803 1.17557 -2.75
      vertex 5.16831 1.88111 -2.75
      vertex 1.90211 0.618033 -2.75
    endloop
  endfacet
  facet normal 0 0 -1
    outer loop
      vertex 5.5 0 -2.75
      vertex 1.90211 0.618033 -2.75
      vertex 5.16831 1.88111 -2.75
    endloop
  endfacet
  facet normal 0 -0 -1
    outer loop
      vertex 2 0 -2.75
      vertex 5.5 0 -2.75
      vertex 1.90211 -0.618033 -2.75
    endloop
  endfacet
  facet normal 0 0 -1
    outer loop
      vertex 5.5 0 -2.75
      vertex 1.17557 -1.61803 -2.75
      vertex 1.61803 -1.17557 -2.75
    endloop
  endfacet
  facet normal 0 0 -1
    outer loop
      vertex 5.5 -10.5 -2.75
      vertex 0.618033 -1.90211 -2.75
      vertex 1.17557 -1.61803 -2.75
    endloop
  endfacet
  facet normal 0 0 -1
    outer loop
      vertex 5.5 -10.5 -2.75
      vertex 0 -2 -2.75
      vertex 0.618033 -1.90211 -2.75
    endloop
  endfacet
  facet normal 0 0 -1
    outer loop
      vertex -5.5 -10.5 -2.75
      vertex 0 -2 -2.75
      vertex 5.5 -10.5 -2.75
    endloop
  endfacet
  facet normal -0 0 -1
    outer loop
      vertex 0 -2 -2.75
      vertex -5.5 -10.5 -2.75
      vertex -0.618033 -1.90211 -2.75
    endloop
  endfacet
  facet normal -0 0 -1
    outer loop
      vertex -0.618033 -1.90211 -2.75
      vertex -5.5 -10.5 -2.75
      vertex -1.17557 -1.61803 -2.75
    endloop
  endfacet
  facet normal 0 0 -1
    outer loop
      vertex -1.17557 1.61803 -2.75
      vertex -4.21324 3.53533 -2.75
      vertex -2.75 4.76314 -2.75
    endloop
  endfacet
  facet normal 0 0 -1
    outer loop
      vertex -5.5 0 -2.75
      vertex -2 0 -2.75
      vertex -1.90211 -0.618033 -2.75
    endloop
  endfacet
  facet normal 0 0 -1
    outer loop
      vertex -5.5 0 -2.75
      vertex -1.90211 -0.618033 -2.75
      vertex -1.61803 -1.17557 -2.75
    endloop
  endfacet
  facet normal 0 0 -1
    outer loop
      vertex -1.90211 0.618033 -2.75
      vertex -5.16831 1.88111 -2.75
      vertex -4.21324 3.53533 -2.75
    endloop
  endfacet
  facet normal 0 0 -1
    outer loop
      vertex -5.5 0 -2.75
      vertex -1.17557 -1.61803 -2.75
      vertex -5.5 -10.5 -2.75
    endloop
  endfacet
  facet normal 0 0 -1
    outer loop
      vertex -1.17557 -1.61803 -2.75
      vertex -5.5 0 -2.75
      vertex -1.61803 -1.17557 -2.75
    endloop
  endfacet
  facet normal -0 0 -1
    outer loop
      vertex -1.90211 0.618033 -2.75
      vertex -5.5 0 -2.75
      vertex -5.16831 1.88111 -2.75
    endloop
  endfacet
  facet normal -0 0 -1
    outer loop
      vertex 5.16831 1.88111 -2.75
      vertex 1.61803 1.17557 -2.75
      vertex 4.21324 3.53533 -2.75
    endloop
  endfacet
  facet normal 0 0 -1
    outer loop
      vertex 1.17557 1.61803 -2.75
      vertex 4.21324 3.53533 -2.75
      vertex 1.61803 1.17557 -2.75
    endloop
  endfacet
  facet normal -0 0 -1
    outer loop
      vertex 4.21324 3.53533 -2.75
      vertex 1.17557 1.61803 -2.75
      vertex 2.75 4.76314 -2.75
    endloop
  endfacet
  facet normal 0 0 -1
    outer loop
      vertex 0.618033 1.90211 -2.75
      vertex 2.75 4.76314 -2.75
      vertex 1.17557 1.61803 -2.75
    endloop
  endfacet
  facet normal -0 0 -1
    outer loop
      vertex 2.75 4.76314 -2.75
      vertex 0.618033 1.90211 -2.75
      vertex 0.955065 5.41644 -2.75
    endloop
  endfacet
  facet normal 0 0 -1
    outer loop
      vertex 0 2 -2.75
      vertex 0.955065 5.41644 -2.75
      vertex 0.618033 1.90211 -2.75
    endloop
  endfacet
  facet normal 0 0 -1
    outer loop
      vertex -0.955065 5.41644 -2.75
      vertex 0 2 -2.75
      vertex -0.618033 1.90211 -2.75
    endloop
  endfacet
  facet normal 0 0 -1
    outer loop
      vertex 0 2 -2.75
      vertex -0.955065 5.41644 -2.75
      vertex 0.955065 5.41644 -2.75
    endloop
  endfacet
  facet normal 0 0 -1
    outer loop
      vertex -2.75 4.76314 -2.75
      vertex -0.618033 1.90211 -2.75
      vertex -1.17557 1.61803 -2.75
    endloop
  endfacet
  facet normal 0 0 -1
    outer loop
      vertex -4.21324 3.53533 -2.75
      vertex -1.17557 1.61803 -2.75
      vertex -1.61803 1.17557 -2.75
    endloop
  endfacet
  facet normal 0 0 -1
    outer loop
      vertex -4.21324 3.53533 -2.75
      vertex -1.61803 1.17557 -2.75
      vertex -1.90211 0.618033 -2.75
    endloop
  endfacet
  facet normal 0 0 -1
    outer loop
      vertex -0.618033 1.90211 -2.75
      vertex -2.75 4.76314 -2.75
      vertex -0.955065 5.41644 -2.75
    endloop
  endfacet
  facet normal 0 0 -1
    outer loop
      vertex -5.5 0 -2.75
      vertex -1.90211 0.618033 -2.75
      vertex -2 0 -2.75
    endloop
  endfacet
  facet normal 0 -1 0
    outer loop
      vertex -5.5 -10.5 -2.75
      vertex 5.5 -10.5 -0.75
      vertex -5.5 -10.5 -0.75
    endloop
  endfacet
  facet normal 0 -1 -0
    outer loop
      vertex 5.5 -10.5 -0.75
      vertex -5.5 -10.5 -2.75
      vertex 5.5 -10.5 -2.75
    endloop
  endfacet
  facet normal 0 1 -0
    outer loop
      vertex 0.955065 5.41644 -2.75
      vertex -0.955065 5.41644 -0.75
      vertex 0.955065 5.41644 -0.75
    endloop
  endfacet
  facet normal 0 1 0
    outer loop
      vertex -0.955065 5.41644 -0.75
      vertex 0.955065 5.41644 -2.75
      vertex -0.955065 5.41644 -2.75
    endloop
  endfacet
  facet normal 1 -0 0
    outer loop
      vertex 5.5 -10.5 -0.75
      vertex 5.5 0 -2.75
      vertex 5.5 0 -0.75
    endloop
  endfacet
  facet normal 1 0 0
    outer loop
      vertex 5.5 0 -2.75
      vertex 5.5 -10.5 -0.75
      vertex 5.5 -10.5 -2.75
    endloop
  endfacet
  facet normal -0.342019 0.939693 0
    outer loop
      vertex -0.955065 5.41644 -2.75
      vertex -2.75 4.76314 -0.75
      vertex -0.955065 5.41644 -0.75
    endloop
  endfacet
  facet normal -0.342019 0.939693 0
    outer loop
      vertex -2.75 4.76314 -0.75
      vertex -0.955065 5.41644 -2.75
      vertex -2.75 4.76314 -2.75
    endloop
  endfacet
  facet normal 0.342019 0.939693 -0
    outer loop
      vertex 2.75 4.76314 -2.75
      vertex 0.955065 5.41644 -0.75
      vertex 2.75 4.76314 -0.75
    endloop
  endfacet
  facet normal 0.342019 0.939693 0
    outer loop
      vertex 0.955065 5.41644 -0.75
      vertex 2.75 4.76314 -2.75
      vertex 0.955065 5.41644 -2.75
    endloop
  endfacet
  facet normal -0.866024 0.500002 -7.85368e-18
    outer loop
      vertex -5.16831 1.88111 -2.75
      vertex -4.21324 3.53533 -0.75
      vertex -4.21324 3.53533 -2.75
    endloop
  endfacet
  facet normal -0.866024 0.500002 -7.85368e-18
    outer loop
      vertex -4.21324 3.53533 -0.75
      vertex -5.16831 1.88111 -2.75
      vertex -5.16831 1.88111 -0.75
    endloop
  endfacet
  facet normal 0 0 1
    outer loop
      vertex 5.5 0 -0.75
      vertex 1.90211 0.618033 -0.75
      vertex 2 0 -0.75
    endloop
  endfacet
  facet normal 0 0 1
    outer loop
      vertex 4.21324 3.53533 -0.75
      vertex 1.61803 1.17557 -0.75
      vertex 1.90211 0.618033 -0.75
    endloop
  endfacet
  facet normal 0 0 1
    outer loop
      vertex 4.21324 3.53533 -0.75
      vertex 1.17557 1.61803 -0.75
      vertex 1.61803 1.17557 -0.75
    endloop
  endfacet
  facet normal 0 0 1
    outer loop
      vertex 0.618033 1.90211 -0.75
      vertex 2.75 4.76314 -0.75
      vertex 0.955065 5.41644 -0.75
    endloop
  endfacet
  facet normal 0 0 1
    outer loop
      vertex 2.75 4.76314 -0.75
      vertex 0.618033 1.90211 -0.75
      vertex 1.17557 1.61803 -0.75
    endloop
  endfacet
  facet normal 0 0 1
    outer loop
      vertex 0.955065 5.41644 -0.75
      vertex 0 2 -0.75
      vertex 0.618033 1.90211 -0.75
    endloop
  endfacet
  facet normal -0 0 1
    outer loop
      vertex -0.955065 5.41644 -0.75
      vertex 0 2 -0.75
      vertex 0.955065 5.41644 -0.75
    endloop
  endfacet
  facet normal 0 0 1
    outer loop
      vertex 0 2 -0.75
      vertex -0.955065 5.41644 -0.75
      vertex -0.618033 1.90211 -0.75
    endloop
  endfacet
  facet normal -0 0 1
    outer loop
      vertex -2.75 4.76314 -0.75
      vertex -0.618033 1.90211 -0.75
      vertex -0.955065 5.41644 -0.75
    endloop
  endfacet
  facet normal 0 0 1
    outer loop
      vertex -0.618033 1.90211 -0.75
      vertex -2.75 4.76314 -0.75
      vertex -1.17557 1.61803 -0.75
    endloop
  endfacet
  facet normal -0 0 1
    outer loop
      vertex -4.21324 3.53533 -0.75
      vertex -1.17557 1.61803 -0.75
      vertex -2.75 4.76314 -0.75
    endloop
  endfacet
  facet normal -0 0 1
    outer loop
      vertex -5.16831 1.88111 -0.75
      vertex -1.61803 1.17557 -0.75
      vertex -4.21324 3.53533 -0.75
    endloop
  endfacet
  facet normal 0 0 1
    outer loop
      vertex -1.17557 1.61803 -0.75
      vertex -4.21324 3.53533 -0.75
      vertex -1.61803 1.17557 -0.75
    endloop
  endfacet
  facet normal -0 0 1
    outer loop
      vertex 1.90211 0.618033 -0.75
      vertex 5.5 0 -0.75
      vertex 5.16831 1.88111 -0.75
    endloop
  endfacet
  facet normal 0 0 1
    outer loop
      vertex 1.90211 0.618033 -0.75
      vertex 5.16831 1.88111 -0.75
      vertex 4.21324 3.53533 -0.75
    endloop
  endfacet
  facet normal 0 0 1
    outer loop
      vertex 1.17557 1.61803 -0.75
      vertex 4.21324 3.53533 -0.75
      vertex 2.75 4.76314 -0.75
    endloop
  endfacet
  facet normal 0 0 1
    outer loop
      vertex 5.5 0 -0.75
      vertex 2 0 -0.75
      vertex 1.90211 -0.618033 -0.75
    endloop
  endfacet
  facet normal 0 0 1
    outer loop
      vertex 5.5 0 -0.75
      vertex 1.90211 -0.618033 -0.75
      vertex 1.61803 -1.17557 -0.75
    endloop
  endfacet
  facet normal 0 0 1
    outer loop
      vertex 1.17557 -1.61803 -0.75
      vertex 5.5 0 -0.75
      vertex 1.61803 -1.17557 -0.75
    endloop
  endfacet
  facet normal 0 0 1
    outer loop
      vertex 5.5 0 -0.75
      vertex 1.17557 -1.61803 -0.75
      vertex 5.5 -10.5 -0.75
    endloop
  endfacet
  facet normal -0 0 1
    outer loop
      vertex 0.618033 -1.90211 -0.75
      vertex 5.5 -10.5 -0.75
      vertex 1.17557 -1.61803 -0.75
    endloop
  endfacet
  facet normal -0 0 1
    outer loop
      vertex 0 -2 -0.75
      vertex 5.5 -10.5 -0.75
      vertex 0.618033 -1.90211 -0.75
    endloop
  endfacet
  facet normal 0 0 1
    outer loop
      vertex -5.5 -10.5 -0.75
      vertex 0 -2 -0.75
      vertex -0.618033 -1.90211 -0.75
    endloop
  endfacet
  facet normal 0 0 1
    outer loop
      vertex -5.5 -10.5 -0.75
      vertex -0.618033 -1.90211 -0.75
      vertex -1.17557 -1.61803 -0.75
    endloop
  endfacet
  facet normal 0 0 1
    outer loop
      vertex -5.5 0 -0.75
      vertex -1.17557 -1.61803 -0.75
      vertex -1.61803 -1.17557 -0.75
    endloop
  endfacet
  facet normal 0 0 1
    outer loop
      vertex -1.61803 1.17557 -0.75
      vertex -5.16831 1.88111 -0.75
      vertex -1.90211 0.618033 -0.75
    endloop
  endfacet
  facet normal 0 0 1
    outer loop
      vertex -5.5 0 -0.75
      vertex -1.90211 0.618033 -0.75
      vertex -5.16831 1.88111 -0.75
    endloop
  endfacet
  facet normal 0 0 1
    outer loop
      vertex -1.90211 0.618033 -0.75
      vertex -5.5 0 -0.75
      vertex -2 0 -0.75
    endloop
  endfacet
  facet normal 0 0 1
    outer loop
      vertex -2 0 -0.75
      vertex -5.5 0 -0.75
      vertex -1.90211 -0.618033 -0.75
    endloop
  endfacet
  facet normal 0 0 1
    outer loop
      vertex -1.90211 -0.618033 -0.75
      vertex -5.5 0 -0.75
      vertex -1.61803 -1.17557 -0.75
    endloop
  endfacet
  facet normal 0 0 1
    outer loop
      vertex -1.17557 -1.61803 -0.75
      vertex -5.5 0 -0.75
      vertex -5.5 -10.5 -0.75
    endloop
  endfacet
  facet normal 0 0 1
    outer loop
      vertex 0 -2 -0.75
      vertex -5.5 -10.5 -0.75
      vertex 5.5 -10.5 -0.75
    endloop
  endfacet
  facet normal -0.984808 0.173648 -7.80559e-19
    outer loop
      vertex -5.5 0 -2.75
      vertex -5.16831 1.88111 -0.75
      vertex -5.16831 1.88111 -2.75
    endloop
  endfacet
  facet normal -0.984808 0.173648 -7.80559e-19
    outer loop
      vertex -5.16831 1.88111 -0.75
      vertex -5.5 0 -2.75
      vertex -5.5 0 -0.75
    endloop
  endfacet
  facet normal -0.707107 0.707107 -5.08053e-18
    outer loop
      vertex 1.17557 -1.61803 -2.75
      vertex 1.61803 -1.17557 -0.75
      vertex 1.61803 -1.17557 -2.75
    endloop
  endfacet
  facet normal -0.707107 0.707107 -5.08053e-18
    outer loop
      vertex 1.61803 -1.17557 -0.75
      vertex 1.17557 -1.61803 -2.75
      vertex 1.17557 -1.61803 -0.75
    endloop
  endfacet
  facet normal -0.891006 -0.453991 1.04149e-17
    outer loop
      vertex 1.90211 0.618033 -2.75
      vertex 1.61803 1.17557 -0.75
      vertex 1.61803 1.17557 -2.75
    endloop
  endfacet
  facet normal -0.891006 -0.453991 1.04149e-17
    outer loop
      vertex 1.61803 1.17557 -0.75
      vertex 1.90211 0.618033 -2.75
      vertex 1.90211 0.618033 -0.75
    endloop
  endfacet
  facet normal -0.987688 -0.156439 2.10624e-18
    outer loop
      vertex 2 0 -2.75
      vertex 1.90211 0.618033 -0.75
      vertex 1.90211 0.618033 -2.75
    endloop
  endfacet
  facet normal -0.987688 -0.156439 2.10624e-18
    outer loop
      vertex 1.90211 0.618033 -0.75
      vertex 2 0 -2.75
      vertex 2 0 -0.75
    endloop
  endfacet
  facet normal -0.707107 -0.707107 5.08053e-18
    outer loop
      vertex 1.61803 1.17557 -2.75
      vertex 1.17557 1.61803 -0.75
      vertex 1.17557 1.61803 -2.75
    endloop
  endfacet
  facet normal -0.707107 -0.707107 5.08053e-18
    outer loop
      vertex 1.17557 1.61803 -0.75
      vertex 1.61803 1.17557 -2.75
      vertex 1.61803 1.17557 -0.75
    endloop
  endfacet
  facet normal -0.987688 0.156439 -2.10624e-18
    outer loop
      vertex 1.90211 -0.618033 -2.75
      vertex 2 0 -0.75
      vertex 2 0 -2.75
    endloop
  endfacet
  facet normal -0.987688 0.156439 -2.10624e-18
    outer loop
      vertex 2 0 -0.75
      vertex 1.90211 -0.618033 -2.75
      vertex 1.90211 -0.618033 -0.75
    endloop
  endfacet
  facet normal -0.156439 0.987688 0
    outer loop
      vertex 0.618033 -1.90211 -2.75
      vertex 0 -2 -0.75
      vertex 0.618033 -1.90211 -0.75
    endloop
  endfacet
  facet normal -0.156439 0.987688 0
    outer loop
      vertex 0 -2 -0.75
      vertex 0.618033 -1.90211 -2.75
      vertex 0 -2 -2.75
    endloop
  endfacet
  facet normal 0.453991 -0.891006 0
    outer loop
      vertex -1.17557 1.61803 -2.75
      vertex -0.618033 1.90211 -0.75
      vertex -1.17557 1.61803 -0.75
    endloop
  endfacet
  facet normal 0.453991 -0.891006 0
    outer loop
      vertex -0.618033 1.90211 -0.75
      vertex -1.17557 1.61803 -2.75
      vertex -0.618033 1.90211 -2.75
    endloop
  endfacet
  facet normal -0.453991 0.891006 0
    outer loop
      vertex 1.17557 -1.61803 -2.75
      vertex 0.618033 -1.90211 -0.75
      vertex 1.17557 -1.61803 -0.75
    endloop
  endfacet
  facet normal -0.453991 0.891006 0
    outer loop
      vertex 0.618033 -1.90211 -0.75
      vertex 1.17557 -1.61803 -2.75
      vertex 0.618033 -1.90211 -2.75
    endloop
  endfacet
  facet normal 0.891006 -0.453991 -1.04149e-17
    outer loop
      vertex -1.90211 0.618033 -0.75
      vertex -1.61803 1.17557 -2.75
      vertex -1.61803 1.17557 -0.75
    endloop
  endfacet
  facet normal 0.891006 -0.453991 -1.04149e-17
    outer loop
      vertex -1.61803 1.17557 -2.75
      vertex -1.90211 0.618033 -0.75
      vertex -1.90211 0.618033 -2.75
    endloop
  endfacet
  facet normal -0.891006 0.453991 -1.04149e-17
    outer loop
      vertex 1.61803 -1.17557 -2.75
      vertex 1.90211 -0.618033 -0.75
      vertex 1.90211 -0.618033 -2.75
    endloop
  endfacet
  facet normal -0.891006 0.453991 -1.04149e-17
    outer loop
      vertex 1.90211 -0.618033 -0.75
      vertex 1.61803 -1.17557 -2.75
      vertex 1.61803 -1.17557 -0.75
    endloop
  endfacet
  facet normal 0.987688 -0.156439 -2.10624e-18
    outer loop
      vertex -2 0 -0.75
      vertex -1.90211 0.618033 -2.75
      vertex -1.90211 0.618033 -0.75
    endloop
  endfacet
  facet normal 0.987688 -0.156439 -2.10624e-18
    outer loop
      vertex -1.90211 0.618033 -2.75
      vertex -2 0 -0.75
      vertex -2 0 -2.75
    endloop
  endfacet
  facet normal 0.156439 0.987688 -0
    outer loop
      vertex 0 -2 -2.75
      vertex -0.618033 -1.90211 -0.75
      vertex 0 -2 -0.75
    endloop
  endfacet
  facet normal 0.156439 0.987688 0
    outer loop
      vertex -0.618033 -1.90211 -0.75
      vertex 0 -2 -2.75
      vertex -0.618033 -1.90211 -2.75
    endloop
  endfacet
  facet normal -0.156439 -0.987688 0
    outer loop
      vertex 0 2 -2.75
      vertex 0.618033 1.90211 -0.75
      vertex 0 2 -0.75
    endloop
  endfacet
  facet normal -0.156439 -0.987688 -0
    outer loop
      vertex 0.618033 1.90211 -0.75
      vertex 0 2 -2.75
      vertex 0.618033 1.90211 -2.75
    endloop
  endfacet
  facet normal -0.453991 -0.891006 0
    outer loop
      vertex 0.618033 1.90211 -2.75
      vertex 1.17557 1.61803 -0.75
      vertex 0.618033 1.90211 -0.75
    endloop
  endfacet
  facet normal -0.453991 -0.891006 -0
    outer loop
      vertex 1.17557 1.61803 -0.75
      vertex 0.618033 1.90211 -2.75
      vertex 1.17557 1.61803 -2.75
    endloop
  endfacet
  facet normal 0.891006 0.453991 1.04149e-17
    outer loop
      vertex -1.61803 -1.17557 -0.75
      vertex -1.90211 -0.618033 -2.75
      vertex -1.90211 -0.618033 -0.75
    endloop
  endfacet
  facet normal 0.891006 0.453991 1.04149e-17
    outer loop
      vertex -1.90211 -0.618033 -2.75
      vertex -1.61803 -1.17557 -0.75
      vertex -1.61803 -1.17557 -2.75
    endloop
  endfacet
  facet normal 0.156439 -0.987688 0
    outer loop
      vertex -0.618033 1.90211 -2.75
      vertex 0 2 -0.75
      vertex -0.618033 1.90211 -0.75
    endloop
  endfacet
  facet normal 0.156439 -0.987688 0
    outer loop
      vertex 0 2 -0.75
      vertex -0.618033 1.90211 -2.75
      vertex 0 2 -2.75
    endloop
  endfacet
  facet normal 0.707107 0.707107 5.08053e-18
    outer loop
      vertex -1.17557 -1.61803 -0.75
      vertex -1.61803 -1.17557 -2.75
      vertex -1.61803 -1.17557 -0.75
    endloop
  endfacet
  facet normal 0.707107 0.707107 5.08053e-18
    outer loop
      vertex -1.61803 -1.17557 -2.75
      vertex -1.17557 -1.61803 -0.75
      vertex -1.17557 -1.61803 -2.75
    endloop
  endfacet
  facet normal 0.987688 0.156439 2.10624e-18
    outer loop
      vertex -1.90211 -0.618033 -0.75
      vertex -2 0 -2.75
      vertex -2 0 -0.75
    endloop
  endfacet
  facet normal 0.987688 0.156439 2.10624e-18
    outer loop
      vertex -2 0 -2.75
      vertex -1.90211 -0.618033 -0.75
      vertex -1.90211 -0.618033 -2.75
    endloop
  endfacet
  facet normal 0.453991 0.891006 -0
    outer loop
      vertex -0.618033 -1.90211 -2.75
      vertex -1.17557 -1.61803 -0.75
      vertex -0.618033 -1.90211 -0.75
    endloop
  endfacet
  facet normal 0.453991 0.891006 0
    outer loop
      vertex -1.17557 -1.61803 -0.75
      vertex -0.618033 -1.90211 -2.75
      vertex -1.17557 -1.61803 -2.75
    endloop
  endfacet
  facet normal 0.707107 -0.707107 -5.08053e-18
    outer loop
      vertex -1.61803 1.17557 -0.75
      vertex -1.17557 1.61803 -2.75
      vertex -1.17557 1.61803 -0.75
    endloop
  endfacet
  facet normal 0.707107 -0.707107 -5.08053e-18
    outer loop
      vertex -1.17557 1.61803 -2.75
      vertex -1.61803 1.17557 -0.75
      vertex -1.61803 1.17557 -2.75
    endloop
  endfacet
endsolid OpenSCAD_Model
