solid OpenSCAD_Model
  facet normal 1 0 0
    outer loop
      vertex 20 20 20
      vertex 20 3.5 15
      vertex 20 20 0
    endloop
  endfacet
  facet normal 1 0 0
    outer loop
      vertex 20 20 20
      vertex 20 -3.5 15
      vertex 20 3.5 15
    endloop
  endfacet
  facet normal 1 -0 0
    outer loop
      vertex 20 -20 20
      vertex 20 -3.5 15
      vertex 20 20 20
    endloop
  endfacet
  facet normal 1 0 0
    outer loop
      vertex 20 -20 0
      vertex 20 -3.5 15
      vertex 20 -20 20
    endloop
  endfacet
  facet normal 1 0 0
    outer loop
      vertex 20 -3.5 15
      vertex 20 -20 0
      vertex 20 -3.5 0
    endloop
  endfacet
  facet normal 1 0 0
    outer loop
      vertex 20 20 0
      vertex 20 3.5 15
      vertex 20 3.5 0
    endloop
  endfacet
  facet normal -0 0 1
    outer loop
      vertex -10 -2 20
      vertex 10 -10 20
      vertex 10 -2 20
    endloop
  endfacet
  facet normal 0 0 1
    outer loop
      vertex 10 -10 20
      vertex -10 -2 20
      vertex -10 -10 20
    endloop
  endfacet
  facet normal -0 0 1
    outer loop
      vertex -10 10 20
      vertex 10 2 20
      vertex 10 10 20
    endloop
  endfacet
  facet normal 0 0 1
    outer loop
      vertex 10 2 20
      vertex -10 10 20
      vertex -10 2 20
    endloop
  endfacet
  facet normal 0 0 1
    outer loop
      vertex 10 10 20
      vertex 20 20 20
      vertex 10 14 20
    endloop
  endfacet
  facet normal 0 0 1
    outer loop
      vertex 20 20 20
      vertex -10 14 20
      vertex 10 14 20
    endloop
  endfacet
  facet normal 0 0 1
    outer loop
      vertex -20 20 20
      vertex -10 10 20
      vertex -10 14 20
    endloop
  endfacet
  facet normal 0 0 1
    outer loop
      vertex -10 10 20
      vertex -20 20 20
      vertex -10 2 20
    endloop
  endfacet
  facet normal 0 0 1
    outer loop
      vertex -10 2 20
      vertex -20 20 20
      vertex -10 -2 20
    endloop
  endfacet
  facet normal 0 0 1
    outer loop
      vertex -20 -20 20
      vertex -10 -2 20
      vertex -20 20 20
    endloop
  endfacet
  facet normal 0 0 1
    outer loop
      vertex -10 -2 20
      vertex -20 -20 20
      vertex -10 -10 20
    endloop
  endfacet
  facet normal -0 0 1
    outer loop
      vertex -20 20 20
      vertex -10 14 20
      vertex 20 20 20
    endloop
  endfacet
  facet normal 0 0 1
    outer loop
      vertex 10 2 20
      vertex 20 20 20
      vertex 10 10 20
    endloop
  endfacet
  facet normal 0 0 1
    outer loop
      vertex 20 20 20
      vertex 10 2 20
      vertex 20 -20 20
    endloop
  endfacet
  facet normal -0 0 1
    outer loop
      vertex 10 -2 20
      vertex 20 -20 20
      vertex 10 2 20
    endloop
  endfacet
  facet normal -0 0 1
    outer loop
      vertex 10 -10 20
      vertex 20 -20 20
      vertex 10 -2 20
    endloop
  endfacet
  facet normal -0 0 1
    outer loop
      vertex 10 -14 20
      vertex 20 -20 20
      vertex 10 -10 20
    endloop
  endfacet
  facet normal -0 0 1
    outer loop
      vertex -10 -14 20
      vertex 20 -20 20
      vertex 10 -14 20
    endloop
  endfacet
  facet normal 0 0 1
    outer loop
      vertex -10 -14 20
      vertex -20 -20 20
      vertex 20 -20 20
    endloop
  endfacet
  facet normal 0 0 1
    outer loop
      vertex -10 -10 20
      vertex -20 -20 20
      vertex -10 -14 20
    endloop
  endfacet
  facet normal 0 0 -1
    outer loop
      vertex 18.5 3.5 0
      vertex 20 20 0
      vertex 20 3.5 0
    endloop
  endfacet
  facet normal -0 0 -1
    outer loop
      vertex 20 20 0
      vertex 18.5 3.5 0
      vertex 18.5 20 0
    endloop
  endfacet
  facet normal 0 0 -1
    outer loop
      vertex 20 -20 0
      vertex 18.5 -14.5 0
      vertex 20 -3.5 0
    endloop
  endfacet
  facet normal 0 0 -1
    outer loop
      vertex 15.1667 -20 0
      vertex 18.5 -14.5 0
      vertex 20 -20 0
    endloop
  endfacet
  facet normal 0 0 -1
    outer loop
      vertex 15.1667 -20 0
      vertex 13.4153 -14.5 0
      vertex 18.5 -14.5 0
    endloop
  endfacet
  facet normal 0 0 -1
    outer loop
      vertex 11.5806 -60 0
      vertex 15.1667 -20 0
      vertex 13.5 -60 0
    endloop
  endfacet
  facet normal -0 0 -1
    outer loop
      vertex 15.1667 -20 0
      vertex 11.5806 -60 0
      vertex 13.4153 -14.5 0
    endloop
  endfacet
  facet normal -0 0 -1
    outer loop
      vertex 20 -3.5 0
      vertex 18.5 -14.5 0
      vertex 18.5 -3.5 0
    endloop
  endfacet
  facet normal 0 0 -1
    outer loop
      vertex -15.1667 -20 0
      vertex -11.5806 -60 0
      vertex -13.5 -60 0
    endloop
  endfacet
  facet normal 0 0 -1
    outer loop
      vertex -11.5806 -60 0
      vertex -15.1667 -20 0
      vertex -13.4153 -14.5 0
    endloop
  endfacet
  facet normal 0 0 -1
    outer loop
      vertex -15.1667 -20 0
      vertex -18.5 -14.5 0
      vertex -13.4153 -14.5 0
    endloop
  endfacet
  facet normal 0 0 -1
    outer loop
      vertex -20 -20 0
      vertex -18.5 -14.5 0
      vertex -15.1667 -20 0
    endloop
  endfacet
  facet normal 0 0 -1
    outer loop
      vertex -20 -3.5 0
      vertex -18.5 -14.5 0
      vertex -20 -20 0
    endloop
  endfacet
  facet normal 0 0 -1
    outer loop
      vertex -18.5 -14.5 0
      vertex -20 -3.5 0
      vertex -18.5 -3.5 0
    endloop
  endfacet
  facet normal 0 0 -1
    outer loop
      vertex -20 3.5 0
      vertex -18.5 20 0
      vertex -18.5 3.5 0
    endloop
  endfacet
  facet normal -0 0 -1
    outer loop
      vertex -18.5 20 0
      vertex -20 3.5 0
      vertex -20 20 0
    endloop
  endfacet
  facet normal -1 0 0
    outer loop
      vertex -20 -3.5 0
      vertex -20 -20 0
      vertex -20 -3.5 15
    endloop
  endfacet
  facet normal -1 0 0
    outer loop
      vertex -20 3.5 15
      vertex -20 20 0
      vertex -20 3.5 0
    endloop
  endfacet
  facet normal -1 0 0
    outer loop
      vertex -20 20 0
      vertex -20 3.5 15
      vertex -20 20 20
    endloop
  endfacet
  facet normal -1 0 0
    outer loop
      vertex -20 -3.5 15
      vertex -20 20 20
      vertex -20 3.5 15
    endloop
  endfacet
  facet normal -1 0 0
    outer loop
      vertex -20 -3.5 15
      vertex -20 -20 20
      vertex -20 20 20
    endloop
  endfacet
  facet normal -1 0 0
    outer loop
      vertex -20 -20 20
      vertex -20 -3.5 15
      vertex -20 -20 0
    endloop
  endfacet
  facet normal 0 1 0
    outer loop
      vertex 20 20 20
      vertex 18.5 20 18
      vertex -20 20 20
    endloop
  endfacet
  facet normal 0 1 -0
    outer loop
      vertex 20 20 0
      vertex 18.5 20 18
      vertex 20 20 20
    endloop
  endfacet
  facet normal 0 1 0
    outer loop
      vertex 18.5 20 18
      vertex 20 20 0
      vertex 18.5 20 0
    endloop
  endfacet
  facet normal 0 1 -0
    outer loop
      vertex -18.5 20 18
      vertex -20 20 20
      vertex 18.5 20 18
    endloop
  endfacet
  facet normal 0 1 0
    outer loop
      vertex -20 20 0
      vertex -18.5 20 18
      vertex -18.5 20 0
    endloop
  endfacet
  facet normal 0 1 0
    outer loop
      vertex -18.5 20 18
      vertex -20 20 0
      vertex -20 20 20
    endloop
  endfacet
  facet normal 0 -1 0
    outer loop
      vertex -20 -20 20
      vertex -1.58535 -20 15.0836
      vertex 20 -20 20
    endloop
  endfacet
  facet normal 0 -1 0
    outer loop
      vertex -20 -20 20
      vertex -2.50555 -20 14.888
      vertex -1.58535 -20 15.0836
    endloop
  endfacet
  facet normal 0 -1 0
    outer loop
      vertex -20 -20 20
      vertex -4.68676 -20 14.4244
      vertex -2.50555 -20 14.888
    endloop
  endfacet
  facet normal 0 -1 0
    outer loop
      vertex -20 -20 20
      vertex -6.72391 -20 13.5174
      vertex -4.68676 -20 14.4244
    endloop
  endfacet
  facet normal 0 -1 0
    outer loop
      vertex -20 -20 20
      vertex -7.58333 -20 13.1347
      vertex -6.72391 -20 13.5174
    endloop
  endfacet
  facet normal 0 -1 0
    outer loop
      vertex -20 -20 20
      vertex -9.38739 -20 11.824
      vertex -7.58333 -20 13.1347
    endloop
  endfacet
  facet normal 0 -1 0
    outer loop
      vertex -20 -20 20
      vertex -10.1485 -20 11.271
      vertex -9.38739 -20 11.824
    endloop
  endfacet
  facet normal 0 -1 0
    outer loop
      vertex -20 -20 20
      vertex -10.778 -20 10.5719
      vertex -10.1485 -20 11.271
    endloop
  endfacet
  facet normal 0 -1 0
    outer loop
      vertex -20 -20 20
      vertex -12.2701 -20 8.91474
      vertex -10.778 -20 10.5719
    endloop
  endfacet
  facet normal 0 -1 0
    outer loop
      vertex -20 -20 20
      vertex -13.3851 -20 6.98356
      vertex -12.2701 -20 8.91474
    endloop
  endfacet
  facet normal 0 -1 0
    outer loop
      vertex -20 -20 20
      vertex -13.8554 -20 6.16884
      vertex -13.3851 -20 6.98356
    endloop
  endfacet
  facet normal 0 -1 0
    outer loop
      vertex -20 -20 0
      vertex -13.8554 -20 6.16884
      vertex -20 -20 20
    endloop
  endfacet
  facet normal 0 -1 0
    outer loop
      vertex -13.8554 -20 6.16884
      vertex -20 -20 0
      vertex -14.1461 -20 5.27413
    endloop
  endfacet
  facet normal 0 -1 0
    outer loop
      vertex -14.1461 -20 5.27413
      vertex -20 -20 0
      vertex -14.8352 -20 3.15333
    endloop
  endfacet
  facet normal 0 -1 0
    outer loop
      vertex -14.8352 -20 3.15333
      vertex -20 -20 0
      vertex -15.0683 -20 0.935602
    endloop
  endfacet
  facet normal 0 -1 0
    outer loop
      vertex -15.0683 -20 0.935602
      vertex -20 -20 0
      vertex -15.1667 -20 0
    endloop
  endfacet
  facet normal 0 -1 0
    outer loop
      vertex 1.58535 -20 15.0836
      vertex 20 -20 20
      vertex -1.58535 -20 15.0836
    endloop
  endfacet
  facet normal 0 -1 0
    outer loop
      vertex 2.50555 -20 14.888
      vertex 20 -20 20
      vertex 1.58535 -20 15.0836
    endloop
  endfacet
  facet normal 0 -1 0
    outer loop
      vertex 4.68676 -20 14.4244
      vertex 20 -20 20
      vertex 2.50555 -20 14.888
    endloop
  endfacet
  facet normal 0 -1 0
    outer loop
      vertex 6.72391 -20 13.5174
      vertex 20 -20 20
      vertex 4.68676 -20 14.4244
    endloop
  endfacet
  facet normal 0 -1 0
    outer loop
      vertex 7.58333 -20 13.1347
      vertex 20 -20 20
      vertex 6.72391 -20 13.5174
    endloop
  endfacet
  facet normal 0 -1 0
    outer loop
      vertex 9.38739 -20 11.824
      vertex 20 -20 20
      vertex 7.58333 -20 13.1347
    endloop
  endfacet
  facet normal 0 -1 0
    outer loop
      vertex 10.1485 -20 11.271
      vertex 20 -20 20
      vertex 9.38739 -20 11.824
    endloop
  endfacet
  facet normal 0 -1 0
    outer loop
      vertex 10.778 -20 10.5719
      vertex 20 -20 20
      vertex 10.1485 -20 11.271
    endloop
  endfacet
  facet normal 0 -1 0
    outer loop
      vertex 12.2701 -20 8.91474
      vertex 20 -20 20
      vertex 10.778 -20 10.5719
    endloop
  endfacet
  facet normal 0 -1 0
    outer loop
      vertex 13.3851 -20 6.98356
      vertex 20 -20 20
      vertex 12.2701 -20 8.91474
    endloop
  endfacet
  facet normal 0 -1 0
    outer loop
      vertex 13.8554 -20 6.16884
      vertex 20 -20 20
      vertex 13.3851 -20 6.98356
    endloop
  endfacet
  facet normal 0 -1 0
    outer loop
      vertex 20 -20 0
      vertex 13.8554 -20 6.16884
      vertex 14.1461 -20 5.27413
    endloop
  endfacet
  facet normal 0 -1 0
    outer loop
      vertex 20 -20 0
      vertex 14.1461 -20 5.27413
      vertex 14.8352 -20 3.15333
    endloop
  endfacet
  facet normal 0 -1 0
    outer loop
      vertex 20 -20 0
      vertex 14.8352 -20 3.15333
      vertex 15.0683 -20 0.935602
    endloop
  endfacet
  facet normal 0 -1 0
    outer loop
      vertex 20 -20 0
      vertex 15.0683 -20 0.935602
      vertex 15.1667 -20 0
    endloop
  endfacet
  facet normal 0 -1 0
    outer loop
      vertex 13.8554 -20 6.16884
      vertex 20 -20 0
      vertex 20 -20 20
    endloop
  endfacet
  facet normal -0.865276 -0.0414037 0.499582
    outer loop
      vertex -12.2701 -20 8.91474
      vertex -13.3851 -20 6.98356
      vertex -10.9217 -60 7.9351
    endloop
  endfacet
  facet normal 0.207718 -0.0413957 0.977313
    outer loop
      vertex 4.30049 -50 13.2355
      vertex 3.75518 -50 13.3514
      vertex 4.17173 -60 12.8393
    endloop
  endfacet
  facet normal 0.207756 -0.0414249 0.977303
    outer loop
      vertex 4.68676 -20 14.4244
      vertex 2.58886 -22 14.7856
      vertex 4.66101 -22 14.3451
    endloop
  endfacet
  facet normal 0.20772 -0.0413858 0.977312
    outer loop
      vertex 2.58886 -22 14.7856
      vertex 4.68676 -20 14.4244
      vertex 2.50555 -20 14.888
    endloop
  endfacet
  facet normal 0.207693 -0.0414003 0.977317
    outer loop
      vertex 4.6095 -26 14.1866
      vertex 3.08871 -34 14.1709
      vertex 4.5065 -34 13.8696
    endloop
  endfacet
  facet normal 0.20774 -0.0414091 0.977307
    outer loop
      vertex 3.08871 -34 14.1709
      vertex 4.6095 -26 14.1866
      vertex 2.75547 -26 14.5807
    endloop
  endfacet
  facet normal 0.20777 -0.0414128 0.977301
    outer loop
      vertex 4.45499 -38 13.7111
      vertex 3.58857 -46 13.5563
      vertex 4.35199 -46 13.394
    endloop
  endfacet
  facet normal 0.207737 -0.0414093 0.977308
    outer loop
      vertex 3.58857 -46 13.5563
      vertex 4.45499 -38 13.7111
      vertex 3.25533 -38 13.9661
    endloop
  endfacet
  facet normal 0.993669 -0.0414021 0.104436
    outer loop
      vertex 13.5 -60 0
      vertex 15.0683 -20 0.935602
      vertex 13.205 -60 2.80681
    endloop
  endfacet
  facet normal 0.993662 -0.0414034 0.104506
    outer loop
      vertex 15.0683 -20 0.935602
      vertex 13.5 -60 0
      vertex 15.1667 -20 0
    endloop
  endfacet
  facet normal 0.993669 -0.0414018 0.104442
    outer loop
      vertex 14.8352 -20 3.15333
      vertex 13.205 -60 2.80681
      vertex 15.0683 -20 0.935602
    endloop
  endfacet
  facet normal 0 -0.0414045 0.999142
    outer loop
      vertex 1.45469 -50 13.8404
      vertex -1.41113 -60 13.426
      vertex 1.41113 -60 13.426
    endloop
  endfacet
  facet normal 0 -0.0414045 0.999142
    outer loop
      vertex -1.41113 -60 13.426
      vertex 1.45469 -50 13.8404
      vertex -1.45469 -50 13.8404
    endloop
  endfacet
  facet normal 0 -0.0414144 0.999142
    outer loop
      vertex 1.58535 -20 15.0836
      vertex -1.57664 -22 15.0007
      vertex 1.57664 -22 15.0007
    endloop
  endfacet
  facet normal 0 -0.0414144 0.999142
    outer loop
      vertex -1.57664 -22 15.0007
      vertex 1.58535 -20 15.0836
      vertex -1.58535 -20 15.0836
    endloop
  endfacet
  facet normal 0 -0.0414144 0.999142
    outer loop
      vertex 1.55922 -26 14.835
      vertex -1.52437 -34 14.5034
      vertex 1.52437 -34 14.5034
    endloop
  endfacet
  facet normal 0 -0.0414144 0.999142
    outer loop
      vertex -1.52437 -34 14.5034
      vertex 1.55922 -26 14.835
      vertex -1.55922 -26 14.835
    endloop
  endfacet
  facet normal 0 -0.041402 0.999143
    outer loop
      vertex 1.50695 -38 14.3377
      vertex -1.47211 -46 14.0062
      vertex 1.47211 -46 14.0062
    endloop
  endfacet
  facet normal 0 -0.041402 0.999143
    outer loop
      vertex -1.47211 -46 14.0062
      vertex 1.50695 -38 14.3377
      vertex -1.50695 -38 14.3377
    endloop
  endfacet
  facet normal -0.742511 -0.0414036 0.668553
    outer loop
      vertex -10.778 -20 10.5719
      vertex -12.2701 -20 8.91474
      vertex -10.9217 -60 7.9351
    endloop
  endfacet
  facet normal -0.950244 -0.0414011 0.308743
    outer loop
      vertex -12.3329 -60 5.49094
      vertex -14.1461 -20 5.27413
      vertex -13.205 -60 2.80681
    endloop
  endfacet
  facet normal -0.950244 -0.0414011 0.308743
    outer loop
      vertex -14.1461 -20 5.27413
      vertex -12.3329 -60 5.49094
      vertex -13.8554 -20 6.16884
    endloop
  endfacet
  facet normal 0.95024 -0.0414018 0.308756
    outer loop
      vertex 14.1461 -20 5.27413
      vertex 13.205 -60 2.80681
      vertex 14.8352 -20 3.15333
    endloop
  endfacet
  facet normal -0.587298 -0.0414071 0.808311
    outer loop
      vertex -6.95833 -50 12.0522
      vertex -7.40935 -50 11.7245
      vertex -6.75 -60 11.6913
    endloop
  endfacet
  facet normal -0.587255 -0.0414137 0.808342
    outer loop
      vertex -7.58333 -20 13.1347
      vertex -9.25552 -22 11.8174
      vertex -7.54167 -22 13.0625
    endloop
  endfacet
  facet normal -0.587274 -0.0413894 0.808329
    outer loop
      vertex -9.25552 -22 11.8174
      vertex -7.58333 -20 13.1347
      vertex -9.38739 -20 11.824
    endloop
  endfacet
  facet normal -0.587252 -0.0414051 0.808345
    outer loop
      vertex -7.45833 -26 12.9182
      vertex -8.4643 -34 11.7776
      vertex -7.29167 -34 12.6295
    endloop
  endfacet
  facet normal -0.587276 -0.0413996 0.808328
    outer loop
      vertex -8.4643 -34 11.7776
      vertex -7.45833 -26 12.9182
      vertex -8.99178 -26 11.8041
    endloop
  endfacet
  facet normal -0.587236 -0.0414051 0.808356
    outer loop
      vertex -7.20833 -38 12.4852
      vertex -7.67309 -46 11.7378
      vertex -7.04167 -46 12.1965
    endloop
  endfacet
  facet normal -0.587279 -0.0413998 0.808325
    outer loop
      vertex -7.67309 -46 11.7378
      vertex -7.20833 -38 12.4852
      vertex -8.20057 -38 11.7643
    endloop
  endfacet
  facet normal -0.587261 -0.0414048 0.808338
    outer loop
      vertex -7.40935 -50 11.7245
      vertex -9.03326 -60 10.0325
      vertex -6.75 -60 11.6913
    endloop
  endfacet
  facet normal -0.587279 -0.0413997 0.808325
    outer loop
      vertex -9.03326 -60 10.0325
      vertex -7.40935 -50 11.7245
      vertex -9.31207 -50 10.3421
    endloop
  endfacet
  facet normal -0.587284 -0.04139 0.808322
    outer loop
      vertex -9.38739 -20 11.824
      vertex -10 -22 11.2765
      vertex -9.25552 -22 11.8174
    endloop
  endfacet
  facet normal -0.587588 -0.0414061 0.8081
    outer loop
      vertex -10 -22 11.2765
      vertex -10.1485 -20 11.271
      vertex -10 -25.3256 11.1061
    endloop
  endfacet
  facet normal -0.587296 -0.0413839 0.808313
    outer loop
      vertex -10.1485 -20 11.271
      vertex -10 -22 11.2765
      vertex -9.38739 -20 11.824
    endloop
  endfacet
  facet normal -0.587307 -0.0414016 0.808305
    outer loop
      vertex -8.99178 -26 11.8041
      vertex -9.75815 -34 10.8375
      vertex -8.4643 -34 11.7776
    endloop
  endfacet
  facet normal -0.587305 -0.041402 0.808306
    outer loop
      vertex -9.75815 -34 10.8375
      vertex -8.99178 -26 11.8041
      vertex -9.9812 -26 11.0852
    endloop
  endfacet
  facet normal -0.587277 -0.0413997 0.808326
    outer loop
      vertex -8.20057 -38 11.7643
      vertex -9.42359 -46 10.466
      vertex -7.67309 -46 11.7378
    endloop
  endfacet
  facet normal -0.587272 -0.0414011 0.80833
    outer loop
      vertex -9.42359 -46 10.466
      vertex -8.20057 -38 11.7643
      vertex -9.64663 -38 10.7137
    endloop
  endfacet
  facet normal 0.406388 -0.0414079 0.912762
    outer loop
      vertex 4.80977 -50 13.0088
      vertex 6.75 -60 11.6913
      vertex 6.95833 -50 12.0522
    endloop
  endfacet
  facet normal 0.406412 -0.0414018 0.912752
    outer loop
      vertex 6.75 -60 11.6913
      vertex 4.80977 -50 13.0088
      vertex 4.17173 -60 12.8393
    endloop
  endfacet
  facet normal 0.406442 -0.041416 0.912737
    outer loop
      vertex 6.72391 -20 13.5174
      vertex 7.54167 -22 13.0625
      vertex 7.58333 -20 13.1347
    endloop
  endfacet
  facet normal 0.406464 -0.0414052 0.912728
    outer loop
      vertex 7.54167 -22 13.0625
      vertex 6.72391 -20 13.5174
      vertex 6.5963 -22 13.4835
    endloop
  endfacet
  facet normal 0.406366 -0.0414053 0.912772
    outer loop
      vertex 6.34108 -26 13.4156
      vertex 7.29167 -34 12.6295
      vertex 7.45833 -26 12.9182
    endloop
  endfacet
  facet normal 0.406394 -0.0414007 0.912759
    outer loop
      vertex 7.29167 -34 12.6295
      vertex 6.34108 -26 13.4156
      vertex 5.83065 -34 13.28
    endloop
  endfacet
  facet normal 0.406381 -0.0414053 0.912765
    outer loop
      vertex 5.57543 -38 13.2122
      vertex 7.04167 -46 12.1965
      vertex 7.20833 -38 12.4852
    endloop
  endfacet
  facet normal 0.406398 -0.0414014 0.912758
    outer loop
      vertex 7.04167 -46 12.1965
      vertex 5.57543 -38 13.2122
      vertex 5.06499 -46 13.0766
    endloop
  endfacet
  facet normal -0.742493 -0.0414053 0.668573
    outer loop
      vertex -10.778 -20 10.5719
      vertex -10 -25.3256 11.1061
      vertex -10.1485 -20 11.271
    endloop
  endfacet
  facet normal -0.742294 -0.0413536 0.668798
    outer loop
      vertex -10.778 -20 10.5719
      vertex -10 -26 11.0644
      vertex -10 -25.3256 11.1061
    endloop
  endfacet
  facet normal -0.742505 -0.0414089 0.668559
    outer loop
      vertex -9.75815 -34 10.8375
      vertex -10 -26 11.0644
      vertex -10 -34 10.5689
    endloop
  endfacet
  facet normal -0.742534 -0.0414069 0.668527
    outer loop
      vertex -10.778 -20 10.5719
      vertex -10 -34 10.5689
      vertex -10 -26 11.0644
    endloop
  endfacet
  facet normal -0.742467 -0.0414032 0.668602
    outer loop
      vertex -10.778 -20 10.5719
      vertex -10 -38 10.3212
      vertex -10 -34 10.5689
    endloop
  endfacet
  facet normal -0.742529 -0.0413997 0.668533
    outer loop
      vertex -9.42359 -46 10.466
      vertex -10 -38 10.3212
      vertex -10 -46 9.82579
    endloop
  endfacet
  facet normal -0.742502 -0.0414042 0.668562
    outer loop
      vertex -10.9217 -60 7.9351
      vertex -10 -38 10.3212
      vertex -10.778 -20 10.5719
    endloop
  endfacet
  facet normal -0.742531 -0.0413996 0.668531
    outer loop
      vertex -10 -38 10.3212
      vertex -10.9217 -60 7.9351
      vertex -10 -46 9.82579
    endloop
  endfacet
  facet normal -0.742514 -0.0414033 0.66855
    outer loop
      vertex -10 -46 9.82579
      vertex -10.9217 -60 7.9351
      vertex -10 -50 9.57807
    endloop
  endfacet
  facet normal -0.74252 -0.0414017 0.668544
    outer loop
      vertex -9.03326 -60 10.0325
      vertex -10 -50 9.57807
      vertex -10.9217 -60 7.9351
    endloop
  endfacet
  facet normal -0.74251 -0.0414004 0.668554
    outer loop
      vertex -10 -50 9.57807
      vertex -9.03326 -60 10.0325
      vertex -9.31207 -50 10.3421
    endloop
  endfacet
  facet normal -0.741237 -0.0414104 0.669964
    outer loop
      vertex -10 -26 11.0644
      vertex -9.75815 -34 10.8375
      vertex -9.9812 -26 11.0852
    endloop
  endfacet
  facet normal -0.742544 -0.0414011 0.668517
    outer loop
      vertex -10 -38 10.3212
      vertex -9.42359 -46 10.466
      vertex -9.64663 -38 10.7137
    endloop
  endfacet
  facet normal 0.20774 -0.0414045 0.977307
    outer loop
      vertex 1.41113 -60 13.426
      vertex 3.75518 -50 13.3514
      vertex 1.45469 -50 13.8404
    endloop
  endfacet
  facet normal 0.207705 -0.0413964 0.977315
    outer loop
      vertex 3.75518 -50 13.3514
      vertex 1.41113 -60 13.426
      vertex 4.17173 -60 12.8393
    endloop
  endfacet
  facet normal 0.207739 -0.0414141 0.977307
    outer loop
      vertex 1.57664 -22 15.0007
      vertex 2.50555 -20 14.888
      vertex 1.58535 -20 15.0836
    endloop
  endfacet
  facet normal 0.207684 -0.0413877 0.97732
    outer loop
      vertex 2.50555 -20 14.888
      vertex 1.57664 -22 15.0007
      vertex 2.58886 -22 14.7856
    endloop
  endfacet
  facet normal 0.207756 -0.0414143 0.977304
    outer loop
      vertex 1.52437 -34 14.5034
      vertex 2.75547 -26 14.5807
      vertex 1.55922 -26 14.835
    endloop
  endfacet
  facet normal 0.207727 -0.0414098 0.97731
    outer loop
      vertex 2.75547 -26 14.5807
      vertex 1.52437 -34 14.5034
      vertex 3.08871 -34 14.1709
    endloop
  endfacet
  facet normal 0.207718 -0.041402 0.977312
    outer loop
      vertex 1.47211 -46 14.0062
      vertex 3.25533 -38 13.9661
      vertex 1.50695 -38 14.3377
    endloop
  endfacet
  facet normal 0.207748 -0.0414087 0.977306
    outer loop
      vertex 3.25533 -38 13.9661
      vertex 1.47211 -46 14.0062
      vertex 3.58857 -46 13.5563
    endloop
  endfacet
  facet normal -0.20774 -0.0414045 0.977307
    outer loop
      vertex -3.75518 -50 13.3514
      vertex -1.41113 -60 13.426
      vertex -1.45469 -50 13.8404
    endloop
  endfacet
  facet normal -0.207705 -0.0413964 0.977315
    outer loop
      vertex -1.41113 -60 13.426
      vertex -3.75518 -50 13.3514
      vertex -4.17173 -60 12.8393
    endloop
  endfacet
  facet normal -0.207739 -0.0414141 0.977307
    outer loop
      vertex -2.50555 -20 14.888
      vertex -1.57664 -22 15.0007
      vertex -1.58535 -20 15.0836
    endloop
  endfacet
  facet normal -0.207684 -0.0413877 0.97732
    outer loop
      vertex -1.57664 -22 15.0007
      vertex -2.50555 -20 14.888
      vertex -2.58886 -22 14.7856
    endloop
  endfacet
  facet normal -0.207756 -0.0414143 0.977304
    outer loop
      vertex -2.75547 -26 14.5807
      vertex -1.52437 -34 14.5034
      vertex -1.55922 -26 14.835
    endloop
  endfacet
  facet normal -0.207727 -0.0414098 0.97731
    outer loop
      vertex -1.52437 -34 14.5034
      vertex -2.75547 -26 14.5807
      vertex -3.08871 -34 14.1709
    endloop
  endfacet
  facet normal -0.207718 -0.041402 0.977312
    outer loop
      vertex -3.25533 -38 13.9661
      vertex -1.47211 -46 14.0062
      vertex -1.50695 -38 14.3377
    endloop
  endfacet
  facet normal -0.207748 -0.0414087 0.977306
    outer loop
      vertex -1.47211 -46 14.0062
      vertex -3.25533 -38 13.9661
      vertex -3.58857 -46 13.5563
    endloop
  endfacet
  facet normal 0.587298 -0.0414071 0.808311
    outer loop
      vertex 6.95833 -50 12.0522
      vertex 6.75 -60 11.6913
      vertex 7.40935 -50 11.7245
    endloop
  endfacet
  facet normal 0.587274 -0.0413894 0.808329
    outer loop
      vertex 7.58333 -20 13.1347
      vertex 9.25552 -22 11.8174
      vertex 9.38739 -20 11.824
    endloop
  endfacet
  facet normal 0.587255 -0.0414137 0.808342
    outer loop
      vertex 9.25552 -22 11.8174
      vertex 7.58333 -20 13.1347
      vertex 7.54167 -22 13.0625
    endloop
  endfacet
  facet normal 0.587276 -0.0413996 0.808328
    outer loop
      vertex 7.45833 -26 12.9182
      vertex 8.4643 -34 11.7776
      vertex 8.99178 -26 11.8041
    endloop
  endfacet
  facet normal 0.587252 -0.0414051 0.808345
    outer loop
      vertex 8.4643 -34 11.7776
      vertex 7.45833 -26 12.9182
      vertex 7.29167 -34 12.6295
    endloop
  endfacet
  facet normal 0.587279 -0.0413998 0.808325
    outer loop
      vertex 7.20833 -38 12.4852
      vertex 7.67309 -46 11.7378
      vertex 8.20057 -38 11.7643
    endloop
  endfacet
  facet normal 0.587236 -0.0414051 0.808356
    outer loop
      vertex 7.67309 -46 11.7378
      vertex 7.20833 -38 12.4852
      vertex 7.04167 -46 12.1965
    endloop
  endfacet
  facet normal 0.742511 -0.0414036 0.668553
    outer loop
      vertex 12.2701 -20 8.91474
      vertex 10.778 -20 10.5719
      vertex 10.9217 -60 7.9351
    endloop
  endfacet
  facet normal 0.950244 -0.0414011 0.308743
    outer loop
      vertex 12.3329 -60 5.49094
      vertex 14.1461 -20 5.27413
      vertex 13.8554 -20 6.16884
    endloop
  endfacet
  facet normal 0.950244 -0.0414011 0.308743
    outer loop
      vertex 14.1461 -20 5.27413
      vertex 12.3329 -60 5.49094
      vertex 13.205 -60 2.80681
    endloop
  endfacet
  facet normal -0.993669 -0.0414018 0.104442
    outer loop
      vertex -14.8352 -20 3.15333
      vertex -15.0683 -20 0.935602
      vertex -13.205 -60 2.80681
    endloop
  endfacet
  facet normal 0.406319 -0.0413966 0.912793
    outer loop
      vertex 4.30049 -50 13.2355
      vertex 4.17173 -60 12.8393
      vertex 4.80977 -50 13.0088
    endloop
  endfacet
  facet normal 0.406389 -0.041401 0.912762
    outer loop
      vertex 4.68676 -20 14.4244
      vertex 6.5963 -22 13.4835
      vertex 6.72391 -20 13.5174
    endloop
  endfacet
  facet normal 0.406369 -0.0414233 0.91277
    outer loop
      vertex 6.5963 -22 13.4835
      vertex 4.68676 -20 14.4244
      vertex 4.66101 -22 14.3451
    endloop
  endfacet
  facet normal 0.40641 -0.0414017 0.912752
    outer loop
      vertex 4.6095 -26 14.1866
      vertex 5.83065 -34 13.28
      vertex 6.34108 -26 13.4156
    endloop
  endfacet
  facet normal 0.406417 -0.0414003 0.912749
    outer loop
      vertex 5.83065 -34 13.28
      vertex 4.6095 -26 14.1866
      vertex 4.5065 -34 13.8696
    endloop
  endfacet
  facet normal 0.40642 -0.0414027 0.912748
    outer loop
      vertex 4.45499 -38 13.7111
      vertex 5.06499 -46 13.0766
      vertex 5.57543 -38 13.2122
    endloop
  endfacet
  facet normal 0.406336 -0.0414121 0.912785
    outer loop
      vertex 5.06499 -46 13.0766
      vertex 4.45499 -38 13.7111
      vertex 4.35199 -46 13.394
    endloop
  endfacet
  facet normal -0.207718 -0.0413957 0.977313
    outer loop
      vertex -3.75518 -50 13.3514
      vertex -4.30049 -50 13.2355
      vertex -4.17173 -60 12.8393
    endloop
  endfacet
  facet normal -0.20772 -0.0413858 0.977312
    outer loop
      vertex -4.68676 -20 14.4244
      vertex -2.58886 -22 14.7856
      vertex -2.50555 -20 14.888
    endloop
  endfacet
  facet normal -0.207756 -0.0414249 0.977303
    outer loop
      vertex -2.58886 -22 14.7856
      vertex -4.68676 -20 14.4244
      vertex -4.66101 -22 14.3451
    endloop
  endfacet
  facet normal -0.20774 -0.0414091 0.977307
    outer loop
      vertex -4.6095 -26 14.1866
      vertex -3.08871 -34 14.1709
      vertex -2.75547 -26 14.5807
    endloop
  endfacet
  facet normal -0.207693 -0.0414003 0.977317
    outer loop
      vertex -3.08871 -34 14.1709
      vertex -4.6095 -26 14.1866
      vertex -4.5065 -34 13.8696
    endloop
  endfacet
  facet normal -0.207737 -0.0414093 0.977308
    outer loop
      vertex -4.45499 -38 13.7111
      vertex -3.58857 -46 13.5563
      vertex -3.25533 -38 13.9661
    endloop
  endfacet
  facet normal -0.20777 -0.0414128 0.977301
    outer loop
      vertex -3.58857 -46 13.5563
      vertex -4.45499 -38 13.7111
      vertex -4.35199 -46 13.394
    endloop
  endfacet
  facet normal -0.993662 -0.0414034 0.104506
    outer loop
      vertex -13.5 -60 0
      vertex -15.0683 -20 0.935602
      vertex -15.1667 -20 0
    endloop
  endfacet
  facet normal -0.993669 -0.0414021 0.104436
    outer loop
      vertex -15.0683 -20 0.935602
      vertex -13.5 -60 0
      vertex -13.205 -60 2.80681
    endloop
  endfacet
  facet normal -0.406319 -0.0413966 0.912793
    outer loop
      vertex -4.30049 -50 13.2355
      vertex -4.80977 -50 13.0088
      vertex -4.17173 -60 12.8393
    endloop
  endfacet
  facet normal -0.406369 -0.0414233 0.91277
    outer loop
      vertex -4.68676 -20 14.4244
      vertex -6.5963 -22 13.4835
      vertex -4.66101 -22 14.3451
    endloop
  endfacet
  facet normal -0.406389 -0.041401 0.912762
    outer loop
      vertex -6.5963 -22 13.4835
      vertex -4.68676 -20 14.4244
      vertex -6.72391 -20 13.5174
    endloop
  endfacet
  facet normal -0.406417 -0.0414003 0.912749
    outer loop
      vertex -4.6095 -26 14.1866
      vertex -5.83065 -34 13.28
      vertex -4.5065 -34 13.8696
    endloop
  endfacet
  facet normal -0.40641 -0.0414017 0.912752
    outer loop
      vertex -5.83065 -34 13.28
      vertex -4.6095 -26 14.1866
      vertex -6.34108 -26 13.4156
    endloop
  endfacet
  facet normal -0.406336 -0.0414121 0.912785
    outer loop
      vertex -4.45499 -38 13.7111
      vertex -5.06499 -46 13.0766
      vertex -4.35199 -46 13.394
    endloop
  endfacet
  facet normal -0.40642 -0.0414027 0.912748
    outer loop
      vertex -5.06499 -46 13.0766
      vertex -4.45499 -38 13.7111
      vertex -5.57543 -38 13.2122
    endloop
  endfacet
  facet normal 0.865319 -0.0414081 0.499508
    outer loop
      vertex 10.9217 -60 7.9351
      vertex 13.8554 -20 6.16884
      vertex 13.3851 -20 6.98356
    endloop
  endfacet
  facet normal 0.865273 -0.0414012 0.499588
    outer loop
      vertex 13.8554 -20 6.16884
      vertex 10.9217 -60 7.9351
      vertex 12.3329 -60 5.49094
    endloop
  endfacet
  facet normal 0.865276 -0.0414037 0.499582
    outer loop
      vertex 12.2701 -20 8.91474
      vertex 10.9217 -60 7.9351
      vertex 13.3851 -20 6.98356
    endloop
  endfacet
  facet normal 0 -1 0
    outer loop
      vertex -1.30286 -60 11.4976
      vertex -1.41113 -60 13.426
      vertex -4.17173 -60 12.8393
    endloop
  endfacet
  facet normal 0 -1 0
    outer loop
      vertex -1.41113 -60 13.426
      vertex -1.21051 -60 11.5172
      vertex 1.41113 -60 13.426
    endloop
  endfacet
  facet normal 0 -1 0
    outer loop
      vertex -5.70407 -60 10.0675
      vertex -4.17173 -60 12.8393
      vertex -6.75 -60 11.6913
    endloop
  endfacet
  facet normal 0 -1 0
    outer loop
      vertex 1.21051 -60 11.5172
      vertex 1.41113 -60 13.426
      vertex -1.21051 -60 11.5172
    endloop
  endfacet
  facet normal 0 -1 0
    outer loop
      vertex 1.30286 -60 11.4976
      vertex 1.41113 -60 13.426
      vertex 1.21051 -60 11.5172
    endloop
  endfacet
  facet normal 0 -1 0
    outer loop
      vertex -1.41113 -60 13.426
      vertex -1.30286 -60 11.4976
      vertex -1.21051 -60 11.5172
    endloop
  endfacet
  facet normal 0 -1 0
    outer loop
      vertex -4.17173 -60 12.8393
      vertex -3.57862 -60 11.0138
      vertex -1.30286 -60 11.4976
    endloop
  endfacet
  facet normal 0 -1 -0
    outer loop
      vertex -4.17173 -60 12.8393
      vertex -5.70407 -60 10.0675
      vertex -3.57862 -60 11.0138
    endloop
  endfacet
  facet normal 0 -1 0
    outer loop
      vertex -7.67258 -60 8.66159
      vertex -6.75 -60 11.6913
      vertex -9.03326 -60 10.0325
    endloop
  endfacet
  facet normal 0 -1 0
    outer loop
      vertex -6.75 -60 11.6913
      vertex -5.79032 -60 10.0291
      vertex -5.70407 -60 10.0675
    endloop
  endfacet
  facet normal 0 -1 -0
    outer loop
      vertex -6.75 -60 11.6913
      vertex -7.67258 -60 8.66159
      vertex -5.79032 -60 10.0291
    endloop
  endfacet
  facet normal 0 -1 0
    outer loop
      vertex -9.03326 -60 10.0325
      vertex -7.74896 -60 8.6061
      vertex -7.67258 -60 8.66159
    endloop
  endfacet
  facet normal 0 -1 0
    outer loop
      vertex -9.03326 -60 10.0325
      vertex -7.81214 -60 8.53593
      vertex -7.74896 -60 8.6061
    endloop
  endfacet
  facet normal 0 -1 0
    outer loop
      vertex -10.9217 -60 7.9351
      vertex -7.81214 -60 8.53593
      vertex -9.03326 -60 10.0325
    endloop
  endfacet
  facet normal 0 -1 0
    outer loop
      vertex -10.9217 -60 7.9351
      vertex -9.36894 -60 6.80693
      vertex -7.81214 -60 8.53593
    endloop
  endfacet
  facet normal 0 -1 0
    outer loop
      vertex -10.5322 -60 4.79204
      vertex -10.9217 -60 7.9351
      vertex -12.3329 -60 5.49094
    endloop
  endfacet
  facet normal 0 -1 0
    outer loop
      vertex -10.9217 -60 7.9351
      vertex -10.5322 -60 4.79204
      vertex -9.36894 -60 6.80693
    endloop
  endfacet
  facet normal 0 -1 0
    outer loop
      vertex -12.3329 -60 5.49094
      vertex -10.5794 -60 4.71027
      vertex -10.5322 -60 4.79204
    endloop
  endfacet
  facet normal 0 -1 0
    outer loop
      vertex -12.3329 -60 5.49094
      vertex -10.6086 -60 4.62048
      vertex -10.5794 -60 4.71027
    endloop
  endfacet
  facet normal 0 -1 0
    outer loop
      vertex -13.205 -60 2.80681
      vertex -10.6086 -60 4.62048
      vertex -12.3329 -60 5.49094
    endloop
  endfacet
  facet normal 0 -1 0
    outer loop
      vertex -13.205 -60 2.80681
      vertex -11.3276 -60 2.40775
      vertex -10.6086 -60 4.62048
    endloop
  endfacet
  facet normal 0 -1 0
    outer loop
      vertex -13.205 -60 2.80681
      vertex -11.3374 -60 2.31386
      vertex -11.3276 -60 2.40775
    endloop
  endfacet
  facet normal 0 -1 0
    outer loop
      vertex -13.5 -60 0
      vertex -11.3374 -60 2.31386
      vertex -13.205 -60 2.80681
    endloop
  endfacet
  facet normal 0 -1 0
    outer loop
      vertex -11.3374 -60 2.31386
      vertex -13.5 -60 0
      vertex -11.5806 -60 0
    endloop
  endfacet
  facet normal 0 -1 -0
    outer loop
      vertex 1.41113 -60 13.426
      vertex 1.30286 -60 11.4976
      vertex 4.17173 -60 12.8393
    endloop
  endfacet
  facet normal 0 -1 0
    outer loop
      vertex 3.57862 -60 11.0138
      vertex 4.17173 -60 12.8393
      vertex 1.30286 -60 11.4976
    endloop
  endfacet
  facet normal 0 -1 0
    outer loop
      vertex 5.70407 -60 10.0675
      vertex 4.17173 -60 12.8393
      vertex 3.57862 -60 11.0138
    endloop
  endfacet
  facet normal 0 -1 0
    outer loop
      vertex 4.17173 -60 12.8393
      vertex 5.70407 -60 10.0675
      vertex 6.75 -60 11.6913
    endloop
  endfacet
  facet normal 0 -1 0
    outer loop
      vertex 5.79032 -60 10.0291
      vertex 6.75 -60 11.6913
      vertex 5.70407 -60 10.0675
    endloop
  endfacet
  facet normal 0 -1 0
    outer loop
      vertex 7.67258 -60 8.66159
      vertex 6.75 -60 11.6913
      vertex 5.79032 -60 10.0291
    endloop
  endfacet
  facet normal 0 -1 0
    outer loop
      vertex 6.75 -60 11.6913
      vertex 7.67258 -60 8.66159
      vertex 9.03326 -60 10.0325
    endloop
  endfacet
  facet normal 0 -1 0
    outer loop
      vertex 7.74896 -60 8.6061
      vertex 9.03326 -60 10.0325
      vertex 7.67258 -60 8.66159
    endloop
  endfacet
  facet normal 0 -1 0
    outer loop
      vertex 7.81214 -60 8.53593
      vertex 9.03326 -60 10.0325
      vertex 7.74896 -60 8.6061
    endloop
  endfacet
  facet normal 0 -1 0
    outer loop
      vertex 7.81214 -60 8.53593
      vertex 10.9217 -60 7.9351
      vertex 9.03326 -60 10.0325
    endloop
  endfacet
  facet normal 0 -1 0
    outer loop
      vertex 9.36894 -60 6.80693
      vertex 10.9217 -60 7.9351
      vertex 7.81214 -60 8.53593
    endloop
  endfacet
  facet normal 0 -1 0
    outer loop
      vertex 10.5322 -60 4.79204
      vertex 10.9217 -60 7.9351
      vertex 9.36894 -60 6.80693
    endloop
  endfacet
  facet normal 0 -1 -0
    outer loop
      vertex 10.9217 -60 7.9351
      vertex 10.5322 -60 4.79204
      vertex 12.3329 -60 5.49094
    endloop
  endfacet
  facet normal 0 -1 0
    outer loop
      vertex 10.5794 -60 4.71027
      vertex 12.3329 -60 5.49094
      vertex 10.5322 -60 4.79204
    endloop
  endfacet
  facet normal 0 -1 0
    outer loop
      vertex 10.6086 -60 4.62048
      vertex 12.3329 -60 5.49094
      vertex 10.5794 -60 4.71027
    endloop
  endfacet
  facet normal 0 -1 0
    outer loop
      vertex 10.6086 -60 4.62048
      vertex 13.205 -60 2.80681
      vertex 12.3329 -60 5.49094
    endloop
  endfacet
  facet normal 0 -1 0
    outer loop
      vertex 11.3276 -60 2.40775
      vertex 13.205 -60 2.80681
      vertex 10.6086 -60 4.62048
    endloop
  endfacet
  facet normal 0 -1 0
    outer loop
      vertex 11.3374 -60 2.31386
      vertex 13.205 -60 2.80681
      vertex 11.3276 -60 2.40775
    endloop
  endfacet
  facet normal 0 -1 0
    outer loop
      vertex 13.5 -60 0
      vertex 11.3374 -60 2.31386
      vertex 11.5806 -60 0
    endloop
  endfacet
  facet normal 0 -1 0
    outer loop
      vertex 11.3374 -60 2.31386
      vertex 13.5 -60 0
      vertex 13.205 -60 2.80681
    endloop
  endfacet
  facet normal -0.406412 -0.0414018 0.912752
    outer loop
      vertex -4.80977 -50 13.0088
      vertex -6.75 -60 11.6913
      vertex -4.17173 -60 12.8393
    endloop
  endfacet
  facet normal -0.406388 -0.0414079 0.912762
    outer loop
      vertex -6.75 -60 11.6913
      vertex -4.80977 -50 13.0088
      vertex -6.95833 -50 12.0522
    endloop
  endfacet
  facet normal -0.406464 -0.0414052 0.912728
    outer loop
      vertex -6.72391 -20 13.5174
      vertex -7.54167 -22 13.0625
      vertex -6.5963 -22 13.4835
    endloop
  endfacet
  facet normal -0.406442 -0.041416 0.912737
    outer loop
      vertex -7.54167 -22 13.0625
      vertex -6.72391 -20 13.5174
      vertex -7.58333 -20 13.1347
    endloop
  endfacet
  facet normal -0.406394 -0.0414007 0.912759
    outer loop
      vertex -6.34108 -26 13.4156
      vertex -7.29167 -34 12.6295
      vertex -5.83065 -34 13.28
    endloop
  endfacet
  facet normal -0.406366 -0.0414053 0.912772
    outer loop
      vertex -7.29167 -34 12.6295
      vertex -6.34108 -26 13.4156
      vertex -7.45833 -26 12.9182
    endloop
  endfacet
  facet normal -0.406398 -0.0414014 0.912758
    outer loop
      vertex -5.57543 -38 13.2122
      vertex -7.04167 -46 12.1965
      vertex -5.06499 -46 13.0766
    endloop
  endfacet
  facet normal -0.406381 -0.0414053 0.912765
    outer loop
      vertex -7.04167 -46 12.1965
      vertex -5.57543 -38 13.2122
      vertex -7.20833 -38 12.4852
    endloop
  endfacet
  facet normal 0.74251 -0.0414004 0.668554
    outer loop
      vertex 9.31207 -50 10.3421
      vertex 9.03326 -60 10.0325
      vertex 10 -50 9.57807
    endloop
  endfacet
  facet normal 0.742544 -0.0414011 0.668517
    outer loop
      vertex 9.64663 -38 10.7137
      vertex 9.42359 -46 10.466
      vertex 10 -38 10.3212
    endloop
  endfacet
  facet normal 0.741237 -0.0414104 0.669964
    outer loop
      vertex 9.9812 -26 11.0852
      vertex 9.75815 -34 10.8375
      vertex 10 -26 11.0644
    endloop
  endfacet
  facet normal 0.742493 -0.0414053 0.668573
    outer loop
      vertex 10 -25.3256 11.1061
      vertex 10.778 -20 10.5719
      vertex 10.1485 -20 11.271
    endloop
  endfacet
  facet normal 0.742294 -0.0413536 0.668798
    outer loop
      vertex 10 -26 11.0644
      vertex 10.778 -20 10.5719
      vertex 10 -25.3256 11.1061
    endloop
  endfacet
  facet normal 0.742505 -0.0414089 0.668559
    outer loop
      vertex 10 -34 10.5689
      vertex 10 -26 11.0644
      vertex 9.75815 -34 10.8375
    endloop
  endfacet
  facet normal 0.742534 -0.0414069 0.668527
    outer loop
      vertex 10 -26 11.0644
      vertex 10 -34 10.5689
      vertex 10.778 -20 10.5719
    endloop
  endfacet
  facet normal 0.742467 -0.0414032 0.668602
    outer loop
      vertex 10 -38 10.3212
      vertex 10.778 -20 10.5719
      vertex 10 -34 10.5689
    endloop
  endfacet
  facet normal 0.742529 -0.0413997 0.668533
    outer loop
      vertex 10 -46 9.82579
      vertex 10 -38 10.3212
      vertex 9.42359 -46 10.466
    endloop
  endfacet
  facet normal 0.742531 -0.0413996 0.668531
    outer loop
      vertex 10.9217 -60 7.9351
      vertex 10 -38 10.3212
      vertex 10 -46 9.82579
    endloop
  endfacet
  facet normal 0.742514 -0.0414033 0.66855
    outer loop
      vertex 10.9217 -60 7.9351
      vertex 10 -46 9.82579
      vertex 10 -50 9.57807
    endloop
  endfacet
  facet normal 0.742502 -0.0414042 0.668562
    outer loop
      vertex 10 -38 10.3212
      vertex 10.9217 -60 7.9351
      vertex 10.778 -20 10.5719
    endloop
  endfacet
  facet normal 0.74252 -0.0414017 0.668544
    outer loop
      vertex 10.9217 -60 7.9351
      vertex 10 -50 9.57807
      vertex 9.03326 -60 10.0325
    endloop
  endfacet
  facet normal 0.587279 -0.0413997 0.808325
    outer loop
      vertex 7.40935 -50 11.7245
      vertex 9.03326 -60 10.0325
      vertex 9.31207 -50 10.3421
    endloop
  endfacet
  facet normal 0.587261 -0.0414048 0.808338
    outer loop
      vertex 9.03326 -60 10.0325
      vertex 7.40935 -50 11.7245
      vertex 6.75 -60 11.6913
    endloop
  endfacet
  facet normal 0.587296 -0.0413839 0.808313
    outer loop
      vertex 9.38739 -20 11.824
      vertex 10 -22 11.2765
      vertex 10.1485 -20 11.271
    endloop
  endfacet
  facet normal 0.587284 -0.04139 0.808322
    outer loop
      vertex 10 -22 11.2765
      vertex 9.38739 -20 11.824
      vertex 9.25552 -22 11.8174
    endloop
  endfacet
  facet normal 0.587588 -0.0414061 0.8081
    outer loop
      vertex 10.1485 -20 11.271
      vertex 10 -22 11.2765
      vertex 10 -25.3256 11.1061
    endloop
  endfacet
  facet normal 0.587305 -0.041402 0.808306
    outer loop
      vertex 8.99178 -26 11.8041
      vertex 9.75815 -34 10.8375
      vertex 9.9812 -26 11.0852
    endloop
  endfacet
  facet normal 0.587307 -0.0414016 0.808305
    outer loop
      vertex 9.75815 -34 10.8375
      vertex 8.99178 -26 11.8041
      vertex 8.4643 -34 11.7776
    endloop
  endfacet
  facet normal 0.587272 -0.0414011 0.80833
    outer loop
      vertex 8.20057 -38 11.7643
      vertex 9.42359 -46 10.466
      vertex 9.64663 -38 10.7137
    endloop
  endfacet
  facet normal 0.587277 -0.0413997 0.808326
    outer loop
      vertex 9.42359 -46 10.466
      vertex 8.20057 -38 11.7643
      vertex 7.67309 -46 11.7378
    endloop
  endfacet
  facet normal -0.95024 -0.0414018 0.308756
    outer loop
      vertex -14.1461 -20 5.27413
      vertex -14.8352 -20 3.15333
      vertex -13.205 -60 2.80681
    endloop
  endfacet
  facet normal -0.865319 -0.0414016 0.499509
    outer loop
      vertex -12.3329 -60 5.49094
      vertex -13.3851 -20 6.98356
      vertex -13.8554 -20 6.16884
    endloop
  endfacet
  facet normal -0.865273 -0.0414034 0.499588
    outer loop
      vertex -13.3851 -20 6.98356
      vertex -12.3329 -60 5.49094
      vertex -10.9217 -60 7.9351
    endloop
  endfacet
  facet normal 1 -0 0
    outer loop
      vertex 10 -2 24
      vertex 10 2 20
      vertex 10 2 24
    endloop
  endfacet
  facet normal 1 0 0
    outer loop
      vertex 10 2 20
      vertex 10 -2 24
      vertex 10 -2 20
    endloop
  endfacet
  facet normal -0 0 1
    outer loop
      vertex -10 2 24
      vertex 10 -2 24
      vertex 10 2 24
    endloop
  endfacet
  facet normal 0 0 1
    outer loop
      vertex 10 -2 24
      vertex -10 2 24
      vertex -10 -2 24
    endloop
  endfacet
  facet normal -1 0 0
    outer loop
      vertex -10 -2 20
      vertex -10 2 24
      vertex -10 2 20
    endloop
  endfacet
  facet normal -1 -0 0
    outer loop
      vertex -10 2 24
      vertex -10 -2 20
      vertex -10 -2 24
    endloop
  endfacet
  facet normal 0 1 -0
    outer loop
      vertex 10 2 20
      vertex -10 2 24
      vertex 10 2 24
    endloop
  endfacet
  facet normal 0 1 0
    outer loop
      vertex -10 2 24
      vertex 10 2 20
      vertex -10 2 20
    endloop
  endfacet
  facet normal 0 -1 0
    outer loop
      vertex -10 -2 20
      vertex 10 -2 24
      vertex -10 -2 24
    endloop
  endfacet
  facet normal 0 -1 -0
    outer loop
      vertex 10 -2 24
      vertex -10 -2 20
      vertex 10 -2 20
    endloop
  endfacet
  facet normal 1 -0 0
    outer loop
      vertex 10 -14 24
      vertex 10 -10 20
      vertex 10 -10 24
    endloop
  endfacet
  facet normal 1 0 0
    outer loop
      vertex 10 -10 20
      vertex 10 -14 24
      vertex 10 -14 20
    endloop
  endfacet
  facet normal -0 0 1
    outer loop
      vertex -10 -10 24
      vertex 10 -14 24
      vertex 10 -10 24
    endloop
  endfacet
  facet normal 0 0 1
    outer loop
      vertex 10 -14 24
      vertex -10 -10 24
      vertex -10 -14 24
    endloop
  endfacet
  facet normal -1 0 0
    outer loop
      vertex -10 -14 20
      vertex -10 -10 24
      vertex -10 -10 20
    endloop
  endfacet
  facet normal -1 -0 0
    outer loop
      vertex -10 -10 24
      vertex -10 -14 20
      vertex -10 -14 24
    endloop
  endfacet
  facet normal 0 1 -0
    outer loop
      vertex 10 -10 20
      vertex -10 -10 24
      vertex 10 -10 24
    endloop
  endfacet
  facet normal 0 1 0
    outer loop
      vertex -10 -10 24
      vertex 10 -10 20
      vertex -10 -10 20
    endloop
  endfacet
  facet normal 0 -1 0
    outer loop
      vertex -10 -14 20
      vertex 10 -14 24
      vertex -10 -14 24
    endloop
  endfacet
  facet normal 0 -1 -0
    outer loop
      vertex 10 -14 24
      vertex -10 -14 20
      vertex 10 -14 20
    endloop
  endfacet
  facet normal 1 -0 0
    outer loop
      vertex 10 10 24
      vertex 10 14 20
      vertex 10 14 24
    endloop
  endfacet
  facet normal 1 0 0
    outer loop
      vertex 10 14 20
      vertex 10 10 24
      vertex 10 10 20
    endloop
  endfacet
  facet normal -0 0 1
    outer loop
      vertex -10 14 24
      vertex 10 10 24
      vertex 10 14 24
    endloop
  endfacet
  facet normal 0 0 1
    outer loop
      vertex 10 10 24
      vertex -10 14 24
      vertex -10 10 24
    endloop
  endfacet
  facet normal -1 0 0
    outer loop
      vertex -10 10 20
      vertex -10 14 24
      vertex -10 14 20
    endloop
  endfacet
  facet normal -1 -0 0
    outer loop
      vertex -10 14 24
      vertex -10 10 20
      vertex -10 10 24
    endloop
  endfacet
  facet normal 0 1 -0
    outer loop
      vertex 10 14 20
      vertex -10 14 24
      vertex 10 14 24
    endloop
  endfacet
  facet normal 0 1 0
    outer loop
      vertex -10 14 24
      vertex 10 14 20
      vertex -10 14 20
    endloop
  endfacet
  facet normal 0 -1 0
    outer loop
      vertex -10 10 20
      vertex 10 10 24
      vertex -10 10 24
    endloop
  endfacet
  facet normal 0 -1 -0
    outer loop
      vertex 10 10 24
      vertex -10 10 20
      vertex 10 10 20
    endloop
  endfacet
  facet normal 1 0 0
    outer loop
      vertex 10 -22 17
      vertex 10 -25.3256 11.1061
      vertex 10 -22 11.2765
    endloop
  endfacet
  facet normal 1 -0 0
    outer loop
      vertex 10 -26 17
      vertex 10 -25.3256 11.1061
      vertex 10 -22 17
    endloop
  endfacet
  facet normal 1 0 0
    outer loop
      vertex 10 -25.3256 11.1061
      vertex 10 -26 17
      vertex 10 -26 11.0644
    endloop
  endfacet
  facet normal -0 0 1
    outer loop
      vertex -10 -22 17
      vertex 10 -26 17
      vertex 10 -22 17
    endloop
  endfacet
  facet normal 0 0 1
    outer loop
      vertex 10 -26 17
      vertex -10 -22 17
      vertex -10 -26 17
    endloop
  endfacet
  facet normal -1 0 0
    outer loop
      vertex -10 -25.3256 11.1061
      vertex -10 -22 17
      vertex -10 -22 11.2765
    endloop
  endfacet
  facet normal -1 0 0
    outer loop
      vertex -10 -26 17
      vertex -10 -25.3256 11.1061
      vertex -10 -26 11.0644
    endloop
  endfacet
  facet normal -1 0 0
    outer loop
      vertex -10 -25.3256 11.1061
      vertex -10 -26 17
      vertex -10 -22 17
    endloop
  endfacet
  facet normal 0 1 0
    outer loop
      vertex 10 -22 17
      vertex 1.57664 -22 15.0007
      vertex -10 -22 17
    endloop
  endfacet
  facet normal 0 1 0
    outer loop
      vertex 10 -22 17
      vertex 2.58886 -22 14.7856
      vertex 1.57664 -22 15.0007
    endloop
  endfacet
  facet normal 0 1 0
    outer loop
      vertex 10 -22 17
      vertex 4.66101 -22 14.3451
      vertex 2.58886 -22 14.7856
    endloop
  endfacet
  facet normal 0 1 0
    outer loop
      vertex 10 -22 17
      vertex 6.5963 -22 13.4835
      vertex 4.66101 -22 14.3451
    endloop
  endfacet
  facet normal 0 1 0
    outer loop
      vertex 10 -22 17
      vertex 7.54167 -22 13.0625
      vertex 6.5963 -22 13.4835
    endloop
  endfacet
  facet normal 0 1 0
    outer loop
      vertex 10 -22 17
      vertex 9.25552 -22 11.8174
      vertex 7.54167 -22 13.0625
    endloop
  endfacet
  facet normal -0 1 0
    outer loop
      vertex 9.25552 -22 11.8174
      vertex 10 -22 17
      vertex 10 -22 11.2765
    endloop
  endfacet
  facet normal 0 1 -0
    outer loop
      vertex -1.57664 -22 15.0007
      vertex -10 -22 17
      vertex 1.57664 -22 15.0007
    endloop
  endfacet
  facet normal 0 1 -0
    outer loop
      vertex -2.58886 -22 14.7856
      vertex -10 -22 17
      vertex -1.57664 -22 15.0007
    endloop
  endfacet
  facet normal 0 1 -0
    outer loop
      vertex -4.66101 -22 14.3451
      vertex -10 -22 17
      vertex -2.58886 -22 14.7856
    endloop
  endfacet
  facet normal 0 1 -0
    outer loop
      vertex -6.5963 -22 13.4835
      vertex -10 -22 17
      vertex -4.66101 -22 14.3451
    endloop
  endfacet
  facet normal 0 1 -0
    outer loop
      vertex -7.54167 -22 13.0625
      vertex -10 -22 17
      vertex -6.5963 -22 13.4835
    endloop
  endfacet
  facet normal 0 1 -0
    outer loop
      vertex -9.25552 -22 11.8174
      vertex -10 -22 17
      vertex -7.54167 -22 13.0625
    endloop
  endfacet
  facet normal 0 1 0
    outer loop
      vertex -10 -22 17
      vertex -9.25552 -22 11.8174
      vertex -10 -22 11.2765
    endloop
  endfacet
  facet normal 0 -1 0
    outer loop
      vertex -10 -26 17
      vertex -1.55922 -26 14.835
      vertex 10 -26 17
    endloop
  endfacet
  facet normal 0 -1 0
    outer loop
      vertex -10 -26 17
      vertex -2.75547 -26 14.5807
      vertex -1.55922 -26 14.835
    endloop
  endfacet
  facet normal 0 -1 0
    outer loop
      vertex -10 -26 17
      vertex -4.6095 -26 14.1866
      vertex -2.75547 -26 14.5807
    endloop
  endfacet
  facet normal 0 -1 0
    outer loop
      vertex -10 -26 17
      vertex -6.34108 -26 13.4156
      vertex -4.6095 -26 14.1866
    endloop
  endfacet
  facet normal 0 -1 0
    outer loop
      vertex -10 -26 17
      vertex -7.45833 -26 12.9182
      vertex -6.34108 -26 13.4156
    endloop
  endfacet
  facet normal 0 -1 0
    outer loop
      vertex -10 -26 17
      vertex -8.99178 -26 11.8041
      vertex -7.45833 -26 12.9182
    endloop
  endfacet
  facet normal 0 -1 0
    outer loop
      vertex -10 -26 17
      vertex -9.9812 -26 11.0852
      vertex -8.99178 -26 11.8041
    endloop
  endfacet
  facet normal -0 -1 0
    outer loop
      vertex -9.9812 -26 11.0852
      vertex -10 -26 17
      vertex -10 -26 11.0644
    endloop
  endfacet
  facet normal 0 -1 0
    outer loop
      vertex 1.55922 -26 14.835
      vertex 10 -26 17
      vertex -1.55922 -26 14.835
    endloop
  endfacet
  facet normal 0 -1 0
    outer loop
      vertex 2.75547 -26 14.5807
      vertex 10 -26 17
      vertex 1.55922 -26 14.835
    endloop
  endfacet
  facet normal 0 -1 0
    outer loop
      vertex 4.6095 -26 14.1866
      vertex 10 -26 17
      vertex 2.75547 -26 14.5807
    endloop
  endfacet
  facet normal 0 -1 0
    outer loop
      vertex 6.34108 -26 13.4156
      vertex 10 -26 17
      vertex 4.6095 -26 14.1866
    endloop
  endfacet
  facet normal 0 -1 0
    outer loop
      vertex 7.45833 -26 12.9182
      vertex 10 -26 17
      vertex 6.34108 -26 13.4156
    endloop
  endfacet
  facet normal 0 -1 0
    outer loop
      vertex 8.99178 -26 11.8041
      vertex 10 -26 17
      vertex 7.45833 -26 12.9182
    endloop
  endfacet
  facet normal 0 -1 0
    outer loop
      vertex 9.9812 -26 11.0852
      vertex 10 -26 17
      vertex 8.99178 -26 11.8041
    endloop
  endfacet
  facet normal 0 -1 -0
    outer loop
      vertex 10 -26 17
      vertex 9.9812 -26 11.0852
      vertex 10 -26 11.0644
    endloop
  endfacet
  facet normal 1 -0 0
    outer loop
      vertex 10 -38 17
      vertex 10 -34 10.5689
      vertex 10 -34 17
    endloop
  endfacet
  facet normal 1 0 0
    outer loop
      vertex 10 -34 10.5689
      vertex 10 -38 17
      vertex 10 -38 10.3212
    endloop
  endfacet
  facet normal -0 0 1
    outer loop
      vertex -10 -34 17
      vertex 10 -38 17
      vertex 10 -34 17
    endloop
  endfacet
  facet normal 0 0 1
    outer loop
      vertex 10 -38 17
      vertex -10 -34 17
      vertex -10 -38 17
    endloop
  endfacet
  facet normal -1 0 0
    outer loop
      vertex -10 -38 17
      vertex -10 -34 10.5689
      vertex -10 -38 10.3212
    endloop
  endfacet
  facet normal -1 0 0
    outer loop
      vertex -10 -34 10.5689
      vertex -10 -38 17
      vertex -10 -34 17
    endloop
  endfacet
  facet normal 0 1 0
    outer loop
      vertex 10 -34 17
      vertex 1.52437 -34 14.5034
      vertex -10 -34 17
    endloop
  endfacet
  facet normal 0 1 0
    outer loop
      vertex 10 -34 17
      vertex 3.08871 -34 14.1709
      vertex 1.52437 -34 14.5034
    endloop
  endfacet
  facet normal 0 1 0
    outer loop
      vertex 10 -34 17
      vertex 4.5065 -34 13.8696
      vertex 3.08871 -34 14.1709
    endloop
  endfacet
  facet normal 0 1 0
    outer loop
      vertex 10 -34 17
      vertex 5.83065 -34 13.28
      vertex 4.5065 -34 13.8696
    endloop
  endfacet
  facet normal 0 1 0
    outer loop
      vertex 10 -34 17
      vertex 7.29167 -34 12.6295
      vertex 5.83065 -34 13.28
    endloop
  endfacet
  facet normal 0 1 0
    outer loop
      vertex 10 -34 17
      vertex 8.4643 -34 11.7776
      vertex 7.29167 -34 12.6295
    endloop
  endfacet
  facet normal 0 1 0
    outer loop
      vertex 10 -34 17
      vertex 9.75815 -34 10.8375
      vertex 8.4643 -34 11.7776
    endloop
  endfacet
  facet normal -0 1 0
    outer loop
      vertex 9.75815 -34 10.8375
      vertex 10 -34 17
      vertex 10 -34 10.5689
    endloop
  endfacet
  facet normal 0 1 -0
    outer loop
      vertex -1.52437 -34 14.5034
      vertex -10 -34 17
      vertex 1.52437 -34 14.5034
    endloop
  endfacet
  facet normal 0 1 -0
    outer loop
      vertex -3.08871 -34 14.1709
      vertex -10 -34 17
      vertex -1.52437 -34 14.5034
    endloop
  endfacet
  facet normal 0 1 -0
    outer loop
      vertex -4.5065 -34 13.8696
      vertex -10 -34 17
      vertex -3.08871 -34 14.1709
    endloop
  endfacet
  facet normal 0 1 -0
    outer loop
      vertex -5.83065 -34 13.28
      vertex -10 -34 17
      vertex -4.5065 -34 13.8696
    endloop
  endfacet
  facet normal 0 1 -0
    outer loop
      vertex -7.29167 -34 12.6295
      vertex -10 -34 17
      vertex -5.83065 -34 13.28
    endloop
  endfacet
  facet normal 0 1 -0
    outer loop
      vertex -8.4643 -34 11.7776
      vertex -10 -34 17
      vertex -7.29167 -34 12.6295
    endloop
  endfacet
  facet normal 0 1 -0
    outer loop
      vertex -9.75815 -34 10.8375
      vertex -10 -34 17
      vertex -8.4643 -34 11.7776
    endloop
  endfacet
  facet normal 0 1 0
    outer loop
      vertex -10 -34 17
      vertex -9.75815 -34 10.8375
      vertex -10 -34 10.5689
    endloop
  endfacet
  facet normal 0 -1 0
    outer loop
      vertex -10 -38 17
      vertex -1.50695 -38 14.3377
      vertex 10 -38 17
    endloop
  endfacet
  facet normal 0 -1 0
    outer loop
      vertex -10 -38 17
      vertex -3.25533 -38 13.9661
      vertex -1.50695 -38 14.3377
    endloop
  endfacet
  facet normal 0 -1 0
    outer loop
      vertex -10 -38 17
      vertex -4.45499 -38 13.7111
      vertex -3.25533 -38 13.9661
    endloop
  endfacet
  facet normal 0 -1 0
    outer loop
      vertex -10 -38 17
      vertex -5.57543 -38 13.2122
      vertex -4.45499 -38 13.7111
    endloop
  endfacet
  facet normal 0 -1 0
    outer loop
      vertex -10 -38 17
      vertex -7.20833 -38 12.4852
      vertex -5.57543 -38 13.2122
    endloop
  endfacet
  facet normal 0 -1 0
    outer loop
      vertex -10 -38 17
      vertex -8.20057 -38 11.7643
      vertex -7.20833 -38 12.4852
    endloop
  endfacet
  facet normal 0 -1 0
    outer loop
      vertex -10 -38 17
      vertex -9.64663 -38 10.7137
      vertex -8.20057 -38 11.7643
    endloop
  endfacet
  facet normal -0 -1 0
    outer loop
      vertex -9.64663 -38 10.7137
      vertex -10 -38 17
      vertex -10 -38 10.3212
    endloop
  endfacet
  facet normal 0 -1 0
    outer loop
      vertex 1.50695 -38 14.3377
      vertex 10 -38 17
      vertex -1.50695 -38 14.3377
    endloop
  endfacet
  facet normal 0 -1 0
    outer loop
      vertex 3.25533 -38 13.9661
      vertex 10 -38 17
      vertex 1.50695 -38 14.3377
    endloop
  endfacet
  facet normal 0 -1 0
    outer loop
      vertex 4.45499 -38 13.7111
      vertex 10 -38 17
      vertex 3.25533 -38 13.9661
    endloop
  endfacet
  facet normal 0 -1 0
    outer loop
      vertex 5.57543 -38 13.2122
      vertex 10 -38 17
      vertex 4.45499 -38 13.7111
    endloop
  endfacet
  facet normal 0 -1 0
    outer loop
      vertex 7.20833 -38 12.4852
      vertex 10 -38 17
      vertex 5.57543 -38 13.2122
    endloop
  endfacet
  facet normal 0 -1 0
    outer loop
      vertex 8.20057 -38 11.7643
      vertex 10 -38 17
      vertex 7.20833 -38 12.4852
    endloop
  endfacet
  facet normal 0 -1 0
    outer loop
      vertex 9.64663 -38 10.7137
      vertex 10 -38 17
      vertex 8.20057 -38 11.7643
    endloop
  endfacet
  facet normal 0 -1 -0
    outer loop
      vertex 10 -38 17
      vertex 9.64663 -38 10.7137
      vertex 10 -38 10.3212
    endloop
  endfacet
  facet normal 1 -0 0
    outer loop
      vertex 10 -50 17
      vertex 10 -46 9.82579
      vertex 10 -46 17
    endloop
  endfacet
  facet normal 1 0 0
    outer loop
      vertex 10 -46 9.82579
      vertex 10 -50 17
      vertex 10 -50 9.57807
    endloop
  endfacet
  facet normal -0 0 1
    outer loop
      vertex -10 -46 17
      vertex 10 -50 17
      vertex 10 -46 17
    endloop
  endfacet
  facet normal 0 0 1
    outer loop
      vertex 10 -50 17
      vertex -10 -46 17
      vertex -10 -50 17
    endloop
  endfacet
  facet normal -1 0 0
    outer loop
      vertex -10 -50 17
      vertex -10 -46 9.82579
      vertex -10 -50 9.57807
    endloop
  endfacet
  facet normal -1 0 0
    outer loop
      vertex -10 -46 9.82579
      vertex -10 -50 17
      vertex -10 -46 17
    endloop
  endfacet
  facet normal 0 1 0
    outer loop
      vertex 10 -46 17
      vertex 1.47211 -46 14.0062
      vertex -10 -46 17
    endloop
  endfacet
  facet normal 0 1 0
    outer loop
      vertex 10 -46 17
      vertex 3.58857 -46 13.5563
      vertex 1.47211 -46 14.0062
    endloop
  endfacet
  facet normal 0 1 0
    outer loop
      vertex 10 -46 17
      vertex 4.35199 -46 13.394
      vertex 3.58857 -46 13.5563
    endloop
  endfacet
  facet normal 0 1 0
    outer loop
      vertex 10 -46 17
      vertex 5.06499 -46 13.0766
      vertex 4.35199 -46 13.394
    endloop
  endfacet
  facet normal 0 1 0
    outer loop
      vertex 10 -46 17
      vertex 7.04167 -46 12.1965
      vertex 5.06499 -46 13.0766
    endloop
  endfacet
  facet normal 0 1 0
    outer loop
      vertex 10 -46 17
      vertex 7.67309 -46 11.7378
      vertex 7.04167 -46 12.1965
    endloop
  endfacet
  facet normal 0 1 0
    outer loop
      vertex 10 -46 17
      vertex 9.42359 -46 10.466
      vertex 7.67309 -46 11.7378
    endloop
  endfacet
  facet normal -0 1 0
    outer loop
      vertex 9.42359 -46 10.466
      vertex 10 -46 17
      vertex 10 -46 9.82579
    endloop
  endfacet
  facet normal 0 1 -0
    outer loop
      vertex -1.47211 -46 14.0062
      vertex -10 -46 17
      vertex 1.47211 -46 14.0062
    endloop
  endfacet
  facet normal 0 1 -0
    outer loop
      vertex -3.58857 -46 13.5563
      vertex -10 -46 17
      vertex -1.47211 -46 14.0062
    endloop
  endfacet
  facet normal 0 1 -0
    outer loop
      vertex -4.35199 -46 13.394
      vertex -10 -46 17
      vertex -3.58857 -46 13.5563
    endloop
  endfacet
  facet normal 0 1 -0
    outer loop
      vertex -5.06499 -46 13.0766
      vertex -10 -46 17
      vertex -4.35199 -46 13.394
    endloop
  endfacet
  facet normal 0 1 -0
    outer loop
      vertex -7.04167 -46 12.1965
      vertex -10 -46 17
      vertex -5.06499 -46 13.0766
    endloop
  endfacet
  facet normal 0 1 -0
    outer loop
      vertex -7.67309 -46 11.7378
      vertex -10 -46 17
      vertex -7.04167 -46 12.1965
    endloop
  endfacet
  facet normal 0 1 -0
    outer loop
      vertex -9.42359 -46 10.466
      vertex -10 -46 17
      vertex -7.67309 -46 11.7378
    endloop
  endfacet
  facet normal 0 1 0
    outer loop
      vertex -10 -46 17
      vertex -9.42359 -46 10.466
      vertex -10 -46 9.82579
    endloop
  endfacet
  facet normal 0 -1 0
    outer loop
      vertex -10 -50 17
      vertex -1.45469 -50 13.8404
      vertex 10 -50 17
    endloop
  endfacet
  facet normal 0 -1 0
    outer loop
      vertex -10 -50 17
      vertex -3.75518 -50 13.3514
      vertex -1.45469 -50 13.8404
    endloop
  endfacet
  facet normal 0 -1 0
    outer loop
      vertex -10 -50 17
      vertex -4.30049 -50 13.2355
      vertex -3.75518 -50 13.3514
    endloop
  endfacet
  facet normal 0 -1 0
    outer loop
      vertex -10 -50 17
      vertex -4.80977 -50 13.0088
      vertex -4.30049 -50 13.2355
    endloop
  endfacet
  facet normal 0 -1 0
    outer loop
      vertex -10 -50 17
      vertex -6.95833 -50 12.0522
      vertex -4.80977 -50 13.0088
    endloop
  endfacet
  facet normal 0 -1 0
    outer loop
      vertex -10 -50 17
      vertex -7.40935 -50 11.7245
      vertex -6.95833 -50 12.0522
    endloop
  endfacet
  facet normal 0 -1 0
    outer loop
      vertex -10 -50 17
      vertex -9.31207 -50 10.3421
      vertex -7.40935 -50 11.7245
    endloop
  endfacet
  facet normal -0 -1 0
    outer loop
      vertex -9.31207 -50 10.3421
      vertex -10 -50 17
      vertex -10 -50 9.57807
    endloop
  endfacet
  facet normal 0 -1 0
    outer loop
      vertex 1.45469 -50 13.8404
      vertex 10 -50 17
      vertex -1.45469 -50 13.8404
    endloop
  endfacet
  facet normal 0 -1 0
    outer loop
      vertex 3.75518 -50 13.3514
      vertex 10 -50 17
      vertex 1.45469 -50 13.8404
    endloop
  endfacet
  facet normal 0 -1 0
    outer loop
      vertex 4.30049 -50 13.2355
      vertex 10 -50 17
      vertex 3.75518 -50 13.3514
    endloop
  endfacet
  facet normal 0 -1 0
    outer loop
      vertex 4.80977 -50 13.0088
      vertex 10 -50 17
      vertex 4.30049 -50 13.2355
    endloop
  endfacet
  facet normal 0 -1 0
    outer loop
      vertex 6.95833 -50 12.0522
      vertex 10 -50 17
      vertex 4.80977 -50 13.0088
    endloop
  endfacet
  facet normal 0 -1 0
    outer loop
      vertex 7.40935 -50 11.7245
      vertex 10 -50 17
      vertex 6.95833 -50 12.0522
    endloop
  endfacet
  facet normal 0 -1 0
    outer loop
      vertex 9.31207 -50 10.3421
      vertex 10 -50 17
      vertex 7.40935 -50 11.7245
    endloop
  endfacet
  facet normal 0 -1 -0
    outer loop
      vertex 10 -50 17
      vertex 9.31207 -50 10.3421
      vertex 10 -50 9.57807
    endloop
  endfacet
  facet normal 0.207445 0.0400702 -0.977426
    outer loop
      vertex -1.30286 -60 11.4976
      vertex -1.40228 -14.5 13.3418
      vertex -1.21051 -60 11.5172
    endloop
  endfacet
  facet normal 0.207744 0.0400683 -0.977362
    outer loop
      vertex -1.40228 -14.5 13.3418
      vertex -1.30286 -60 11.4976
      vertex -3.59559 -14.5 12.8756
    endloop
  endfacet
  facet normal -0.993737 0.0400705 -0.104317
    outer loop
      vertex 11.5806 -60 0
      vertex 13.3566 -14.5 0.559182
      vertex 13.4153 -14.5 0
    endloop
  endfacet
  facet normal -0.993723 0.0400716 -0.104446
    outer loop
      vertex 13.3566 -14.5 0.559182
      vertex 11.5806 -60 0
      vertex 11.3374 -60 2.31386
    endloop
  endfacet
  facet normal -0.993722 0.0400713 -0.104451
    outer loop
      vertex 11.3374 -60 2.31386
      vertex 13.1222 -14.5 2.7892
      vertex 13.3566 -14.5 0.559182
    endloop
  endfacet
  facet normal -0.993798 0.0400668 -0.10373
    outer loop
      vertex 13.1222 -14.5 2.7892
      vertex 11.3374 -60 2.31386
      vertex 11.3276 -60 2.40775
    endloop
  endfacet
  facet normal -0.587325 0.0400685 -0.808359
    outer loop
      vertex 7.67258 -60 8.66159
      vertex 6.70766 -14.5 11.618
      vertex 7.16254 -14.5 11.2875
    endloop
  endfacet
  facet normal -0.587304 0.04007 -0.808374
    outer loop
      vertex 6.70766 -14.5 11.618
      vertex 7.67258 -60 8.66159
      vertex 5.79032 -60 10.0291
    endloop
  endfacet
  facet normal -0.406401 0.0400699 -0.912816
    outer loop
      vertex 5.70407 -60 10.0675
      vertex 6.70766 -14.5 11.618
      vertex 5.79032 -60 10.0291
    endloop
  endfacet
  facet normal -0.406399 0.0400699 -0.912817
    outer loop
      vertex 6.70766 -14.5 11.618
      vertex 5.70407 -60 10.0675
      vertex 4.65921 -14.5 12.53
    endloop
  endfacet
  facet normal 0.865275 0.0400695 -0.499693
    outer loop
      vertex -9.36894 -60 6.80693
      vertex -11.1344 -14.5 7.3984
      vertex -10.8532 -14.5 7.88533
    endloop
  endfacet
  facet normal 0.865337 0.0400705 -0.499586
    outer loop
      vertex -11.1344 -14.5 7.3984
      vertex -9.36894 -60 6.80693
      vertex -10.5322 -60 4.79204
    endloop
  endfacet
  facet normal -0.207744 0.0400683 -0.977362
    outer loop
      vertex 1.30286 -60 11.4976
      vertex 1.40228 -14.5 13.3418
      vertex 3.59559 -14.5 12.8756
    endloop
  endfacet
  facet normal -0.207445 0.0400702 -0.977426
    outer loop
      vertex 1.40228 -14.5 13.3418
      vertex 1.30286 -60 11.4976
      vertex 1.21051 -60 11.5172
    endloop
  endfacet
  facet normal -0.950265 0.0400694 -0.308853
    outer loop
      vertex 11.3276 -60 2.40775
      vertex 12.9484 -14.5 3.32394
      vertex 13.1222 -14.5 2.7892
    endloop
  endfacet
  facet normal -0.950288 0.0400688 -0.308785
    outer loop
      vertex 12.9484 -14.5 3.32394
      vertex 11.3276 -60 2.40775
      vertex 10.6086 -60 4.62048
    endloop
  endfacet
  facet normal -0.742548 0.0400691 -0.668594
    outer loop
      vertex 7.81214 -60 8.53593
      vertex 10.8532 -14.5 7.88533
      vertex 9.36894 -60 6.80693
    endloop
  endfacet
  facet normal -0.74257 0.040071 -0.668569
    outer loop
      vertex 10.8532 -14.5 7.88533
      vertex 7.81214 -60 8.53593
      vertex 10.477 -14.5 8.30317
    endloop
  endfacet
  facet normal 0.993723 0.0400716 -0.104446
    outer loop
      vertex -11.5806 -60 0
      vertex -13.3566 -14.5 0.559182
      vertex -11.3374 -60 2.31386
    endloop
  endfacet
  facet normal 0.993737 0.0400705 -0.104317
    outer loop
      vertex -13.3566 -14.5 0.559182
      vertex -11.5806 -60 0
      vertex -13.4153 -14.5 0
    endloop
  endfacet
  facet normal 0.865341 0.0400702 -0.49958
    outer loop
      vertex -10.5322 -60 4.79204
      vertex -12.2555 -14.5 5.4565
      vertex -11.1344 -14.5 7.3984
    endloop
  endfacet
  facet normal 0.865375 0.0400706 -0.49952
    outer loop
      vertex -12.2555 -14.5 5.4565
      vertex -10.5322 -60 4.79204
      vertex -10.5794 -60 4.71027
    endloop
  endfacet
  facet normal -0.58729 0.0400704 -0.808384
    outer loop
      vertex 7.16254 -14.5 11.2875
      vertex 7.74896 -60 8.6061
      vertex 7.67258 -60 8.66159
    endloop
  endfacet
  facet normal -0.587307 0.0400694 -0.808372
    outer loop
      vertex 7.74896 -60 8.6061
      vertex 7.16254 -14.5 11.2875
      vertex 8.9766 -14.5 9.96953
    endloop
  endfacet
  facet normal -0.742555 0.04007 -0.668585
    outer loop
      vertex 7.74896 -60 8.6061
      vertex 10.477 -14.5 8.30317
      vertex 7.81214 -60 8.53593
    endloop
  endfacet
  facet normal -0.742547 0.0400695 -0.668594
    outer loop
      vertex 10.477 -14.5 8.30317
      vertex 7.74896 -60 8.6061
      vertex 8.9766 -14.5 9.96953
    endloop
  endfacet
  facet normal -0.950294 0.0400697 -0.308764
    outer loop
      vertex 10.6086 -60 4.62048
      vertex 12.2555 -14.5 5.4565
      vertex 12.9484 -14.5 3.32394
    endloop
  endfacet
  facet normal -0.950213 0.0400714 -0.309012
    outer loop
      vertex 12.2555 -14.5 5.4565
      vertex 10.6086 -60 4.62048
      vertex 10.5794 -60 4.71027
    endloop
  endfacet
  facet normal -0.865375 0.0400706 -0.49952
    outer loop
      vertex 10.5322 -60 4.79204
      vertex 12.2555 -14.5 5.4565
      vertex 10.5794 -60 4.71027
    endloop
  endfacet
  facet normal -0.865341 0.0400702 -0.49958
    outer loop
      vertex 12.2555 -14.5 5.4565
      vertex 10.5322 -60 4.79204
      vertex 11.1344 -14.5 7.3984
    endloop
  endfacet
  facet normal -0.207745 0.0400698 -0.977362
    outer loop
      vertex 3.57862 -60 11.0138
      vertex 3.59559 -14.5 12.8756
      vertex 4.14556 -14.5 12.7587
    endloop
  endfacet
  facet normal -0.207774 0.0400696 -0.977356
    outer loop
      vertex 3.59559 -14.5 12.8756
      vertex 3.57862 -60 11.0138
      vertex 1.30286 -60 11.4976
    endloop
  endfacet
  facet normal -0.406406 0.0400696 -0.912814
    outer loop
      vertex 3.57862 -60 11.0138
      vertex 4.65921 -14.5 12.53
      vertex 5.70407 -60 10.0675
    endloop
  endfacet
  facet normal -0.406422 0.0400697 -0.912806
    outer loop
      vertex 4.65921 -14.5 12.53
      vertex 3.57862 -60 11.0138
      vertex 4.14556 -14.5 12.7587
    endloop
  endfacet
  facet normal 0.587325 0.0400698 -0.808359
    outer loop
      vertex -5.79032 -60 10.0291
      vertex -7.16254 -14.5 11.2875
      vertex -6.70766 -14.5 11.618
    endloop
  endfacet
  facet normal 0.587304 0.0400696 -0.808374
    outer loop
      vertex -7.16254 -14.5 11.2875
      vertex -5.79032 -60 10.0291
      vertex -7.67258 -60 8.66159
    endloop
  endfacet
  facet normal 0 0.0400689 -0.999197
    outer loop
      vertex -1.21051 -60 11.5172
      vertex 1.40228 -14.5 13.3418
      vertex 1.21051 -60 11.5172
    endloop
  endfacet
  facet normal 0 0.0400689 -0.999197
    outer loop
      vertex 1.40228 -14.5 13.3418
      vertex -1.21051 -60 11.5172
      vertex -1.40228 -14.5 13.3418
    endloop
  endfacet
  facet normal -0.865337 0.0400705 -0.499586
    outer loop
      vertex 9.36894 -60 6.80693
      vertex 11.1344 -14.5 7.3984
      vertex 10.5322 -60 4.79204
    endloop
  endfacet
  facet normal -0.865275 0.0400695 -0.499693
    outer loop
      vertex 11.1344 -14.5 7.3984
      vertex 9.36894 -60 6.80693
      vertex 10.8532 -14.5 7.88533
    endloop
  endfacet
  facet normal 0.406401 0.0400698 -0.912816
    outer loop
      vertex -5.79032 -60 10.0291
      vertex -4.65921 -14.5 12.53
      vertex -5.70407 -60 10.0675
    endloop
  endfacet
  facet normal 0.406399 0.0400699 -0.912817
    outer loop
      vertex -4.65921 -14.5 12.53
      vertex -5.79032 -60 10.0291
      vertex -6.70766 -14.5 11.618
    endloop
  endfacet
  facet normal 0.950213 0.0400714 -0.309012
    outer loop
      vertex -10.6086 -60 4.62048
      vertex -12.2555 -14.5 5.4565
      vertex -10.5794 -60 4.71027
    endloop
  endfacet
  facet normal 0.950294 0.0400697 -0.308764
    outer loop
      vertex -12.2555 -14.5 5.4565
      vertex -10.6086 -60 4.62048
      vertex -12.9484 -14.5 3.32394
    endloop
  endfacet
  facet normal 0.74257 0.040071 -0.668569
    outer loop
      vertex -7.81214 -60 8.53593
      vertex -10.8532 -14.5 7.88533
      vertex -10.477 -14.5 8.30317
    endloop
  endfacet
  facet normal 0.742548 0.0400691 -0.668594
    outer loop
      vertex -10.8532 -14.5 7.88533
      vertex -7.81214 -60 8.53593
      vertex -9.36894 -60 6.80693
    endloop
  endfacet
  facet normal 0.742547 0.0400695 -0.668594
    outer loop
      vertex -7.74896 -60 8.6061
      vertex -10.477 -14.5 8.30317
      vertex -8.9766 -14.5 9.96953
    endloop
  endfacet
  facet normal 0.742555 0.04007 -0.668585
    outer loop
      vertex -10.477 -14.5 8.30317
      vertex -7.74896 -60 8.6061
      vertex -7.81214 -60 8.53593
    endloop
  endfacet
  facet normal 0.58729 0.0400704 -0.808384
    outer loop
      vertex -7.74896 -60 8.6061
      vertex -7.16254 -14.5 11.2875
      vertex -7.67258 -60 8.66159
    endloop
  endfacet
  facet normal 0.587307 0.0400694 -0.808372
    outer loop
      vertex -7.16254 -14.5 11.2875
      vertex -7.74896 -60 8.6061
      vertex -8.9766 -14.5 9.96953
    endloop
  endfacet
  facet normal 0.950288 0.0400688 -0.308785
    outer loop
      vertex -11.3276 -60 2.40775
      vertex -12.9484 -14.5 3.32394
      vertex -10.6086 -60 4.62048
    endloop
  endfacet
  facet normal 0.950265 0.0400694 -0.308853
    outer loop
      vertex -12.9484 -14.5 3.32394
      vertex -11.3276 -60 2.40775
      vertex -13.1222 -14.5 2.7892
    endloop
  endfacet
  facet normal 0.993798 0.0400668 -0.10373
    outer loop
      vertex -11.3374 -60 2.31386
      vertex -13.1222 -14.5 2.7892
      vertex -11.3276 -60 2.40775
    endloop
  endfacet
  facet normal 0.993722 0.0400713 -0.104451
    outer loop
      vertex -13.1222 -14.5 2.7892
      vertex -11.3374 -60 2.31386
      vertex -13.3566 -14.5 0.559182
    endloop
  endfacet
  facet normal 0.207774 0.0400696 -0.977356
    outer loop
      vertex -3.57862 -60 11.0138
      vertex -3.59559 -14.5 12.8756
      vertex -1.30286 -60 11.4976
    endloop
  endfacet
  facet normal 0.207745 0.0400698 -0.977362
    outer loop
      vertex -3.59559 -14.5 12.8756
      vertex -3.57862 -60 11.0138
      vertex -4.14556 -14.5 12.7587
    endloop
  endfacet
  facet normal 0.406422 0.0400697 -0.912806
    outer loop
      vertex -3.57862 -60 11.0138
      vertex -4.65921 -14.5 12.53
      vertex -4.14556 -14.5 12.7587
    endloop
  endfacet
  facet normal 0.406406 0.0400696 -0.912814
    outer loop
      vertex -4.65921 -14.5 12.53
      vertex -3.57862 -60 11.0138
      vertex -5.70407 -60 10.0675
    endloop
  endfacet
  facet normal 0 0 -1
    outer loop
      vertex -20 -3.5 15
      vertex -18.5 3.5 15
      vertex -18.5 -3.5 15
    endloop
  endfacet
  facet normal -0 0 -1
    outer loop
      vertex -18.5 3.5 15
      vertex -20 -3.5 15
      vertex -20 3.5 15
    endloop
  endfacet
  facet normal 0 0 -1
    outer loop
      vertex 18.5 -3.5 15
      vertex 20 3.5 15
      vertex 20 -3.5 15
    endloop
  endfacet
  facet normal -0 0 -1
    outer loop
      vertex 20 3.5 15
      vertex 18.5 -3.5 15
      vertex 18.5 3.5 15
    endloop
  endfacet
  facet normal 0 -1 0
    outer loop
      vertex -20 3.5 0
      vertex -18.5 3.5 15
      vertex -20 3.5 15
    endloop
  endfacet
  facet normal 0 -1 -0
    outer loop
      vertex -18.5 3.5 15
      vertex -20 3.5 0
      vertex -18.5 3.5 0
    endloop
  endfacet
  facet normal 0 -1 0
    outer loop
      vertex 18.5 3.5 0
      vertex 20 3.5 15
      vertex 18.5 3.5 15
    endloop
  endfacet
  facet normal 0 -1 -0
    outer loop
      vertex 20 3.5 15
      vertex 18.5 3.5 0
      vertex 20 3.5 0
    endloop
  endfacet
  facet normal 0 1 -0
    outer loop
      vertex -18.5 -3.5 0
      vertex -20 -3.5 15
      vertex -18.5 -3.5 15
    endloop
  endfacet
  facet normal 0 1 0
    outer loop
      vertex -20 -3.5 15
      vertex -18.5 -3.5 0
      vertex -20 -3.5 0
    endloop
  endfacet
  facet normal 0 1 -0
    outer loop
      vertex 20 -3.5 0
      vertex 18.5 -3.5 15
      vertex 20 -3.5 15
    endloop
  endfacet
  facet normal 0 1 0
    outer loop
      vertex 18.5 -3.5 15
      vertex 20 -3.5 0
      vertex 18.5 -3.5 0
    endloop
  endfacet
  facet normal -1 0 0
    outer loop
      vertex 18.5 -3.5 0
      vertex 18.5 -14.5 0
      vertex 18.5 -3.5 15
    endloop
  endfacet
  facet normal -1 0 0
    outer loop
      vertex 18.5 3.5 15
      vertex 18.5 20 0
      vertex 18.5 3.5 0
    endloop
  endfacet
  facet normal -1 0 0
    outer loop
      vertex 18.5 20 0
      vertex 18.5 3.5 15
      vertex 18.5 20 18
    endloop
  endfacet
  facet normal -1 0 0
    outer loop
      vertex 18.5 -14.5 18
      vertex 18.5 3.5 15
      vertex 18.5 -3.5 15
    endloop
  endfacet
  facet normal -1 0 0
    outer loop
      vertex 18.5 3.5 15
      vertex 18.5 -14.5 18
      vertex 18.5 20 18
    endloop
  endfacet
  facet normal -1 0 0
    outer loop
      vertex 18.5 -14.5 18
      vertex 18.5 -3.5 15
      vertex 18.5 -14.5 0
    endloop
  endfacet
  facet normal 0 0 -1
    outer loop
      vertex -18.5 -14.5 18
      vertex 18.5 20 18
      vertex 18.5 -14.5 18
    endloop
  endfacet
  facet normal -0 0 -1
    outer loop
      vertex 18.5 20 18
      vertex -18.5 -14.5 18
      vertex -18.5 20 18
    endloop
  endfacet
  facet normal 1 0 0
    outer loop
      vertex -18.5 20 18
      vertex -18.5 3.5 15
      vertex -18.5 20 0
    endloop
  endfacet
  facet normal 1 -0 0
    outer loop
      vertex -18.5 -14.5 18
      vertex -18.5 3.5 15
      vertex -18.5 20 18
    endloop
  endfacet
  facet normal 1 0 0
    outer loop
      vertex -18.5 3.5 15
      vertex -18.5 -14.5 18
      vertex -18.5 -3.5 15
    endloop
  endfacet
  facet normal 1 0 0
    outer loop
      vertex -18.5 -14.5 0
      vertex -18.5 -3.5 15
      vertex -18.5 -14.5 18
    endloop
  endfacet
  facet normal 1 0 0
    outer loop
      vertex -18.5 -3.5 15
      vertex -18.5 -14.5 0
      vertex -18.5 -3.5 0
    endloop
  endfacet
  facet normal 1 0 0
    outer loop
      vertex -18.5 20 0
      vertex -18.5 3.5 15
      vertex -18.5 3.5 0
    endloop
  endfacet
  facet normal 0 1 0
    outer loop
      vertex 18.5 -14.5 18
      vertex 1.40228 -14.5 13.3418
      vertex -18.5 -14.5 18
    endloop
  endfacet
  facet normal 0 1 0
    outer loop
      vertex 18.5 -14.5 18
      vertex 3.59559 -14.5 12.8756
      vertex 1.40228 -14.5 13.3418
    endloop
  endfacet
  facet normal 0 1 0
    outer loop
      vertex 18.5 -14.5 18
      vertex 4.14556 -14.5 12.7587
      vertex 3.59559 -14.5 12.8756
    endloop
  endfacet
  facet normal 0 1 0
    outer loop
      vertex 18.5 -14.5 18
      vertex 4.65921 -14.5 12.53
      vertex 4.14556 -14.5 12.7587
    endloop
  endfacet
  facet normal 0 1 0
    outer loop
      vertex 18.5 -14.5 18
      vertex 6.70766 -14.5 11.618
      vertex 4.65921 -14.5 12.53
    endloop
  endfacet
  facet normal 0 1 0
    outer loop
      vertex 18.5 -14.5 18
      vertex 7.16254 -14.5 11.2875
      vertex 6.70766 -14.5 11.618
    endloop
  endfacet
  facet normal 0 1 0
    outer loop
      vertex 18.5 -14.5 18
      vertex 8.9766 -14.5 9.96953
      vertex 7.16254 -14.5 11.2875
    endloop
  endfacet
  facet normal 0 1 0
    outer loop
      vertex 18.5 -14.5 18
      vertex 10.477 -14.5 8.30317
      vertex 8.9766 -14.5 9.96953
    endloop
  endfacet
  facet normal 0 1 0
    outer loop
      vertex 18.5 -14.5 18
      vertex 10.8532 -14.5 7.88533
      vertex 10.477 -14.5 8.30317
    endloop
  endfacet
  facet normal 0 1 0
    outer loop
      vertex 18.5 -14.5 18
      vertex 11.1344 -14.5 7.3984
      vertex 10.8532 -14.5 7.88533
    endloop
  endfacet
  facet normal 0 1 0
    outer loop
      vertex 18.5 -14.5 18
      vertex 12.2555 -14.5 5.4565
      vertex 11.1344 -14.5 7.3984
    endloop
  endfacet
  facet normal 0 1 -0
    outer loop
      vertex 18.5 -14.5 0
      vertex 12.2555 -14.5 5.4565
      vertex 18.5 -14.5 18
    endloop
  endfacet
  facet normal 0 1 0
    outer loop
      vertex 12.2555 -14.5 5.4565
      vertex 18.5 -14.5 0
      vertex 12.9484 -14.5 3.32394
    endloop
  endfacet
  facet normal 0 1 0
    outer loop
      vertex 12.9484 -14.5 3.32394
      vertex 18.5 -14.5 0
      vertex 13.1222 -14.5 2.7892
    endloop
  endfacet
  facet normal 0 1 0
    outer loop
      vertex 13.1222 -14.5 2.7892
      vertex 18.5 -14.5 0
      vertex 13.3566 -14.5 0.559182
    endloop
  endfacet
  facet normal 0 1 0
    outer loop
      vertex 13.3566 -14.5 0.559182
      vertex 18.5 -14.5 0
      vertex 13.4153 -14.5 0
    endloop
  endfacet
  facet normal 0 1 -0
    outer loop
      vertex -1.40228 -14.5 13.3418
      vertex -18.5 -14.5 18
      vertex 1.40228 -14.5 13.3418
    endloop
  endfacet
  facet normal 0 1 -0
    outer loop
      vertex -3.59559 -14.5 12.8756
      vertex -18.5 -14.5 18
      vertex -1.40228 -14.5 13.3418
    endloop
  endfacet
  facet normal 0 1 -0
    outer loop
      vertex -4.14556 -14.5 12.7587
      vertex -18.5 -14.5 18
      vertex -3.59559 -14.5 12.8756
    endloop
  endfacet
  facet normal 0 1 -0
    outer loop
      vertex -4.65921 -14.5 12.53
      vertex -18.5 -14.5 18
      vertex -4.14556 -14.5 12.7587
    endloop
  endfacet
  facet normal 0 1 -0
    outer loop
      vertex -6.70766 -14.5 11.618
      vertex -18.5 -14.5 18
      vertex -4.65921 -14.5 12.53
    endloop
  endfacet
  facet normal 0 1 -0
    outer loop
      vertex -7.16254 -14.5 11.2875
      vertex -18.5 -14.5 18
      vertex -6.70766 -14.5 11.618
    endloop
  endfacet
  facet normal 0 1 -0
    outer loop
      vertex -8.9766 -14.5 9.96953
      vertex -18.5 -14.5 18
      vertex -7.16254 -14.5 11.2875
    endloop
  endfacet
  facet normal 0 1 -0
    outer loop
      vertex -10.477 -14.5 8.30317
      vertex -18.5 -14.5 18
      vertex -8.9766 -14.5 9.96953
    endloop
  endfacet
  facet normal 0 1 -0
    outer loop
      vertex -10.8532 -14.5 7.88533
      vertex -18.5 -14.5 18
      vertex -10.477 -14.5 8.30317
    endloop
  endfacet
  facet normal 0 1 -0
    outer loop
      vertex -11.1344 -14.5 7.3984
      vertex -18.5 -14.5 18
      vertex -10.8532 -14.5 7.88533
    endloop
  endfacet
  facet normal 0 1 -0
    outer loop
      vertex -12.2555 -14.5 5.4565
      vertex -18.5 -14.5 18
      vertex -11.1344 -14.5 7.3984
    endloop
  endfacet
  facet normal 0 1 0
    outer loop
      vertex -18.5 -14.5 0
      vertex -12.2555 -14.5 5.4565
      vertex -12.9484 -14.5 3.32394
    endloop
  endfacet
  facet normal 0 1 0
    outer loop
      vertex -18.5 -14.5 0
      vertex -12.9484 -14.5 3.32394
      vertex -13.1222 -14.5 2.7892
    endloop
  endfacet
  facet normal 0 1 0
    outer loop
      vertex -18.5 -14.5 0
      vertex -13.1222 -14.5 2.7892
      vertex -13.3566 -14.5 0.559182
    endloop
  endfacet
  facet normal 0 1 0
    outer loop
      vertex -18.5 -14.5 0
      vertex -13.3566 -14.5 0.559182
      vertex -13.4153 -14.5 0
    endloop
  endfacet
  facet normal 0 1 0
    outer loop
      vertex -12.2555 -14.5 5.4565
      vertex -18.5 -14.5 0
      vertex -18.5 -14.5 18
    endloop
  endfacet
endsolid OpenSCAD_Model
