solid OpenSCAD_Model
  facet normal -0.98146 0.141115 0.129702
    outer loop
      vertex -7 15 2
      vertex -7 7.65249 9.99404
      vertex -6.71645 16.9721 2
    endloop
  endfacet
  facet normal -0.540649 0.841248 0
    outer loop
      vertex -2.9079 21.3674 0
      vertex -4.58402 20.2902 2
      vertex -2.9079 21.3674 2
    endloop
  endfacet
  facet normal -0.540649 0.841248 0
    outer loop
      vertex -4.58402 20.2902 2
      vertex -2.9079 21.3674 0
      vertex -4.58402 20.2902 0
    endloop
  endfacet
  facet normal 0.98146 0.141115 0.129702
    outer loop
      vertex 7 15 2
      vertex 6.71645 16.9721 2
      vertex 7 7.65249 9.99404
    endloop
  endfacet
  facet normal 0.909635 0.415409 -2.32656e-17
    outer loop
      vertex 6.71645 16.9721 2
      vertex 5.88877 18.7845 0
      vertex 5.88877 18.7845 2
    endloop
  endfacet
  facet normal 0.909635 0.415409 -2.32656e-17
    outer loop
      vertex 5.88877 18.7845 0
      vertex 6.71645 16.9721 2
      vertex 6.71645 16.9721 0
    endloop
  endfacet
  facet normal -1 0 0
    outer loop
      vertex -7 5.99923 5.62467
      vertex -7 15 2
      vertex -7 15 0
    endloop
  endfacet
  facet normal -1 0 0
    outer loop
      vertex -7 15 2
      vertex -7 6.7 7
      vertex -7 7.65249 9.99404
    endloop
  endfacet
  facet normal -1 0 0
    outer loop
      vertex -7 15 2
      vertex -7 6.6168 6.47467
      vertex -7 6.7 7
    endloop
  endfacet
  facet normal -1 0 0
    outer loop
      vertex -7 15 2
      vertex -7 6.37533 6.00076
      vertex -7 6.6168 6.47467
    endloop
  endfacet
  facet normal -1 0 0
    outer loop
      vertex -7 15 2
      vertex -7 5.99923 5.62467
      vertex -7 6.37533 6.00076
    endloop
  endfacet
  facet normal -1 0 0
    outer loop
      vertex -7 15 0
      vertex -7 5.52533 5.3832
      vertex -7 5.99923 5.62467
    endloop
  endfacet
  facet normal -1 0 0
    outer loop
      vertex -7 0 0
      vertex -7 5.52533 5.3832
      vertex -7 15 0
    endloop
  endfacet
  facet normal -1 0 0
    outer loop
      vertex -7 5.52533 5.3832
      vertex -7 0 0
      vertex -7 5 5.3
    endloop
  endfacet
  facet normal -1 0 0
    outer loop
      vertex -7 0 2
      vertex -7 5 5.3
      vertex -7 0 0
    endloop
  endfacet
  facet normal -1 0 0
    outer loop
      vertex -7 1.25993 8.41842
      vertex -7 3.3 7
      vertex -7 3.3832 6.47467
    endloop
  endfacet
  facet normal -1 0 0
    outer loop
      vertex -7 3.3 7
      vertex -7 1.25993 8.41842
      vertex -7 2.34751 9.99404
    endloop
  endfacet
  facet normal -1 0 0
    outer loop
      vertex -7 0 2
      vertex -7 3.3832 6.47467
      vertex -7 3.62467 6.00076
    endloop
  endfacet
  facet normal -1 -0 0
    outer loop
      vertex -7 5 5.3
      vertex -7 0 2
      vertex -7 4.47467 5.3832
    endloop
  endfacet
  facet normal -1 -0 0
    outer loop
      vertex -7 4.47467 5.3832
      vertex -7 0 2
      vertex -7 4.00076 5.62467
    endloop
  endfacet
  facet normal -1 -0 0
    outer loop
      vertex -7 4.00076 5.62467
      vertex -7 0 2
      vertex -7 3.62467 6.00076
    endloop
  endfacet
  facet normal -1 -0 0
    outer loop
      vertex -7 3.3832 6.47467
      vertex -7 0 2
      vertex -7 1.25993 8.41842
    endloop
  endfacet
  facet normal -1 0 0
    outer loop
      vertex -7 6.6168 7.52533
      vertex -7 7.65249 9.99404
      vertex -7 6.7 7
    endloop
  endfacet
  facet normal -1 0 0
    outer loop
      vertex -7 6.37533 7.99923
      vertex -7 7.65249 9.99404
      vertex -7 6.6168 7.52533
    endloop
  endfacet
  facet normal -1 0 0
    outer loop
      vertex -7 5.99923 8.37533
      vertex -7 7.65249 9.99404
      vertex -7 6.37533 7.99923
    endloop
  endfacet
  facet normal -1 0 0
    outer loop
      vertex -7 5.99923 8.37533
      vertex -7 5.95726 10.8838
      vertex -7 7.65249 9.99404
    endloop
  endfacet
  facet normal -1 0 0
    outer loop
      vertex -7 5.52533 8.6168
      vertex -7 5.95726 10.8838
      vertex -7 5.99923 8.37533
    endloop
  endfacet
  facet normal -1 0 0
    outer loop
      vertex -7 5 8.7
      vertex -7 5.95726 10.8838
      vertex -7 5.52533 8.6168
    endloop
  endfacet
  facet normal -1 0 0
    outer loop
      vertex -7 4.04274 10.8838
      vertex -7 5 8.7
      vertex -7 4.47467 8.6168
    endloop
  endfacet
  facet normal -1 0 0
    outer loop
      vertex -7 5 8.7
      vertex -7 4.04274 10.8838
      vertex -7 5.95726 10.8838
    endloop
  endfacet
  facet normal -1 0 0
    outer loop
      vertex -7 4.00076 8.37533
      vertex -7 4.04274 10.8838
      vertex -7 4.47467 8.6168
    endloop
  endfacet
  facet normal -1 0 0
    outer loop
      vertex -7 2.34751 9.99404
      vertex -7 4.00076 8.37533
      vertex -7 3.62467 7.99923
    endloop
  endfacet
  facet normal -1 0 0
    outer loop
      vertex -7 2.34751 9.99404
      vertex -7 3.62467 7.99923
      vertex -7 3.3832 7.52533
    endloop
  endfacet
  facet normal -1 0 0
    outer loop
      vertex -7 4.00076 8.37533
      vertex -7 2.34751 9.99404
      vertex -7 4.04274 10.8838
    endloop
  endfacet
  facet normal -1 0 0
    outer loop
      vertex -7 2.34751 9.99404
      vertex -7 3.3832 7.52533
      vertex -7 3.3 7
    endloop
  endfacet
  facet normal 5.56193e-18 0.488568 0.872526
    outer loop
      vertex 5.2 11.9327 7.59735
      vertex 5.2 7.65249 9.99404
      vertex 7 7.65249 9.99404
    endloop
  endfacet
  facet normal 5.56193e-18 0.488568 0.872526
    outer loop
      vertex -5.2 11.9327 7.59735
      vertex -7 7.65249 9.99404
      vertex -5.2 7.65249 9.99404
    endloop
  endfacet
  facet normal -4.36743e-17 -0.981273 0.192623
    outer loop
      vertex -7 0 2
      vertex -5.2 1.25993 8.41842
      vertex -7 1.25993 8.41842
    endloop
  endfacet
  facet normal -4.36743e-17 -0.981273 0.192623
    outer loop
      vertex -5.2 1.25993 8.41842
      vertex -7 0 2
      vertex -5.2 0 2
    endloop
  endfacet
  facet normal -4.36743e-17 -0.981273 0.192623
    outer loop
      vertex 5.2 0 2
      vertex 7 1.25993 8.41842
      vertex 5.2 1.25993 8.41842
    endloop
  endfacet
  facet normal -4.36743e-17 -0.981273 0.192623
    outer loop
      vertex 7 1.25993 8.41842
      vertex 5.2 0 2
      vertex 7 0 2
    endloop
  endfacet
  facet normal -0.58817 0.509642 0.62795
    outer loop
      vertex -5.88877 18.7845 2
      vertex -5.2 17.0681 4.03816
      vertex -5.2 19.5794 2
    endloop
  endfacet
  facet normal -0.588154 0.509654 0.627955
    outer loop
      vertex -5.2 17.0681 4.03816
      vertex -5.88877 18.7845 2
      vertex -7 7.65249 9.99404
    endloop
  endfacet
  facet normal 2.01945e-17 -0.822982 0.568068
    outer loop
      vertex -7 1.25993 8.41842
      vertex -5.2 2.34751 9.99404
      vertex -7 2.34751 9.99404
    endloop
  endfacet
  facet normal 2.01945e-17 -0.822982 0.568068
    outer loop
      vertex -5.2 2.34751 9.99404
      vertex -7 1.25993 8.41842
      vertex -5.2 1.25993 8.41842
    endloop
  endfacet
  facet normal 2.01945e-17 -0.822982 0.568068
    outer loop
      vertex 5.2 1.25993 8.41842
      vertex 7 2.34751 9.99404
      vertex 5.2 2.34751 9.99404
    endloop
  endfacet
  facet normal 2.01945e-17 -0.822982 0.568068
    outer loop
      vertex 7 2.34751 9.99404
      vertex 5.2 1.25993 8.41842
      vertex 7 1.25993 8.41842
    endloop
  endfacet
  facet normal 0.281721 0.959496 -0
    outer loop
      vertex 2.9079 21.3674 0
      vertex 0.996203 21.9287 2
      vertex 2.9079 21.3674 2
    endloop
  endfacet
  facet normal 0.281721 0.959496 0
    outer loop
      vertex 0.996203 21.9287 2
      vertex 2.9079 21.3674 0
      vertex 0.996203 21.9287 0
    endloop
  endfacet
  facet normal 0 -0.464737 0.885449
    outer loop
      vertex 5.2 4.04274 10.8838
      vertex 7 2.34751 9.99404
      vertex 7 4.04274 10.8838
    endloop
  endfacet
  facet normal 0 -0.464737 0.885449
    outer loop
      vertex 7 2.34751 9.99404
      vertex 5.2 4.04274 10.8838
      vertex 5.2 2.34751 9.99404
    endloop
  endfacet
  facet normal 0 -0.464737 0.885449
    outer loop
      vertex -7 4.04274 10.8838
      vertex -5.2 2.34751 9.99404
      vertex -5.2 4.04274 10.8838
    endloop
  endfacet
  facet normal 0 -0.464737 0.885449
    outer loop
      vertex -5.2 2.34751 9.99404
      vertex -7 4.04274 10.8838
      vertex -7 2.34751 9.99404
    endloop
  endfacet
  facet normal 0.351867 0.547515 0.759221
    outer loop
      vertex 5.2 17.0681 4.03816
      vertex 5.2 13.6853 6.47768
      vertex 7 7.65249 9.99404
    endloop
  endfacet
  facet normal 0.828886 0.378532 0.4119
    outer loop
      vertex 6.71645 16.9721 2
      vertex 5.88877 18.7845 2
      vertex 7 7.65249 9.99404
    endloop
  endfacet
  facet normal -0 0.464737 0.885449
    outer loop
      vertex 5.2 7.65249 9.99404
      vertex 7 5.95726 10.8838
      vertex 7 7.65249 9.99404
    endloop
  endfacet
  facet normal 0 0.464737 0.885449
    outer loop
      vertex 7 5.95726 10.8838
      vertex 5.2 7.65249 9.99404
      vertex 5.2 5.95726 10.8838
    endloop
  endfacet
  facet normal -0 0.464737 0.885449
    outer loop
      vertex -7 7.65249 9.99404
      vertex -5.2 5.95726 10.8838
      vertex -5.2 7.65249 9.99404
    endloop
  endfacet
  facet normal 0 0.464737 0.885449
    outer loop
      vertex -5.2 5.95726 10.8838
      vertex -7 7.65249 9.99404
      vertex -7 5.95726 10.8838
    endloop
  endfacet
  facet normal 0.755714 0.654902 1.33262e-17
    outer loop
      vertex 5.2 19.5794 2
      vertex 4.58402 20.2902 0
      vertex 4.58402 20.2902 2
    endloop
  endfacet
  facet normal 0.755757 0.654853 -0
    outer loop
      vertex 5.88877 18.7845 0
      vertex 5.2 19.5794 2
      vertex 5.88877 18.7845 2
    endloop
  endfacet
  facet normal 0.755736 0.654876 -1.62586e-05
    outer loop
      vertex 5.2 19.5794 2
      vertex 5.88877 18.7845 0
      vertex 4.58402 20.2902 0
    endloop
  endfacet
  facet normal 0.156195 0.531765 0.832363
    outer loop
      vertex 5.2 13.6853 6.47768
      vertex 5.2 11.9327 7.59735
      vertex 7 7.65249 9.99404
    endloop
  endfacet
  facet normal -0.909635 0.415409 2.32656e-17
    outer loop
      vertex -6.71645 16.9721 0
      vertex -5.88877 18.7845 2
      vertex -5.88877 18.7845 0
    endloop
  endfacet
  facet normal -0.909635 0.415409 2.32656e-17
    outer loop
      vertex -5.88877 18.7845 2
      vertex -6.71645 16.9721 0
      vertex -6.71645 16.9721 2
    endloop
  endfacet
  facet normal 0 1 -0
    outer loop
      vertex 0.996203 21.9287 0
      vertex -0.996203 21.9287 2
      vertex 0.996203 21.9287 2
    endloop
  endfacet
  facet normal 0 1 0
    outer loop
      vertex -0.996203 21.9287 2
      vertex 0.996203 21.9287 0
      vertex -0.996203 21.9287 0
    endloop
  endfacet
  facet normal 0 -1 0
    outer loop
      vertex -7 0 0
      vertex -5.2 0 2
      vertex -7 0 2
    endloop
  endfacet
  facet normal 0 -1 -0
    outer loop
      vertex -5.2 0 2
      vertex -7 0 0
      vertex 5.2 0 2
    endloop
  endfacet
  facet normal 0 -1 0
    outer loop
      vertex 7 0 0
      vertex 5.2 0 2
      vertex -7 0 0
    endloop
  endfacet
  facet normal 0 -1 0
    outer loop
      vertex 5.2 0 2
      vertex 7 0 0
      vertex 7 0 2
    endloop
  endfacet
  facet normal -0 0 1
    outer loop
      vertex 5.2 5.95726 10.8838
      vertex 7 4.04274 10.8838
      vertex 7 5.95726 10.8838
    endloop
  endfacet
  facet normal 0 0 1
    outer loop
      vertex 7 4.04274 10.8838
      vertex 5.2 5.95726 10.8838
      vertex 5.2 4.04274 10.8838
    endloop
  endfacet
  facet normal -0 0 1
    outer loop
      vertex -7 5.95726 10.8838
      vertex -5.2 4.04274 10.8838
      vertex -5.2 5.95726 10.8838
    endloop
  endfacet
  facet normal 0 0 1
    outer loop
      vertex -5.2 4.04274 10.8838
      vertex -7 5.95726 10.8838
      vertex -7 4.04274 10.8838
    endloop
  endfacet
  facet normal 1 0 0
    outer loop
      vertex 7 7.65249 9.99404
      vertex 7 6.6168 7.52533
      vertex 7 6.7 7
    endloop
  endfacet
  facet normal 1 0 0
    outer loop
      vertex 7 7.65249 9.99404
      vertex 7 6.37533 7.99923
      vertex 7 6.6168 7.52533
    endloop
  endfacet
  facet normal 1 0 0
    outer loop
      vertex 7 7.65249 9.99404
      vertex 7 5.99923 8.37533
      vertex 7 6.37533 7.99923
    endloop
  endfacet
  facet normal 1 0 0
    outer loop
      vertex 7 5.95726 10.8838
      vertex 7 5.99923 8.37533
      vertex 7 7.65249 9.99404
    endloop
  endfacet
  facet normal 1 0 0
    outer loop
      vertex 7 5.95726 10.8838
      vertex 7 5.52533 8.6168
      vertex 7 5.99923 8.37533
    endloop
  endfacet
  facet normal 1 0 0
    outer loop
      vertex 7 5.95726 10.8838
      vertex 7 5 8.7
      vertex 7 5.52533 8.6168
    endloop
  endfacet
  facet normal 1 -0 0
    outer loop
      vertex 7 4.04274 10.8838
      vertex 7 5 8.7
      vertex 7 5.95726 10.8838
    endloop
  endfacet
  facet normal 1 0 0
    outer loop
      vertex 7 5 8.7
      vertex 7 4.04274 10.8838
      vertex 7 4.47467 8.6168
    endloop
  endfacet
  facet normal 1 0 0
    outer loop
      vertex 7 4.04274 10.8838
      vertex 7 4.00076 8.37533
      vertex 7 4.47467 8.6168
    endloop
  endfacet
  facet normal 1 -0 0
    outer loop
      vertex 7 2.34751 9.99404
      vertex 7 4.00076 8.37533
      vertex 7 4.04274 10.8838
    endloop
  endfacet
  facet normal 1 0 0
    outer loop
      vertex 7 4.00076 8.37533
      vertex 7 2.34751 9.99404
      vertex 7 3.62467 7.99923
    endloop
  endfacet
  facet normal 1 0 0
    outer loop
      vertex 7 3.62467 7.99923
      vertex 7 1.25993 8.41842
      vertex 7 3.3832 7.52533
    endloop
  endfacet
  facet normal 1 -0 0
    outer loop
      vertex 7 1.25993 8.41842
      vertex 7 3.62467 7.99923
      vertex 7 2.34751 9.99404
    endloop
  endfacet
  facet normal 1 -0 0
    outer loop
      vertex 7 6.7 7
      vertex 7 15 2
      vertex 7 7.65249 9.99404
    endloop
  endfacet
  facet normal 1 -0 0
    outer loop
      vertex 7 6.6168 6.47467
      vertex 7 15 2
      vertex 7 6.7 7
    endloop
  endfacet
  facet normal 1 -0 0
    outer loop
      vertex 7 6.37533 6.00076
      vertex 7 15 2
      vertex 7 6.6168 6.47467
    endloop
  endfacet
  facet normal 1 -0 0
    outer loop
      vertex 7 5.99923 5.62467
      vertex 7 15 2
      vertex 7 6.37533 6.00076
    endloop
  endfacet
  facet normal 1 0 0
    outer loop
      vertex 7 15 2
      vertex 7 5.99923 5.62467
      vertex 7 15 0
    endloop
  endfacet
  facet normal 1 -0 0
    outer loop
      vertex 7 5.52533 5.3832
      vertex 7 15 0
      vertex 7 5.99923 5.62467
    endloop
  endfacet
  facet normal 1 0 0
    outer loop
      vertex 7 0 0
      vertex 7 5.52533 5.3832
      vertex 7 5 5.3
    endloop
  endfacet
  facet normal 1 0 0
    outer loop
      vertex 7 0 2
      vertex 7 5 5.3
      vertex 7 4.47467 5.3832
    endloop
  endfacet
  facet normal 1 0 0
    outer loop
      vertex 7 0 2
      vertex 7 4.47467 5.3832
      vertex 7 4.00076 5.62467
    endloop
  endfacet
  facet normal 1 0 0
    outer loop
      vertex 7 3.3832 7.52533
      vertex 7 1.25993 8.41842
      vertex 7 3.3 7
    endloop
  endfacet
  facet normal 1 0 0
    outer loop
      vertex 7 3.3 7
      vertex 7 1.25993 8.41842
      vertex 7 3.3832 6.47467
    endloop
  endfacet
  facet normal 1 0 0
    outer loop
      vertex 7 0 2
      vertex 7 3.3832 6.47467
      vertex 7 1.25993 8.41842
    endloop
  endfacet
  facet normal 1 0 0
    outer loop
      vertex 7 3.3832 6.47467
      vertex 7 0 2
      vertex 7 3.62467 6.00076
    endloop
  endfacet
  facet normal 1 0 0
    outer loop
      vertex 7 0 2
      vertex 7 4.00076 5.62467
      vertex 7 3.62467 6.00076
    endloop
  endfacet
  facet normal 1 0 0
    outer loop
      vertex 7 5 5.3
      vertex 7 0 2
      vertex 7 0 0
    endloop
  endfacet
  facet normal 1 0 0
    outer loop
      vertex 7 5.52533 5.3832
      vertex 7 0 0
      vertex 7 15 0
    endloop
  endfacet
  facet normal 0.989821 0.142317 -8.37681e-18
    outer loop
      vertex 7 15 2
      vertex 6.71645 16.9721 0
      vertex 6.71645 16.9721 2
    endloop
  endfacet
  facet normal 0.989821 0.142317 -8.37681e-18
    outer loop
      vertex 6.71645 16.9721 0
      vertex 7 15 2
      vertex 7 15 0
    endloop
  endfacet
  facet normal 0.540649 0.841248 -0
    outer loop
      vertex 4.58402 20.2902 0
      vertex 2.9079 21.3674 2
      vertex 4.58402 20.2902 2
    endloop
  endfacet
  facet normal 0.540649 0.841248 0
    outer loop
      vertex 2.9079 21.3674 2
      vertex 4.58402 20.2902 0
      vertex 2.9079 21.3674 0
    endloop
  endfacet
  facet normal -0.156195 0.531765 0.832363
    outer loop
      vertex -5.2 13.6853 6.47768
      vertex -7 7.65249 9.99404
      vertex -5.2 11.9327 7.59735
    endloop
  endfacet
  facet normal -0.281721 0.959496 0
    outer loop
      vertex -0.996203 21.9287 0
      vertex -2.9079 21.3674 2
      vertex -0.996203 21.9287 2
    endloop
  endfacet
  facet normal -0.281721 0.959496 0
    outer loop
      vertex -2.9079 21.3674 2
      vertex -0.996203 21.9287 0
      vertex -2.9079 21.3674 0
    endloop
  endfacet
  facet normal -0.755714 0.654902 0
    outer loop
      vertex -4.58402 20.2902 0
      vertex -5.2 19.5794 2
      vertex -4.58402 20.2902 2
    endloop
  endfacet
  facet normal -0.755736 0.654876 -1.62586e-05
    outer loop
      vertex -5.88877 18.7845 0
      vertex -5.2 19.5794 2
      vertex -4.58402 20.2902 0
    endloop
  endfacet
  facet normal -0.755757 0.654853 1.55869e-18
    outer loop
      vertex -5.2 19.5794 2
      vertex -5.88877 18.7845 0
      vertex -5.88877 18.7845 2
    endloop
  endfacet
  facet normal -0.351867 0.547515 0.759221
    outer loop
      vertex -5.2 17.0681 4.03816
      vertex -7 7.65249 9.99404
      vertex -5.2 13.6853 6.47768
    endloop
  endfacet
  facet normal -0.828886 0.378532 0.4119
    outer loop
      vertex -6.71645 16.9721 2
      vertex -7 7.65249 9.99404
      vertex -5.88877 18.7845 2
    endloop
  endfacet
  facet normal 0 0 -1
    outer loop
      vertex 0.999234 13.6247 0
      vertex 7 15 0
      vertex 7 0 0
    endloop
  endfacet
  facet normal 0 -0 -1
    outer loop
      vertex 1.6168 14.4747 0
      vertex 7 15 0
      vertex 1.37533 14.0008 0
    endloop
  endfacet
  facet normal 0 0 -1
    outer loop
      vertex 7 15 0
      vertex 1.7 15 0
      vertex 6.71645 16.9721 0
    endloop
  endfacet
  facet normal 0 0 -1
    outer loop
      vertex 1.6168 15.5253 0
      vertex 6.71645 16.9721 0
      vertex 1.7 15 0
    endloop
  endfacet
  facet normal 0 0 -1
    outer loop
      vertex 1.37533 15.9992 0
      vertex 5.88877 18.7845 0
      vertex 1.6168 15.5253 0
    endloop
  endfacet
  facet normal -0 0 -1
    outer loop
      vertex 6.71645 16.9721 0
      vertex 1.6168 15.5253 0
      vertex 5.88877 18.7845 0
    endloop
  endfacet
  facet normal 0 -0 -1
    outer loop
      vertex 1.7 15 0
      vertex 7 15 0
      vertex 1.6168 14.4747 0
    endloop
  endfacet
  facet normal 0 0 -1
    outer loop
      vertex 7 15 0
      vertex 0.999234 13.6247 0
      vertex 1.37533 14.0008 0
    endloop
  endfacet
  facet normal 0 0 -1
    outer loop
      vertex 7 0 0
      vertex 0.525329 13.3832 0
      vertex 0.999234 13.6247 0
    endloop
  endfacet
  facet normal 0 0 -1
    outer loop
      vertex 7 0 0
      vertex 0 13.3 0
      vertex 0.525329 13.3832 0
    endloop
  endfacet
  facet normal 0 0 -1
    outer loop
      vertex -7 0 0
      vertex 0 13.3 0
      vertex 7 0 0
    endloop
  endfacet
  facet normal -0 0 -1
    outer loop
      vertex 0 13.3 0
      vertex -7 0 0
      vertex -0.525329 13.3832 0
    endloop
  endfacet
  facet normal -0 0 -1
    outer loop
      vertex -0.525329 13.3832 0
      vertex -7 0 0
      vertex -0.999234 13.6247 0
    endloop
  endfacet
  facet normal 0 0 -1
    outer loop
      vertex -7 15 0
      vertex -1.7 15 0
      vertex -1.6168 14.4747 0
    endloop
  endfacet
  facet normal 0 0 -1
    outer loop
      vertex -1.7 15 0
      vertex -4.58402 20.2902 0
      vertex -2.9079 21.3674 0
    endloop
  endfacet
  facet normal 0 0 -1
    outer loop
      vertex -7 15 0
      vertex -1.6168 14.4747 0
      vertex -1.37533 14.0008 0
    endloop
  endfacet
  facet normal 0 0 -1
    outer loop
      vertex -1.7 15 0
      vertex -5.88877 18.7845 0
      vertex -4.58402 20.2902 0
    endloop
  endfacet
  facet normal 0 0 -1
    outer loop
      vertex -7 15 0
      vertex -0.999234 13.6247 0
      vertex -7 0 0
    endloop
  endfacet
  facet normal 0 0 -1
    outer loop
      vertex -1.7 15 0
      vertex -7 15 0
      vertex -6.71645 16.9721 0
    endloop
  endfacet
  facet normal 0 0 -1
    outer loop
      vertex -0.999234 13.6247 0
      vertex -7 15 0
      vertex -1.37533 14.0008 0
    endloop
  endfacet
  facet normal 0 0 -1
    outer loop
      vertex -1.7 15 0
      vertex -6.71645 16.9721 0
      vertex -5.88877 18.7845 0
    endloop
  endfacet
  facet normal -0 0 -1
    outer loop
      vertex 5.88877 18.7845 0
      vertex 1.37533 15.9992 0
      vertex 4.58402 20.2902 0
    endloop
  endfacet
  facet normal 0 0 -1
    outer loop
      vertex 0.999234 16.3753 0
      vertex 4.58402 20.2902 0
      vertex 1.37533 15.9992 0
    endloop
  endfacet
  facet normal -0 0 -1
    outer loop
      vertex 4.58402 20.2902 0
      vertex 0.999234 16.3753 0
      vertex 2.9079 21.3674 0
    endloop
  endfacet
  facet normal 0 0 -1
    outer loop
      vertex 0.525329 16.6168 0
      vertex 2.9079 21.3674 0
      vertex 0.999234 16.3753 0
    endloop
  endfacet
  facet normal -0 0 -1
    outer loop
      vertex 2.9079 21.3674 0
      vertex 0.525329 16.6168 0
      vertex 0.996203 21.9287 0
    endloop
  endfacet
  facet normal 0 0 -1
    outer loop
      vertex 0 16.7 0
      vertex 0.996203 21.9287 0
      vertex 0.525329 16.6168 0
    endloop
  endfacet
  facet normal 0 0 -1
    outer loop
      vertex -0.996203 21.9287 0
      vertex 0 16.7 0
      vertex -0.525329 16.6168 0
    endloop
  endfacet
  facet normal 0 0 -1
    outer loop
      vertex 0 16.7 0
      vertex -0.996203 21.9287 0
      vertex 0.996203 21.9287 0
    endloop
  endfacet
  facet normal 0 0 -1
    outer loop
      vertex -2.9079 21.3674 0
      vertex -0.525329 16.6168 0
      vertex -0.999234 16.3753 0
    endloop
  endfacet
  facet normal 0 0 -1
    outer loop
      vertex -2.9079 21.3674 0
      vertex -0.999234 16.3753 0
      vertex -1.37533 15.9992 0
    endloop
  endfacet
  facet normal 0 0 -1
    outer loop
      vertex -2.9079 21.3674 0
      vertex -1.37533 15.9992 0
      vertex -1.6168 15.5253 0
    endloop
  endfacet
  facet normal 0 0 -1
    outer loop
      vertex -2.9079 21.3674 0
      vertex -1.6168 15.5253 0
      vertex -1.7 15 0
    endloop
  endfacet
  facet normal 0 0 -1
    outer loop
      vertex -0.525329 16.6168 0
      vertex -2.9079 21.3674 0
      vertex -0.996203 21.9287 0
    endloop
  endfacet
  facet normal -0.989821 0.142317 8.37681e-18
    outer loop
      vertex -7 15 0
      vertex -6.71645 16.9721 2
      vertex -6.71645 16.9721 0
    endloop
  endfacet
  facet normal -0.989821 0.142317 8.37681e-18
    outer loop
      vertex -6.71645 16.9721 2
      vertex -7 15 0
      vertex -7 15 2
    endloop
  endfacet
  facet normal 0.58817 0.509642 0.62795
    outer loop
      vertex 5.2 17.0681 4.03816
      vertex 5.88877 18.7845 2
      vertex 5.2 19.5794 2
    endloop
  endfacet
  facet normal 0.588154 0.509654 0.627955
    outer loop
      vertex 5.88877 18.7845 2
      vertex 5.2 17.0681 4.03816
      vertex 7 7.65249 9.99404
    endloop
  endfacet
  facet normal -5.85556e-18 0.891006 0.453992
    outer loop
      vertex -5.2 3.62467 6.00076
      vertex -7 3.3832 6.47467
      vertex -5.2 3.3832 6.47467
    endloop
  endfacet
  facet normal -5.85556e-18 0.891006 0.453992
    outer loop
      vertex -7 3.3832 6.47467
      vertex -5.2 3.62467 6.00076
      vertex -7 3.62467 6.00076
    endloop
  endfacet
  facet normal -5.85556e-18 0.891006 0.453992
    outer loop
      vertex 7 3.62467 6.00076
      vertex 5.2 3.3832 6.47467
      vertex 7 3.3832 6.47467
    endloop
  endfacet
  facet normal -5.85556e-18 0.891006 0.453992
    outer loop
      vertex 5.2 3.3832 6.47467
      vertex 7 3.62467 6.00076
      vertex 5.2 3.62467 6.00076
    endloop
  endfacet
  facet normal 0 -0.156427 0.98769
    outer loop
      vertex -7 5.52533 5.3832
      vertex -5.2 5 5.3
      vertex -5.2 5.52533 5.3832
    endloop
  endfacet
  facet normal 0 -0.156427 0.98769
    outer loop
      vertex -5.2 5 5.3
      vertex -7 5.52533 5.3832
      vertex -7 5 5.3
    endloop
  endfacet
  facet normal 0 -0.156427 0.98769
    outer loop
      vertex 5.2 5.52533 5.3832
      vertex 7 5 5.3
      vertex 7 5.52533 5.3832
    endloop
  endfacet
  facet normal 0 -0.156427 0.98769
    outer loop
      vertex 7 5 5.3
      vertex 5.2 5.52533 5.3832
      vertex 5.2 5 5.3
    endloop
  endfacet
  facet normal 4.66601e-19 0.98769 -0.156427
    outer loop
      vertex -5.2 3.3 7
      vertex -7 3.3832 7.52533
      vertex -5.2 3.3832 7.52533
    endloop
  endfacet
  facet normal 4.66601e-19 0.98769 -0.156427
    outer loop
      vertex -7 3.3832 7.52533
      vertex -5.2 3.3 7
      vertex -7 3.3 7
    endloop
  endfacet
  facet normal 4.66601e-19 0.98769 -0.156427
    outer loop
      vertex 7 3.3 7
      vertex 5.2 3.3832 7.52533
      vertex 7 3.3832 7.52533
    endloop
  endfacet
  facet normal 4.66601e-19 0.98769 -0.156427
    outer loop
      vertex 5.2 3.3832 7.52533
      vertex 7 3.3 7
      vertex 5.2 3.3 7
    endloop
  endfacet
  facet normal -0 0.453992 0.891006
    outer loop
      vertex -7 4.47467 5.3832
      vertex -5.2 4.00076 5.62467
      vertex -5.2 4.47467 5.3832
    endloop
  endfacet
  facet normal 0 0.453992 0.891006
    outer loop
      vertex -5.2 4.00076 5.62467
      vertex -7 4.47467 5.3832
      vertex -7 4.00076 5.62467
    endloop
  endfacet
  facet normal -0 0.453992 0.891006
    outer loop
      vertex 5.2 4.47467 5.3832
      vertex 7 4.00076 5.62467
      vertex 7 4.47467 5.3832
    endloop
  endfacet
  facet normal 0 0.453992 0.891006
    outer loop
      vertex 7 4.00076 5.62467
      vertex 5.2 4.47467 5.3832
      vertex 5.2 4.00076 5.62467
    endloop
  endfacet
  facet normal -5.76901e-18 0.707107 0.707107
    outer loop
      vertex -5.2 4.00076 5.62467
      vertex -7 3.62467 6.00076
      vertex -5.2 3.62467 6.00076
    endloop
  endfacet
  facet normal -5.76901e-18 0.707107 0.707107
    outer loop
      vertex -7 3.62467 6.00076
      vertex -5.2 4.00076 5.62467
      vertex -7 4.00076 5.62467
    endloop
  endfacet
  facet normal -5.76901e-18 0.707107 0.707107
    outer loop
      vertex 7 4.00076 5.62467
      vertex 5.2 3.62467 6.00076
      vertex 7 3.62467 6.00076
    endloop
  endfacet
  facet normal -5.76901e-18 0.707107 0.707107
    outer loop
      vertex 5.2 3.62467 6.00076
      vertex 7 4.00076 5.62467
      vertex 5.2 4.00076 5.62467
    endloop
  endfacet
  facet normal -0 0.156427 0.98769
    outer loop
      vertex -7 5 5.3
      vertex -5.2 4.47467 5.3832
      vertex -5.2 5 5.3
    endloop
  endfacet
  facet normal 0 0.156427 0.98769
    outer loop
      vertex -5.2 4.47467 5.3832
      vertex -7 5 5.3
      vertex -7 4.47467 5.3832
    endloop
  endfacet
  facet normal -0 0.156427 0.98769
    outer loop
      vertex 5.2 5 5.3
      vertex 7 4.47467 5.3832
      vertex 7 5 5.3
    endloop
  endfacet
  facet normal 0 0.156427 0.98769
    outer loop
      vertex 7 4.47467 5.3832
      vertex 5.2 5 5.3
      vertex 5.2 4.47467 5.3832
    endloop
  endfacet
  facet normal 1.32202e-18 -0.707107 -0.707107
    outer loop
      vertex -7 6.37533 7.99923
      vertex -5.2 5.99923 8.37533
      vertex -7 5.99923 8.37533
    endloop
  endfacet
  facet normal 1.32202e-18 -0.707107 -0.707107
    outer loop
      vertex -5.2 5.99923 8.37533
      vertex -7 6.37533 7.99923
      vertex -5.2 6.37533 7.99923
    endloop
  endfacet
  facet normal 1.32202e-18 -0.707107 -0.707107
    outer loop
      vertex 5.2 6.37533 7.99923
      vertex 7 5.99923 8.37533
      vertex 5.2 5.99923 8.37533
    endloop
  endfacet
  facet normal 1.32202e-18 -0.707107 -0.707107
    outer loop
      vertex 7 5.99923 8.37533
      vertex 5.2 6.37533 7.99923
      vertex 7 6.37533 7.99923
    endloop
  endfacet
  facet normal 2.27944e-18 -0.98769 -0.156427
    outer loop
      vertex -7 6.7 7
      vertex -5.2 6.6168 7.52533
      vertex -7 6.6168 7.52533
    endloop
  endfacet
  facet normal 2.27944e-18 -0.98769 -0.156427
    outer loop
      vertex -5.2 6.6168 7.52533
      vertex -7 6.7 7
      vertex -5.2 6.7 7
    endloop
  endfacet
  facet normal 2.27944e-18 -0.98769 -0.156427
    outer loop
      vertex 5.2 6.7 7
      vertex 7 6.6168 7.52533
      vertex 5.2 6.6168 7.52533
    endloop
  endfacet
  facet normal 2.27944e-18 -0.98769 -0.156427
    outer loop
      vertex 7 6.6168 7.52533
      vertex 5.2 6.7 7
      vertex 7 6.7 7
    endloop
  endfacet
  facet normal -4.66601e-19 0.98769 0.156427
    outer loop
      vertex -5.2 3.3832 6.47467
      vertex -7 3.3 7
      vertex -5.2 3.3 7
    endloop
  endfacet
  facet normal -4.66601e-19 0.98769 0.156427
    outer loop
      vertex -7 3.3 7
      vertex -5.2 3.3832 6.47467
      vertex -7 3.3832 6.47467
    endloop
  endfacet
  facet normal -4.66601e-19 0.98769 0.156427
    outer loop
      vertex 7 3.3832 6.47467
      vertex 5.2 3.3 7
      vertex 7 3.3 7
    endloop
  endfacet
  facet normal -4.66601e-19 0.98769 0.156427
    outer loop
      vertex 5.2 3.3 7
      vertex 7 3.3832 6.47467
      vertex 5.2 3.3832 6.47467
    endloop
  endfacet
  facet normal 0 0.453992 -0.891006
    outer loop
      vertex -7 4.00076 8.37533
      vertex -5.2 4.47467 8.6168
      vertex -5.2 4.00076 8.37533
    endloop
  endfacet
  facet normal 0 0.453992 -0.891006
    outer loop
      vertex -5.2 4.47467 8.6168
      vertex -7 4.00076 8.37533
      vertex -7 4.47467 8.6168
    endloop
  endfacet
  facet normal 0 0.453992 -0.891006
    outer loop
      vertex 5.2 4.00076 8.37533
      vertex 7 4.47467 8.6168
      vertex 7 4.00076 8.37533
    endloop
  endfacet
  facet normal 0 0.453992 -0.891006
    outer loop
      vertex 7 4.47467 8.6168
      vertex 5.2 4.00076 8.37533
      vertex 5.2 4.47467 8.6168
    endloop
  endfacet
  facet normal 0 -0.453999 0.891002
    outer loop
      vertex -7 5.99923 5.62467
      vertex -5.2 5.52533 5.3832
      vertex -5.2 5.99923 5.62467
    endloop
  endfacet
  facet normal 0 -0.453999 0.891002
    outer loop
      vertex -5.2 5.52533 5.3832
      vertex -7 5.99923 5.62467
      vertex -7 5.52533 5.3832
    endloop
  endfacet
  facet normal 0 -0.453999 0.891002
    outer loop
      vertex 5.2 5.99923 5.62467
      vertex 7 5.52533 5.3832
      vertex 7 5.99923 5.62467
    endloop
  endfacet
  facet normal 0 -0.453999 0.891002
    outer loop
      vertex 7 5.52533 5.3832
      vertex 5.2 5.99923 5.62467
      vertex 5.2 5.52533 5.3832
    endloop
  endfacet
  facet normal -7.95626e-18 0.707116 -0.707097
    outer loop
      vertex -5.2 3.62467 7.99923
      vertex -7 4.00076 8.37533
      vertex -5.2 4.00076 8.37533
    endloop
  endfacet
  facet normal -7.95626e-18 0.707116 -0.707097
    outer loop
      vertex -7 4.00076 8.37533
      vertex -5.2 3.62467 7.99923
      vertex -7 3.62467 7.99923
    endloop
  endfacet
  facet normal -7.95626e-18 0.707116 -0.707097
    outer loop
      vertex 7 3.62467 7.99923
      vertex 5.2 4.00076 8.37533
      vertex 7 4.00076 8.37533
    endloop
  endfacet
  facet normal -7.95626e-18 0.707116 -0.707097
    outer loop
      vertex 5.2 4.00076 8.37533
      vertex 7 3.62467 7.99923
      vertex 5.2 3.62467 7.99923
    endloop
  endfacet
  facet normal -2.27944e-18 -0.98769 0.156427
    outer loop
      vertex -7 6.6168 6.47467
      vertex -5.2 6.7 7
      vertex -7 6.7 7
    endloop
  endfacet
  facet normal -2.27944e-18 -0.98769 0.156427
    outer loop
      vertex -5.2 6.7 7
      vertex -7 6.6168 6.47467
      vertex -5.2 6.6168 6.47467
    endloop
  endfacet
  facet normal -2.27944e-18 -0.98769 0.156427
    outer loop
      vertex 5.2 6.6168 6.47467
      vertex 7 6.7 7
      vertex 5.2 6.7 7
    endloop
  endfacet
  facet normal -2.27944e-18 -0.98769 0.156427
    outer loop
      vertex 7 6.7 7
      vertex 5.2 6.6168 6.47467
      vertex 7 6.6168 6.47467
    endloop
  endfacet
  facet normal 0 -0.453999 -0.891002
    outer loop
      vertex -7 5.52533 8.6168
      vertex -5.2 5.99923 8.37533
      vertex -5.2 5.52533 8.6168
    endloop
  endfacet
  facet normal -0 -0.453999 -0.891002
    outer loop
      vertex -5.2 5.99923 8.37533
      vertex -7 5.52533 8.6168
      vertex -7 5.99923 8.37533
    endloop
  endfacet
  facet normal 0 -0.453999 -0.891002
    outer loop
      vertex 5.2 5.52533 8.6168
      vertex 7 5.99923 8.37533
      vertex 7 5.52533 8.6168
    endloop
  endfacet
  facet normal -0 -0.453999 -0.891002
    outer loop
      vertex 7 5.99923 8.37533
      vertex 5.2 5.52533 8.6168
      vertex 5.2 5.99923 8.37533
    endloop
  endfacet
  facet normal 0 0.156427 -0.98769
    outer loop
      vertex -7 4.47467 8.6168
      vertex -5.2 5 8.7
      vertex -5.2 4.47467 8.6168
    endloop
  endfacet
  facet normal 0 0.156427 -0.98769
    outer loop
      vertex -5.2 5 8.7
      vertex -7 4.47467 8.6168
      vertex -7 5 8.7
    endloop
  endfacet
  facet normal 0 0.156427 -0.98769
    outer loop
      vertex 5.2 4.47467 8.6168
      vertex 7 5 8.7
      vertex 7 4.47467 8.6168
    endloop
  endfacet
  facet normal 0 0.156427 -0.98769
    outer loop
      vertex 7 5 8.7
      vertex 5.2 4.47467 8.6168
      vertex 5.2 5 8.7
    endloop
  endfacet
  facet normal 2.20892e-18 0.891002 -0.453999
    outer loop
      vertex -5.2 3.3832 7.52533
      vertex -7 3.62467 7.99923
      vertex -5.2 3.62467 7.99923
    endloop
  endfacet
  facet normal 2.20892e-18 0.891002 -0.453999
    outer loop
      vertex -7 3.62467 7.99923
      vertex -5.2 3.3832 7.52533
      vertex -7 3.3832 7.52533
    endloop
  endfacet
  facet normal 2.20892e-18 0.891002 -0.453999
    outer loop
      vertex 7 3.3832 7.52533
      vertex 5.2 3.62467 7.99923
      vertex 7 3.62467 7.99923
    endloop
  endfacet
  facet normal 2.20892e-18 0.891002 -0.453999
    outer loop
      vertex 5.2 3.62467 7.99923
      vertex 7 3.3832 7.52533
      vertex 5.2 3.3832 7.52533
    endloop
  endfacet
  facet normal 3.46206e-18 -0.891006 0.453992
    outer loop
      vertex -7 6.37533 6.00076
      vertex -5.2 6.6168 6.47467
      vertex -7 6.6168 6.47467
    endloop
  endfacet
  facet normal 3.46206e-18 -0.891006 0.453992
    outer loop
      vertex -5.2 6.6168 6.47467
      vertex -7 6.37533 6.00076
      vertex -5.2 6.37533 6.00076
    endloop
  endfacet
  facet normal 3.46206e-18 -0.891006 0.453992
    outer loop
      vertex 5.2 6.37533 6.00076
      vertex 7 6.6168 6.47467
      vertex 5.2 6.6168 6.47467
    endloop
  endfacet
  facet normal 3.46206e-18 -0.891006 0.453992
    outer loop
      vertex 7 6.6168 6.47467
      vertex 5.2 6.37533 6.00076
      vertex 7 6.37533 6.00076
    endloop
  endfacet
  facet normal 1.79971e-19 -0.891002 -0.453999
    outer loop
      vertex -7 6.6168 7.52533
      vertex -5.2 6.37533 7.99923
      vertex -7 6.37533 7.99923
    endloop
  endfacet
  facet normal 1.79971e-19 -0.891002 -0.453999
    outer loop
      vertex -5.2 6.37533 7.99923
      vertex -7 6.6168 7.52533
      vertex -5.2 6.6168 7.52533
    endloop
  endfacet
  facet normal 1.79971e-19 -0.891002 -0.453999
    outer loop
      vertex 5.2 6.6168 7.52533
      vertex 7 6.37533 7.99923
      vertex 5.2 6.37533 7.99923
    endloop
  endfacet
  facet normal 1.79971e-19 -0.891002 -0.453999
    outer loop
      vertex 7 6.37533 7.99923
      vertex 5.2 6.6168 7.52533
      vertex 7 6.6168 7.52533
    endloop
  endfacet
  facet normal 0 -0.156427 -0.98769
    outer loop
      vertex -7 5 8.7
      vertex -5.2 5.52533 8.6168
      vertex -5.2 5 8.7
    endloop
  endfacet
  facet normal -0 -0.156427 -0.98769
    outer loop
      vertex -5.2 5.52533 8.6168
      vertex -7 5 8.7
      vertex -7 5.52533 8.6168
    endloop
  endfacet
  facet normal 0 -0.156427 -0.98769
    outer loop
      vertex 5.2 5 8.7
      vertex 7 5.52533 8.6168
      vertex 7 5 8.7
    endloop
  endfacet
  facet normal -0 -0.156427 -0.98769
    outer loop
      vertex 7 5.52533 8.6168
      vertex 5.2 5 8.7
      vertex 5.2 5.52533 8.6168
    endloop
  endfacet
  facet normal -7.95626e-18 -0.707097 0.707116
    outer loop
      vertex -7 5.99923 5.62467
      vertex -5.2 6.37533 6.00076
      vertex -7 6.37533 6.00076
    endloop
  endfacet
  facet normal -7.95626e-18 -0.707097 0.707116
    outer loop
      vertex -5.2 6.37533 6.00076
      vertex -7 5.99923 5.62467
      vertex -5.2 5.99923 5.62467
    endloop
  endfacet
  facet normal -7.95626e-18 -0.707097 0.707116
    outer loop
      vertex 5.2 5.99923 5.62467
      vertex 7 6.37533 6.00076
      vertex 5.2 6.37533 6.00076
    endloop
  endfacet
  facet normal -7.95626e-18 -0.707097 0.707116
    outer loop
      vertex 7 6.37533 6.00076
      vertex 5.2 5.99923 5.62467
      vertex 7 5.99923 5.62467
    endloop
  endfacet
  facet normal -1 0 0
    outer loop
      vertex 5.2 5.52533 5.3832
      vertex 5.2 17.0681 4.03816
      vertex 5.2 19.5794 2
    endloop
  endfacet
  facet normal -1 0 0
    outer loop
      vertex 5.2 17.0681 4.03816
      vertex 5.2 5.99923 5.62467
      vertex 5.2 13.6853 6.47768
    endloop
  endfacet
  facet normal -1 0 -0
    outer loop
      vertex 5.2 6.37533 6.00076
      vertex 5.2 13.6853 6.47768
      vertex 5.2 5.99923 5.62467
    endloop
  endfacet
  facet normal -1 0 0
    outer loop
      vertex 5.2 6.6168 7.52533
      vertex 5.2 11.9327 7.59735
      vertex 5.2 6.7 7
    endloop
  endfacet
  facet normal -1 0 0
    outer loop
      vertex 5.2 11.9327 7.59735
      vertex 5.2 6.6168 6.47467
      vertex 5.2 6.7 7
    endloop
  endfacet
  facet normal -1 0 0
    outer loop
      vertex 5.2 11.9327 7.59735
      vertex 5.2 6.37533 6.00076
      vertex 5.2 6.6168 6.47467
    endloop
  endfacet
  facet normal -1 -0 0
    outer loop
      vertex 5.2 13.6853 6.47768
      vertex 5.2 6.37533 6.00076
      vertex 5.2 11.9327 7.59735
    endloop
  endfacet
  facet normal -1 0 0
    outer loop
      vertex 5.2 17.0681 4.03816
      vertex 5.2 5.52533 5.3832
      vertex 5.2 5.99923 5.62467
    endloop
  endfacet
  facet normal -1 0 0
    outer loop
      vertex 5.2 0 2
      vertex 5.2 5.52533 5.3832
      vertex 5.2 19.5794 2
    endloop
  endfacet
  facet normal -1 0 0
    outer loop
      vertex 5.2 5.52533 5.3832
      vertex 5.2 0 2
      vertex 5.2 5 5.3
    endloop
  endfacet
  facet normal -1 0 0
    outer loop
      vertex 5.2 1.25993 8.41842
      vertex 5.2 3.3 7
      vertex 5.2 3.3832 6.47467
    endloop
  endfacet
  facet normal -1 0 0
    outer loop
      vertex 5.2 3.3 7
      vertex 5.2 1.25993 8.41842
      vertex 5.2 2.34751 9.99404
    endloop
  endfacet
  facet normal -1 0 0
    outer loop
      vertex 5.2 0 2
      vertex 5.2 3.3832 6.47467
      vertex 5.2 3.62467 6.00076
    endloop
  endfacet
  facet normal -1 -0 0
    outer loop
      vertex 5.2 3.3832 6.47467
      vertex 5.2 0 2
      vertex 5.2 1.25993 8.41842
    endloop
  endfacet
  facet normal -1 -0 0
    outer loop
      vertex 5.2 4.00076 5.62467
      vertex 5.2 0 2
      vertex 5.2 3.62467 6.00076
    endloop
  endfacet
  facet normal -1 -0 0
    outer loop
      vertex 5.2 4.47467 5.3832
      vertex 5.2 0 2
      vertex 5.2 4.00076 5.62467
    endloop
  endfacet
  facet normal -1 -0 0
    outer loop
      vertex 5.2 5 5.3
      vertex 5.2 0 2
      vertex 5.2 4.47467 5.3832
    endloop
  endfacet
  facet normal -1 -0 0
    outer loop
      vertex 5.2 11.9327 7.59735
      vertex 5.2 6.6168 7.52533
      vertex 5.2 7.65249 9.99404
    endloop
  endfacet
  facet normal -1 0 0
    outer loop
      vertex 5.2 6.37533 7.99923
      vertex 5.2 7.65249 9.99404
      vertex 5.2 6.6168 7.52533
    endloop
  endfacet
  facet normal -1 0 0
    outer loop
      vertex 5.2 5.99923 8.37533
      vertex 5.2 7.65249 9.99404
      vertex 5.2 6.37533 7.99923
    endloop
  endfacet
  facet normal -1 0 0
    outer loop
      vertex 5.2 5.99923 8.37533
      vertex 5.2 5.95726 10.8838
      vertex 5.2 7.65249 9.99404
    endloop
  endfacet
  facet normal -1 0 0
    outer loop
      vertex 5.2 5.52533 8.6168
      vertex 5.2 5.95726 10.8838
      vertex 5.2 5.99923 8.37533
    endloop
  endfacet
  facet normal -1 0 0
    outer loop
      vertex 5.2 5 8.7
      vertex 5.2 5.95726 10.8838
      vertex 5.2 5.52533 8.6168
    endloop
  endfacet
  facet normal -1 0 0
    outer loop
      vertex 5.2 4.04274 10.8838
      vertex 5.2 5 8.7
      vertex 5.2 4.47467 8.6168
    endloop
  endfacet
  facet normal -1 0 0
    outer loop
      vertex 5.2 5 8.7
      vertex 5.2 4.04274 10.8838
      vertex 5.2 5.95726 10.8838
    endloop
  endfacet
  facet normal -1 0 0
    outer loop
      vertex 5.2 4.00076 8.37533
      vertex 5.2 4.04274 10.8838
      vertex 5.2 4.47467 8.6168
    endloop
  endfacet
  facet normal -1 0 0
    outer loop
      vertex 5.2 2.34751 9.99404
      vertex 5.2 4.00076 8.37533
      vertex 5.2 3.62467 7.99923
    endloop
  endfacet
  facet normal -1 0 0
    outer loop
      vertex 5.2 2.34751 9.99404
      vertex 5.2 3.62467 7.99923
      vertex 5.2 3.3832 7.52533
    endloop
  endfacet
  facet normal -1 0 0
    outer loop
      vertex 5.2 4.00076 8.37533
      vertex 5.2 2.34751 9.99404
      vertex 5.2 4.04274 10.8838
    endloop
  endfacet
  facet normal -1 0 0
    outer loop
      vertex 5.2 2.34751 9.99404
      vertex 5.2 3.3832 7.52533
      vertex 5.2 3.3 7
    endloop
  endfacet
  facet normal 0 0 1
    outer loop
      vertex 5.2 19.5794 2
      vertex 1.6168 15.5253 2
      vertex 1.7 15 2
    endloop
  endfacet
  facet normal 0 0 1
    outer loop
      vertex 4.58402 20.2902 2
      vertex 1.37533 15.9992 2
      vertex 1.6168 15.5253 2
    endloop
  endfacet
  facet normal 0 0 1
    outer loop
      vertex 4.58402 20.2902 2
      vertex 0.999234 16.3753 2
      vertex 1.37533 15.9992 2
    endloop
  endfacet
  facet normal 0 0 1
    outer loop
      vertex 0.525329 16.6168 2
      vertex 2.9079 21.3674 2
      vertex 0.996203 21.9287 2
    endloop
  endfacet
  facet normal 0 0 1
    outer loop
      vertex 2.9079 21.3674 2
      vertex 0.525329 16.6168 2
      vertex 0.999234 16.3753 2
    endloop
  endfacet
  facet normal 0 0 1
    outer loop
      vertex 0.996203 21.9287 2
      vertex 0 16.7 2
      vertex 0.525329 16.6168 2
    endloop
  endfacet
  facet normal -0 0 1
    outer loop
      vertex -0.996203 21.9287 2
      vertex 0 16.7 2
      vertex 0.996203 21.9287 2
    endloop
  endfacet
  facet normal 0 0 1
    outer loop
      vertex 0 16.7 2
      vertex -0.996203 21.9287 2
      vertex -0.525329 16.6168 2
    endloop
  endfacet
  facet normal -0 0 1
    outer loop
      vertex -2.9079 21.3674 2
      vertex -0.525329 16.6168 2
      vertex -0.996203 21.9287 2
    endloop
  endfacet
  facet normal 0 0 1
    outer loop
      vertex -0.525329 16.6168 2
      vertex -2.9079 21.3674 2
      vertex -0.999234 16.3753 2
    endloop
  endfacet
  facet normal -0 0 1
    outer loop
      vertex -4.58402 20.2902 2
      vertex -0.999234 16.3753 2
      vertex -2.9079 21.3674 2
    endloop
  endfacet
  facet normal -0 0 1
    outer loop
      vertex -5.2 19.5794 2
      vertex -0.999234 16.3753 2
      vertex -4.58402 20.2902 2
    endloop
  endfacet
  facet normal 0 0 1
    outer loop
      vertex -0.999234 16.3753 2
      vertex -5.2 19.5794 2
      vertex -1.37533 15.9992 2
    endloop
  endfacet
  facet normal 0 0 1
    outer loop
      vertex 1.6168 15.5253 2
      vertex 5.2 19.5794 2
      vertex 4.58402 20.2902 2
    endloop
  endfacet
  facet normal 0 0 1
    outer loop
      vertex 0.999234 16.3753 2
      vertex 4.58402 20.2902 2
      vertex 2.9079 21.3674 2
    endloop
  endfacet
  facet normal 0 0 1
    outer loop
      vertex 5.2 19.5794 2
      vertex 1.7 15 2
      vertex 1.6168 14.4747 2
    endloop
  endfacet
  facet normal 0 0 1
    outer loop
      vertex 5.2 19.5794 2
      vertex 1.6168 14.4747 2
      vertex 5.2 0 2
    endloop
  endfacet
  facet normal -0 0 1
    outer loop
      vertex 1.37533 14.0008 2
      vertex 5.2 0 2
      vertex 1.6168 14.4747 2
    endloop
  endfacet
  facet normal -0 0 1
    outer loop
      vertex 0.999234 13.6247 2
      vertex 5.2 0 2
      vertex 1.37533 14.0008 2
    endloop
  endfacet
  facet normal -0 0 1
    outer loop
      vertex 0.525329 13.3832 2
      vertex 5.2 0 2
      vertex 0.999234 13.6247 2
    endloop
  endfacet
  facet normal -0 0 1
    outer loop
      vertex 0 13.3 2
      vertex 5.2 0 2
      vertex 0.525329 13.3832 2
    endloop
  endfacet
  facet normal 0 0 1
    outer loop
      vertex -5.2 0 2
      vertex 0 13.3 2
      vertex -0.525329 13.3832 2
    endloop
  endfacet
  facet normal 0 0 1
    outer loop
      vertex -5.2 0 2
      vertex -0.525329 13.3832 2
      vertex -0.999234 13.6247 2
    endloop
  endfacet
  facet normal 0 0 1
    outer loop
      vertex -5.2 0 2
      vertex -0.999234 13.6247 2
      vertex -1.37533 14.0008 2
    endloop
  endfacet
  facet normal 0 0 1
    outer loop
      vertex -5.2 0 2
      vertex -1.37533 14.0008 2
      vertex -1.6168 14.4747 2
    endloop
  endfacet
  facet normal 0 0 1
    outer loop
      vertex -1.37533 15.9992 2
      vertex -5.2 19.5794 2
      vertex -1.6168 15.5253 2
    endloop
  endfacet
  facet normal 0 0 1
    outer loop
      vertex -1.6168 15.5253 2
      vertex -5.2 19.5794 2
      vertex -1.7 15 2
    endloop
  endfacet
  facet normal 0 0 1
    outer loop
      vertex -1.7 15 2
      vertex -5.2 19.5794 2
      vertex -1.6168 14.4747 2
    endloop
  endfacet
  facet normal 0 0 1
    outer loop
      vertex -5.2 0 2
      vertex -1.6168 14.4747 2
      vertex -5.2 19.5794 2
    endloop
  endfacet
  facet normal 0 0 1
    outer loop
      vertex 0 13.3 2
      vertex -5.2 0 2
      vertex 5.2 0 2
    endloop
  endfacet
  facet normal 1 0 0
    outer loop
      vertex -5.2 11.9327 7.59735
      vertex -5.2 6.6168 7.52533
      vertex -5.2 6.7 7
    endloop
  endfacet
  facet normal 1 0 0
    outer loop
      vertex -5.2 7.65249 9.99404
      vertex -5.2 6.37533 7.99923
      vertex -5.2 6.6168 7.52533
    endloop
  endfacet
  facet normal 1 0 0
    outer loop
      vertex -5.2 7.65249 9.99404
      vertex -5.2 5.99923 8.37533
      vertex -5.2 6.37533 7.99923
    endloop
  endfacet
  facet normal 1 0 0
    outer loop
      vertex -5.2 5.95726 10.8838
      vertex -5.2 5.99923 8.37533
      vertex -5.2 7.65249 9.99404
    endloop
  endfacet
  facet normal 1 0 0
    outer loop
      vertex -5.2 5.95726 10.8838
      vertex -5.2 5.52533 8.6168
      vertex -5.2 5.99923 8.37533
    endloop
  endfacet
  facet normal 1 0 0
    outer loop
      vertex -5.2 5.95726 10.8838
      vertex -5.2 5 8.7
      vertex -5.2 5.52533 8.6168
    endloop
  endfacet
  facet normal 1 -0 0
    outer loop
      vertex -5.2 4.04274 10.8838
      vertex -5.2 5 8.7
      vertex -5.2 5.95726 10.8838
    endloop
  endfacet
  facet normal 1 0 0
    outer loop
      vertex -5.2 5 8.7
      vertex -5.2 4.04274 10.8838
      vertex -5.2 4.47467 8.6168
    endloop
  endfacet
  facet normal 1 0 0
    outer loop
      vertex -5.2 4.04274 10.8838
      vertex -5.2 4.00076 8.37533
      vertex -5.2 4.47467 8.6168
    endloop
  endfacet
  facet normal 1 -0 0
    outer loop
      vertex -5.2 2.34751 9.99404
      vertex -5.2 4.00076 8.37533
      vertex -5.2 4.04274 10.8838
    endloop
  endfacet
  facet normal 1 0 0
    outer loop
      vertex -5.2 4.00076 8.37533
      vertex -5.2 2.34751 9.99404
      vertex -5.2 3.62467 7.99923
    endloop
  endfacet
  facet normal 1 0 0
    outer loop
      vertex -5.2 3.62467 7.99923
      vertex -5.2 1.25993 8.41842
      vertex -5.2 3.3832 7.52533
    endloop
  endfacet
  facet normal 1 -0 0
    outer loop
      vertex -5.2 1.25993 8.41842
      vertex -5.2 3.62467 7.99923
      vertex -5.2 2.34751 9.99404
    endloop
  endfacet
  facet normal 1 -0 0
    outer loop
      vertex -5.2 5.99923 5.62467
      vertex -5.2 17.0681 4.03816
      vertex -5.2 13.6853 6.47768
    endloop
  endfacet
  facet normal 1 0 0
    outer loop
      vertex -5.2 6.37533 6.00076
      vertex -5.2 13.6853 6.47768
      vertex -5.2 11.9327 7.59735
    endloop
  endfacet
  facet normal 1 0 0
    outer loop
      vertex -5.2 6.6168 7.52533
      vertex -5.2 11.9327 7.59735
      vertex -5.2 7.65249 9.99404
    endloop
  endfacet
  facet normal 1 0 0
    outer loop
      vertex -5.2 6.6168 6.47467
      vertex -5.2 11.9327 7.59735
      vertex -5.2 6.7 7
    endloop
  endfacet
  facet normal 1 0 0
    outer loop
      vertex -5.2 6.37533 6.00076
      vertex -5.2 11.9327 7.59735
      vertex -5.2 6.6168 6.47467
    endloop
  endfacet
  facet normal 1 0 0
    outer loop
      vertex -5.2 13.6853 6.47768
      vertex -5.2 6.37533 6.00076
      vertex -5.2 5.99923 5.62467
    endloop
  endfacet
  facet normal 1 -0 0
    outer loop
      vertex -5.2 5.52533 5.3832
      vertex -5.2 17.0681 4.03816
      vertex -5.2 5.99923 5.62467
    endloop
  endfacet
  facet normal 1 0 0
    outer loop
      vertex -5.2 17.0681 4.03816
      vertex -5.2 5.52533 5.3832
      vertex -5.2 19.5794 2
    endloop
  endfacet
  facet normal 1 0 0
    outer loop
      vertex -5.2 0 2
      vertex -5.2 5.52533 5.3832
      vertex -5.2 5 5.3
    endloop
  endfacet
  facet normal 1 0 0
    outer loop
      vertex -5.2 0 2
      vertex -5.2 5 5.3
      vertex -5.2 4.47467 5.3832
    endloop
  endfacet
  facet normal 1 0 0
    outer loop
      vertex -5.2 3.3832 7.52533
      vertex -5.2 1.25993 8.41842
      vertex -5.2 3.3 7
    endloop
  endfacet
  facet normal 1 0 0
    outer loop
      vertex -5.2 3.3 7
      vertex -5.2 1.25993 8.41842
      vertex -5.2 3.3832 6.47467
    endloop
  endfacet
  facet normal 1 0 0
    outer loop
      vertex -5.2 0 2
      vertex -5.2 3.3832 6.47467
      vertex -5.2 1.25993 8.41842
    endloop
  endfacet
  facet normal 1 0 0
    outer loop
      vertex -5.2 5.52533 5.3832
      vertex -5.2 0 2
      vertex -5.2 19.5794 2
    endloop
  endfacet
  facet normal 1 0 0
    outer loop
      vertex -5.2 4.00076 5.62467
      vertex -5.2 0 2
      vertex -5.2 4.47467 5.3832
    endloop
  endfacet
  facet normal 1 0 0
    outer loop
      vertex -5.2 3.62467 6.00076
      vertex -5.2 0 2
      vertex -5.2 4.00076 5.62467
    endloop
  endfacet
  facet normal 1 0 0
    outer loop
      vertex -5.2 3.3832 6.47467
      vertex -5.2 0 2
      vertex -5.2 3.62467 6.00076
    endloop
  endfacet
  facet normal -0.891002 -0.453999 5.13412e-18
    outer loop
      vertex 1.6168 15.5253 0
      vertex 1.37533 15.9992 2
      vertex 1.37533 15.9992 0
    endloop
  endfacet
  facet normal -0.891002 -0.453999 5.13412e-18
    outer loop
      vertex 1.37533 15.9992 2
      vertex 1.6168 15.5253 0
      vertex 1.6168 15.5253 2
    endloop
  endfacet
  facet normal -0.987688 -0.156436 -1.54262e-18
    outer loop
      vertex 1.7 15 0
      vertex 1.6168 15.5253 2
      vertex 1.6168 15.5253 0
    endloop
  endfacet
  facet normal -0.987688 -0.156436 -1.54262e-18
    outer loop
      vertex 1.6168 15.5253 2
      vertex 1.7 15 0
      vertex 1.7 15 2
    endloop
  endfacet
  facet normal -0.45404 0.890981 0
    outer loop
      vertex 0.999234 13.6247 0
      vertex 0.525329 13.3832 2
      vertex 0.999234 13.6247 2
    endloop
  endfacet
  facet normal -0.45404 0.890981 0
    outer loop
      vertex 0.525329 13.3832 2
      vertex 0.999234 13.6247 0
      vertex 0.525329 13.3832 0
    endloop
  endfacet
  facet normal 0.707111 0.707103 -8.16991e-19
    outer loop
      vertex -0.999234 13.6247 2
      vertex -1.37533 14.0008 0
      vertex -1.37533 14.0008 2
    endloop
  endfacet
  facet normal 0.707111 0.707103 -8.16991e-19
    outer loop
      vertex -1.37533 14.0008 0
      vertex -0.999234 13.6247 2
      vertex -0.999234 13.6247 0
    endloop
  endfacet
  facet normal 0.156427 0.987689 -0
    outer loop
      vertex 0 13.3 0
      vertex -0.525329 13.3832 2
      vertex 0 13.3 2
    endloop
  endfacet
  facet normal 0.156427 0.987689 0
    outer loop
      vertex -0.525329 13.3832 2
      vertex 0 13.3 0
      vertex -0.525329 13.3832 0
    endloop
  endfacet
  facet normal -0.891002 0.453999 -5.13412e-18
    outer loop
      vertex 1.37533 14.0008 0
      vertex 1.6168 14.4747 2
      vertex 1.6168 14.4747 0
    endloop
  endfacet
  facet normal -0.891002 0.453999 -5.13412e-18
    outer loop
      vertex 1.6168 14.4747 2
      vertex 1.37533 14.0008 0
      vertex 1.37533 14.0008 2
    endloop
  endfacet
  facet normal -0.707111 0.707103 8.16991e-19
    outer loop
      vertex 0.999234 13.6247 0
      vertex 1.37533 14.0008 2
      vertex 1.37533 14.0008 0
    endloop
  endfacet
  facet normal -0.707111 0.707103 8.16991e-19
    outer loop
      vertex 1.37533 14.0008 2
      vertex 0.999234 13.6247 0
      vertex 0.999234 13.6247 2
    endloop
  endfacet
  facet normal -0.987688 0.156436 1.54262e-18
    outer loop
      vertex 1.6168 14.4747 0
      vertex 1.7 15 2
      vertex 1.7 15 0
    endloop
  endfacet
  facet normal -0.987688 0.156436 1.54262e-18
    outer loop
      vertex 1.7 15 2
      vertex 1.6168 14.4747 0
      vertex 1.6168 14.4747 2
    endloop
  endfacet
  facet normal 0.707111 -0.707103 8.16991e-19
    outer loop
      vertex -1.37533 15.9992 2
      vertex -0.999234 16.3753 0
      vertex -0.999234 16.3753 2
    endloop
  endfacet
  facet normal 0.707111 -0.707103 8.16991e-19
    outer loop
      vertex -0.999234 16.3753 0
      vertex -1.37533 15.9992 2
      vertex -1.37533 15.9992 0
    endloop
  endfacet
  facet normal 0.156427 -0.987689 0
    outer loop
      vertex -0.525329 16.6168 0
      vertex 0 16.7 2
      vertex -0.525329 16.6168 2
    endloop
  endfacet
  facet normal 0.156427 -0.987689 0
    outer loop
      vertex 0 16.7 2
      vertex -0.525329 16.6168 0
      vertex 0 16.7 0
    endloop
  endfacet
  facet normal 0.891002 0.453999 5.13412e-18
    outer loop
      vertex -1.37533 14.0008 2
      vertex -1.6168 14.4747 0
      vertex -1.6168 14.4747 2
    endloop
  endfacet
  facet normal 0.891002 0.453999 5.13412e-18
    outer loop
      vertex -1.6168 14.4747 0
      vertex -1.37533 14.0008 2
      vertex -1.37533 14.0008 0
    endloop
  endfacet
  facet normal -0.156427 -0.987689 0
    outer loop
      vertex 0 16.7 0
      vertex 0.525329 16.6168 2
      vertex 0 16.7 2
    endloop
  endfacet
  facet normal -0.156427 -0.987689 -0
    outer loop
      vertex 0.525329 16.6168 2
      vertex 0 16.7 0
      vertex 0.525329 16.6168 0
    endloop
  endfacet
  facet normal 0.891002 -0.453999 -5.13412e-18
    outer loop
      vertex -1.6168 15.5253 2
      vertex -1.37533 15.9992 0
      vertex -1.37533 15.9992 2
    endloop
  endfacet
  facet normal 0.891002 -0.453999 -5.13412e-18
    outer loop
      vertex -1.37533 15.9992 0
      vertex -1.6168 15.5253 2
      vertex -1.6168 15.5253 0
    endloop
  endfacet
  facet normal -0.156427 0.987689 0
    outer loop
      vertex 0.525329 13.3832 0
      vertex 0 13.3 2
      vertex 0.525329 13.3832 2
    endloop
  endfacet
  facet normal -0.156427 0.987689 0
    outer loop
      vertex 0 13.3 2
      vertex 0.525329 13.3832 0
      vertex 0 13.3 0
    endloop
  endfacet
  facet normal 0.987688 0.156436 -1.54262e-18
    outer loop
      vertex -1.6168 14.4747 2
      vertex -1.7 15 0
      vertex -1.7 15 2
    endloop
  endfacet
  facet normal 0.987688 0.156436 -1.54262e-18
    outer loop
      vertex -1.7 15 0
      vertex -1.6168 14.4747 2
      vertex -1.6168 14.4747 0
    endloop
  endfacet
  facet normal 0.45404 0.890981 -0
    outer loop
      vertex -0.525329 13.3832 0
      vertex -0.999234 13.6247 2
      vertex -0.525329 13.3832 2
    endloop
  endfacet
  facet normal 0.45404 0.890981 0
    outer loop
      vertex -0.999234 13.6247 2
      vertex -0.525329 13.3832 0
      vertex -0.999234 13.6247 0
    endloop
  endfacet
  facet normal 0.45404 -0.890981 0
    outer loop
      vertex -0.999234 16.3753 0
      vertex -0.525329 16.6168 2
      vertex -0.999234 16.3753 2
    endloop
  endfacet
  facet normal 0.45404 -0.890981 0
    outer loop
      vertex -0.525329 16.6168 2
      vertex -0.999234 16.3753 0
      vertex -0.525329 16.6168 0
    endloop
  endfacet
  facet normal -0.45404 -0.890981 0
    outer loop
      vertex 0.525329 16.6168 0
      vertex 0.999234 16.3753 2
      vertex 0.525329 16.6168 2
    endloop
  endfacet
  facet normal -0.45404 -0.890981 -0
    outer loop
      vertex 0.999234 16.3753 2
      vertex 0.525329 16.6168 0
      vertex 0.999234 16.3753 0
    endloop
  endfacet
  facet normal 0.987688 -0.156436 1.54262e-18
    outer loop
      vertex -1.7 15 2
      vertex -1.6168 15.5253 0
      vertex -1.6168 15.5253 2
    endloop
  endfacet
  facet normal 0.987688 -0.156436 1.54262e-18
    outer loop
      vertex -1.6168 15.5253 0
      vertex -1.7 15 2
      vertex -1.7 15 0
    endloop
  endfacet
  facet normal -0.707111 -0.707103 -8.16991e-19
    outer loop
      vertex 1.37533 15.9992 0
      vertex 0.999234 16.3753 2
      vertex 0.999234 16.3753 0
    endloop
  endfacet
  facet normal -0.707111 -0.707103 -8.16991e-19
    outer loop
      vertex 0.999234 16.3753 2
      vertex 1.37533 15.9992 0
      vertex 1.37533 15.9992 2
    endloop
  endfacet
endsolid OpenSCAD_Model
