solid OpenSCAD_Model
  facet normal 0 0 -1
    outer loop
      vertex 0 0 0
      vertex 27 27 0
      vertex 27 0 0
    endloop
  endfacet
  facet normal -0 0 -1
    outer loop
      vertex 27 27 0
      vertex 0 0 0
      vertex 0 27 0
    endloop
  endfacet
  facet normal 0 -0.933346 0.358979
    outer loop
      vertex 0 0 0
      vertex 24.5 2.5 6.5
      vertex 2.5 2.5 6.5
    endloop
  endfacet
  facet normal 0 -0.933346 0.358979
    outer loop
      vertex 24.5 2.5 6.5
      vertex 0 0 0
      vertex 27 0 0
    endloop
  endfacet
  facet normal -0 0 1
    outer loop
      vertex 2.5 24.5 6.5
      vertex 24.5 2.5 6.5
      vertex 24.5 24.5 6.5
    endloop
  endfacet
  facet normal 0 0 1
    outer loop
      vertex 24.5 2.5 6.5
      vertex 2.5 24.5 6.5
      vertex 2.5 2.5 6.5
    endloop
  endfacet
  facet normal 0.933346 -0 0.358979
    outer loop
      vertex 24.5 2.5 6.5
      vertex 27 27 0
      vertex 24.5 24.5 6.5
    endloop
  endfacet
  facet normal 0.933346 0 0.358979
    outer loop
      vertex 27 27 0
      vertex 24.5 2.5 6.5
      vertex 27 0 0
    endloop
  endfacet
  facet normal 0 0.933346 0.358979
    outer loop
      vertex 27 27 0
      vertex 2.5 24.5 6.5
      vertex 24.5 24.5 6.5
    endloop
  endfacet
  facet normal 0 0.933346 0.358979
    outer loop
      vertex 2.5 24.5 6.5
      vertex 27 27 0
      vertex 0 27 0
    endloop
  endfacet
  facet normal -0.933346 0 0.358979
    outer loop
      vertex 0 27 0
      vertex 2.5 2.5 6.5
      vertex 2.5 24.5 6.5
    endloop
  endfacet
  facet normal -0.933346 0 0.358979
    outer loop
      vertex 2.5 2.5 6.5
      vertex 0 27 0
      vertex 0 0 0
    endloop
  endfacet
endsolid OpenSCAD_Model
