solid OpenSCAD_Model
  facet normal 1 -0 0
    outer loop
      vertex 7.5 0 2.5
      vertex 7.5 9.5 -2.5
      vertex 7.5 9.5 2.5
    endloop
  endfacet
  facet normal 1 0 0
    outer loop
      vertex 7.5 9.5 -2.5
      vertex 7.5 0 2.5
      vertex 7.5 0 -2.5
    endloop
  endfacet
  facet normal 0 0 1
    outer loop
      vertex 7.5 9.5 2.5
      vertex 5 8.5 2.5
      vertex 7.5 0 2.5
    endloop
  endfacet
  facet normal 0 0 1
    outer loop
      vertex 7.5 9.5 2.5
      vertex -5 8.5 2.5
      vertex 5 8.5 2.5
    endloop
  endfacet
  facet normal 0 0 1
    outer loop
      vertex -5 8.5 2.5
      vertex -7.5 9.5 2.5
      vertex -5 1 2.5
    endloop
  endfacet
  facet normal -0 0 1
    outer loop
      vertex -7.5 9.5 2.5
      vertex -5 8.5 2.5
      vertex 7.5 9.5 2.5
    endloop
  endfacet
  facet normal -0 0 1
    outer loop
      vertex 5 1 2.5
      vertex 7.5 0 2.5
      vertex 5 8.5 2.5
    endloop
  endfacet
  facet normal 0 0 1
    outer loop
      vertex 3.5 0 2.5
      vertex 5 1 2.5
      vertex 3.5 1 2.5
    endloop
  endfacet
  facet normal 0 0 1
    outer loop
      vertex 5 1 2.5
      vertex 3.5 0 2.5
      vertex 7.5 0 2.5
    endloop
  endfacet
  facet normal -0 0 1
    outer loop
      vertex -5 1 2.5
      vertex -3.5 0 2.5
      vertex -3.5 1 2.5
    endloop
  endfacet
  facet normal 0 0 1
    outer loop
      vertex -5 1 2.5
      vertex -7.5 0 2.5
      vertex -3.5 0 2.5
    endloop
  endfacet
  facet normal 0 0 1
    outer loop
      vertex -7.5 0 2.5
      vertex -5 1 2.5
      vertex -7.5 9.5 2.5
    endloop
  endfacet
  facet normal 0 0 -1
    outer loop
      vertex -3.5 0 -2.5
      vertex -5 1 -2.5
      vertex -3.5 1 -2.5
    endloop
  endfacet
  facet normal -0 0 -1
    outer loop
      vertex -5 1 -2.5
      vertex -7.5 0 -2.5
      vertex -5 8.5 -2.5
    endloop
  endfacet
  facet normal 0 0 -1
    outer loop
      vertex -7.5 0 -2.5
      vertex -5 1 -2.5
      vertex -3.5 0 -2.5
    endloop
  endfacet
  facet normal 0 0 -1
    outer loop
      vertex 7.5 0 -2.5
      vertex 5 1 -2.5
      vertex 7.5 9.5 -2.5
    endloop
  endfacet
  facet normal 0 0 -1
    outer loop
      vertex 3.5 0 -2.5
      vertex 5 1 -2.5
      vertex 7.5 0 -2.5
    endloop
  endfacet
  facet normal -0 0 -1
    outer loop
      vertex 5 1 -2.5
      vertex 3.5 0 -2.5
      vertex 3.5 1 -2.5
    endloop
  endfacet
  facet normal 0 0 -1
    outer loop
      vertex 5 8.5 -2.5
      vertex 7.5 9.5 -2.5
      vertex 5 1 -2.5
    endloop
  endfacet
  facet normal 0 0 -1
    outer loop
      vertex -5 8.5 -2.5
      vertex 7.5 9.5 -2.5
      vertex 5 8.5 -2.5
    endloop
  endfacet
  facet normal 0 0 -1
    outer loop
      vertex -5 8.5 -2.5
      vertex -7.5 9.5 -2.5
      vertex 7.5 9.5 -2.5
    endloop
  endfacet
  facet normal 0 0 -1
    outer loop
      vertex -7.5 9.5 -2.5
      vertex -5 8.5 -2.5
      vertex -7.5 0 -2.5
    endloop
  endfacet
  facet normal -1 0 0
    outer loop
      vertex -7.5 0 -2.5
      vertex -7.5 9.5 2.5
      vertex -7.5 9.5 -2.5
    endloop
  endfacet
  facet normal -1 -0 0
    outer loop
      vertex -7.5 9.5 2.5
      vertex -7.5 0 -2.5
      vertex -7.5 0 2.5
    endloop
  endfacet
  facet normal 0 1 -0
    outer loop
      vertex 7.5 9.5 -2.5
      vertex -7.5 9.5 2.5
      vertex 7.5 9.5 2.5
    endloop
  endfacet
  facet normal 0 1 0
    outer loop
      vertex -7.5 9.5 2.5
      vertex 7.5 9.5 -2.5
      vertex -7.5 9.5 -2.5
    endloop
  endfacet
  facet normal 0 -1 0
    outer loop
      vertex -7.5 0 -2.5
      vertex -3.5 0 2.5
      vertex -7.5 0 2.5
    endloop
  endfacet
  facet normal 0 -1 -0
    outer loop
      vertex -3.5 0 2.5
      vertex -7.5 0 -2.5
      vertex -3.5 0 -2.5
    endloop
  endfacet
  facet normal 0 -1 0
    outer loop
      vertex 3.5 0 -2.5
      vertex 7.5 0 2.5
      vertex 3.5 0 2.5
    endloop
  endfacet
  facet normal 0 -1 -0
    outer loop
      vertex 7.5 0 2.5
      vertex 3.5 0 -2.5
      vertex 7.5 0 -2.5
    endloop
  endfacet
  facet normal 1 -0 0
    outer loop
      vertex 5 1 10
      vertex 5 8.5 2.5
      vertex 5 8.5 10
    endloop
  endfacet
  facet normal 1 0 0
    outer loop
      vertex 5 8.5 2.5
      vertex 5 1 10
      vertex 5 1 2.5
    endloop
  endfacet
  facet normal 1 -0 0
    outer loop
      vertex 5 1 -2.5
      vertex 5 8.5 -10
      vertex 5 8.5 -2.5
    endloop
  endfacet
  facet normal 1 0 0
    outer loop
      vertex 5 8.5 -10
      vertex 5 1 -2.5
      vertex 5 1 -10
    endloop
  endfacet
  facet normal 0 0 1
    outer loop
      vertex 5 8.5 10
      vertex 3.5 7 10
      vertex 5 1 10
    endloop
  endfacet
  facet normal 0 0 1
    outer loop
      vertex 5 8.5 10
      vertex -3.5 7 10
      vertex 3.5 7 10
    endloop
  endfacet
  facet normal -0 0 1
    outer loop
      vertex -5 8.5 10
      vertex -3.5 7 10
      vertex 5 8.5 10
    endloop
  endfacet
  facet normal 0 0 1
    outer loop
      vertex -5 1 10
      vertex -3.5 7 10
      vertex -5 8.5 10
    endloop
  endfacet
  facet normal 0 0 1
    outer loop
      vertex -3.5 7 10
      vertex -5 1 10
      vertex -3.5 1 10
    endloop
  endfacet
  facet normal 0 0 1
    outer loop
      vertex 5 1 10
      vertex 3.5 7 10
      vertex 3.5 1 10
    endloop
  endfacet
  facet normal 0 0 -1
    outer loop
      vertex -3.5 1 -10
      vertex -5 1 -10
      vertex -3.5 7 -10
    endloop
  endfacet
  facet normal 0 0 -1
    outer loop
      vertex 3.5 7 -10
      vertex 5 1 -10
      vertex 3.5 1 -10
    endloop
  endfacet
  facet normal 0 0 -1
    outer loop
      vertex 5 1 -10
      vertex 3.5 7 -10
      vertex 5 8.5 -10
    endloop
  endfacet
  facet normal 0 0 -1
    outer loop
      vertex -3.5 7 -10
      vertex 5 8.5 -10
      vertex 3.5 7 -10
    endloop
  endfacet
  facet normal 0 0 -1
    outer loop
      vertex -3.5 7 -10
      vertex -5 8.5 -10
      vertex 5 8.5 -10
    endloop
  endfacet
  facet normal 0 0 -1
    outer loop
      vertex -5 8.5 -10
      vertex -3.5 7 -10
      vertex -5 1 -10
    endloop
  endfacet
  facet normal -1 0 0
    outer loop
      vertex -5 1 2.5
      vertex -5 8.5 10
      vertex -5 8.5 2.5
    endloop
  endfacet
  facet normal -1 -0 0
    outer loop
      vertex -5 8.5 10
      vertex -5 1 2.5
      vertex -5 1 10
    endloop
  endfacet
  facet normal -1 0 0
    outer loop
      vertex -5 1 -10
      vertex -5 8.5 -2.5
      vertex -5 8.5 -10
    endloop
  endfacet
  facet normal -1 -0 0
    outer loop
      vertex -5 8.5 -2.5
      vertex -5 1 -10
      vertex -5 1 -2.5
    endloop
  endfacet
  facet normal 0 1 -0
    outer loop
      vertex 5 8.5 2.5
      vertex -5 8.5 10
      vertex 5 8.5 10
    endloop
  endfacet
  facet normal 0 1 0
    outer loop
      vertex -5 8.5 10
      vertex 5 8.5 2.5
      vertex -5 8.5 2.5
    endloop
  endfacet
  facet normal 0 1 -0
    outer loop
      vertex 5 8.5 -10
      vertex -5 8.5 -2.5
      vertex 5 8.5 -2.5
    endloop
  endfacet
  facet normal 0 1 0
    outer loop
      vertex -5 8.5 -2.5
      vertex 5 8.5 -10
      vertex -5 8.5 -10
    endloop
  endfacet
  facet normal 0 -1 0
    outer loop
      vertex -5 1 2.5
      vertex -3.5 1 10
      vertex -5 1 10
    endloop
  endfacet
  facet normal 0 -1 -0
    outer loop
      vertex -3.5 1 10
      vertex -5 1 2.5
      vertex -3.5 1 2.5
    endloop
  endfacet
  facet normal 0 -1 0
    outer loop
      vertex 3.5 1 2.5
      vertex 5 1 10
      vertex 3.5 1 10
    endloop
  endfacet
  facet normal 0 -1 -0
    outer loop
      vertex 5 1 10
      vertex 3.5 1 2.5
      vertex 5 1 2.5
    endloop
  endfacet
  facet normal 0 -1 0
    outer loop
      vertex 3.5 1 -10
      vertex 5 1 -2.5
      vertex 3.5 1 -2.5
    endloop
  endfacet
  facet normal 0 -1 -0
    outer loop
      vertex 5 1 -2.5
      vertex 3.5 1 -10
      vertex 5 1 -10
    endloop
  endfacet
  facet normal 0 -1 0
    outer loop
      vertex -5 1 -10
      vertex -3.5 1 -2.5
      vertex -5 1 -2.5
    endloop
  endfacet
  facet normal 0 -1 -0
    outer loop
      vertex -3.5 1 -2.5
      vertex -5 1 -10
      vertex -3.5 1 -10
    endloop
  endfacet
  facet normal -1 0 0
    outer loop
      vertex 3.5 0 -2.5
      vertex 3.5 1 2.5
      vertex 3.5 1 -2.5
    endloop
  endfacet
  facet normal -1 -0 0
    outer loop
      vertex 3.5 1 2.5
      vertex 3.5 0 -2.5
      vertex 3.5 0 2.5
    endloop
  endfacet
  facet normal -1 0 0
    outer loop
      vertex 3.5 1 -2.5
      vertex 3.5 7 -10
      vertex 3.5 1 -10
    endloop
  endfacet
  facet normal -1 0 0
    outer loop
      vertex 3.5 7 -10
      vertex 3.5 1 -2.5
      vertex 3.5 7 10
    endloop
  endfacet
  facet normal -1 0 0
    outer loop
      vertex 3.5 1 2.5
      vertex 3.5 7 10
      vertex 3.5 1 -2.5
    endloop
  endfacet
  facet normal -1 -0 0
    outer loop
      vertex 3.5 7 10
      vertex 3.5 1 2.5
      vertex 3.5 1 10
    endloop
  endfacet
  facet normal 1 -0 0
    outer loop
      vertex -3.5 0 2.5
      vertex -3.5 1 -2.5
      vertex -3.5 1 2.5
    endloop
  endfacet
  facet normal 1 0 0
    outer loop
      vertex -3.5 1 -2.5
      vertex -3.5 0 2.5
      vertex -3.5 0 -2.5
    endloop
  endfacet
  facet normal 1 0 0
    outer loop
      vertex -3.5 1 2.5
      vertex -3.5 7 10
      vertex -3.5 1 10
    endloop
  endfacet
  facet normal 1 0 0
    outer loop
      vertex -3.5 7 10
      vertex -3.5 1 2.5
      vertex -3.5 7 -10
    endloop
  endfacet
  facet normal 1 -0 0
    outer loop
      vertex -3.5 1 -2.5
      vertex -3.5 7 -10
      vertex -3.5 1 2.5
    endloop
  endfacet
  facet normal 1 0 0
    outer loop
      vertex -3.5 7 -10
      vertex -3.5 1 -2.5
      vertex -3.5 1 -10
    endloop
  endfacet
  facet normal 0 -1 0
    outer loop
      vertex -3.5 7 -10
      vertex 3.5 7 10
      vertex -3.5 7 10
    endloop
  endfacet
  facet normal 0 -1 -0
    outer loop
      vertex 3.5 7 10
      vertex -3.5 7 -10
      vertex 3.5 7 -10
    endloop
  endfacet
endsolid OpenSCAD_Model
