solid OpenSCAD_Model
  facet normal 1 -0 0
    outer loop
      vertex 50 16 4
      vertex 50 24 0
      vertex 50 24 15
    endloop
  endfacet
  facet normal 1 0 0
    outer loop
      vertex 50 24 0
      vertex 50 16 4
      vertex 50 17.0435 0
    endloop
  endfacet
  facet normal 1 -0 0
    outer loop
      vertex 50 0 15
      vertex 50 16 4
      vertex 50 24 15
    endloop
  endfacet
  facet normal 1 0 0
    outer loop
      vertex 50 16 4
      vertex 50 0 15
      vertex 50 2 4
    endloop
  endfacet
  facet normal 1 0 0
    outer loop
      vertex 50 0 0
      vertex 50 2 4
      vertex 50 0 15
    endloop
  endfacet
  facet normal 1 0 0
    outer loop
      vertex 50 2 4
      vertex 50 0 0
      vertex 50 2 0
    endloop
  endfacet
  facet normal -0 0 1
    outer loop
      vertex 0 24 15
      vertex 2 0 15
      vertex 2 24 15
    endloop
  endfacet
  facet normal 0 0 1
    outer loop
      vertex 2 0 15
      vertex 0 24 15
      vertex 0 0 15
    endloop
  endfacet
  facet normal -0 0 1
    outer loop
      vertex 48 24 15
      vertex 50 0 15
      vertex 50 24 15
    endloop
  endfacet
  facet normal 0 0 1
    outer loop
      vertex 50 0 15
      vertex 48 24 15
      vertex 48 0 15
    endloop
  endfacet
  facet normal 0 0 -1
    outer loop
      vertex 0 17.0435 0
      vertex 50 24 0
      vertex 50 17.0435 0
    endloop
  endfacet
  facet normal -0 0 -1
    outer loop
      vertex 50 24 0
      vertex 0 17.0435 0
      vertex 0 24 0
    endloop
  endfacet
  facet normal 0 0 -1
    outer loop
      vertex 0 0 0
      vertex 50 2 0
      vertex 50 0 0
    endloop
  endfacet
  facet normal -0 0 -1
    outer loop
      vertex 50 2 0
      vertex 0 0 0
      vertex 0 2 0
    endloop
  endfacet
  facet normal -1 0 0
    outer loop
      vertex 0 2 0
      vertex 0 0 0
      vertex 0 2 4
    endloop
  endfacet
  facet normal -1 0 0
    outer loop
      vertex 0 16 4
      vertex 0 24 0
      vertex 0 17.0435 0
    endloop
  endfacet
  facet normal -1 0 0
    outer loop
      vertex 0 24 0
      vertex 0 16 4
      vertex 0 24 15
    endloop
  endfacet
  facet normal -1 0 0
    outer loop
      vertex 0 0 15
      vertex 0 16 4
      vertex 0 2 4
    endloop
  endfacet
  facet normal -1 0 0
    outer loop
      vertex 0 16 4
      vertex 0 0 15
      vertex 0 24 15
    endloop
  endfacet
  facet normal -1 0 0
    outer loop
      vertex 0 0 15
      vertex 0 2 4
      vertex 0 0 0
    endloop
  endfacet
  facet normal 0 1 0
    outer loop
      vertex 50 24 15
      vertex 48 24 12
      vertex 48 24 15
    endloop
  endfacet
  facet normal 0 1 0
    outer loop
      vertex 48 24 12
      vertex 50 24 0
      vertex 2 24 12
    endloop
  endfacet
  facet normal 0 1 -0
    outer loop
      vertex 50 24 0
      vertex 48 24 12
      vertex 50 24 15
    endloop
  endfacet
  facet normal 0 1 -0
    outer loop
      vertex 2 24 12
      vertex 0 24 15
      vertex 2 24 15
    endloop
  endfacet
  facet normal 0 1 0
    outer loop
      vertex 2 24 12
      vertex 0 24 0
      vertex 0 24 15
    endloop
  endfacet
  facet normal 0 1 0
    outer loop
      vertex 0 24 0
      vertex 2 24 12
      vertex 50 24 0
    endloop
  endfacet
  facet normal 0 -1 0
    outer loop
      vertex 0 0 15
      vertex 2 0 12
      vertex 2 0 15
    endloop
  endfacet
  facet normal 0 -1 -0
    outer loop
      vertex 2 0 12
      vertex 0 0 0
      vertex 48 0 12
    endloop
  endfacet
  facet normal 0 -1 0
    outer loop
      vertex 0 0 0
      vertex 2 0 12
      vertex 0 0 15
    endloop
  endfacet
  facet normal 0 -1 0
    outer loop
      vertex 48 0 12
      vertex 50 0 15
      vertex 48 0 15
    endloop
  endfacet
  facet normal 0 -1 0
    outer loop
      vertex 48 0 12
      vertex 50 0 0
      vertex 50 0 15
    endloop
  endfacet
  facet normal 0 -1 0
    outer loop
      vertex 50 0 0
      vertex 48 0 12
      vertex 0 0 0
    endloop
  endfacet
  facet normal -1 0 0
    outer loop
      vertex 48 0 12
      vertex 48 24 15
      vertex 48 24 12
    endloop
  endfacet
  facet normal -1 -0 0
    outer loop
      vertex 48 24 15
      vertex 48 0 12
      vertex 48 0 15
    endloop
  endfacet
  facet normal -0 0 1
    outer loop
      vertex 2 24 12
      vertex 48 0 12
      vertex 48 24 12
    endloop
  endfacet
  facet normal 0 0 1
    outer loop
      vertex 48 0 12
      vertex 2 24 12
      vertex 2 0 12
    endloop
  endfacet
  facet normal 1 -0 0
    outer loop
      vertex 2 0 15
      vertex 2 24 12
      vertex 2 24 15
    endloop
  endfacet
  facet normal 1 0 0
    outer loop
      vertex 2 24 12
      vertex 2 0 15
      vertex 2 0 12
    endloop
  endfacet
  facet normal 0 -0.967616 -0.252427
    outer loop
      vertex 0 17.0435 0
      vertex 50 16 4
      vertex 0 16 4
    endloop
  endfacet
  facet normal 0 -0.967616 -0.252427
    outer loop
      vertex 50 16 4
      vertex 0 17.0435 0
      vertex 50 17.0435 0
    endloop
  endfacet
  facet normal 0 1 -0
    outer loop
      vertex 50 2 0
      vertex 0 2 4
      vertex 50 2 4
    endloop
  endfacet
  facet normal 0 1 0
    outer loop
      vertex 0 2 4
      vertex 50 2 0
      vertex 0 2 0
    endloop
  endfacet
  facet normal 0 0 -1
    outer loop
      vertex 0 2 4
      vertex 50 16 4
      vertex 50 2 4
    endloop
  endfacet
  facet normal -0 0 -1
    outer loop
      vertex 50 16 4
      vertex 0 2 4
      vertex 0 16 4
    endloop
  endfacet
endsolid OpenSCAD_Model
