solid OpenSCAD_Model
  facet normal 0 0 -1
    outer loop
      vertex 1 6.5 0
      vertex 0 7 0
      vertex 1 7 0
    endloop
  endfacet
  facet normal 0 0 -1
    outer loop
      vertex 12 3 0
      vertex 11 5 0
      vertex 12 8 0
    endloop
  endfacet
  facet normal 0 0 -1
    outer loop
      vertex 12 3 0
      vertex 1 5 0
      vertex 11 5 0
    endloop
  endfacet
  facet normal 0 0 -1
    outer loop
      vertex 0 3 0
      vertex 1 5 0
      vertex 12 3 0
    endloop
  endfacet
  facet normal 0 0 -1
    outer loop
      vertex 0 5.5 0
      vertex 1 5 0
      vertex 0 3 0
    endloop
  endfacet
  facet normal 0 0 -1
    outer loop
      vertex 1 5 0
      vertex 0 5.5 0
      vertex 1 5.5 0
    endloop
  endfacet
  facet normal 0 0 -1
    outer loop
      vertex 11 7 0
      vertex 12 8 0
      vertex 11 5 0
    endloop
  endfacet
  facet normal 0 0 -1
    outer loop
      vertex 1 7 0
      vertex 12 8 0
      vertex 11 7 0
    endloop
  endfacet
  facet normal 0 0 -1
    outer loop
      vertex 0 8 0
      vertex 1 7 0
      vertex 0 7 0
    endloop
  endfacet
  facet normal 0 0 -1
    outer loop
      vertex 1 7 0
      vertex 0 8 0
      vertex 12 8 0
    endloop
  endfacet
  facet normal 0 0 1
    outer loop
      vertex 1 5.5 14
      vertex 0 5.5 14
      vertex 1 5 14
    endloop
  endfacet
  facet normal 0 0 1
    outer loop
      vertex 11 5 14
      vertex 12 8 14
      vertex 11 7 14
    endloop
  endfacet
  facet normal 0 0 1
    outer loop
      vertex 12 8 14
      vertex 1 7 14
      vertex 11 7 14
    endloop
  endfacet
  facet normal -0 0 1
    outer loop
      vertex 0 8 14
      vertex 1 7 14
      vertex 12 8 14
    endloop
  endfacet
  facet normal 0 0 1
    outer loop
      vertex 0 7 14
      vertex 1 7 14
      vertex 0 8 14
    endloop
  endfacet
  facet normal 0 0 1
    outer loop
      vertex 1 7 14
      vertex 0 7 14
      vertex 1 6.5 14
    endloop
  endfacet
  facet normal 0 0 1
    outer loop
      vertex 12 8 14
      vertex 11 5 14
      vertex 12 3 14
    endloop
  endfacet
  facet normal -0 0 1
    outer loop
      vertex 1 5 14
      vertex 12 3 14
      vertex 11 5 14
    endloop
  endfacet
  facet normal 0 0 1
    outer loop
      vertex 1 5 14
      vertex 0 3 14
      vertex 12 3 14
    endloop
  endfacet
  facet normal 0 0 1
    outer loop
      vertex 0 3 14
      vertex 1 5 14
      vertex 0 5.5 14
    endloop
  endfacet
  facet normal 0 1 -0
    outer loop
      vertex 12 8 0
      vertex 0 8 14
      vertex 12 8 14
    endloop
  endfacet
  facet normal 0 1 0
    outer loop
      vertex 0 8 14
      vertex 12 8 0
      vertex 0 8 0
    endloop
  endfacet
  facet normal -1 0 0
    outer loop
      vertex 0 7 0
      vertex 0 8 14
      vertex 0 8 0
    endloop
  endfacet
  facet normal -1 -0 0
    outer loop
      vertex 0 8 14
      vertex 0 7 0
      vertex 0 7 14
    endloop
  endfacet
  facet normal -0.447214 -0.894427 0
    outer loop
      vertex 0 7 0
      vertex 1 6.5 14
      vertex 0 7 14
    endloop
  endfacet
  facet normal -0.447214 -0.894427 -0
    outer loop
      vertex 1 6.5 14
      vertex 0 7 0
      vertex 1 6.5 0
    endloop
  endfacet
  facet normal 1 -0 0
    outer loop
      vertex 1 6.5 14
      vertex 1 7 0
      vertex 1 7 14
    endloop
  endfacet
  facet normal 1 0 0
    outer loop
      vertex 1 7 0
      vertex 1 6.5 14
      vertex 1 6.5 0
    endloop
  endfacet
  facet normal 0 -1 0
    outer loop
      vertex 1 7 0
      vertex 11 7 14
      vertex 1 7 14
    endloop
  endfacet
  facet normal 0 -1 -0
    outer loop
      vertex 11 7 14
      vertex 1 7 0
      vertex 11 7 0
    endloop
  endfacet
  facet normal -1 0 0
    outer loop
      vertex 11 5 0
      vertex 11 7 14
      vertex 11 7 0
    endloop
  endfacet
  facet normal -1 -0 0
    outer loop
      vertex 11 7 14
      vertex 11 5 0
      vertex 11 5 14
    endloop
  endfacet
  facet normal 0 1 -0
    outer loop
      vertex 11 5 0
      vertex 1 5 14
      vertex 11 5 14
    endloop
  endfacet
  facet normal 0 1 0
    outer loop
      vertex 1 5 14
      vertex 11 5 0
      vertex 1 5 0
    endloop
  endfacet
  facet normal 1 -0 0
    outer loop
      vertex 1 5 14
      vertex 1 5.5 0
      vertex 1 5.5 14
    endloop
  endfacet
  facet normal 1 0 0
    outer loop
      vertex 1 5.5 0
      vertex 1 5 14
      vertex 1 5 0
    endloop
  endfacet
  facet normal 0 1 -0
    outer loop
      vertex 1 5.5 0
      vertex 0 5.5 14
      vertex 1 5.5 14
    endloop
  endfacet
  facet normal 0 1 0
    outer loop
      vertex 0 5.5 14
      vertex 1 5.5 0
      vertex 0 5.5 0
    endloop
  endfacet
  facet normal -1 0 0
    outer loop
      vertex 0 5.5 0
      vertex 0 4 7
      vertex 0 5.5 14
    endloop
  endfacet
  facet normal -1 0 0
    outer loop
      vertex 0 3 5.25
      vertex 0 5.5 0
      vertex 0 3 0
    endloop
  endfacet
  facet normal -1 0 0
    outer loop
      vertex 0 5.5 0
      vertex 0 3 5.25
      vertex 0 4 7
    endloop
  endfacet
  facet normal -1 0 0
    outer loop
      vertex 0 3 8.75
      vertex 0 5.5 14
      vertex 0 4 7
    endloop
  endfacet
  facet normal -1 -0 0
    outer loop
      vertex 0 5.5 14
      vertex 0 3 8.75
      vertex 0 3 14
    endloop
  endfacet
  facet normal 1 0 0
    outer loop
      vertex 12 8 14
      vertex 12 4 7
      vertex 12 8 0
    endloop
  endfacet
  facet normal 1 0 0
    outer loop
      vertex 12 3 8.75
      vertex 12 8 14
      vertex 12 3 14
    endloop
  endfacet
  facet normal 1 0 0
    outer loop
      vertex 12 8 14
      vertex 12 3 8.75
      vertex 12 4 7
    endloop
  endfacet
  facet normal 1 -0 0
    outer loop
      vertex 12 3 5.25
      vertex 12 8 0
      vertex 12 4 7
    endloop
  endfacet
  facet normal 1 0 0
    outer loop
      vertex 12 8 0
      vertex 12 3 5.25
      vertex 12 3 0
    endloop
  endfacet
  facet normal 0 -0.868243 0.496139
    outer loop
      vertex 0 3 5.25
      vertex 12 4 7
      vertex 0 4 7
    endloop
  endfacet
  facet normal 0 -0.868243 0.496139
    outer loop
      vertex 12 4 7
      vertex 0 3 5.25
      vertex 12 3 5.25
    endloop
  endfacet
  facet normal 0 -0.868243 -0.496139
    outer loop
      vertex 0 4 7
      vertex 12 3 8.75
      vertex 0 3 8.75
    endloop
  endfacet
  facet normal 0 -0.868243 -0.496139
    outer loop
      vertex 12 3 8.75
      vertex 0 4 7
      vertex 12 4 7
    endloop
  endfacet
  facet normal 0 -1 0
    outer loop
      vertex 0 3 0
      vertex 12 3 5.25
      vertex 0 3 5.25
    endloop
  endfacet
  facet normal 0 -1 -0
    outer loop
      vertex 12 3 5.25
      vertex 0 3 0
      vertex 12 3 0
    endloop
  endfacet
  facet normal 0 -1 0
    outer loop
      vertex 0 3 8.75
      vertex 12 3 14
      vertex 0 3 14
    endloop
  endfacet
  facet normal 0 -1 -0
    outer loop
      vertex 12 3 14
      vertex 0 3 8.75
      vertex 12 3 8.75
    endloop
  endfacet
endsolid OpenSCAD_Model
